<?xml version="1.0" encoding="UTF-8"?>
<!DOCTYPE svg  PUBLIC '-//W3C//DTD SVG 20010904//EN'  'http://www.w3.org/TR/2001/REC-SVG-20010904/DTD/svg10.dtd'>
<svg width="268pt" height="270pt" version="1.0" viewBox="0 0 268 270" xmlns="http://www.w3.org/2000/svg">
<g transform="translate(0 270) scale(.1 -.1)">
<path d="m1250 2408c0-93 21-223 40-249 17-22 27-24 117-27 97-4 98-3 126 25 28 30 47 100 62 224l7 56-32 7c-76 15-75 16-86-89-12-108-27-134-75-131-17 1-35 9-40 17s-9 60-9 117v102h-55-55v-52z"/>
<path d="m1002 2402c-85-31-119-60-128-107-7-41 6-82 47-147 55-85 118-99 224-48 82 39 92 62 77 169-15 106-26 129-67 146-47 20-68 18-153-13zm117-119c18-63 14-81-20-98-48-25-80-16-106 30-13 22-22 46-20 54 3 20 66 51 104 51 29 0 33-4 42-37z"/>
<path d="m1681 2402c-5-9-21-57-36-107-15-49-34-112-42-138-8-27-13-50-12-51 9-8 190-78 193-75 2 2 11 19 21 38 17 33 17 35-1 48-10 7-36 19-56 25-42 12-45 21-24 70 38 90 68 169 65 172-2 2-25 10-51 19-44 15-49 15-57-1z"/>
<path d="m715 2248c-66-24-195-138-195-172 0-15 54-67 155-149l80-66 37 36c37 36 37 36 16 53-14 11-19 23-14 37 6 20 9 20 50 8 41-13 45-12 89 17 26 17 47 34 47 38 0 5-36 20-80 35l-80 27v58c0 34-5 62-13 68-20 17-60 22-92 10zm-2-131c5-15-2-67-10-67-3 0-16 10-28 22-22 21-22 24-8 40 19 21 39 23 46 5z"/>
<path d="m1908 2132-95-128 82-77 82-76 34 35 34 36-53 47c-44 40-50 50-38 60 11 10 21 6 49-18l34-30 22 23 22 24-30 35c-32 36-39 57-20 57 7 0 36-21 66-46l54-47 30 29 29 28-47 49c-47 47-144 127-155 127-4 0-49-58-100-128z"/>
<path d="m1179 1982c-36-10-91-33-123-52-186-113-288-245-336-434-96-379 170-769 553-812l59-7-3 29c-1 16-1 55-1 86l2 57 68 36c78 42 88 49 125 93 46 56 36 106-41 208l-24 31h-101c-94 0-107 2-163 31-105 53-176 153-189 265-24 201 57 321 245 361l80 18v54 54l-42-1c-24 0-73-8-109-17zm-299-473c25-173 134-314 293-377l37-15v-154c0-104-3-153-11-153-27 0-169 84-214 127-168 159-220 400-134 616 7 15 14 26 16 23 2-2 8-32 13-67zm534-425c29-28 17-58-35-84-21-11-41-20-44-20s-5 27-5 60v60h34c19 0 42-7 50-16z"/>
<path d="m1370 1948v-55l48-5c129-14 240-94 282-203 30-79 31-188 1-265-20-53-74-130-90-130-10 0-131 182-131 196 0 5 9 15 20 21 59 37 67 159 15 213-17 18-43 32-64 36-20 3-48 8-63 10-28 6-28 5-28-49 0-52 2-56 29-65 34-12 49-46 30-68-14-17-62-44-79-44-6 0-10 41-10 115v115h-60-60v-225-225h60 60v44c0 41 10 56 40 56 4 0 23-24 41-52 18-29 79-124 137-210l104-157 52 26c28 14 52 26 53 28 2 1-17 28-42 61-24 32-45 66-45 74 0 9 21 36 46 60 69 68 109 157 123 273l7 62 17-32c73-137 55-361-42-512-89-138-277-251-418-251h-33v-55-55h38c55 0 181 34 243 66 326 165 458 553 299 879-40 83-115 177-179 227-129 100-212 137-328 145l-73 6v-55z"/>
<path d="m414 1953c-66-106-119-233-150-360-23-94-28-353-9-452 16-83 16-83 32-73 7 5 6 31-4 92-19 116-11 347 16 450 29 109 46 153 100 256 27 51 46 95 43 98-9 10-17 7-28-11z"/>
<path d="m2286 1962c-3-6 8-34 25-63 79-135 134-318 145-487 6-78-3-198-22-304-5-30-3-38 8-38 20 0 36 81 44 225 10 187-33 394-117 555-48 91-74 127-83 112z"/>
<path d="m510 1894c0-4 8-13 18-20 16-13 15-14-7-11-37 3-35-18 4-42 20-11 40-21 46-21 17 0 9 17-13 28s-22 11 6 9c41-3 42 14 1 41-34 22-55 28-55 16z"/>
<path d="m2173 1887c-4-8-16-17-26-20-11-4-17-14-15-24 4-23 24-17 20 5-2 15-1 15 8 2 7-10 12-11 18-4 4 6 15 13 24 17 11 4 15 12 12 22-7 19-30 20-41 2z"/>
<path d="m2203 1838c-4-7-8-21-8-30 0-10-4-17-10-17-5 0-9 7-7 16 2 8-2 13-8 11s-11-7-11-11c1-4 1-13 1-21 0-19 30-29 46-15 8 6 14 22 14 36s4 21 10 18c6-4 8-10 5-15s-1-11 4-14c16-10 23 12 11 34-12 23-35 26-47 8z"/>
<path d="m465 1806c-22-16-15-39 19-61 35-23 68-12 64 23-4 34-56 58-83 38zm46-26c10-6 19-15 19-21 0-5-13-3-30 6-16 9-30 18-30 20 0 8 20 6 41-5z"/>
<path d="m656 1778c-32-49-85-177-101-243-20-83-24-290-6-352 15-55 43-60 31-6-18 80-21 208-7 294 15 85 61 216 98 275 10 17 19 36 19 43 0 18-19 12-34-11z"/>
<path d="m2037 1794c-3-3 12-39 33-79 66-126 84-200 85-355 0-74-3-154-8-177-6-34-4-43 7-43 18 0 36 101 36 207 0 142-37 283-103 399-31 53-38 60-50 48z"/>
<path d="m2210 1760c-33-19-34-20-12-26 15-4 19-10 13-18-11-14 4-56 20-56 7 0 9-9 5-25-8-31-5-31 44 1 57 38 54 58-9 52l-49-5 15 24c12 18 22 23 40 18 30-7 30 13 1 25-13 5-17 9-10 9 6 1 12 6 12 11 0 16-32 11-70-10zm70-94c0-3-4-8-10-11-5-3-10-1-10 4 0 6 5 11 10 11 6 0 10-2 10-4z"/>
<path d="m430 1732c0-9 64-42 80-42 23 0 7 21-26 35-41 17-54 19-54 7z"/>
<path d="m412 1687c-7-16-12-33-12-38 0-13 18-11 22 2 3 9 9 9 25 0 12-6 29-11 37-11 28 0 17 18-18 30-19 6-37 19-39 28-3 13-7 10-15-11z"/>
<path d="m2315 1630c3-5-13-14-35-21-55-17-50-27 14-25l53 1-9 28c-6 15-14 27-20 27-5 0-7-4-3-10z"/>
<path d="m387 1606c-4-10 9-23 40-40l45-26-6 25c-5 18-2 27 9 31 31 12 14 24-34 24-33 0-51-5-54-14zm60-12c-3-3-12-4-19-1-8 3-5 6 6 6 11 1 17-2 13-5z"/>
<path d="m2294 1559c-38-9-40-11-36-39 5-34 22-41 22-10 0 11 5 20 10 20 6 0 10-4 10-10 0-5 5-10 10-10 6 0 10 7 10 15s5 15 10 15c6 0 10-7 10-15s5-15 10-15c11 0 12 6 4 38-4 12-9 22-13 21-3-1-24-5-47-10z"/>
<path d="m370 1541c0-10 13-15 68-26 45-9 41 12-5 24-47 13-63 14-63 2z"/>
<path d="m371 1501c-7-5-11-19-9-32 3-21 8-24 48-24 39 0 45 3 48 23 3 22-22 42-36 27-4-4-1-10 6-12 22-8 12-23-16-23-36 0-46 10-25 25 18 14 4 28-16 16z"/>
<path d="m2277 1484c-12-12-8-54 6-59 6-2 28-1 47 3 28 6 35 12 35 32 0 22-5 25-40 28-23 2-44 0-48-4zm73-24c0-5-4-10-10-10-5 0-10 5-10 10 0 6 5 10 10 10 6 0 10-4 10-10z"/>
<path d="m357 1414c-4-4-7-18-7-30 0-27 34-40 76-30 20 5 25 12 22 34-3 24-8 27-43 30-23 2-44 0-48-4zm71-23c11-7 11-9-1-14-19-7-57 2-57 14 0 11 41 11 58 0z"/>
<path d="m2283 1399c-16-16-3-49 22-55 46-11 82 15 69 51-7 18-74 21-91 4zm72-19c4-6-8-10-30-10s-34 4-30 10c3 6 17 10 30 10s27-4 30-10z"/>
<path d="m390 1313c-19-25-20-26-15-5 5 16 2 22-10 22s-15-7-13-27c4-36 46-46 55-14 3 12 12 21 20 21 13 0 13-3 3-15-14-17-8-31 9-20 17 10 13 52-5 59-22 8-20 9-44-21z"/>
<path d="m2284 1317c3-14 2-29-4-32-5-3-10-17-10-31 0-17 5-24 20-24 11 0 20-4 20-10 0-5-9-10-19-10-42 0-28-18 17-23 50-5 64 3 60 38-2 15-12 21-40 23-50 4-48 18 2 26 45 7 54 31 18 45-68 25-71 25-64-2zm51-17c3-5-1-10-10-10s-13 5-10 10c3 6 8 10 10 10s7-4 10-10z"/>
<path d="m398 1235c-13-30-28-33-21-5 3 11 0 20-6 20s-11-13-11-30c0-25 4-30 24-30 16 0 27 7 31 20 8 26 25 26 18 0-4-16-2-19 11-14 19 7 21 35 4 52-19 19-37 14-50-13z"/>
<path d="m413 1167c-24-11-43-27-43-34 0-13 54-27 91-21 21 3 21 4 6 19-9 10-14 25-10 38 6 25 9 25-44-2zm17-27c0-5-4-10-10-10-5 0-10 5-10 10 0 6 5 10 10 10 6 0 10-4 10-10z"/>
<path d="m2262 1149c2-28 8-35 36-43 35-10 46-4 56 31 7 23 4 25-62 38-33 7-33 6-30-26zm67-8c21-14-4-22-33-11-14 5-26 12-26 15 0 8 44 5 59-4z"/>
<path d="m2074 978c-16-34-48-88-71-120-24-32-43-61-43-65 0-12 53-63 65-63 6 0 22 18 35 40 14 22 30 38 36 36s49-31 97-65l87-60 24 32c53 72 54 70-35 118-122 65-116 57-90 119 12 28 21 53 19 54-16 9-80 36-87 36-4 0-21-28-37-62z"/>
<path d="m445 1009c-65-27-93-54-106-101-9-35-7-45 27-109 20-38 48-79 62-89 24-20 25-21 12-81-15-69-9-79 47-79 31 0 32 2 44 60 6 33 15 60 19 60 5 0 35 23 68 51 61 51 88 94 84 136-3 34-46 114-76 142-36 34-114 38-181 10zm117-86c9-10 23-33 32-51 20-38 13-53-36-78-40-21-66-9-90 41-25 51-20 71 24 90 43 19 52 18 70-2z"/>
<path d="m694 718c-103-112-121-151-93-210 15-33 122-108 162-115 56-9 89 17 152 117 32 50 58 98 59 107 0 9-13 25-31 35l-31 19-54-78c-57-84-80-97-124-69-13 9-24 25-24 35 0 11 27 52 60 91s60 75 60 79c0 9-53 61-62 61-3 0-36-33-74-72z"/>
<path d="m1888 734-26-26 64-79c35-44 64-88 64-98 0-20-27-48-50-51-37-5-49 5-100 83-29 45-54 83-56 85-5 7-74-33-74-44 0-6 8-22 18-35s35-53 54-89c50-91 68-105 133-105 127 0 229 144 163 231-34 46-141 154-153 154-6 0-22-12-37-26z"/>
<path d="m966 488c-32-68-62-131-67-140-5-10-9-22-9-28 0-14 91-53 101-43 6 7 87 225 105 283 4 11-7 21-31 33-20 9-37 17-39 17-1 0-28-55-60-122z"/>
<path d="m1585 571-81-26 23-135c30-180 30-180 54-180s113 23 177 47c37 13 42 18 36 36-23 76-23 75-100 52-60-18-77-19-72-3 3 7 22 18 44 24 33 9 39 15 36 35-5 45-9 50-37 39-37-14-65-12-65 4 0 8 20 19 48 26 26 7 50 15 54 17 8 4-21 93-30 92-4-1-43-13-87-28z"/>
<path d="m1216 523c-6-22-56-280-56-292 0-4 26-11 57-15 60-7 73 0 73 40 0 15 14 26 56 44 78 32 144 96 144 139 0 18-4 40-10 50-16 32-83 51-175 51-71 0-84-3-89-17zm141-100c5-14-32-53-50-53-9 0-12 11-9 36 4 31 7 35 30 32 14-2 27-8 29-15z"/>
</g>
</svg>
