<svg xmlns="http://www.w3.org/2000/svg" xmlns:xlink="http://www.w3.org/1999/xlink" width="905.509" height="1083.43"
     viewBox="0 0 905.509 1083.43">
  <defs>
    <clipPath id="a">
      <path
        d="M-1635.943,1121.357a21.356,21.356,0,0,0,1.284-4.612,4.33,4.33,0,0,1,1.111-2.409c.54-.465.938-1.159.837-1.552s.764-2.471,1.942-4.619a22.99,22.99,0,0,0,2.149-5.737l.037-1.775-1.508,2.15a10.09,10.09,0,0,1-2.541,2.621,1.534,1.534,0,0,0-.7,1.78,4.661,4.661,0,0,1-.851,3.1,4.942,4.942,0,0,0-.968,2.637,1.374,1.374,0,0,1-.887,1.355c-.887.4-.971.076-.264-2.3.611-2.108.572-2.9-.346-3.577-.827-.649-.929-1.041-.241-1.574,1.005-.9,2.347-5.608,1.621-5.863s-2.37,2.323-2.133,3.241a3.8,3.8,0,0,1-1.071,2.244,3.718,3.718,0,0,0-.951,2.7,2.547,2.547,0,0,1-.685,2.142c-.539.465-1.09.569-1.175.241-.1-.393-.391-.554-.686-.42-.722.4-3.349,7.161-3.128,8.014a.871.871,0,0,1-.57.991c-1.181.537-1.354-1.728-.244-3.184,1.541-2.019-.058-2.463-3.273-.855-2.936,1.409-3.608,2.959-1.508,3.1.675.059.334.653-1,1.554-2.489,1.864-3.657,1.809-2.757-.138,1.207-2.673,1.842-5.964,1.156-6.385-.4-.258-.237-.917.269-1.514a3.948,3.948,0,0,0,.781-2.406,4.946,4.946,0,0,1,1.265-2.772,4.155,4.155,0,0,0,1.139-2.935,5.934,5.934,0,0,1,.6-3.126,13.141,13.141,0,0,0,1.363-3.989,23.5,23.5,0,0,1,2.336-5.969c1.633-2.94,1.7-3.631.79-4.607-.572-.618-1.331-1.005-1.627-.871-.59.269-1.645,3.532-1.579,4.747.085.328.106,1.05.208,1.443.044.492-.575,1.287-1.41,1.886-1.113.8-1.217,1.359-.594,2.174,1.048,1.5-.833,6.677-2.326,6.33-1.474-.281-4.154,3.721-4.886,7.276a32.456,32.456,0,0,1-1.113,4.315c-.365.824-.236,1.644.127,1.772a.748.748,0,0,0,.876-.764,7.669,7.669,0,0,1,.963-2.342,3.832,3.832,0,0,0,.526-2.436c-.254-.983.787-2.7,1.514-2.445.833.353-1.886,8.033-2.993,8.537a7.724,7.724,0,0,0-2.456,2.948c-1.275,2.411-2.69,3.641-2.978,2.526a1.823,1.823,0,0,1,.468-1.384c.375-.464.421-.924.115-1.151s-.2-.786.3-1.382a9.4,9.4,0,0,0,1.276-3.363c.4-2.3.4-2.3-.645-.585-1.889,2.91-3.058,2.855-1.77-.147.6-1.517,1.651-2.875,2.331-3.111a5.594,5.594,0,0,0,1.983-1.268c1.069-1.292.482-2.928-.847-2.324-1.551.706-1.623-.214-.223-2.462,1.115-1.752,1.082-1.883-.376-2.1-1.31-.283-1.254-.382.575-1.287,1.476-.671,1.908-1.234,1.654-2.217a1.618,1.618,0,0,1,.769-1.814c.59-.269,1.022-.832.938-1.159-.1-.393.348-.89.939-1.159.812-.369.915-.929.258-1.875a2.039,2.039,0,0,1-.082-2.233c.507-.6.331-.956-.536-1.44-1.049-.548-.992-.648.217-.758,1.118-.142,1.51-.541,1.552-1.658a2.225,2.225,0,0,1,.917-1.882,3.776,3.776,0,0,0,1.36-2.083c.541-1.418.275-1.81-1.342-2.319a5.487,5.487,0,0,0-2.626-.27c-.887.4-2.111,3.01-2.489,5.379-.292,1.744-2,3.765-2.888,3.511-.834-.354.2-4.339,1.307-4.842a1.434,1.434,0,0,0,.854-1.487c-.321-1.246,3.139-7.653,4.394-8.223,1.033-.47,1.564,1.266.542,2.1-.41.333.163.951,1.194,1.434,1.106.449,2,.7,2.11.5,1.116-2.7,1.984-5.736,1.814-6.391-.1-.392.782-2.406,1.993-4.421,2.18-3.7,2.46-4.854,1.029-4.642-1.339.243-.021-4.237,1.455-4.909a1.61,1.61,0,0,0,.866-2.078,15.216,15.216,0,0,1-.318-3.15c.082-1.282-.134-1.477-.935-.747-1.75,1.529-2.485-.041-1.21-2.452,1.065-1.948,1.094-2.474.062-2.957s-.919-.68.779-1.453,1.868-1.07,1.054-2.31c-.691-1.077-.571-1.571.389-2.007.812-.37,1.022-.832.558-1.353-.482-.587-.179-1.017,1.149-1.621a3.384,3.384,0,0,1,2.384-.352c.81.583,2.066.013,1.845-.84-.1-.393-.686-.42-1.276-.151a1,1,0,0,1-1.412-.676c-.281-1.41.932-4.378,1.675-4.057.346.062.534-.17.433-.563a1.1,1.1,0,0,0-1.026-.778c-1.425-.085-1.235-1.269.315-1.975,1.7-.772,2.673-3.705,1.7-5.24-.833-1.306,1.645-3.531,2.943-2.657.6.388.568-.039.025-1.183-.775-1.4-.609-2.36.8-4.9.877-1.716,1.572-3.5,1.453-3.956-.3-1.475,2.507-6.266,3.716-6.376.715-.105,1.107-.5.955-1.094-.118-.458-1.009-.713-1.929-.441-1.01.24-.454-.159,1.188-.833,2.543-1.011,2.936-1.409,2.648-2.523a2.129,2.129,0,0,0-2.131-1.228c-1.373.112-1.8-.278-1.8-1.526.059-1.052-.241-1.574-.758-1.339-.444.2-1-.352-1.235-1.269a2.516,2.516,0,0,0-2.1-1.753c-2.792-.268-3.33-4.271-1.12-9.45.963-2.342,2.809-6.7,4.113-9.633,1.213-2.968,2.131-5.8,2.013-6.261a.954.954,0,0,1,.773-1.157c1.232-.341,8.1-12.4,7.763-13.71a8.667,8.667,0,0,1,.692-3.39,14.278,14.278,0,0,0,.668-5.722c-.244-3.184.275-4.372,1.589-3.432.306.227,1.793-.084,3.27-.755,2.288-1.041,3.112-2,5.395-6.262,2.852-5.251,3.138-6.7,1.183-5-1.006.9-1.023.831-.408-.621.535-1.122.944-1.454,1.539-1.067,1.009.714,3.135-1.279,2.4-2.191a1.193,1.193,0,0,1,.327-1.613,1.99,1.99,0,0,0,.678-1.846c-.135-.525.338-1.252,1.058-1.653.738-.336.835-.6.267-.561-1.849.182-1.5-1.66.516-2.8,2.237-1.237,2.159-1.861-.927-5.51-2.107-2.41-2.158-2.607-1.106-3.964a3.647,3.647,0,0,0,.866-2.078c-.27-1.048,3.564-6.966,4.892-7.571,1.625-.739,2.082,1.031.586,2.589a8.975,8.975,0,0,0-1.719,3.565,25.41,25.41,0,0,1-1.38,3.923c-.616,1.451-.581,1.582.452,1.112a1.5,1.5,0,0,0,1-1.554,1.431,1.431,0,0,1,.853-1.486c1.4-.638,3.536-3.879,3.265-4.927a1.1,1.1,0,0,1,.518-1.187,1.046,1.046,0,0,0,.5-1.254c-.118-.459.394-1.351,1.156-1.917a2.375,2.375,0,0,0,1.02-2.441c-.288-1.114-.043-1.444,1.222-1.654s1.51-.541,1.172-1.851a3.682,3.682,0,0,1,1.22-3.264,12.016,12.016,0,0,0,2.192-4.292,7.519,7.519,0,0,1,1.629-3.6,1.61,1.61,0,0,0,.48-1.976c-.549-.85-.378-1.147,1.092-1.522,1.38-.408,1.772-.806,1.552-1.658s-.031-1.084.841-.9,1.282-.144,1.694-1.429c.33-.956.332-1.909.043-2.07-.613-.454-3.892,2.5-3.705,3.223.085.328-.234.692-.751.927-.664.3-.715.106-.2-.787a3.557,3.557,0,0,0,.379-2.369c-.186-.721.212-1.415,1.172-1.851a2.622,2.622,0,0,0,1.5-2.511c0-1.905.787-2.7,1.887-1.957,1.315.94,1.923-.216.99-1.915a3.673,3.673,0,0,1-.016-3.58c.99-1.915.112-2.761-1.151-.941-.586.925-.858.829-1.213-.546-.237-.918-.734-1.57-1.031-1.435-1.181.537-2.823,5.678-2.4,7.316.287,1.114.053,1.806-.514,1.845-1.1.208-2.534-5.658-2.519-10.718a34.315,34.315,0,0,0-.723-5.675c-.389-1.508-.449-3.018-.13-3.382a6.025,6.025,0,0,0,.425-2.83,39.527,39.527,0,0,1,.742-5.756,17.236,17.236,0,0,0,.445-4.669,7.023,7.023,0,0,1,.675-3.456,17.11,17.11,0,0,0,.932-4.378c.028-3.089-1.773-1.757-2.415,1.831-.326,1.613-.859,4.344-1.167,6.023a14.468,14.468,0,0,0-.336,3.814,11.882,11.882,0,0,1-.534,3.685,33.189,33.189,0,0,0-.681,7.267,30.891,30.891,0,0,1-.522,6.608,11.7,11.7,0,0,0-.008,4.764,21.706,21.706,0,0,1,.475,4.4l-.094,1.874-1.258-1.039c-1.456-1.168-2.625-8.253-1.742-10.265a5.336,5.336,0,0,0-.046-3.055,3.685,3.685,0,0,1,.073-2.6,4.437,4.437,0,0,0,0-2.858,5.078,5.078,0,0,1,.329-3.518,3.951,3.951,0,0,0,.549-2.667,6.94,6.94,0,0,1,.806-3.588c1.024-1.784.979-2.276.112-2.76-.851-.418-.945-1.108-.278-3.316.851-3.1.834-3.162-4.267-6.627-2-1.36-3.221-1.611-4.549-1.006-1.033.47-1.913.577-2,.249q-.228-.884-5.6.351a2.621,2.621,0,0,1-2.938-1.154,8.774,8.774,0,0,0-3.219-2.564c-1.882-.9-2.34-1.717-3.315-5.814-.1-.424-.195-.809-.277-1.165h-72.074a10.094,10.094,0,0,1-1.137,1.2,9.04,9.04,0,0,0-2.525,3.639,26.965,26.965,0,0,1-2.341,5.312c-6.255,11.56-10.377,19.878-10.208,20.534a4.952,4.952,0,0,1-.969,2.637,5.378,5.378,0,0,0-.631,3.948,6.594,6.594,0,0,1-.58,4.145c-1.065,1.949-1.917,2.482-7.969,5.235-6.349,2.888-6.9,2.992-7.919,1.918a2.55,2.55,0,0,0-2.587-.435,2.293,2.293,0,0,1-2.5-.4,6.789,6.789,0,0,0-3.964-.979c-5.652.154-7.6-.057-8.193-.742a1.17,1.17,0,0,0-1.554.049,1.693,1.693,0,0,1-2.117-.209,2.185,2.185,0,0,0-2.3-.274,2.869,2.869,0,0,1-2.626-.27c-1.48-.938-1.423-1.037-.117-1.411a1.829,1.829,0,0,0,1.461-1.689c0-.953-.344-1.015-1.22-.251-.948.8-1.147.668-1.133-.876.037-1.775-.161-1.9-2.994-1.055-1.987.611-3.156.557-3.326-.1-.2-.787-.441-.751-1.1.208-1.263,1.82-1.885,1-2.938-3.716-.885-4.064-.919-4.2,1.931-8.494a23.316,23.316,0,0,0,2.732-4.757c-.05-.2-1.3.735-2.733,2.2a21.625,21.625,0,0,1-3.591,3.025,3.186,3.186,0,0,0-1.358,1.13c-.511.892-5.106,2.908-6.365,2.821-.767-.091-.4-.915.935-2.768a15.014,15.014,0,0,1,2.916-3.084,15.763,15.763,0,0,0,3.268-3.317A15.746,15.746,0,0,1-1758,829.99a1.343,1.343,0,0,0,.763-1.518c-.254-.983-.4-.916-1.9.939a7.7,7.7,0,0,1-3.357,2.332c-1.948.446-6.646,3.974-10.289,7.755-2.336,2.454-5.363,3.83-5.667,2.651-.086-.328.511-.891,1.324-1.261,1.255-.571,1.318-.966.488-3.224-1.165-2.912-1.652-3.2-2.795-1.878a5.731,5.731,0,0,1-2.5,1.5c-.976.371-1.664.9-1.563,1.3s-.478,1.022-1.364,1.426l-1.477.671,1.02-2.441c.65-1.32.828-2.867.454-3.355a1.432,1.432,0,0,1,.406-1.942c.6-.564.881-1.06.518-1.188-.29-.161-1.188.833-2,2.155-1.611,2.709-3.132,2.888-1.76.214.877-1.717.492-2.568-.985-1.9-.369.167-.4.693.032,1.084.481.586.106,1.05-1.518,1.788-2.731,1.243-3.008.49-1.621-4.682a29.145,29.145,0,0,0,.967-4.247,31.483,31.483,0,0,0-2.953,4.858c-2.414,4.393-2.789,4.856-2.417,2.784a32.141,32.141,0,0,1,1.666-5.371c1.407-3.5.156-4.83-1.5-1.661a7.292,7.292,0,0,1-2.91,2.787c-1.681.838-1.738.937-.405.99,2.1.143,2.041,1.2-.23,2.3-1.181.536-1.573.935-1.006.9,1.045-.109,1.813,1.592.928,1.994-1.273.506-3.648-.391-3.936-1.5a7.236,7.236,0,0,1,.766-3.424,13.224,13.224,0,0,0,.9-4.805,6.673,6.673,0,0,1,1.067-3.854,3.437,3.437,0,0,0,1.013-2.145,7.048,7.048,0,0,1,1.271-3.068,6.349,6.349,0,0,0,1.135-3.592,7.57,7.57,0,0,1,1.086-3.217h-186.187v-640h609.91c2.019-3.25,3.931-6.4,4.656-7.663,1.929-3.074,3.434-4.271,2.415-1.831-.734,1.732-2.77,5.7-4.821,9.493h15.7c.158-1.016.078-1.822-.176-1.912-.255-.03.41-.332,1.4-.638,1.47-.375,1.919-.873,1.91-2.186.071-1.643.145-1.678,1.744-1.233,1.69.476,1.821.344,4.382-4.117,1.519-2.741,2.448-5.215,2.211-6.132-.49-1.9.522-3.093,1.763-2.119.844.714,1.066.613,2.2-1.369a5.831,5.831,0,0,0,.841-3.458c-.254-.983-.026-1.379.927-1.52.806-.074,1.647-.968,2.313-2.224l1.013-2.145,2.989,1.35,3.062,1.317,3.487-2.465a36.521,36.521,0,0,0,5.024-4.189c1.421-1.525,1.569-1.592,1.521-.179-.1,1.217.174,1.312,1.066.614a13.247,13.247,0,0,0,1.813-1.923c.791-1.092,2.078-.579,1.379.545a3.841,3.841,0,0,0,.007,2.266c.265,1.345.52,1.374,1.861.179.949-.8,1.613-1.1,1.715-.706.355,1.376,2.2-.417,4.274-4.215a27.937,27.937,0,0,1,3.805-5.392,11.7,11.7,0,0,0,2.43-4.327,9.987,9.987,0,0,1,1.475-3.234,6.954,6.954,0,0,0,1.265-2.772,5.674,5.674,0,0,1,1.854-3.04,11.086,11.086,0,0,0,2.752-3.083,13.143,13.143,0,0,1,2.456-2.947,13.347,13.347,0,0,0,2.354-3.341c1.787-3.3,4.465-6.351,6.311-7.191q1.107-.5,1.615,1.463c.473,1.835.729,1.866,3.165.758,1.919-.873,3.639-.923,6.44-.293,2.183.471,4.414.482,5.192-.018,1.573-.936,4.143-.567,4.465.679.135.524.776.452,1.611-.148.761-.566,1.46-.737,1.562-.344s1.713.246,3.626-.331c2.5-.846,3.508-.79,3.712,0a2.6,2.6,0,0,0,1.467,1.53c2,.7,3.4,8.7,2.333,13.511-.487,2.272-1.188,4.348-1.557,4.516a16.183,16.183,0,0,0-2.667,3.41,12.869,12.869,0,0,1-3.406,3.745c-.812.37-1.358,1.13-1.222,1.655s-.411,1.285-1.223,1.654c-1.994.906-1.384,3.266.727,2.818.937-.206,1.623.214,1.735.968l.71,2.753c.469,1.177.724,1.208,1.384.248,1.849-2.744,3.76,1.146,2.245,4.544-.251.627-.3,1.087,0,.953,1.107-.5-.991,5.43-3.244,9.164-2.293,3.9-2.367,3.933-.454,3.356,2.833-.85,4.268-.4,3.539,1.246-.8,1.684.2,2.035,1.345.414.66-.959.955-1.094,1.328-.6s1.078.022,2.482-1.569c2.245-2.486,4.324-3.064,5.422-1.367.832,1.306,1.456,1.168,2.424-.517.4-.694.75-.927.818-.665.085.328.568-.039,1.04-.766.717-1.058,1.16-1.26,2.215-1.007a2.205,2.205,0,0,1,1.53,1.135c.169.655.555.553,1.88-.708.914-.929,1.558-1.954,1.456-2.347-.186-.721,2.187-4.949,3-5.318a34.793,34.793,0,0,0,3.542-4.174,23.086,23.086,0,0,1,3.838-4.308,1.111,1.111,0,0,0,.592-1.221c-.238-.917,1.493-4.121,2.379-4.523.3-.134.635.223.77.748s.549.849.844.715c.739-.336,2-5.67,1.646-7.046a.9.9,0,0,1,.848-1.192,3.692,3.692,0,0,0,2.125-1.992c.553-1.057,1.394-1.952,1.961-1.99s.966-.733,1-1.554a2.473,2.473,0,0,1,1.229-1.95c.664-.3,1.1-.865,1.012-1.193-.1-.393.632-1.386,1.58-2.183,1.08-.931,1.5-1.854,1.145-2.278-.589-.684,1.51-4.055,3.875-6.083,1.005-.9,1.2-.767,1.066.614-.088,1.578-.088,1.578.823-.008.586-.925.752-1.879.446-2.107-.794-.517,2.489-5.378,5.432-8.035,1.865-1.727,2.115-2.354,1.475-3.235s-.486-1.243.7-1.78c.886-.4,1.448-1.1,1.313-1.623s.542-1.417,1.36-2.083a29.549,29.549,0,0,0,4.684-5.5c1.695-2.381,3.753-4.636,4.639-5.038s1.449-1.1,1.33-1.557c-.287-1.114,2.927-6.238,4.33-6.876.664-.3,1.1-.865.995-1.258s.513-.892,1.375-1.065,1.477-.671,1.375-1.065c-.338-1.31,6.212-9.489,9.348-11.721.2-.167.875-.764,1.6-1.461a4.632,4.632,0,0,1,3.548-.955c2.668.105,7.754-1.916,8.722-3.6.4-.694,1.557-1,3.821-.859,6.264.3,8.041.15,11.225-.932,2.34-.844,3.492-.856,3.933-.1a1.4,1.4,0,0,0,1.724.607c1.476-.671,3.617,1.87,4.479,5.213.66,2.555.437,3.609-1.237,6.713-1.349,2.444-2.549,3.869-3.411,4.042-1.488.31-4.082,4.639-7.778,12.691-1.02,2.441-2.289,4.556-2.731,4.757s-.5-.356-.01-1.314a10.1,10.1,0,0,0,.863-3.688,2.941,2.941,0,0,1,.724-2.307c.443-.2.586-.925.4-1.646-.456-1.769-.808-1.536-4.034,3.226a30.077,30.077,0,0,1-4.333,5.266c-2.193,1.73-4.165,6.874-3.573,9.167.423,1.639.173,2.265-1.219,3.264-1.187.833-1.642,1.626-1.292,2.345s-.065,1.347-1.286,2.049l-1.778,1.1,1.145-2.278a11.892,11.892,0,0,0,1.345-4.054l.111-1.808-2.053,2.911a16.044,16.044,0,0,1-2.956,3.249,1.218,1.218,0,0,0-.633,1.386,1.133,1.133,0,0,1-.41,1.285,11.56,11.56,0,0,0-1.744,1.232c-.744.632-1.165.6-1.35-.118-.152-.59.456-1.746,1.406-2.543s1.591-1.823,1.473-2.282c-.237-.917,2.467-6.1,3.426-6.538,1.255-.571,3.74-4.045,3.128-4.5-.306-.228-1.067.338-1.71,1.364-1.513,2.445-3.55,1.907-2.456-.567.558-1.353.484-1.319-.779.5-.864,1.125-2.452,3.6-3.567,5.357-2.4,3.8-5.214,6.325-4.955,4.451.126-.789-.2-1.083-.934-.746-2.141.973-2.3-.274-.607-3.312,1.536-2.677,1.582-3.136.466-3.947-1.5-1-2.2-.833-2.39.648a4.5,4.5,0,0,1-1.671,2.152c-1.114.8-1.443.8-1.334-.053.172-1.25-1.059-.909-1.453.442-.211.462.4,1.211,1.319,1.6,1.486.643,1.52.773-.489,4.177a17.549,17.549,0,0,1-2.731,3.8,2.054,2.054,0,0,0-.91,1.586,1.776,1.776,0,0,1-1.694,1.429,3.216,3.216,0,0,0-2.12,1.7c-.591,1.221-.263,1.218,2.4.009a9.323,9.323,0,0,0,4.051-3.161c1.286-2.049,3.571-4.7,4.457-5.1.3-.135.861.779,1.273,2.057.514,1.67.427,2.3-.452,2.4-1.612.147-3.181,1.739-2.91,2.788a1.126,1.126,0,0,1-.575,1.286,13.8,13.8,0,0,0-2.889,3.511,12.878,12.878,0,0,1-3.4,3.746c-.813.369-1.375,1.065-1.24,1.589s-.524,1.484-1.507,2.15c-.967.733-1.626,1.691-1.473,2.282a2.3,2.3,0,0,1-.826,1.913c-.876.764-.841.9.089.985,1.623.214,2.253-.22,1.966-1.334a1.072,1.072,0,0,1,1.778-1.1c.488.291,1.158-.308,1.972-1.63a17.182,17.182,0,0,1,6.836-6.111c.959-.437,1.67-1.2,1.552-1.658-.2-.787,5.612-7.02,5.832-6.168.186.721-3.6,6.835-4.483,7.239a4.285,4.285,0,0,0-1.445,1.755c-.535,1.122-.961,1.389-1.851,1.135-.965-.221-1.226.045-1.358,1.13a25.753,25.753,0,0,1-.545,3.323c-.286,1.449-.077,1.94,1.012,2.323,1.2.481,1.623.214,3.754-2.074,3.332-3.712,4.285-3.853,2.441-.451-1.121,2.048-1.264,2.772-.452,2.4,1.255-.571,3.019-3.643,2.732-4.757a1.165,1.165,0,0,1,.757-1.222,6.977,6.977,0,0,0,2.194-2.683c1.178-2.146,1.161-2.212-.445-2.361-2.445-.206-2.335-1.061.184-1.841,1.823-.609,2.46-1.338,3.935-4.572,1.247-2.838,2.014-3.7,2.74-3.443s.6,1.045-.589,2.83c-1.417,2.183-2.348,6.561-1.241,6.057.59-.269,8.912-15.331,8.759-15.92a33.628,33.628,0,0,1,2.012-5.308c1.435-3.07,2.152-4.127,2.036-2.977q-.147,1.825,1,1.961c.948.155.89.255-.063.4-1.193.176-2.727,1.9-2.507,2.751.068.262,1.669-.247,3.622-.988,4.35-1.686,5.263-1.661,3.87.291-1.28,1.753-3.608,2.959-3.845,2.041-.1-.393-.538-.487-.981-.286-.518.236-.513.893.02,1.676.6,1.045.417,1.934-.994,3.821-1.052,1.357-1.707,2.973-1.522,3.694a1.616,1.616,0,0,1-.769,1.814c-1.477.671-3.451,4.207-3.1,5.583.169.655-.657,2.569-1.805,4.189-1.206,1.72-1.9,3.2-1.589,3.432s.26.688-.115,1.151-.421.924-.115,1.151.26.688-.115,1.151a2.252,2.252,0,0,0,.229,2.165c.532.783.554,1.506.037,1.741a.789.789,0,0,1-1.066-.614c-.135-.524-.549-.849-.844-.714-1.182.537-4.193,6.447-4.059,7.924a4.079,4.079,0,0,1-1.174,2.8c-1.978,1.925-3.864,6.444-3.173,7.521.549.849.7.781.818-.665.208-2.072,4.967-7.6,7.55-8.78a4.214,4.214,0,0,0,2.319-2.519,4.126,4.126,0,0,1,1.876-2.318,1.641,1.641,0,0,0,1.138-1.982c-.254-.983.178-1.546,1.581-2.183,2.14-.974,2.428.14.574,2.228a31.785,31.785,0,0,0-2.752,4.035c-1.5,2.512-1.463,2.642.024,2.333a5.711,5.711,0,0,0,2.721-1.6c1.625-1.691,2.25-1.829,1.561-.344-.495.958-.32,1.317.735,1.57,2.274.5,2.141,2.541-.177,4.108a5.612,5.612,0,0,1-3.316,1.216c-1.838-.41-3.905,4.046-2.773,5.874.707,1.143.661,1.6-.225,2.006a2.426,2.426,0,0,0-1.3,1.688c-.292,1.743-1.468,1.985-1.857.478-.237-.918-.855-1.076-1.888-.606-1.329.6-1.544.41-1.53-1.135.031-1.479-.167-1.608-1.117-.81-1.432,1.164-5.044,6.981-4.859,7.7.085.328,1.021.121,2.055-.348,1.551-.7,1.7-1.068,1.065-1.948s-.486-1.244.7-1.781c1.7-.772,2.162-.251,1.194,1.434-.455.793-.3,1.383.525,2.032,1.887,1.558,1.636,2.184-1.345,4.054-2.409,1.535-2.785,2-2.145,2.879,1.139,1.533.7,4-.773,4.672a4.36,4.36,0,0,0-1.727,1.3,5.946,5.946,0,0,1-2.375,1.666,4.014,4.014,0,0,0-2.359,2.684c-.394,1.351-.787,1.749-1.512,1.493-1.271-.447-3.152,1.213-2.8,2.59.22.851.458.816,1.118-.143s1.03-1.127,1.534-.77c.414.325-.23,2.3-1.54,4.581-2.584,4.691-2.7,8.7-.349,8.873a1.481,1.481,0,0,1,1.41,1.629c-.048,1.413.026,1.38,1.584-.574.955-1.094,1.49-2.216,1.2-2.377-.215-.2.229-1.349,1-2.507a5.992,5.992,0,0,0,1.186-3.395,4.743,4.743,0,0,1,2.714-4.823c1.681-.838,2.31-.319,1.241.973-.432.563-.4.99.247,1.279.471.226,1.132,1.829,1.481,3.5.472,2.787.7,3.047,1.818,2.248a2.364,2.364,0,0,0,1-2.21c-.2-.787.2-1.48,1.156-1.917.812-.369,1.358-1.13,1.206-1.72-.186-.721-.68-.716-1.629.082-2.324,1.862-2.144-.636.163-2.564,1.3-1.031,1.966-1.333,1.846-.84-.193.527,1.021.121,3.219-.951,2.9-1.54,3.7-2.27,4.813-4.679,2.255-4.687,5.549-10.139,6.435-10.543q.887-.4,1.1,2.354c.342,2.921,1.446,4.322,2.589,3,.449-.5.829-.3,1.015.417s-.1,1.512-.564,1.649c-3.265,1.411-4.271,2.309-4.546,4.117a3.454,3.454,0,0,1-1.5,2.512c-.96.437-.983.666-.041,1.117,1.684.772-.492,2.567-3.143,2.527-1.918-.079-1.934-.145-1.057-1.862.495-.958.695-1.78.5-1.91-.256-.031-2.7,3.936-5.542,8.891-4.843,8.72-4.9,8.819-.975,2.933,3.664-5.62,4.187-6.151,6.741-6.8,2.152-.612,2.588-.518,2.11.5a3.325,3.325,0,0,1-2.079,1.532c-1.487.31-1.76,1.166-1.026,2.737.158.293-.194.527-.835.6a3.585,3.585,0,0,0-2,1.2c-.751.928-.717,1.058.3,1.18,1.26.086,1.035,2.092-.225,2.006-.839-.058-2.008,3.4-1.192,3.691.273.1.426-.266.291-.791-.186-.721-.039-.788.573-.334.885.55,3.2-1.017,2.948-2a.868.868,0,0,1,.586-.926c.886-.4,4.631-7.305,4.469-8.257-.288-1.114,3.9-6.608,4.623-6.057.38.194.3,1.18-.191,2.138-.609,1.156-.622,1.747.1,2a1.069,1.069,0,0,1-.627,2.043c-1.4-.315-3.853,3.29-3.4,5.06.508,1.966,2.434.8,4.13-2.537,1.6-3.071,2.491-3.77,4.125-3.194.725.256.606.749-.685,2.142a13.3,13.3,0,0,1-2.659,2.161c-1.329.6-.923,2.177.66,2.556.964.22,1.209-.111,1.222-1.654.088-1.578.39-2.008,1.876-2.318a4.073,4.073,0,0,0,2.87-2.623,15.1,15.1,0,0,1,2.019-3.042c.689-.532-.3-1.18-2.935-2.106-3.686-1.18-3.885-1.309-2.776-2.766a7.594,7.594,0,0,1,1.592-1.822,5.6,5.6,0,0,0,.714-2.668l.271-2.466-1.571,2.544c-.887,1.356-1.814,2.876-1.968,3.239a2.548,2.548,0,0,1-1.614,1.1c-1.067.339-.981-.286.538-3.028a13.609,13.609,0,0,0,1.675-4.057c-.1-.393.922-1.224,2.291-1.993,2.016-1.137,2.419-1.174,2.213-.054-.345,2.5.961,2.126,2.816-.915,2.156-3.47,4.286-4.805,4.76-2.97.355,1.376-.556,2.962-2.595,4.329a1.72,1.72,0,0,0-.765,2.471,5.007,5.007,0,0,1-.868,3.983c-2.2,3.635-1.416,4.744,1.047,1.5,1.019-1.488,2.507-2.751,3.148-2.823,1.028-.175,1.011-.239-.038-.787-1.123-.515-1.076-.976.413-3.191a10.588,10.588,0,0,1,2.588-3.081c.443-.2.7-1.124.463-2.041-.3-1.18-.054-1.806.98-2.277a3.692,3.692,0,0,0,1.75-1.528,2.433,2.433,0,0,1,1.308-1.327c.738-.336,1.106.449,1.554,3.467.759,4.855.094,8.671-1.781,10.037-1.8,1.332-1.862.774-.359-2.033,1.9-3.5-.236-1.87-2.341,1.8-1.327,2.214-1.709,3.926-1.411,5.4.366,1.738-.614,4.014-5.929,13.461-3.869,6.739-6.335,11.889-6.188,12.774a3.3,3.3,0,0,1-.822,2.57c-.58.63-.763,1.519-.423,1.877.821.944-11.186,21.856-15.234,26.626-1.012,1.193-1.678,2.448-1.56,2.906.221.852-3.614,6.77-5.512,8.365a5.862,5.862,0,0,0-1.452,3,5.022,5.022,0,0,1-2.281,3.307,5.879,5.879,0,0,0-2.435,3.671,4.349,4.349,0,0,1-1.5,2.807,2.889,2.889,0,0,0-1.02,2.441,10.524,10.524,0,0,1-1.033,3.985c-.934,1.815-1.746,5.7-1.442,6.88a6.106,6.106,0,0,0,2.824,1.352,7.284,7.284,0,0,1,3.531,2.495c.6,1.045,1.433,1.4,2.319,1,2.879-1.31,9.632,8.874,8.009,12.175-.479,1.022-.354,1.185.827.648a6.294,6.294,0,0,0,2.216-1.959c1.718-2.612-1.919,4.388-7.064,13.538-3.568,6.31-5.026,9.609-4.545,10.2.5.652.14,1.182-1.155,1.917a8.863,8.863,0,0,0-2.812,2.525c-3.493,5.323-5.523,8-6.409,8.407-.739.336-.688.532.129.82.544.192,2.951-.391,5.331-1.4,2.4-.943,4.491-1.456,4.739-1.13.731.913,1.811-.018,1.49-1.263-.18-1.017-.089-.985.936-.207a13.4,13.4,0,0,0,2.818,1.648,3.345,3.345,0,0,1,1.936,2.708c.3,2.427,2.931,4.964,4.555,4.226.886-.4,1.011-.24.5.652-.911,1.586-.634,2.338.695,1.734.59-.269,1.175-.242,1.277.151a.9.9,0,0,1-.5.958c-.369.167-.666,1.255-.673,2.5a9.279,9.279,0,0,1-1.516,4.352c-2,2.812-.783,3.359,2.387,1.257,2.244-1.533,2.922-3.38.741-2.241-1.22.7-1.187.833-.427-2.3.285-1.448,1.083-2.836,1.673-3.1a1.681,1.681,0,0,0,.644-1.977,5.1,5.1,0,0,1,.8-3.293,4.517,4.517,0,0,0,.868-3.031c-.237-.917-.673-1.012-1.713-.246-.761.566-1.477.671-1.578.278-.221-.851-.221-.851,4.01-3a17.693,17.693,0,0,0,3.2-1.969c.04-.165.8-1.683,1.7-3.335,1.274-2.411,1.4-3.2.551-3.619q-2.118-1.014,1.758-2.777c1.476-.671,1.983-1.267,1.836-2.153-.152-.59.674-2.5,1.806-4.19,2.565-3.8,5.722-5.313,9.029-4.326,1.979.637,2.6.5,4.241-.831a7,7,0,0,1,3.288-1.642,4.768,4.768,0,0,0,1.873-.413c1.188-.832.019,2.628-1.944,5.571-2.059,3.207-2.116,3.306-.449,4.012a2.133,2.133,0,0,1,1.6,2.35c-.1,1.216.241,1.574,1.49,1.3,2.038-.415,2.257.437,1.055,3.767a9.828,9.828,0,0,0-.073,6.11c.812,3.146.619,6.236-.574,10.879a2.4,2.4,0,0,0,.807,2.489c.952.812,1.054,1.205.44,1.7a1.96,1.96,0,0,0-.423,1.876c.321,1.246.661,1.6,3.874,4.462,1.258,1.039,1.535,1.792,1.08,2.585s-1.46.737-3.654-.1c-3.953-1.57-6.429-.3-5.912,2.982.326,1.9.666,2.26,2.572,1.978s2.247.076,2.981,2.6c.785,2.719.688,2.983-.816,3.227-2.844.488-3.122.688-3.028,2.329.133,1.477-1.761,4.682-3.09,5.287-.369.167-.794-.518-1.048-1.5-.355-1.376-.627-1.472-1.139-.58s-1.046,1.061-2.3.68-1.7-.181-2.487.911c-1.263,1.82-.9,2.6.8,1.832,3.027-1.377,3.357,1.183.532,4.3a7.151,7.151,0,0,1-2.931,2.065c-.954.141-.994.306,0,.657a2.725,2.725,0,0,1,1.393,1.563,4.7,4.7,0,0,0,2.187,2.081c1.808.935,1.893,1.263,1.272,3.01-1.193,3.692-.968,5.2.758,4.855,1.562-.344,1.958-.085,3.508,2.725.883,1.5,1.031,1.436,4.932-.706,3.606-2.006,4.066-2.142,4.774-1a2.515,2.515,0,0,0,2.6.8c1.562-.344,1.992.046,2.5,2.012a9.062,9.062,0,0,1-.109,4.37,4.329,4.329,0,0,0,.3,4.038c1.193,2.386,1.76,2.347,3.132-.327.553-1.057,1.336-1.853,1.683-1.791.419.029,1.307,2.189,1.984,4.81,1.116,4.325,1.4,4.783,2.886,4.472,1.34-.243,1.679.115,2.084,2.641l.506,2.919-5.116,2.547c-6.593,3.218-6.8,3.385-6.662,6.471.071,1.872-.18,2.5-.814,2.275-1.453-.511-2.213.054-1.483.967a.667.667,0,0,1-.115,1.15.677.677,0,0,1-1-.351c-.1-.393-.726-.256-1.471.375-.834.6-1.55.706-2.014.185a.822.822,0,0,0-1.35-.119,5.091,5.091,0,0,1-3.048.654c-1.885.051-2.566.288-2.783,1.046-.193.527.089.985.566.914,1.5-.245,1.49,1.3.034,3.646-1.383,2.313-3.224,3.81-1.972,1.629.8-1.388.369-3.683-.517-3.28a8.378,8.378,0,0,0-1.849,2.745c-1.145,2.278-1.094,2.474.274,2.658.964.22,1.213.546.781,1.11a1.252,1.252,0,0,1-1.646.015,1.209,1.209,0,0,0-1.719.05c-.562.7-.479,1.023.372,1.442.941.45.855,1.076-.436,3.421a11.319,11.319,0,0,1-2.224,3.208c-1.993.907-.085-7.358,2.732-11.787a5.876,5.876,0,0,0,1.117-2.7c-.085-.328-1.039.766-2.007,2.451a19.473,19.473,0,0,1-2.747,3.74c-1.636,1.33-7.2,11.4-6.916,12.518.169.655-1.283,3.659-3.211,6.733-1.946,3.009-3.431,5.882-3.33,6.274s-.541,1.418-1.473,2.281-1.541,2.019-1.389,2.609a1.133,1.133,0,0,1-.41,1.285,13.184,13.184,0,0,0-2.53,2.981c-2.076,3.142-5.54,4.424-6.081,2.327-.406-1.573-1.292-1.171-2.567,1.24-1.007,1.85-.917,1.881.781,1.109,1.862-.773,4.711-.6,4.947.313a19.132,19.132,0,0,1-1.795,4.551c-1,2.21-1.544,3.924-1.1,3.722a4.323,4.323,0,0,0,1.393-1.952c1.156-2.869,2.894-3.806,3.868-2.272,1.007,1.666,1.081,1.632,2.894-.291.972-1.029,1.636-1.33,2.561-.945,1.072.318.855,1.075-1.324,4.776-1.44,2.412-2.477,4.787-2.358,5.246a1.128,1.128,0,0,1-.575,1.287,1.042,1.042,0,0,0-.212,1.415c.334.653-.458,2.7-1.955,5.209-2.783,4.56-2.795,5.152-.305,5.85s2.471,1.586.048,2.1c-1.487.311-1.913.577-1.391,1,.9.616-1.088,5.694-2.49,6.331-1.034.471-1.126,1.391-.464,2.994a2.952,2.952,0,0,1-.265,2.171c-.8,1.683.482,3.149,2.039,2.148.778-.5,1.229-1.95,1.255-4.086.049-2.366.42-3.487,1.323-3.824s1.153-.964.883-2.012c-.39-1.508.487-3.224,1.485-2.873a5.833,5.833,0,0,1,1.319,2.55c.5,1.31.615,2.064.275,1.706-1.162-1.3-1.958.085-1.212,2.016.621,1.768,1.075,1.928,2.625,1.222,1.9-.939,6.069-5.25,5.849-6.1s-1.039-.186-2.154,1.565c-.586.926-1.478,1.625-1.914,1.53-1.425-.085-1.349-1.07.083-2.235.761-.565,1.126-1.391.786-1.749-.373-.489.212-1.415,1.571-2.544,2.512-2.094,3.334-2.1,2.378-.057-.536,1.122-.484,1.319.549.849.664-.3,1.1-.865,1-1.258-.085-.328.779-1.453,1.876-2.318,1.154-.964,1.961-1.991,1.876-2.318s.559-1.352,1.49-2.216,1.5-1.854,1.252-2.18a2,2,0,0,1,.332-1.909,6.535,6.535,0,0,0,.064-3.91c-.609-2.36-.824-2.554-2.052-1.557-1.374,1.065-2.021.48-2.385-2.21-.061-.558-.365-2.69-.651-4.757a21.952,21.952,0,0,1-.333-4.169c.8-1.388,1.968.276,3.209,4.765.892,2.816,1.87,5.008,2.454,5.035s1.053,1.205,1.181,2.978c.263,2.3.455,2.722,1.041,1.8.847-1.191.526-9.466-.472-13.333-.491-1.9-.388-2.46.77-2.767.994-.306,1.458.215,1.75,1.986.4,1.868.524,2.031.877.845a3.849,3.849,0,0,1,1.484-1.92,1.435,1.435,0,0,0,.837-1.553c-.135-.524.167-.954.586-.925.494,0,1.026.779,1.263,1.7.22.852.775,1.4,1.144,1.237a.867.867,0,0,0,.586-.926,9.729,9.729,0,0,1,1.2-3.034c1.121-2.048,1.735-2.546,3.534-2.925,1.873-.413,2.361-.122,3.107,1.809,1.022,2.684,2.231,2.573,2.27-.154.013-1.544.275-1.81,1.239-1.589.874.189,1.066.614.718,1.5-.438.858-.263,1.218.815,1.24,1.662.049,3.986,5.216,2.9,6.443-1.387,1.656-.315,1.974,2.836.76,3.595-1.416,4.252-.469,1.082,1.632a4.368,4.368,0,0,1-4.348.733c-2.977-.989-3.387-.657-2.17,1.5l1.04,1.8-5.234,2.088c-4.406,1.785-5.332,2.353-5.743,3.638-.622,1.747-2.326,2.815-3.074,1.837-.248-.326-1.038-.187-1.634.377-.67.6-.831,1.256-.44,1.811.447.456.254.984-.41,1.285a2.233,2.233,0,0,0-.946,2.408,2.845,2.845,0,0,1-1.156,2.869,6.3,6.3,0,0,0-2.024,2.386c-.633,1.385-.8,1.387-2.118.743-.777-.453-1.378-.545-1.31-.283.085.328-.392.4-1.084.273-.874-.188-1.333-.052-1.567.64-.137.428.243.622.833.353,1.624-.738,1.7.181.161,1.9-.807,1.026-1.4,1.294-1.885,1-.413-.324-1.084.274-1.914,1.53a21.905,21.905,0,0,1-2.855,3.641l-1.552,1.658,1.849-.182c1.045-.109,1.737.015,1.566.313a2.579,2.579,0,0,1-2.021.48c-1.975.019-3.128.983-2.757,2.425.153.59,1.049.548,2.673-.19l2.38-1.009-2,1.859a19.066,19.066,0,0,0-3.5,4.963c-1.411,2.839-1.361,3.036-.05,3.318,1.384.249,1.4.315.224,1.508a4.82,4.82,0,0,1-2.187,1.435c-.476.07-1.17.9-1.41,1.886a3.106,3.106,0,0,1-1.376,2.017c-1.38.408-4.216,3.163-5.018,4.846-.917,1.882-2.245,2.486-3.838,1.746-1.123-.515-1.271-.447-1.449,1.1a4.522,4.522,0,0,1-1.61,2.71c-.761.566-1.273,1.458-1.156,1.917.305,1.179-1.87,5.537-3.051,6.074a4.276,4.276,0,0,0-1.446,2.708,5.526,5.526,0,0,1-2.15,3.174c-1.925,1.169-1.842,2.45.151,1.543a3.125,3.125,0,0,0,1.591-1.823,2.426,2.426,0,0,1,1.3-1.687c.59-.269,1.022-.832.938-1.159-.1-.393.643-1.025,1.677-1.495s1.9-.643,1.964-.381c.136.525-4.154,7.235-4.819,7.537-.3.134-.382.759-.081,1.282.243.622.23,1.213-.065,1.348-1.329.6-5.2,8.3-4.634,9.211.373.489.184,1.673-.4,2.6a3.677,3.677,0,0,0-.114,3.712c.729,1.866.626,2.426-.863,3.688-2.085,1.827-1.888,2.91.394,2.164,1.527-.475,1.776-.149,2.662,2.963.643,2.49,1.407,3.534,2.371,3.755,3.443.557,1.258,4.554-2.908,5.351-1.34.243-2.373.713-2.289,1.04a7.04,7.04,0,0,1-.037,1.775c-.126.789.378,1.146,1.258,1.039,4.563-.537,4.678,1.826.322,3.807l-3.027,1.377-.149-2.495c-.139-2.134-.371-2.395-1.626-1.824-1.55.706-1.511,1.493.21,4.006.94,1.4.887,2.159-.143,4.239-.974,1.981-1.7,2.677-3.41,3.089-2.316.614-5.443,4.16-3.519,3.944,1.7-.115,1.366,1.136-.553,2.009a7.365,7.365,0,0,0-2.87,2.624c-.569.992-1.41,1.886-1.977,1.925-.477.07-1.3,1.031-1.78,2.054-.552,1.057-1.246,1.885-1.575,1.888-.346-.062-.851.534-1.233,1.293a4.539,4.539,0,0,1-1.223,1.655,16.146,16.146,0,0,0-2.542,3.572,53.488,53.488,0,0,1-4.215,5.725c-1.2,1.425-2.076,3.141-2,4.06.151,1.543-1.9,3.5-4.438,4.216-1.913.578-3.839,5.261-2.388,5.773a2.136,2.136,0,0,1,1.309,1.236c.305,1.179-3.051,2.56-4.462,1.883-1.7-.837-2.315-.338-2.569,2.194a8.692,8.692,0,0,1-2.192,4.292c-2.484,2.521-2.817,4.429-.619,3.356,1.238-.636,1.635-.377,1.991,1,.315,1.541.769,1.7,2.1,1.1,1.846-.839,2.31-.318,1.286,1.466-.342.594-.337,1.251.026,1.379.453.16,1.074-.634,1.461-1.689,1.083-2.836,2.61-3.31,3.128-.984a2.656,2.656,0,0,1-1.237,3.2,4.629,4.629,0,0,1-2.89.949c-1.491-.346-2.016,1.137-.992,2.867.424.686.492.948.152.59a2.152,2.152,0,0,0-1.975.019,3.469,3.469,0,0,1-2.825-.4c-1.389-.906-1.463-.873-2.595.814a9.919,9.919,0,0,1-3.829,3.06c-1.92.873-2.664,1.5-2.478,2.225.152.59-.41,1.285-1.371,1.722-1.771.806-6.416,9.655-5.977,11.36.119.458-.524,1.483-1.473,2.281s-1.575,1.888-1.422,2.478c.372,1.442,3.036-.062,3.106-1.706.008-1.248.622-1.747,4.125-3.194,3.355-1.38,4.395-2.146,5.477-4.029a10.193,10.193,0,0,1,1.916-2.482c1.181-.537,1.1,2.651-.109,4.37-1.434,2.117-.562,3.258,1.653,2.25.738-.336,1.521-.179,1.656.346.372,1.442-3.222,2.857-5.088,2.021-2.41-1.027-4.891-.411-4.945,1.3-.076.986-.974,1.981-2.751,3.082-2.482,1.568-5.012,4.549-4.742,5.6.288,1.114,2.831.1,3.833-1.45,1.058-1.653,1.132-1.687,1.47-.376a6.622,6.622,0,0,1-1.067,3.855,6.2,6.2,0,0,0-.9,4.509c.271,1.049.212,2.1-.23,2.3a.652.652,0,0,1-.907-.32c-.1-.393-.686-.42-1.277-.151a1.288,1.288,0,0,1-1.643-.937,17.408,17.408,0,0,0-.922-2.29c-.209-.491-.6-1.7-.914-2.586-.5-1.6-.661-1.6-3.825.2s-3.328,1.806-3.224.294c.178-1.545.014-1.544-1.884.051-2.586,2.128-2.507,2.751.4,2.525,1.209-.11,1.481-.014.635.224-2.021.48-3.445,3.91-1.521,3.695s1.9,1.624-.016,2.5a3.734,3.734,0,0,0-2.161,2.813c-.606,2.766-2.821,3.773-2.8,1.275.07-1.643-.2-1.739-1.826-1-2.14.974-2.768,3.017-1.174,3.757.742.321.861.779.485,1.244-.3.429-1.231.34-2.008-.112a2.018,2.018,0,0,0-2.525.124c-1.472,1.328-.885,2.965.989,2.552.862-.173,1.611-.148,1.679.114a47.433,47.433,0,0,1-3.512,6.211c-2.913,4.693-3.868,5.787-5.111,5.766-1.662-.049-1.754.871-.121,1.446.816.288.719.552-.462,1.089a2.639,2.639,0,0,0-1.581,2.183,2.636,2.636,0,0,1-1.581,2.183c-1.4.638-3.911,4.342-3.623,5.456.068.263.726.256,1.464-.08a3.63,3.63,0,0,1,4.887,2.318c.39,1.508.128,1.773-3.029,3.282-2.362,1.075-4.144,1.518-5.216,1.2-1.345-.414-1.566-.313-1.067.339.532.783-.413,2.237-3.6,5.225-1.847,1.792-2.179,3.7-.677,4.409.579.322.985.942.849,1.371-.193.528.475.883,1.463.873,1.992.046,3.094-1.114,1.234-1.293-1.021-.122-1.055-.252.052-.756,1.181-.537,1.975-.02,3.083,2.039.068.262-.881,1.059-2.12,1.7-1.3.736-2.47.977-2.554.65-.2-.787-2.951.391-3.282,1.346-.371,1.12-13.391,6.6-14.882,6.256-.891-.254-1.334-.052-1.568.64a.99.99,0,0,1-1.385.7c-.618-.158-1.317.013-1.471.376-.87,1.421,0,1.61,2.49.7l2.708-1.013-2.516,4.953c-1.372,2.674-2.374,5.18-2.273,5.574a1.032,1.032,0,0,1-.625,1.091,20.044,20.044,0,0,0-3.321,4.073c-1.695,2.382-2.871,3.577-3.416,3.385-.635-.224-1.59.869-2.825,3.116-1.008,1.849-1.646,3.531-1.3,3.593.363.128,1.1-.865,1.728-2.25s1.349-2.444,1.548-2.315c.272.1-.008,1.248-.64,2.634a8.376,8.376,0,0,0-.806,3.588c.219.851-.156,1.316-1.183,1.49a3.244,3.244,0,0,0-2.245,2.486c-.735,1.946-3.845,5.557-4.571,5.3-.544-.192,2.625-5.807,3.91-6.9a2.406,2.406,0,0,0,.866-2.078c-.254-.983-.475-.882-1.63,1.034-1.041,1.719-1.6,2.119-2.506,1.8-.89-.254-1.242-.021-1.875,1.365a3.018,3.018,0,0,0,.052,2.758c.532.784.3,1.18-1.1,1.818-1.477.671-1.761,1.166-1.292,2.344.379,1.147.668,1.308,1.271.448.415-.628.955-1.094,1.228-1,.923.385-.268,4.076-2.088,6.3-1.444,1.755-1.717,2.612-1.135,3.592.516.717.553,1.506.258,1.64-.352.233-2.09,1.17-3.771,2.008-3.049,1.607-3.14,1.575-3.1-.2l.037-1.774-1.286,2.049c-.773,1.157-.963,2.342-.589,2.831.945,1.108-.31,1.679-1.551.706a1.942,1.942,0,0,0-2.253.219c-1.245.932-1.245.932.424.686,1.595-.212,2.961.924,3.569,3.283.22.852-.286,1.448-1.541,2.019-1.328.6-1.931.512-2.184-.471s-.855-1.076-2.183-.472c-1.255.571-1.761,1.167-1.541,2.019a4.226,4.226,0,0,1-.362,2.435c-.626,1.091-.388,1.056,1.226-.045,1.391-1,2.107-1.1,2.588-.518,1.02,1.074-.728,4.212-3.022,5.549a3.1,3.1,0,0,0-1.889,2.909,3.218,3.218,0,0,1-1.593,2.776c-1.2.767-1.455,1.394-1.032,3.032a7.149,7.149,0,0,1-.188,3.747c-.615,1.452-1.04,1.719-2.63,1.635l-1.9-.014,1.8,1.23,1.8,1.23-1.8.379a18.29,18.29,0,0,0-3.661,1.153c-1.182.537-1.618.444-1.509-.412.19-1.184-.707-1.142-1.464.08-.552,1.057-5.273,4.816-7.045,5.621s-3.133.327-2.12-.867c1.2-1.424.349-1.842-2.5-1.059-1.617.443-3.229.59-3.626.332a.821.821,0,0,0-1.175.241c-.211.462.039.788.623.815a2.727,2.727,0,0,1,1.575,1.627c.453,1.112.2,1.74-1.117,2.705-1.261.867-1.415,1.229-.649,1.32a2.092,2.092,0,0,0,1.795-1.036c.854-1.487,2.586-2.129,4.662-1.754,1.64.279,1.656.345.117,1.411-1.449,1.1-1.787,3.3-.384,2.665.369-.168.776.452.922,1.337.315,1.541.241,1.575-1.177,1.194a2.835,2.835,0,0,1-1.8-1.23,2.209,2.209,0,0,0-1.531-1.135c-1.145-.284-1.719.049-3.157,1.509-.988.962-2.387,2.257-3.131,2.889-1.284,1.1-1.284,1.1.356.423,1.568-.639,2.792.268,1.241.974-1.255.571-.508,1.549,1.562,2.219a5.566,5.566,0,0,0,3.365-.067c.813-.369,1.34-.243,1.237.317-.076.986-.649,1.32-6.167,2.951-3.276,1.05-3.276,1.05-2.735,3.148.457,1.769.286,2.066-1.053,2.309-1.266.21-1.511.541-1.24,1.589a5.338,5.338,0,0,1-.725,3.259,3.119,3.119,0,0,0-.374,3.026c1.008,1.666-1.345,4.055-3.7,3.88-1.515-.116-1.868.117-2.67,1.8a9.495,9.495,0,0,1-2.183,3.044c-1.023.832-1.03,1.127-.088,1.578,1.412.676.961,2.126-1.106,3.066a8.934,8.934,0,0,0-2.562,1.9c-.824.961-.7,1.124.792,1.471,1.747.377,1.747.377.022.723-1.89.347-4.431,2.967-4.109,4.213.119.458-.445,1.154-1.256,1.523s-1.358,1.13-1.223,1.655-.41,1.285-1.222,1.654-1.392,1-1.291,1.392-.365.825-1.022.832c-.88.107-1.091.569-.8,1.683.237.917.882,1.5,1.45,1.464.732-.04.783.157.23,1.213-.609,1.156-.831,1.256-1.641.673a10.217,10.217,0,0,1-1.365-1.137c-.714-.847-1.926,1.169-1.554,2.611.271,1.049-.048,1.413-1.3,1.688-1.413.277-1.584.574-.866,2.078.7,1.439.564,1.867-.724,2.307-2.118.743-2.026,3.338.159,2.857s2.207.241.217,2.758a16.958,16.958,0,0,0-2.3,3.242,8.718,8.718,0,0,1-2.615,2.653l-2.1,1.466,1.031-2.08a7.008,7.008,0,0,1,2.45-2.651c1.7-.772,1.427-1.821-.852-2.982l-1.9-.967.167,1.608c.123,1.116-.406,1.942-1.888,2.909-1.63,1.035-1.955,1.695-1.787,3.3.208,1.444.638,1.833,1.813,1.592.788-.14,1.589.083,1.706.542.2.786-2.021,3.994-4.2,6.086-.671.6-.325.66,1.078.022,2.306-.976,2.854-.127,1.115,1.762-1.7,1.725-2.069,1.894-2.373.714a.874.874,0,0,0-1.287-.513c-1.477.671-3.352,5.552-2.684,6.859.367.785.009,1.314-1.32,1.919-2.584,1.174-3.488,2.465-3,4.365.321,1.246.037,1.741-1.44,2.413a8.483,8.483,0,0,0-3.308,3.481c-1.178,2.147-1.213,2.969-.319,4.832,1.018,2.027.921,2.291-.913,3.491a5.338,5.338,0,0,1-3.111,1.049c-1.583-.379-3.8,3.19-2.475,3.835.742.321.532.783-.581,1.582-1.391,1-4.061,5.362-10.919,17.781-3.079,5.647-7.737,12.526-9.414,14.021-.875.764-1.256,1.523-.933,1.815a1.349,1.349,0,0,1,.282,1.41c-.234.692-.529.826-1.051.4-.595-.388-1.413.277-3.051,2.56-1.957,2.648-2.093,3.076-.811,2.932.863-.173,1.658-.608,1.8-1.037s.63-.433,1,.056c.448.456.442.751-.052.757-1.86-.179.345,4.53,2.68,5.591a5.455,5.455,0,0,1,2.777,2.765c.355,1.376.111,1.707-1.9,2.548-1.272.506-2.884.652-3.569.232a3.392,3.392,0,0,0-2.723-.005,2.039,2.039,0,0,1-2.066-.013c-.373-.49-.964-.22-2.862,1.374-3.591,3.025-4.749,3.332-5.24,1.431-.237-.917-.054-1.805.315-1.974a.951.951,0,0,0,.536-1.122c-.152-.589-.374-.489-.886.4a5.791,5.791,0,0,1-2.381,1.962,11.269,11.269,0,0,0-2.971,2.23,3.012,3.012,0,0,1-3.027,1.376c-1.277-.152-1.958.085-2.413.878-.74,1.289-2.495,2.16-2.7,1.374a4.834,4.834,0,0,1,.685-2.143c1.326-2.214.963-2.342-2.581-.73-3.47,1.579-5.028.969-4.6-1.86.069-.69-.2-1.082-.639-.88a.967.967,0,0,0-.644,1.024c.085.328-.421.924-1.085,1.227a9.119,9.119,0,0,0-2.6,2.719c-.969,1.685-1.525,2.084-2.489,1.864a3.414,3.414,0,0,0-2.373.714c-.95.8-1.148.668-1.133-.876.031-1.48-.508-1.967-3.037-2.5-3.239-.724-4.151-1.7-2.662-2.963.671-.6.62-.795-.379-1.147-.923-.385-1.055-.252-.818.665.406,1.573-.53,1.779-2.662.552-1.281-.808-1.6-1.4-1.142-2.19a3.314,3.314,0,0,0,.355-2.138c-.575-2.228.1-6.637,1.061-7.073.59-.269.785-.8.428-1.22s.014-1.544.748-2.536c.824-.961,1.081-1.884.718-2.011a.717.717,0,0,0-.892.7,2.225,2.225,0,0,1-1.109,1.456,3.515,3.515,0,0,0-1.49,2.216c-.331.956-1.024,1.784-1.592,1.823a2.788,2.788,0,0,0-1.677,1.494,4.432,4.432,0,0,1-1.756,1.824,2.388,2.388,0,0,0-1.149,1.621c-.269,1.514-1.376,2.018-2.215,1.007-.662-.651,1.559-5.469,2.74-6.006.221-.1,2.536-3.277,5.176-7.114a64.553,64.553,0,0,1,5.544-7.282,30.116,30.116,0,0,0,4.088-4.935c3.254-4.335,3.785-7.067,1.275-5.926-1.936.807-3.207.36-3.646-1.344-.254-.983-.849-1.372-1.588-1.036-1.107.5-1.157.308-.365-1.737.758-2.176.725-2.307-1.091-2.946l-1.905-.671.339,1.31c.372,1.442-1.849,6.26-3.178,6.864-1.033.47-1.348-1.071-.495-2.558.512-.892.32-1.317-.877-1.8a3.446,3.446,0,0,1-1.762-1.395c-.1-.392-.77-.748-1.593-.74-.75-.025-1.3-.579-1.145-1.237.086-.625-1.1-1.7-2.6-2.406a10.779,10.779,0,0,1-2.818-1.648c-.237-.917,2.289-4.556,5.035-7.342,2.893-2.854,6.722-9.428,7.147-12.258.069-.69,2.016-4.651,4.35-8.715,2.755-4.988,3.888-7.627,3.406-8.213-.464-.521.117-2.1,1.647-4.484,1.286-2.049,2.243-4.1,2.124-4.554s.457-1.746,1.305-2.937l1.507-2.15-1.969-.276c-1.565-.313-1.6-.445-.408-.62.937-.206,1.942-1.1,2.762-2.721.78-1.454,1.752-2.481,2.336-2.454.6.093.7-.171.234-.692-.838-1.01,3.636-9.562,5.408-10.368a1.6,1.6,0,0,0,.786-1.749,2.647,2.647,0,0,1,.3-2.039c.318-.365.755-.271.89.254.406,1.572,1.576.674,1.579-1.231a18.224,18.224,0,0,0-1.07-4.785c-.6-1.7-.818-2.85-.421-2.591a8.3,8.3,0,0,0,3.535-.364c2.759-.815,2.89-.949,2.5-2.455a3,3,0,0,1,.345-2.5c.449-.5.539-.465.363.128-.234.692.2.787,1.089.383,1.476-.671,2.235-2.847,1.317-3.528-.216-.2.041-1.117.684-2.142a5.2,5.2,0,0,0,.749-3.489c-.355-1.376-.167-1.608,1.542-2.019,1.175-.242,1.879-.708,1.778-1.1-.118-.459.438-.859,1.318-.966,3.246-.525,1.747-3.138-2.682-4.639-3.25-1.085-3.3-1.282-2.122-3.428,1.155-1.917.254-2.533-1.009-.713-.716,1.057-1.308,1.327-2.856,1.079a5.814,5.814,0,0,0-5.752,2.323c-.626,1.09-.791,1.092-.6-.093q.243-2.417-4.863-3.5c-2-.407-2.552-.3-2.867.718-.6,1.813-.373,2.074,1.427,1.694,2.111-.447,1.984,1.3-.26,2.828-1.245.932-1.552,1.658-1.214,2.969.328.95.31,1.836-.059,2-.59.268-2.054-.6-2.29-1.522-.085-.328-.777-.452-1.475-.281-.993.305-1.277.8-1.024,1.784.2.787.01,1.314-.558,1.353-1.185-.12-3.211,3.218-2.839,4.659a12.4,12.4,0,0,1,.023,3.285c-.252,1.579-.627,2.043-1.354,1.787-.816-.288-.895-.911-.625-2.425.423-1.877.3-2.04-.759-1.34a4.6,4.6,0,0,0-1.627,2.644c-.246,1.283-.957,2.047-2.8,2.885-3.174,1.444-7.941,8.225-7.366,10.453.287,1.114-.054,1.708-1.309,2.28a4.748,4.748,0,0,0-2.189,2.387,2.772,2.772,0,0,1-2.2,2.025,5.068,5.068,0,0,0-2.6,1.767c-.643,1.025-3.381,2.562-9.582,5.383-8.563,3.9-8.636,3.929-11.433,3-1.6-.444-2.971-1.285-3.073-1.678-.119-.458-1.032-.482-2.066-.012-1.181.537-1.947.445-2.1-.144s-.992-.647-2.173-.11c-1.625.739-1.9.643-1.883-.9.067-2.3-.971-2.487-1.821-.343-.792,2.045-2.127,2.944-1.909,1.234.16-.659-.179-1.017-.7-.781-.59.268-.964-.221-1.013-1.37a2.22,2.22,0,0,0-1.653-2.251,2.881,2.881,0,0,1-1.943-1.459c-.169-.655-.72-.552-2.055.348-1.523,1.132-1.778,1.1-1.64-.279.035-.822-.191-1.378-.634-1.176a1.443,1.443,0,0,0-.22,2.663c1.593.74.864,2.389-1.054,2.309-1.736-.015-2.436,1.108-1.382,2.313.481.587.122,1.116-1.007,1.849-1.3.736-1.546,1.363-1.14,2.935a8.176,8.176,0,0,1-.342,4.11,3.966,3.966,0,0,0-.293,2.7c.34.357-.212,1.415-1.145,2.278-1.119,1.1-1.524,2.084-1.219,3.264.473,1.835,2.109,1.457,3.122-.688,1.225-2.607,2.057-1.3,1.024,1.731-1.2,3.33-2.708,4.527-3.216,2.561-.254-.984-.855-1.076-2.183-.472-1.034.47-1.931.511-2.015.184-.1-.392-.772.205-1.455,1.394a8.188,8.188,0,0,1-1.876,2.318c-.3.134-.251.626.105,1.05.448.455.254.983-.484,1.319-.664.3-1.265.21-1.384-.249-.1-.393-.356-.424-.527-.126-.569.991,1.807,1.887,3.283,1.216,1.182-.537,1.306-.374.94,1.4a4.218,4.218,0,0,1-1.718,2.612c-1.55.706-1.884.052-.916-1.633.512-.892.167-.954-1.753-.081-2.215,1.007-2.4,1.239-1.621,2.348a13,13,0,0,1,1.2,2.748c.237.918.832,1.306,1.57.97,1.7-.772,1.219,1.2-.56,2.3-1.13.734-1.658.607-1.912-.375a1.684,1.684,0,0,0-1.916-1.032c-2.055.348-2.342-.765-.5-1.6a3.7,3.7,0,0,0,1.75-1.528c.12-.494-.317-.589-1.129-.219-1.255.571-7.179,11.174-6.892,12.288a33.989,33.989,0,0,1-2,5.374c-1.561,3.859-1.806,5.143-1.007,5.365.816.288,1.226-.045,1.8-1.332.638-1.681.712-1.715,1.135-.077.338,1.31-.066,2.3-1.651,3.827a15.147,15.147,0,0,1-3.642,2.828,4.41,4.41,0,0,0-2.161,2.814,4.377,4.377,0,0,1-1.2,2.377c-.3.134-.439.858-.253,1.579a1.616,1.616,0,0,1-.769,1.814c-.59.269-1.039.766-.939,1.159.221.852,1.475.282,1.846-.84.314-1.022,1.625-1.691,1.812-.97.085.328-.633,1.386-1.695,2.382-3.121,3.25-3.332,3.712-2.033,4.586.934.747.922,1.338-.2,3.386l-1.349,2.444,2,.7,2,.7-.389-1.507c-.423-1.639.849-2.144,2.527-1.076.719.552.8,1.174.319,2.2-.8,1.683-3.114,2.955-4.033,2.273-.322-.292-1.5-.05-2.622.387-1.7.772-1.805.675-.726-.256,1.21-1.063,1.193-1.129-.089-.985a9.673,9.673,0,0,0-1.669.247,24.119,24.119,0,0,0-1.907,3.8c-.94,2.111-1.391,3.561-1.112,3.361,1.909-1.234,3.464-1.282,4.41-.175a3.547,3.547,0,0,0,1.91,1.328c1.021.121.9,2.225-.13,2.695-.369.168-.782-.157-.918-.68a.789.789,0,0,0-1.066-.614c-.443.2-.742-.321-.651-1.242.139-1.381-.043-1.445-1.491-.347a7,7,0,0,0-1.933,2.417,3.248,3.248,0,0,1-1.683,1.791,5.078,5.078,0,0,0-2.035,2.024c-.536,1.121-.393,1.35.651,1.242,1.777-.149,1.882.9.111,1.706-.959.437-1.245.932-.78,1.453s.254.983-.558,1.353c-1.328.6-2.933,3.018-2.662,4.066a.654.654,0,0,0,.924.385c1.55-.7.969.877-1.048,2.967-2.82,2.82-5.2,6.391-4.4,6.613.272.1,1.016-.535,1.659-1.561.928-1.52,1.149-1.621,2.272-1.106.941.451.993.647.106,1.049-1.107.5-4.793,6.355-4.557,7.272.085.328-.707,1.42-1.809,2.58-2.018,2.09-2.265,4.325-.346,3.453a1.589,1.589,0,0,1,1.8.277,2.568,2.568,0,0,0,2.469-.024c1.771-.806,2.468-.024,1.806,1.888-.524,1.483-3.533,1.973-4.364.667-.391-.554-1.059-.91-1.429-.742-.443.2-.421.923.094,1.642.691,1.077.634,1.176-.66.959-1.673-.41-2.719.651-3.063,3.151a4.776,4.776,0,0,1-2.446,3.308c-1.113.8-1.994,1.859-1.859,2.384a1.188,1.188,0,0,1-1,1.258,1.874,1.874,0,0,0-1.4,1.294c-.086.625.589.684,1.77.147,1.033-.47,1.987-.61,2.055-.348.271,1.049-1.191,2.739-2.456,2.948-.954.141-.994.306-.154.364.874.188.627,1.471-.866,5.593-2.229,6.067-3,7.223-4.119,6.413-.521-.421-.816-.287-1.05.405-.193.527.039.787.408.62,2.732-1.243.048,5.617-2.821,7.287-1.722,1-1.859,1.431-1.437,4.022.473,2.787-.291,4.307-1.332,2.509-.333-.653-1.033.471-2.264,3.373-.963,2.342-2.291,5.509-2.962,7.06-.6,1.451-1,2.089-1.176,2.089C-1637.083,1125.283-1636.825,1123.759-1635.943,1121.357Zm-6.382-14.818c-2.51,1.141-2.74,3.443-.317,2.927a2.142,2.142,0,0,0,1.944-2.056c.167-.955.293-1.744.293-1.744s0-.015-.011-.015A13.138,13.138,0,0,0-1642.325,1106.538Zm7.984-3.265c-.369.168-.7.467-.67.6.05.2.5.356.924.384.493,0,.755-.27.67-.6a.585.585,0,0,0-.579-.466A.839.839,0,0,0-1634.341,1103.273Zm-5.781-.666c-1.328.6-.769,1.814.685,1.373.788-.139,1.09-.57.716-1.058a1.375,1.375,0,0,0-.967-.4A1.051,1.051,0,0,0-1640.122,1102.607Zm1.225-16.667a1.951,1.951,0,0,0-.377,1.417c.407,1.572-2.013,9.776-3.4,11.433-1.313,1.623-1.54,4.581-.284,4.01,1.033-.471,3.168-4.663,2.88-5.777-.185-.721.344-1.547,1.343-2.148,1.3-.736,1.489-1.264.794-3a6.763,6.763,0,0,1-.027-3.941c.535-1.416.375-2.477-.17-2.477A1.151,1.151,0,0,0-1638.9,1085.94Zm1.3,11.124a2.237,2.237,0,0,0-.383,1.712c.136.524.572.618.891.254a1.99,1.99,0,0,0,.383-1.712c-.081-.315-.245-.488-.448-.488A.653.653,0,0,0-1637.593,1097.064Zm5.144-5.635c-1.771.806-1.71,1.364.347,2.624,1.191.777,1.741.672,2.344-.187a2.568,2.568,0,0,1,2.509-1.142c1.811-.018,2.238-1.238.468-1.384-.494,0-.878-.845-.837-1.963,0-1.905,0-1.905-1.169-.054a5.262,5.262,0,0,0-1.008,2.8,2.228,2.228,0,0,1-.474,1.68c-.58.63-.755.27-.707-1.142,0-1.083-.1-1.526-.546-1.526A2.554,2.554,0,0,0-1632.449,1091.429Zm-3.691,1.679a.933.933,0,0,0-.569.991.651.651,0,0,0,.907.319.927.927,0,0,0,.569-.991.509.509,0,0,0-.517-.414A.95.95,0,0,0-1636.14,1093.108Zm-.842-12.212a1.763,1.763,0,0,0,.178,1.969c.714.847.844.715,1.959-1.038,1.058-1.652,1.008-1.849-.235-1.87q-.08-.005-.159-.005A1.987,1.987,0,0,0-1636.982,1080.9Zm5.106.607c-.4.694-.388,1.055.056.853,1.033-.47,1.716-1.659,1.081-1.883h-.024C-1631.028,1080.471-1631.545,1080.925-1631.876,1081.5Zm5.177-1.036c-3.207.36-3.419,1.774-.309,1.678,1.628-.081,1.98-.315,1.811-.97a1.245,1.245,0,0,0-1.246-.726A1.749,1.749,0,0,0-1626.7,1080.466Zm-2.4-4.838c-.91,1.586-1.543,2.972-1.287,3,.363.128,3.174-4.958,3.1-5.582,0-.015-.011-.022-.023-.022A13.059,13.059,0,0,0-1629.1,1075.628Zm4.68-2.641c-.845.239-1.426.869-1.307,1.327a2.757,2.757,0,0,1-.735,1.946c-.694.828-.683,1.189.134,1.477s1.5-.245,2.988-2.164c1.486-1.944,1.686-2.888.517-2.888A6.067,6.067,0,0,0-1624.424,1072.986Zm-10.008-.427c-.138.428.243.622.833.354,1.328-.6,1.449-1.1.263-1.219l-.047,0A1.252,1.252,0,0,0-1634.432,1072.559Zm3.633-1.579c-1.092,1.522-.406,1.942,1.067.614.614-.5.773-1.157.467-1.384a.728.728,0,0,0-.422-.154C-1630.029,1070.055-1630.369,1070.367-1630.8,1070.979Zm-7.371-3.311c-.59.268-2.747,3.74-2.611,4.263.2.787,2-.249,2.737-1.538.628-1.094.619-2.765.039-2.765A.4.4,0,0,0-1638.169,1067.668Zm10.823,2.62c-.54.466-.267.562.544.193.829-.3,1.221-.7.875-.765a.444.444,0,0,0-.146-.021A2.209,2.209,0,0,0-1627.347,1070.288Zm4.357-2.933c-1.347,1.491-1.5,2.511-.22,2.663.493,0,.983-.667,1.274-1.458.439-1.4.481-2.1.129-2.1C-1622.035,1066.456-1622.43,1066.754-1622.99,1067.355Zm7.659.91a1.008,1.008,0,0,0-.553,1.057c.085.327.488.291.806-.074a1.557,1.557,0,0,0,.553-1.057c-.015-.058-.088-.089-.2-.089A1.569,1.569,0,0,0-1615.331,1068.265Zm-1.452-4.027c-1.109,1.457-1.092,1.523.575,2.228,1.577.675,1.724.608,2.8-.98,1.269-2.115,1.258-2.476-.676-2.621a4.152,4.152,0,0,0-.421-.023C-1615.421,1062.843-1615.962,1063.226-1616.783,1064.238Zm-11.545-1.265c-.7,3.029.141,3.743,1.564,1.265.968-1.685.974-1.981-.171-3.217a.768.768,0,0,0-.478-.278C-1627.774,1060.743-1628.018,1061.4-1628.328,1062.973Zm7.688.384a1.951,1.951,0,0,0-1.012,1.193c-.137.428.243.622.833.353.664-.3,1.1-.865,1.012-1.192a.524.524,0,0,0-.522-.425A.759.759,0,0,0-1620.64,1063.357Zm-16.868-1.116a1.238,1.238,0,0,0-.467,1.385c.135.524.572.618.89.254a1.6,1.6,0,0,0,.468-1.384.468.468,0,0,0-.489-.351A.987.987,0,0,0-1637.508,1062.241Zm-2.522-1.782a7.607,7.607,0,0,0-1.288,3c.1.393.778-.5,1.559-1.954a11.811,11.811,0,0,0,1.287-3c-.008-.031-.024-.046-.048-.046A6.617,6.617,0,0,0-1640.03,1060.459Zm5.235,1.427c-.105,1.512-.014,1.544.833.353.774-1.157,1.085-1.226,2.128-.382a1.458,1.458,0,0,0,1.86.179c.507-.6.257-.922-.6-1.045a2.8,2.8,0,0,1-1.927-1.394c-.651-1.242-4.209-.649-3.888.6a.678.678,0,0,0,1,.352.434.434,0,0,1,.179-.043C-1634.869,1060.5-1634.666,1061.012-1634.794,1061.887Zm22.166-4.883c-.54.466-.267.562.545.193.829-.3,1.221-.7.875-.764a.444.444,0,0,0-.147-.021A2.206,2.206,0,0,0-1612.628,1057Zm-4.735-1.727a1.667,1.667,0,0,0-.644,1.025c-.137.428.1.688.464.521a1.036,1.036,0,0,0,.643-1.025c-.089-.342-.263-.534-.4-.534A.143.143,0,0,0-1617.363,1055.276Zm-17.976-.612a.934.934,0,0,0-.569.992.652.652,0,0,0,.907.32.927.927,0,0,0,.569-.991.51.51,0,0,0-.518-.414A.952.952,0,0,0-1635.339,1054.664Zm25.441-4.98c-1.034.47-.984.666-.042,1.117a3.655,3.655,0,0,0,1.435.446c.148-.068.177-.594.042-1.118a.816.816,0,0,0-.844-.582A1.433,1.433,0,0,0-1609.9,1049.684Zm-29.126-.667c-1.755.871-1.885,1-.553,1.057a3.162,3.162,0,0,0,2.061-.644c.611-.689.711-1.031.315-1.031A5.826,5.826,0,0,0-1639.023,1049.018Zm-2.944-.858a.933.933,0,0,0-.569.991.652.652,0,0,0,.907.319.928.928,0,0,0,.57-.991.509.509,0,0,0-.518-.414A.953.953,0,0,0-1641.967,1048.16Zm16.763-.887c-1.157.307-1.2.472-.081,1.282.7.486,1.543.544,1.86.179.681-.793.016-1.573-1.054-1.573A2.5,2.5,0,0,0-1625.2,1047.272Zm-2.906-6.147a3.632,3.632,0,0,1-1.507,2.149c-.738.336-.921,1.225-.515,2.8.321,1.246.961,2.127,1.33,1.958a1.024,1.024,0,0,0,.518-1.188,9.159,9.159,0,0,1,1.135-3.592c1.435-3.069,1.447-3.66.336-3.813C-1627.307,1039.442-1627.853,1040.2-1628.11,1041.125Zm19.127,4.115c-.432.563-.256.922.5,1.309.85.419,1.31.283,1.953-.742.717-1.058.666-1.255-.412-1.277h-.08A3.1,3.1,0,0,0-1608.983,1045.24Zm-23.787.2c-.369.168-.7.467-.671.6.051.2.5.356.924.385.494-.005.755-.271.671-.6a.585.585,0,0,0-.58-.466A.836.836,0,0,0-1632.77,1045.441Zm10.443-1.088a.935.935,0,0,0-.569.992.652.652,0,0,0,.907.32.929.929,0,0,0,.569-.992.509.509,0,0,0-.518-.414A.951.951,0,0,0-1622.327,1044.353Zm-19.595.784a.654.654,0,0,0,.924.385c.443-.2.7-.466.671-.6-.05-.2-.43-.39-.924-.385l-.056,0C-1641.7,1044.537-1642,1044.824-1641.922,1045.137Zm23.791-2.106c.289.161.738-.336.972-1.028.564-1.648.428-2.173-.518-2.327h-.011C-1618.6,1039.675-1619.036,1042.713-1618.132,1043.031Zm-22.088-1.524c.083,1.28,5.7,1.291,6.781.065.3-.43-.334-.654-1.526-.478-1.34.243-2.263-.142-2.484-.995a.817.817,0,0,0-.834-.679A2.186,2.186,0,0,0-1640.219,1041.507Zm25.645-1.632c-.71.762-.213,2.367.791,2.423a4.028,4.028,0,0,0,2.187-1.434l1.363-1.427-1.9-.014-.155,0A4.378,4.378,0,0,0-1614.575,1039.875Zm10.564-6.05c.306.227.243.622-.2.823a.986.986,0,0,0-.3,1.383c.367.785.009,1.314-1.32,1.918-2.288,1.041-2.287,3.6-.086,4.14,1.31.283,1.384.249.586-.925-.764-1.044-.667-1.308.883-2.013,1.329-.6,1.955-1.694,2.692-4.592a18.391,18.391,0,0,1,1.516-4.352,1.766,1.766,0,0,0-.478-2.492.216.216,0,0,0-.06-.008C-1601.742,1027.707-1604.714,1033.286-1604.011,1033.826Zm-17.032,5.916a1.984,1.984,0,0,0-.468,1.384c.1.393.488.292.806-.074a1.723,1.723,0,0,0,.468-1.384c-.046-.179-.136-.262-.258-.262A.918.918,0,0,0-1621.043,1039.741Zm4.829-3.661c-.643,1.025-.9,1.948-.627,2.043s.835-.6,1.256-1.523c.538-1.345.7-2.015.535-2.015C-1615.2,1034.585-1615.592,1035.085-1616.214,1036.08Zm130.021-3.117a2.345,2.345,0,0,0-1.661,2.513l.037,1.741,1.786-2.35c1.341-1.786,1.806-2.478,1.381-2.478A5.775,5.775,0,0,0-1486.193,1032.963Zm5.4.472a.934.934,0,0,0-.569.991.652.652,0,0,0,.907.319.927.927,0,0,0,.569-.991.509.509,0,0,0-.518-.414A.949.949,0,0,0-1480.792,1033.436Zm-137.462-2.066c-2.278,1.4-2.632,2.589-.635,2.339,1.209-.111,3.136-2.232,2.9-3.149-.016-.062-.084-.092-.194-.092A5.18,5.18,0,0,0-1618.254,1031.369Zm7.906-1.326a.654.654,0,0,0,.924.385c.443-.2.7-.466.671-.6-.051-.2-.431-.39-.925-.385l-.056,0C-1610.127,1029.444-1610.428,1029.731-1610.348,1030.044Zm161.654-6.154a8.651,8.651,0,0,0-1.832,2.811,2.877,2.877,0,0,1-.383,1.712c-.365.824-.3,1.087.294.818.738-.336,1.324-1.261,3.572-5.652.5-.953.58-1.424.329-1.424C-1446.992,1022.154-1447.687,1022.737-1448.693,1023.89ZM-1613,1025.833a2.261,2.261,0,0,0-.423,1.876c.328.949.4.916,1.074-.635.53-1.227.552-1.923.218-1.923C-1612.321,1025.152-1612.619,1025.369-1613,1025.833Zm-21.843-1.855a4.585,4.585,0,0,0-.634,2.338l-.054,1.709,1.071-2.245c.7-1.475.821-2.448.441-2.448C-1634.194,1023.332-1634.471,1023.533-1634.846,1023.978Zm21.041-3.492c-.666,1.255-.963,2.342-.617,2.4.363.128,1.017-.536,1.421-1.525.652-1.517.764-2.377.469-2.378C-1612.75,1018.988-1613.192,1019.459-1613.8,1020.486Zm22.136-4.357a1.818,1.818,0,0,0-.467,1.384c.085.328.521.422.89.254a1.156,1.156,0,0,0,.468-1.384c-.082-.315-.246-.487-.449-.487A.654.654,0,0,0-1591.668,1016.129Zm-16.647-3.778c-.37.167-.586.925-.383,1.712.186.721.657.946.975.581a1.993,1.993,0,0,0,.383-1.712c-.1-.4-.363-.65-.679-.65A.712.712,0,0,0-1608.315,1012.351Zm-20.615-3.805c-.812.369-1.817,3.829-1.182,4.052.364.128.926-.567,1.347-1.491.628-1.663.708-2.648.166-2.648A.824.824,0,0,0-1628.93,1008.545Zm6-2c-1.551.7-3.656,4.372-2.675,4.658.363.128.9-.338,1.137-1.03.387-1.056.683-1.19,1.148-.669s.816.288,1.7-1.068c.894-1.42.847-2.255-.014-2.255A3.358,3.358,0,0,0-1622.929,1006.548Zm6.739-2.333a.935.935,0,0,0-.57.991.653.653,0,0,0,.908.32.927.927,0,0,0,.569-.991.509.509,0,0,0-.517-.414A.95.95,0,0,0-1616.189,1004.216Zm-3.019-3.388c-.866,2.079-.2,2.434,1.066.614.472-.727.6-1.516.2-1.776a.423.423,0,0,0-.234-.074C-1618.514,999.592-1618.881,1000.028-1619.208,1000.828Zm12.683-.716c.575,2.228,2.152,2.9,3.005,1.416.512-.892.462-1.088-.572-.618-1.771.805-1.905-.671-.235-1.87,1.449-1.1,1.615-2.053.355-2.138a1.556,1.556,0,0,0-.161-.008A2.823,2.823,0,0,0-1606.525,1000.112Zm7.884-4.611c-1.7.772-2.147,1.269-1.876,2.318.406,1.572,1.695,1.132,3.151-1.214.838-1.291,1.142-1.852.717-1.852A7.53,7.53,0,0,0-1598.641,995.5Zm-20.581-.159a1.444,1.444,0,0,0-.22,2.663c1.321.644,3.291-.032,3.037-1.015-.1-.393-.464-.521-.907-.319a.788.788,0,0,1-.992-.647.859.859,0,0,0-.717-.726A.485.485,0,0,0-1619.222,995.342Zm17.509-5.034a1.166,1.166,0,0,0-.394,1.351c.169.655.679.716,1.219.25a2,2,0,0,1,2.072-.283c1.4.61,2.445.206,4.792-1.887,2.307-1.928,1.716-5.174-.646-4.1-1.107.5-1.487.31-1.378-.545.086-.625-.072-.919-.391-.554a4.814,4.814,0,0,0-.056,2.661,6.235,6.235,0,0,1,.16,2.857c-.41,1.285-1.642,1.626-1.913.577-.127-.494-.753-.762-1.558-.762A4.716,4.716,0,0,0-1601.714,990.309Zm11.947-8.363a1,1,0,0,0-.552,1.057c.085.328.487.291.806-.074a1.556,1.556,0,0,0,.553-1.057c-.015-.058-.088-.09-.2-.09A1.571,1.571,0,0,0-1589.767,981.946Zm192.652-29.553c-.539.465-.267.562.545.193.828-.3,1.22-.7.875-.765a.447.447,0,0,0-.146-.021A2.208,2.208,0,0,0-1397.115,952.393Zm-151.078-27.653a3.039,3.039,0,0,0,.423,1.638c.34.358.4-.037.167-.954-.157-.611-.313-.93-.435-.93C-1548.1,924.493-1548.153,924.574-1548.193,924.739Zm1.091-7.6a.939.939,0,0,0-.586.926,1.146,1.146,0,0,0,1.009.713c.493-.005.721-.4.586-.926-.121-.471-.41-.773-.747-.773A.63.63,0,0,0-1547.1,917.14Zm0-5.125a10.189,10.189,0,0,0-1.412,2.839c-.616,1.451-.822,2.57-.452,2.4a5.513,5.513,0,0,0,1.372-2.674c.733-2.131.892-2.629.684-2.629A.54.54,0,0,0-1547.105,912.015Zm2.279,1.16c-.71.763-.985,1.62-.661,1.913.488.291.971-.076,1.432-1.165.506-1.253.691-1.857.484-1.857C-1543.735,912.066-1544.142,912.443-1544.827,913.175Zm90.349-1.183c-.563.695.517,2.327,1.33,1.958a2.211,2.211,0,0,0,.914-.929c.394-.615-.647-1.306-1.5-1.306A.991.991,0,0,0-1454.477,911.992Zm-140.018-4.932a4.2,4.2,0,0,1-2.5,1.5c-.937.206-1.641.673-1.54,1.066.085.328.941.45,1.878.244,1.725-.346,3.425-2.07,3.12-3.25-.042-.163-.114-.239-.21-.239C-1593.921,906.385-1594.18,906.634-1594.495,907.061Zm57.356-13.638c-1.618.443-1.749.575-.814,1.321,1.076.976,1.956.869,2.565-.288.526-.849.4-1.3-.369-1.3A5.1,5.1,0,0,0-1537.139,893.423Zm181.722-14.7c-1.612.148-1.538.113-1.712,2.317-.151,1.973.178,1.969,2.065.013,1.351-1.485,1.345-2.352.047-2.352A3.767,3.767,0,0,0-1355.417,878.727Zm-5.666,1.7c.709.19,3.606-2.006,3.437-2.662a1,1,0,0,0-.884-.549h-.025C-1359.414,877.213-1361.729,880.139-1361.083,880.425Zm-165.641-2.578c-.369.168-.586.926-.383,1.712.186.721.657.947.975.582a2,2,0,0,0,.383-1.713c-.1-.4-.364-.65-.68-.65A.714.714,0,0,0-1526.724,877.847Zm2.749-4.692c-.54.465-.267.561.545.192.829-.3,1.221-.7.876-.764a.449.449,0,0,0-.146-.021A2.209,2.209,0,0,0-1523.975,873.156Zm5.968-5.643c-.54.465-.268.561.545.192.829-.3,1.22-.7.875-.764a.446.446,0,0,0-.147-.021A2.2,2.2,0,0,0-1518.008,867.513Zm168.936-7.343a3.283,3.283,0,0,1-1.393,1.952c-1.476.671-2.308,2.881-1.47,3.891.945,1.108,3.223-.294,2.556-1.6a2.989,2.989,0,0,1,.486-2.272,3.683,3.683,0,0,0,.616-2.4c-.138-.394-.23-.606-.325-.606C-1348.719,859.129-1348.843,859.457-1349.071,860.17Zm-224.423,2.336a2.341,2.341,0,0,0-.854,1.487c-.115,1.151.707,1.143,1.391-.047.492-.778.352-1.526-.188-1.526A.852.852,0,0,0-1573.494,862.506Zm60.379-2.564a2.086,2.086,0,0,0-.837,1.552c-.258,1.876-.043,2.07.9.616.861-1.258.959-2.274.345-2.274A1.014,1.014,0,0,0-1513.115,859.942Zm3.784-6.115a2.877,2.877,0,0,0-1.933,2.417c-.214,2.368.558,2.163,2.276-.449,1.205-1.857,1.634-2.555,1.211-2.555A5.942,5.942,0,0,0-1509.332,853.827Zm.192-3.09c-2.124,1.039-1.245,1.885,1.292,1.17a9.785,9.785,0,0,0,4.073-2.438,15.059,15.059,0,0,1,3.732-2.8,7.294,7.294,0,0,0,2.91-2.788,6.4,6.4,0,0,1,2.245-2.486,10.125,10.125,0,0,0,2.831-3.411A11.255,11.255,0,0,1-1489,834.18a2.523,2.523,0,0,0,1.265-2.772,5.527,5.527,0,0,1,1.356-3.693c2.121-2.649,1.657-3.17-1.636-2.185a28.013,28.013,0,0,0-6.3,3.084,25.028,25.028,0,0,1-4.953,2.545,4.817,4.817,0,0,0-2.579,1.832A13.189,13.189,0,0,1-1504,835.51a2.571,2.571,0,0,0-.889,2.308c.186.721-.5,2.206-1.571,3.5-1.666,1.857-1.842,2.449-1.011,3.755.792,1.471.695,1.734-1,2.507-1.994.907-2.326,2.815-.4,2.6q.055,0,.1,0C-1508.32,850.172-1508.448,850.423-1509.14,850.738ZM-1747.931,836.4c-.369.168-.473.727-.337,1.252a1.3,1.3,0,0,1-.633,1.386c-1.459.737-5.789,7.612-4.973,7.9.438.094.846-.239,1.04-.766a15.462,15.462,0,0,1,3.012-3.347c1.455-1.394,3.359-3.286,4.109-4.213,1.445-1.755,1.427-1.821-.121-2.068a8.417,8.417,0,0,0-1.623-.208A1.276,1.276,0,0,0-1747.931,836.4Zm-7.651,4.872a.654.654,0,0,0,.923.385c.444-.2.7-.467.671-.6-.05-.2-.43-.39-.923-.384l-.056,0C-1755.361,840.667-1755.664,840.954-1755.582,841.267Zm8.026-12.365c-1.033.47-6.78,9.527-6.161,9.686.273.1,1.625-.739,3.13-1.936,2.062-1.6,2.726-1.9,3.191-1.379.888,1.207,2.582-.222,2.159-1.86-.558-2.163.488-3.225,1.552-1.658.872,1.141.872,1.141,1.141-.373.373-2.074-.664-3.213-1.875-2.15a1.1,1.1,0,0,1-1.554.049,1.752,1.752,0,0,0-1.126-.475A1.1,1.1,0,0,0-1747.556,828.9Zm425.071,2.92a.934.934,0,0,0-.569.991.652.652,0,0,0,.907.32.927.927,0,0,0,.569-.991.508.508,0,0,0-.517-.414A.95.95,0,0,0-1322.485,831.821Zm-255.2-4.391a3.793,3.793,0,0,0-.022,2.792c.457,1.769.638,1.833.868.485.343-1.861.061-3.489-.485-3.489A.515.515,0,0,0-1577.681,827.43Zm16.141,1.813c-.369.167-.7.466-.671.6.05.2.5.356.924.385.493-.005.755-.271.671-.6a.585.585,0,0,0-.579-.465A.835.835,0,0,0-1561.541,829.243Zm1.1-3.428c-1.255.571-.661,1.912.769,1.7a.9.9,0,0,0,.683-1.189.852.852,0,0,0-.872-.646A1.409,1.409,0,0,0-1560.445,825.815Zm-171.314-10.175a3.692,3.692,0,0,0-1.5,2.511c-.081,1.283-2.121,2.65-6.436,4.466-.681.237-.7.466.022.722,1.361.48,1.49,1.3.161,1.9a1.433,1.433,0,0,0-.854,1.486c.17.656.992.648,2.543-.058,1.846-.839,2.164-1.2,1.575-1.888s-.328-.949,1.495-1.558c1.453-.442,1.994-.906,1.727-1.3-.323-.292.225-2.006,1.193-3.691,1.308-2.4,1.769-3.368,1.4-3.368A3.932,3.932,0,0,0-1731.759,815.639Zm-8.714,2.353a9.679,9.679,0,0,1-2.456,2.948,11.626,11.626,0,0,0-2.678,3.048c-1.507,2.15-1.552,2.611-.532,2.732,1.458.216,2.3-.68,1.961-1.99-.136-.524.5-1.253,1.608-1.757,1.182-.537,1.744-1.232,1.592-1.822s.41-1.285,1.444-1.755a10.315,10.315,0,0,0,3.331-3.713c.894-1.651,2.11-3.01,2.661-3.114.641-.072.925-.567.723-1.354a1.508,1.508,0,0,1,.177-1.072h-1.344c-1.238,2.48-4.854,5.266-6.749,4.6-1.088-.383-3.043,1.311-4.21,3.819-1.014,2.146-.043,2.07,2.088-.217,1.532-1.577,2.59-2.378,3-2.379C-1739.479,815.965-1739.642,816.634-1740.473,817.992Zm178.687,5.5a3.711,3.711,0,0,0-.735,1.945c.1.393.6.093,1.074-.635a3.726,3.726,0,0,0,.735-1.946c-.031-.118-.1-.173-.188-.173C-1561.113,822.688-1561.456,822.987-1561.786,823.5Zm-193.579-.562a1.008,1.008,0,0,0-.553,1.057c.086.328.488.291.806-.074a1.548,1.548,0,0,0,.552-1.057c-.015-.058-.087-.089-.2-.089A1.57,1.57,0,0,0-1755.365,822.934Zm-37.272-1.867a1.241,1.241,0,0,0,.247,1.279c.357.423.527.126.342-.595-.08-.536-.266-.839-.423-.839C-1792.534,820.911-1792.593,820.962-1792.637,821.066Zm42.448-2.684c-3.3,2.234-3.83,3.06-2.224,3.208.766.091,1.283-.144,1.329-.6s1.012-1.193,2.119-1.7c2.289-1.041,3.153-2.166,2.156-2.518a.457.457,0,0,0-.15-.022A8.456,8.456,0,0,0-1750.189,818.383Zm189.571,1.652a.937.937,0,0,0-.57.992.652.652,0,0,0,.907.32.928.928,0,0,0,.57-.992.509.509,0,0,0-.517-.414A.951.951,0,0,0-1560.617,820.035Zm91.578-6.648c-1.353,4.35-1.588,5.994-.628,5.557.738-.336,1.861-3.335,1.681-4.352a12.778,12.778,0,0,1,.739-3.851q.109-.321.21-.6h-.839Q-1468.469,811.618-1469.039,813.387Zm-278.082-.06a.933.933,0,0,0-.569.991.651.651,0,0,0,.907.32.927.927,0,0,0,.569-.991.509.509,0,0,0-.517-.414A.95.95,0,0,0-1747.121,813.326Zm-35.36-1.492a1.663,1.663,0,0,0-.643,1.025c-.137.428.094.688.464.521a1.037,1.037,0,0,0,.643-1.025c-.089-.342-.263-.534-.4-.534A.145.145,0,0,0-1782.482,811.834Zm54.23-.5c-.59.268-1.04.765-.939,1.158.085.328.687.42,1.277.152s1.022-.832.938-1.159c-.057-.223-.271-.328-.552-.328A1.8,1.8,0,0,0-1728.251,811.335Zm-24.462.141a7.436,7.436,0,0,0,1.438-1.333h-1.1C-1752.981,811.059-1753.24,811.716-1752.713,811.476Zm4.915-.77a.651.651,0,0,0,.907.319.964.964,0,0,0,.587-.881h-1.4A.746.746,0,0,0-1747.8,810.706Zm441.724-3.19c-1.033.47-1.778,1.1-1.676,1.495.185.721,2.673-.191,3.225-1.247.335-.584.418-.863.127-.864A6.036,6.036,0,0,0-1306.075,807.515Zm3.66-.2a1.007,1.007,0,0,0-.552,1.057c.085.328.487.292.806-.073a1.557,1.557,0,0,0,.553-1.057c-.015-.058-.088-.09-.2-.09A1.577,1.577,0,0,0-1302.414,807.314Zm3.6-14.818a1,1,0,0,0-.552,1.057c.085.328.487.291.806-.074a1.556,1.556,0,0,0,.553-1.057c-.015-.058-.088-.089-.2-.089A1.569,1.569,0,0,0-1298.815,792.5Zm3.4-1.544a1.657,1.657,0,0,0-.644,1.024c-.137.428.1.689.464.521a1.036,1.036,0,0,0,.643-1.024c-.088-.342-.262-.534-.4-.534A.143.143,0,0,0-1295.419,790.952Zm-2.382-4.116c.1.393-.382.759-1.023.831-1.776.149-1.183,1.49.644,1.538a2.278,2.278,0,0,0,2.2-1.073c.4-.694.751-.927.835-.6.068.262.664-.3,1.308-1.327,1.513-2.446,2.693-2.03,1.361.479-1.2,2.377-.208,2.072,1.215-.406,1.269-2.115,1.286-2.049-.274-2.659-1-.351-1.753-.081-3.094,1.115-1.006.9-2.154,1.565-2.59,1.471l-.061,0A.48.48,0,0,0-1297.8,786.837Zm12.177-7.15c.152.589.442.751.686.42a7.207,7.207,0,0,0-.409-3.182c-.446-1.409-.506-2.919-.187-3.283.881-1.06.547-1.714-.87-2.094-1.583-.379-3.668,1.449-2.831,2.459a2.273,2.273,0,0,1-.23,2.3c-1.2,2.081-.239,3.55,1.9,2.872a2.85,2.85,0,0,1,.8-.122C-1286.188,779.058-1285.73,779.275-1285.624,779.687Zm-6.808-4.007a.934.934,0,0,0-.57.991.652.652,0,0,0,.907.32.927.927,0,0,0,.57-.991.509.509,0,0,0-.518-.414A.951.951,0,0,0-1292.432,775.68Zm8.683-11.419c-2.318,1.567-3.985,4.376-2.822,4.726.726.256,3.284-2.3,4.519-4.545a5.553,5.553,0,0,0,.8-1.683h-.008C-1281.387,762.758-1282.427,763.445-1283.748,764.261Zm52.159-66.048a.933.933,0,0,0-.569.991.652.652,0,0,0,.907.319.929.929,0,0,0,.57-.991.51.51,0,0,0-.518-.414A.952.952,0,0,0-1231.589,698.213Zm11.894-17.2a7.585,7.585,0,0,1-1.859,2.384c-1.033.47-.286,1.448,1,1.3.806-.074,1.869-1.069,2.683-2.391,1.5-2.512,1.565-3.2.306-3.289h-.02C-1218.021,679.021-1219.006,679.907-1219.7,681.013Zm6.394-9.425c-1.328.6-3.451,4.206-3.163,5.32.321,1.246.469,1.178,2.079-1.532,1.446-2.349,1.936-3.86,1.354-3.86A.675.675,0,0,0-1213.3,671.588Zm1.338-2.805c-.369.167-.7.467-.671.6.05.2.5.356.924.385.493,0,.755-.27.67-.6a.586.586,0,0,0-.579-.466A.834.834,0,0,0-1211.963,668.783Zm19.534-42.569a.934.934,0,0,0-.57.991.651.651,0,0,0,.907.32.927.927,0,0,0,.57-.991.509.509,0,0,0-.518-.414A.951.951,0,0,0-1192.43,626.214Zm2.66-13.659c-.545.761-.706,1.419-.524,1.484.635.223,1.8-1.332,1.6-2.119-.033-.129-.1-.194-.2-.194C-1189.1,611.726-1189.414,612-1189.769,612.554Zm12.958-12.118c.152.59-.411,1.285-1.371,1.722-3.027,1.377-4.76,2.971-4.064,3.752a.676.676,0,0,1-.206,1.119c-.443.2-.489.662-.132,1.085a1.223,1.223,0,0,1-.013,1.544c-.842.9-.347,3.452.539,3.05.369-.168,1.36-2.083,2.34-4.36a44.519,44.519,0,0,1,3.443-6.473c1.655-2.217,1.678-2.447.293-2.7s-1.417-.38-.6-2c1.048-2.014,1.083-2.836.049-2.366a2.47,2.47,0,0,0-.86,1.783,5.332,5.332,0,0,1-1.576,2.84l-1.438,1.46,1.7-.772a3,3,0,0,1,1.035-.221C-1177.22,599.906-1176.9,600.08-1176.811,600.437Zm-10.005,10.775c.8.222,1.243.021,1.141-.373a1.168,1.168,0,0,0-1.1-.744,2.917,2.917,0,0,0-.3-.016C-1188.221,610.078-1188.2,610.891-1186.817,611.212Zm27.724-26.815c-1.063,1-1.145,2.278-.038,1.774.591-.268.842-.895,1.02-2.441.007-.013.006-.019,0-.019A4.149,4.149,0,0,0-1159.092,584.4Zm-2.193-5.3c-1.107.5-1.922,2.778-1.089,3.131a2.952,2.952,0,0,0,1.59-.869c1.135-1.012,1.047-2.411.1-2.411A1.469,1.469,0,0,0-1161.285,579.1Zm1.436-4.022c-1.953.742-2.1,1.762-.59,2.831,1.191.777,3.146-.918,2.757-2.426a.857.857,0,0,0-.921-.708A3.55,3.55,0,0,0-1159.849,575.074Zm15.095-48.9a3.965,3.965,0,0,0-1.313,1.622,2.577,2.577,0,0,1-1.767,1.463c-.642.072-1.051.4-.949.8.271,1.049,2.6.5,3.968-.926,1.08-1.206,1.28-3.05.434-3.05A.912.912,0,0,0-1144.754,526.176Zm-8.417-5.765c-.74,1.289.219,1.805,1.156.646a.907.907,0,0,0,.082-1.283.618.618,0,0,0-.34-.108C-1152.572,519.666-1152.883,519.91-1153.171,520.411Zm1.011-3.755c-.974,1.981.985,1.9,2.27-.153a6.423,6.423,0,0,1,1.87-2.022c.443-.2.546-.761.1-1.217-.7-.781-.77-.748-1.386.7-.365.824-1.018,1.488-1.438,1.459h-.03C-1151.2,515.425-1151.843,516.011-1152.16,516.656Zm-1.632-8.558c-.706,1.42-.571,1.944.665,3.213l1.467,1.53-.041-2.4a6.292,6.292,0,0,1,.464-2.994c.768-.861.193-3.09-.812-3.146-.42-.029-1.017.535-1.4,1.3s-.41,1.285-.115,1.151a.249.249,0,0,1,.1-.026C-1153.23,506.723-1153.4,507.331-1153.792,508.1Zm27.062-3.813c-.54.465-.268.561.545.192.829-.3,1.221-.7.875-.764a.446.446,0,0,0-.146-.021A2.209,2.209,0,0,0-1126.73,504.284Zm-15.34-5.106c-.512.893-.411,1.285.406,1.573s1,.056.682-1.189c-.176-.684-.333-1-.522-1C-1141.661,498.562-1141.839,498.776-1142.07,499.179Zm9.973-36.463a2.122,2.122,0,0,1-1.1,1.817,3.361,3.361,0,0,0-1.349,2.444,3.36,3.36,0,0,1-1.349,2.444,2.757,2.757,0,0,0-1.053,2.309,2.861,2.861,0,0,1-1.128,2.344,1.446,1.446,0,0,0-.82,1.617c.237.918.384.85,1.443-.8.644-1.025,1.223-1.655,1.308-1.328.068.263,1.155-1.916,2.459-4.853,1.321-2.871,2.149-5.737,2.013-6.261-.132-.368-.216-.55-.275-.55S-1132.056,462.173-1132.1,462.716Zm-27.95-4.424c-.512.892-.41,1.285.406,1.573s1,.056.683-1.19c-.176-.683-.333-1-.523-1C-1159.638,457.675-1159.817,457.89-1160.048,458.293Zm68.718-.938c-.639-.881-1.4-.972-2.808-.334s-1.573.935-.733.993c.6.093,1.048.548.838,1.01-.193.528.418.982,1.315.94C-1089.978,460.035-1089.807,459.738-1091.33,457.355Zm-67.039-1.509c-.156,1.315,1.155,1.6,2.11.5,1.013-1.193-1.352-2.681-2.975-1.942a3.394,3.394,0,0,0-1.716,1.66c-.234.692.152.59,1.192-.176a2.938,2.938,0,0,1,1.2-.632C-1158.356,455.26-1158.307,455.456-1158.369,455.846Zm60.125-3.548a1.667,1.667,0,0,0-.644,1.025c-.137.428.1.689.464.521a1.037,1.037,0,0,0,.643-1.025c-.089-.342-.263-.534-.4-.534A.145.145,0,0,0-1098.244,452.3Zm-57.469-.223a.652.652,0,0,0,.907.319c1.108-.5.446-2.107-1.046-2.453-1.31-.284-2.685.781-2.4,1.9.085.328.67.355,1.26.086a1.806,1.806,0,0,1,.723-.177C-1155.985,451.746-1155.771,451.851-1155.713,452.075Zm15.988-5.808a4.42,4.42,0,0,0-1.138,1.982c-.587,1.878.236,1.87,1.317-.013.674-1.175.714-2.06.173-2.06A.87.87,0,0,0-1139.725,446.267Zm-13.661,2.039a7.952,7.952,0,0,0,2.3.931c1.253.382,2.166.4,2.066.013s-1.117-.811-2.3-.931c-.635-.064-1.193-.1-1.568-.1C-1153.214,448.218-1153.4,448.246-1153.386,448.306Zm19.526-1.046a1.209,1.209,0,0,0-.484,1.319.788.788,0,0,0,.992.648,1.128,1.128,0,0,0,.485-1.319.831.831,0,0,0-.726-.708A.641.641,0,0,0-1133.86,447.26Zm-22.407-3.721a1,1,0,0,0-.552,1.057c.085.328.487.291.805-.074a1.555,1.555,0,0,0,.553-1.057c-.015-.058-.088-.09-.2-.09A1.573,1.573,0,0,0-1156.267,443.539Zm4.794-6.355c-.54.465-.267.562.545.192.829-.3,1.221-.7.875-.764a.447.447,0,0,0-.146-.021A2.2,2.2,0,0,0-1151.473,437.184Zm7.771-12.395c-1.527.474-2.391,1.6-4.259,5.232a28.092,28.092,0,0,0-2.21,5.18c.1.393.454.159.852-.534a5.717,5.717,0,0,1,2.307-1.929,2.447,2.447,0,0,0,1.52-2.741,5.631,5.631,0,0,1,1.8-3.893l1.831-1.858Zm-.961,4.9a7.567,7.567,0,0,1,1,1.961.731.731,0,0,0,.975.581c1.108-.5.514-1.844-1.277-2.714a4.544,4.544,0,0,0-1.1-.5C-1145.2,429.021-1145.043,429.242-1144.662,429.693Zm15.479-3.306c-.529.826-.638,1.681-.292,1.743.833.354,2.535-2.324,1.815-2.876a.452.452,0,0,0-.251-.074C-1128.294,425.182-1128.783,425.613-1129.183,426.388Zm6.56-10.38c-1.357.177-3.017,5.252-2.184,6.558,1.506,2.317,3.995-.5,2.791-3.246-.276-.753-.15-1.543.292-1.744.978-.445.3-1.579-.722-1.579A1.4,1.4,0,0,0-1122.623,416.008Zm-17.867,2.048a1.955,1.955,0,0,0-1.012,1.193c-.137.428.243.621.833.353.664-.3,1.1-.865,1.012-1.193a.524.524,0,0,0-.522-.426A.755.755,0,0,0-1140.49,418.055Zm-1.417-1.333c-.539.465-.267.562.544.192.829-.3,1.221-.7.876-.764a.449.449,0,0,0-.146-.021A2.208,2.208,0,0,0-1141.906,416.723Zm.507-4.111c-.3.135-.392.4-.177.593a14.953,14.953,0,0,1,1.178,1.368c.464.521,1.083.68,1.458.216.616-.736-.988-2.253-2.078-2.253A.914.914,0,0,0-1141.4,412.611Zm24.9-.343a.937.937,0,0,0-.586.925,1.147,1.147,0,0,0,1.009.713c.494,0,.722-.4.586-.925-.121-.471-.409-.773-.746-.773A.632.632,0,0,0-1116.495,412.268Zm2.141-4.488a2.763,2.763,0,0,0-1.58,1.23c-.91,1.586.44,1.7,1.572.018.579-.842.628-1.274.21-1.274A.952.952,0,0,0-1114.354,407.78Zm-24.451.5c-2.317.615-2.447.747-1.176,1.194a3.1,3.1,0,0,0,2.884-.653c.971-.774,1.332-1.13.87-1.13A14.991,14.991,0,0,0-1138.805,408.282Zm-34.3-30.312c-1.993.906-2.336,2.453-.7,3.029s2.884-.652,2.427-2.422a.939.939,0,0,0-.943-.8A1.922,1.922,0,0,0-1173.108,377.97Zm12.984-3.708a1.007,1.007,0,0,0-.553,1.057c.085.328.488.291.806-.074a1.55,1.55,0,0,0,.552-1.057c-.015-.058-.087-.09-.2-.09A1.572,1.572,0,0,0-1160.124,374.262Zm1.523-11.677c-.545.761-.706,1.42-.525,1.484.635.223,1.8-1.332,1.6-2.119-.033-.129-.1-.194-.2-.194C-1157.929,361.756-1158.246,362.029-1158.6,362.585Zm2.124-4.554c-1.2.472-1,.6.9.616a4.7,4.7,0,0,0,3.014-.786c.36-.4.028-.606-.665-.606A9.217,9.217,0,0,0-1156.478,358.031Zm-11.029-1.5a4,4,0,0,0-1.68.838c-.171.3.038.787.435,1.047.5.356.931.089,1.59-.869.618-.882.771-1.176.437-1.176A3.862,3.862,0,0,0-1167.506,356.53Zm7.068-1.383c-.791,1.092-1.138,1.982-.752,1.88,1.373-.112,2.76-1.768,2.49-2.817-.1-.368-.188-.572-.347-.572C-1159.285,353.637-1159.672,354.095-1160.438,355.146Zm3.392-10.184c-1.309,2.28-3.071,4.4-3.956,4.8-1.846.84-3.109,2.659-2.737,4.1.186.721.6.388,1.579-1.231a8.665,8.665,0,0,1,3.024-2.986c1.92-.873,5.117-6.062,4.711-7.635-.047-.183-.125-.277-.237-.277C-1155.033,341.736-1155.78,342.756-1157.046,344.962Zm-11.551,6.06c-.638,1.681-.452,2.4.508,1.966.443-.2.569-.991.349-1.843-.156-.605-.276-.9-.407-.9S-1168.409,350.508-1168.6,351.022Zm4.787-5.106c-.591.268-.8.73-.5.957a.992.992,0,0,0,1.266-.209c.577-.694.637-1.059.239-1.059A2.828,2.828,0,0,0-1163.811,345.916Zm-3.6.1a.655.655,0,0,0,.924.385c.443-.2.7-.467.67-.6-.051-.2-.431-.39-.924-.385l-.054,0C-1167.193,345.416-1167.5,345.7-1167.414,346.017Zm-.463-4.989c-2.352,1.435-2.56,3.507-.2,2.433a5.116,5.116,0,0,0,2.344-3.7S-1166.673,340.26-1167.877,341.028Zm19.156-3.441c-2.272,1.106-4.3,3.492-3.991,4.671.288,1.114,3.69-.726,3.919-2.075a2.427,2.427,0,0,1,1.3-1.687c.59-.269,1.022-.832.938-1.159-.04-.154-.211-.226-.472-.227A4.6,4.6,0,0,0-1148.72,337.587Zm-9.521-7.167c-1.9.939-2.983,1.869-3.035,2.625a5.418,5.418,0,0,1-1.57,2.545c-.858.83-1.41,1.886-1.275,2.41.457,1.769,2.956.267,4.516-2.64a24.806,24.806,0,0,1,3-4.365c1.089-1.172,1.5-1.735,1.116-1.735A11.121,11.121,0,0,0-1158.242,330.421Zm12.652,4.278a.934.934,0,0,0-.569.992.652.652,0,0,0,.907.32.927.927,0,0,0,.569-.991.51.51,0,0,0-.518-.414A.953.953,0,0,0-1145.589,334.7Zm-21.771-.935a1.31,1.31,0,0,0-.518,1.187.831.831,0,0,0,.958.517.918.918,0,0,0,.592-1.221c-.1-.4-.358-.637-.638-.637A.625.625,0,0,0-1167.36,333.763Zm24.385-1.718a.933.933,0,0,0-.569.991.651.651,0,0,0,.907.319.927.927,0,0,0,.569-.991.509.509,0,0,0-.517-.414A.951.951,0,0,0-1142.975,332.045Zm8.121-3.694c-.96.436-1.245.932-.78,1.454.787.814,1.577.674,2.128-.383.53-.856.381-1.367-.262-1.367A2.777,2.777,0,0,0-1134.854,328.352Zm-20.564-7.124c-.687.532-2.062,1.6-3.192,2.331-1.54,1.066-1.768,1.462-1.094,2.474,1.313,1.893,2.227,1.917,3.251.132.512-.892.616-1.451.173-1.25a.79.79,0,0,1-1.067-.613c-.152-.59.411-1.285,1.592-1.822,1.033-.471,1.761-1.167,1.66-1.561a.3.3,0,0,0-.311-.262A1.866,1.866,0,0,0-1155.418,321.228Zm3.85-1.385c-1.182.537-2.735,3.148-2.538,4.23.085.328,2.8-.98,4.265-2.012a4.181,4.181,0,0,0-.208-1.444,1.055,1.055,0,0,0-1.01-.891A1.233,1.233,0,0,0-1151.568,319.843Zm-10.265-.457a4.262,4.262,0,0,0-1.3,1.688c-.535,1.121-.484,1.319.4.915a3.275,3.275,0,0,0,1.432-1.164c.492-.778.352-1.526-.188-1.526A.852.852,0,0,0-1161.833,319.386Zm-84.708-22.984a1.667,1.667,0,0,0-.644,1.024c-.137.428.1.689.465.521a1.036,1.036,0,0,0,.643-1.024c-.088-.342-.263-.534-.4-.534A.145.145,0,0,0-1246.541,296.4Zm12.156-11.388c-.443.2-.449.5-.126.79a1.608,1.608,0,0,0,1.35.118c.443-.2.432-.562.126-.789a1.138,1.138,0,0,0-.752-.234A1.5,1.5,0,0,0-1234.384,285.014Zm-.31-7.914a.934.934,0,0,0-.569.991.652.652,0,0,0,.907.32.929.929,0,0,0,.569-.992.509.509,0,0,0-.518-.414A.951.951,0,0,0-1234.695,277.1Zm11.781-21.469a1.006,1.006,0,0,0-.552,1.057c.085.328.487.292.806-.074a1.554,1.554,0,0,0,.553-1.057c-.015-.058-.088-.089-.2-.089A1.569,1.569,0,0,0-1222.914,255.632Zm7.636-16.434a1.238,1.238,0,0,0,.247,1.278c.357.424.527.127.342-.594-.08-.536-.266-.839-.423-.839C-1215.174,239.043-1215.233,239.093-1215.277,239.2Zm72.3-47.161c-.683,1.189-.833,2.209-.418,2.533.6.388,1.061-.043,1.733-1.594.69-1.586.636-2.514.181-2.514C-1141.817,190.462-1142.359,190.952-1142.982,192.037Zm6.6-11.5a4.247,4.247,0,0,0-2.006,1.5,17.811,17.811,0,0,0-1.771,4.321l-1,3.163,1.382-2.313a10.237,10.237,0,0,1,1.99-2.516,6.57,6.57,0,0,0,1.531-2.381c.647-1.356.765-1.854.306-1.854A1.632,1.632,0,0,0-1136.38,180.54Zm-10.052,5.157a1.667,1.667,0,0,0-.644,1.025c-.137.428.1.688.464.521a1.037,1.037,0,0,0,.643-1.025c-.089-.342-.263-.534-.4-.534A.146.146,0,0,0-1146.433,185.7Zm-12.2-2.508a1.662,1.662,0,0,0-.643,1.025c-.137.428.1.688.464.521a1.036,1.036,0,0,0,.643-1.025c-.089-.342-.263-.534-.4-.534A.145.145,0,0,0-1158.629,183.189Zm-126.2-.6c-.512.892-.41,1.285.406,1.573s1,.056.683-1.19c-.176-.683-.333-1-.523-1C-1284.415,181.972-1284.594,182.187-1284.825,182.589Zm142.483-.217a1.661,1.661,0,0,0-.643,1.024c-.137.428.1.689.464.521a1.036,1.036,0,0,0,.643-1.024c-.088-.342-.262-.534-.4-.534A.145.145,0,0,0-1142.342,182.372Zm-134.243-10.048a1.176,1.176,0,0,1-.774,1.157c-1.181.537-4.6,6.78-4.331,7.828.254.983,1.384.249,2.129-1.335a4.6,4.6,0,0,1,1.74-1.89c.59-.268,1.24-1.589,1.486-2.873.229-1.349.651-2.273,1.013-2.145.347.062.534-.17.432-.563a1.1,1.1,0,0,0-1.025-.778l-.056,0C-1276.364,171.725-1276.666,172.012-1276.585,172.325Zm2.474,6.71c-.694.828-.311,2.631.5,2.262,1.033-.471,1.364-1.426.667-2.208a.814.814,0,0,0-.618-.323A.731.731,0,0,0-1274.111,179.035Zm144.045-1.514a1.665,1.665,0,0,0-1.053,2.309c.456,1.769,1.205,1.8,2.287-.088.812-1.413.582-2.445-.356-2.445A2.171,2.171,0,0,0-1130.066,177.521Zm-5.913.419c-.455.793-.082,1.282,1.37,1.793l2,.7-.439-1.7c-.254-.983-.877-1.8-1.388-1.859A2.137,2.137,0,0,0-1135.979,177.941Zm-136.763-10.22c-.886.4-1.508,2.15-.872,2.374s1.892-1.3,1.688-2.086a.484.484,0,0,0-.5-.362A.78.78,0,0,0-1272.742,167.72Zm137.022-9.229a1.854,1.854,0,0,0-.525,1.483c.1.393.545.192,1.074-.635.64-.935.68-1.541.357-1.541C-1135,157.8-1135.323,158.011-1135.72,158.491Zm-129.591-.008a.937.937,0,0,0-.586.925,1.147,1.147,0,0,0,1.009.713c.494,0,.722-.4.586-.925-.121-.471-.409-.773-.746-.773A.633.633,0,0,0-1265.311,158.483Zm40.233-.725a1.009,1.009,0,0,0-.553,1.058c.085.328.488.291.806-.074a1.551,1.551,0,0,0,.552-1.057c-.015-.058-.087-.09-.2-.09A1.577,1.577,0,0,0-1225.078,157.758Zm67.483-2.207c.271,1.049.787.814,2.436-1.108,1.762-2.12,1.487-3.825-.427-2.295-.949.8-1.443.8-1.646.016-.237-.918-.458-.817-1.885,1-1.518,1.789-1.558,1.954-.2,1.777a3.23,3.23,0,0,1,.392-.025C-1158.231,154.92-1157.7,155.164-1157.6,155.551Zm-179.233-8.258c-.54.465-.267.562.544.192.829-.3,1.221-.7.875-.764a.446.446,0,0,0-.146-.021A2.208,2.208,0,0,0-1336.828,147.293Zm116.4-1.9c-.546.761-.706,1.419-.434,1.516.2.13.795-.435,1.341-1.2s.707-1.419.434-1.516a.122.122,0,0,0-.068-.018C-1219.4,144.18-1219.94,144.707-1220.433,145.394Zm1.769-5.93c-1.018,1.488-.968,2.637.065,2.167a1.94,1.94,0,0,0,.729-1.65c.069-.69.048-1.413.088-1.578,0-.015-.012-.022-.025-.022A3.714,3.714,0,0,0-1218.665,139.464Zm19.449-5.185a12.089,12.089,0,0,0-1.326,2.214l-1.013,2.146,1.376-2.018c1.08-1.633,1.455-2.4,1.151-2.4A.493.493,0,0,0-1199.216,134.279Zm1.467,1.53a1,1,0,0,0-.552,1.057c.085.328.487.291.806-.074a1.556,1.556,0,0,0,.553-1.057c-.015-.058-.088-.09-.2-.09A1.572,1.572,0,0,0-1197.749,135.809Zm-17.375.433c-.512.893-.313,1.021,1.089.384s1.5-.9.683-1.19a1.847,1.847,0,0,0-.6-.122C-1214.421,135.315-1214.755,135.6-1215.124,136.242Zm68.756-7.179c-1.453.441-1.788.74-1.217,1.359a1.932,1.932,0,0,1,.088,1.937c-.365.825-.162,1.611.734,2.523,1.326,1.3,3.3,1.282,2.139-.022-2.248-2.639-2.293-3.131-.816-3.8,1.865-.848,1.626-2.142.076-2.142A3.871,3.871,0,0,0-1146.368,129.063Zm-25.059-6.324a1.978,1.978,0,0,0-.467,1.384c.1.393.487.292.806-.073a1.72,1.72,0,0,0,.467-1.385c-.046-.179-.136-.262-.257-.262A.919.919,0,0,0-1171.427,122.738Zm-7.3-1.439a3.394,3.394,0,0,1-2.187,1.434c-1.52.179-1.341,1.2.316,1.541.964.22,1.391-.046,2.073-1.236a5.869,5.869,0,0,1,1.813-1.923c.738-.336.688-.532-.13-.82a1.5,1.5,0,0,0-.5-.1C-1177.825,120.2-1178.24,120.523-1178.727,121.3Zm-28.144-.381c-1.181.537-1.984,2.22-1.167,2.508.726.256,2.573-1.536,2.371-2.323-.053-.2-.279-.331-.586-.331A1.512,1.512,0,0,0-1206.871,120.919Zm38.144-.506a.933.933,0,0,0-.569.991.652.652,0,0,0,.907.32.928.928,0,0,0,.569-.991.508.508,0,0,0-.517-.414A.951.951,0,0,0-1168.727,120.413Zm-10.281-11.068a2.232,2.232,0,0,0-.382,1.712.731.731,0,0,0,.975.581c.443-.2.586-.925.383-1.712-.127-.492-.352-.768-.607-.768A.531.531,0,0,0-1179.008,109.345Zm-3.207.36a.933.933,0,0,0-.569.991.651.651,0,0,0,.907.319.928.928,0,0,0,.57-.991.51.51,0,0,0-.518-.414A.951.951,0,0,0-1182.215,109.7Zm9.891-7.061c-1.272.5-1.516.836-.894,1.651.516.717.3,1.179-.8,1.683-.885.4-1.482.968-1.4,1.3.321,1.245,1.667.706,3.7-1.318,1.976-1.972,2.078-3.578.626-3.578A3.648,3.648,0,0,0-1172.324,102.643Zm-6.676,1.938c-.546.761-.706,1.419-.434,1.516.2.13.8-.435,1.341-1.2s.706-1.419.434-1.515a.122.122,0,0,0-.068-.019C-1177.972,103.367-1178.507,103.894-1179,104.581Zm3.018-6.205c-.689,1.485.688,2.03,1.758.738.751-.927.588-1.877-.417-1.933h-.031C-1175.09,97.179-1175.665,97.732-1175.982,98.375Zm-6.688-8.015a2.431,2.431,0,0,0-.718,2.011c.27,1.049.418.982,1.459-.737.817-1.3.98-2.039.557-2.039A2.733,2.733,0,0,0-1182.67,90.36Zm5.236-6.556c-1.416,2.182-.838,2.5.976.581.784-.8,1.132-1.687.751-1.88a.441.441,0,0,0-.245-.072C-1176.341,82.433-1176.865,82.89-1177.434,83.8Zm23.378-5.945c-.886.4-1.508,2.149-.872,2.373s1.891-1.3,1.688-2.086a.483.483,0,0,0-.495-.361A.779.779,0,0,0-1154.057,77.859Zm-12.094-9.146a24.562,24.562,0,0,0-2.918,4.036c-2.458,3.9-1.055,3.262,1.846-.839,1.475-2,2.026-3.3,1.441-3.3A.95.95,0,0,0-1166.151,68.713Z"
        transform="translate(2889.532 5153.857)"/>
    </clipPath>
  </defs>
</svg>
