<svg xmlns="http://www.w3.org/2000/svg" width="685" height="685.001" viewBox="0 0 685 685.001"><path d="M496,698.235H-189v-685H309.578a5.385,5.385,0,0,1,.31,1.392,5.532,5.532,0,0,0,1.119,4,1.831,1.831,0,0,0,1.326.63,2.353,2.353,0,0,0,1.761-1.026,2.494,2.494,0,0,1,2.024-.8,8.938,8.938,0,0,1,4.7,1.709,5.716,5.716,0,0,1,2.735,3.725,4.885,4.885,0,0,1,0,1.691.046.046,0,0,1-.034.016c-.122,0-.371-.521-.709-1.3s-.658-1.2-.956-1.2c-.273,0-.534.339-.775,1.007-.416,1.007,1.054,4.764,3.347,8.554a57.858,57.858,0,0,1,5.865,11.4c.876,2.5,2.371,5.344,3.137,5.964.847.685,1.831,2.839,2.194,4.8a19.814,19.814,0,0,0,4.009,7.477c1.626,1.982,2.612,2.988,3.489,2.988.667,0,1.275-.586,2.04-1.531,1.017-1.257,1.6-2.941.806-3.582a1.776,1.776,0,0,1-.635-1.172,1.278,1.278,0,0,1,.255-.949.566.566,0,0,1,.464-.171c.965,0,2.868,1.1,4.628,2.685,1.915,1.55,3.265,3.291,3.283,4.235a.6.6,0,0,1-.188.486,1.217,1.217,0,0,0-.418.886c-.236,2.315,2.8,7.928,6.762,12.513a34.919,34.919,0,0,1,4.98,7.054,11.239,11.239,0,0,0,4.769,4.468c1.727.8,2.407,1.288,2.425,1.748.014.355-.35.706-1.257,1.212-1.17.727-2.15,2.056-1.662,3.087A1.955,1.955,0,0,1,368.3,97.59c-.392.114-.679.615-.855,1.487a24.043,24.043,0,0,0,.306,7.663c.551,3.145,1.386,5.432,2.233,6.119,1.033.835,2.086,3.947,2.347,6.939.272,3.092,1.228,6.031,2.222,6.836a2.027,2.027,0,0,1,.712,1.483,2.488,2.488,0,0,1-.544,1.675c-.8.99-.435,2.672.8,3.672a5.206,5.206,0,0,1,1.412,2.3,6.98,6.98,0,0,1,.387,2.984,4.63,4.63,0,0,0,2.546,4.882,6.769,6.769,0,0,1,3.221,4.827c.365,1.962,1.128,3.308,1.9,3.351a1.044,1.044,0,0,1,.232-.029.387.387,0,0,1,.382.2c.115.242-.018.645-.347,1.053a2.2,2.2,0,0,0,.717,3c1.259,1.02,1.659,3.122,1.042,5.486-.577,2.215-2.126,4.616-4.283,4.987a4.455,4.455,0,0,0-3.7,3.128,4.373,4.373,0,0,0,1.8,4.4,10.837,10.837,0,0,1,3.065,6.312A19.063,19.063,0,0,0,387.127,188a18.44,18.44,0,0,1,3.262,7.881c.55,4.391,4.314,8.524,6.83,8.524a1.9,1.9,0,0,0,1.542-.737,1.9,1.9,0,0,1,1.519-.766,4.948,4.948,0,0,1,3.208,1.842,21.191,21.191,0,0,1,3.448,5.141c1.07,2.006,1.526,3.182,1.225,4.442-.315,1.313-1.452,2.693-3.577,4.937-4.417,4.678-4.56,5.376-1.9,9.34a43.666,43.666,0,0,1,3.518,7.564c1.114,3.013,1.683,5.241,1.448,5.676a.132.132,0,0,1-.12.079.417.417,0,0,1-.234-.114,73.391,73.391,0,0,1-4.472-6.645c-2.6-4.042-3.727-5.274-4.82-5.274a2.045,2.045,0,0,0-1.033.333,2.063,2.063,0,0,1-.972.237,4.73,4.73,0,0,1-3.692-2.844,2.883,2.883,0,0,1,.077-3.122,1.4,1.4,0,0,1,1.073-.593,2.131,2.131,0,0,1,1.616,1.157c.482,1.018,1.2,1.482,1.673,1.482a.522.522,0,0,0,.422-.187c.706-.989.934-3.444.583-6.253s-1.175-5.108-2.1-5.855c-1.135-.921-2.272-3.612-2.588-6.127-.469-3.746-1.418-5.726-2.745-5.726-.666,0-1.413.506-2.22,1.5-1.021,1.259-3.974,2.728-6.321,3.144l-4.321.935-.337-4.5a11.771,11.771,0,0,0-1.311-4.646c-.649-1.173-1.435-1.873-2.1-1.873-.583,0-1.038.512-1.315,1.482-.3.94-.886,1.547-1.493,1.547a.97.97,0,0,1-.619-.235c-.633-.513-.829-2.084-.42-3.363.278-1,.27-1.645-.026-2.034-.272-.359-.807-.526-1.681-.526l-.207,0c-.087,0-.171,0-.251,0-.835,0-1.316-.155-1.514-.489-.263-.443-.055-1.22.7-2.6.9-1.619,1.341-3.942.508-5.028-.439-.629-.782-.921-1.08-.921-.381,0-.725.481-1.116,1.56-.3,1.029-.662,1.62-.985,1.62-.186,0-.351-.2-.479-.587a3.877,3.877,0,0,1,1.254-3.621,1.7,1.7,0,0,0,.8-1.282c.033-1.243-1.75-3.042-5.51-6.362-10.225-8.885-16.6-16.09-19.486-22.025-1.747-3.8-2.389-5.008-4.27-5.008a17.791,17.791,0,0,0-2.906.4,15.947,15.947,0,0,1-2.916.346c-3.093,0-4.393-1.8-7.258-7.979q-.879-1.841-1.639-3.443l-.027-.057c-7.16-15.056-7.16-15.056-14.226-16.848-.472-.12-.96-.243-1.5-.383a18.172,18.172,0,0,0-4.956-.8c-1.681,0-2.868.368-3.432,1.064-.767.947-1.28,1.46-1.8,1.46-.961,0-1.938-1.75-4.282-6.382-1.811-3.542-2.9-4.922-3.9-4.922a1.261,1.261,0,0,0-.675.212,1.408,1.408,0,0,1-.806.207,8.533,8.533,0,0,1-4.556-2.132,7.641,7.641,0,0,0-4-1.918.927.927,0,0,0-.76.284,1.052,1.052,0,0,1-.833.416,1.712,1.712,0,0,1-1.4-1.019c-.252-.532-.743-1.374-1.262-2.266l0-.006c-.435-.747-.885-1.519-1.225-2.161a3.63,3.63,0,0,0-2.257-1.456,13.939,13.939,0,0,0-3.811-.462,21.439,21.439,0,0,0-6.419.974c-2.072.681-3.42,1.629-3.8,2.671-.37.9-.645,1.491-.784,1.491a.054.054,0,0,1-.039-.019,5.694,5.694,0,0,1-.035-1.968c.062-1.1.026-1.816-.341-2.205a2.076,2.076,0,0,0-1.573-.418c-.376,0-.831.024-1.477.079-1.617.137-2.471.335-2.951,1.086-.5.776-.576,2.137-.556,4.538a7.906,7.906,0,0,0,1.527,5.24,5.485,5.485,0,0,0,4.4,1.776,11.689,11.689,0,0,0,2.2-.228,3.626,3.626,0,0,1,.706-.077,1.922,1.922,0,0,1,1.766,1.083,12.832,12.832,0,0,1,1.2,3.78,25.78,25.78,0,0,1,.111,8.15,4.183,4.183,0,0,0,1.11,4.325,3.048,3.048,0,0,1,1.01,1.472,1.513,1.513,0,0,1-.194,1.4c-1.885,2.328,1.767,19.364,4.652,21.7,1.732,1.4,2.888,3.205,2.687,4.192-.162,1.185,2.032,6.213,3.96,10.158,2.068,4.232,4.633,8.889,5.7,9.755a2.5,2.5,0,0,0,1.454.68.933.933,0,0,0,.771-.4c.754-.992.618-3.7-.365-7.239-.869-3.124-1.172-4.509-.8-5a.625.625,0,0,1,.536-.217,4.948,4.948,0,0,1,1.472.357,17.2,17.2,0,0,1,5.952,4.366,30.862,30.862,0,0,1,5.275,7.143,63.5,63.5,0,0,0,6.27,8.73c2.383,2.927,5.031,5.886,5.575,5.9.107-.018.181-.1.22-.248.176-.665-.415-3.071-2.134-6.949-1.155-2.606-2.912-5.98-4.063-6.912-.907-.734-1.294-1.454-1.092-2.026s1.013-.943,2.106-.943a7.29,7.29,0,0,1,3.645,1.1,15.876,15.876,0,0,1,4.98,5.242,67.908,67.908,0,0,0,5.557,8.932,86.21,86.21,0,0,1,5.627,8.587c.739,1.424,3.533,5,8.54,10.945a55.692,55.692,0,0,1,5.5,7.478,33.449,33.449,0,0,1,3.486,7.055c1.273,3.7,3.109,7.354,4.092,8.15a9.785,9.785,0,0,1,2.6,5.332,6.492,6.492,0,0,0,1.912,3.694,4.974,4.974,0,0,0,3.38,1.353,5.609,5.609,0,0,0,3.279-1.13,7.478,7.478,0,0,1,4.312-1.031,12.176,12.176,0,0,1,2.414.232,18.166,18.166,0,0,0,2.6.205c1.461,0,2.457-.236,2.8-.664a.411.411,0,0,1,.285-.19.213.213,0,0,1,.152.072c.29.295.438,1.467.407,3.217a8.163,8.163,0,0,0,1.649,5.771,1.828,1.828,0,0,0,1.275.672c.477,0,1.15-.3,1.648-1.732.368-1.154.571-1.79.746-1.79.214,0,.389.946.773,3.02a10,10,0,0,0,2.42,5.321,5.877,5.877,0,0,0,4.332,1.941,7,7,0,0,0,3.477-.993c2.65-1.547,4.179-3.232,4.544-5.006a5.565,5.565,0,0,0-1.29-4.45c-1.156-1.572-1.724-3.049-1.349-3.512.215-.265.84-.4,1.857-.4,3.671,0,11.111,1.768,12.257,3.165a1.369,1.369,0,0,0,1.061.623c.592,0,1.19-.505,1.684-1.422a2.465,2.465,0,0,1,2.225-1.443,3.981,3.981,0,0,1,2,.63,10.971,10.971,0,0,0,4.127,1.073,2.9,2.9,0,0,0,1-.15,3.957,3.957,0,0,1,.607-.061c.229,0,.357.043.381.129.051.188-.4.566-1.3,1.092-5.7,3.591-7.654,5.226-7.729,6.482-.03.5.239.954.872,1.467a2.591,2.591,0,0,1-1.2,4.589c-1.027,0-1.809-1.356-2.094-3.629-.23-1.838-.869-2.489-2.442-2.489-.181,0-.382.009-.6.027-1.3.111-2.491.969-2.506,1.8.2,1.15,3.4,4.347,6.476,7.006s6.706,5.346,7.853,5.346a.353.353,0,0,0,.29-.11c.489-.6-.249-2.016-1.645-3.146-1.373-1.111-1.856-2.887-1.055-3.876a1.652,1.652,0,0,1,1.344-.631c1.082,0,2.576.783,4.566,2.395,2.415,1.956,3.745,3.871,3.388,4.879-.15.422-.6.646-1.3.646a6.038,6.038,0,0,1-1.542-.244,2.234,2.234,0,0,0-.773-.181.565.565,0,0,0-.5.223c-.251.361-.144,1.152.327,2.418.508,1.452.583,2.315.251,2.889-.284.49-.878.8-1.927.992-.893.119-1.349.334-1.479.7-.244.681.618,1.958,3.181,4.711,2.031,2.33,3.306,4.5,3.1,5.264a.371.371,0,0,1-.246.272,1.219,1.219,0,0,0-.732.88c-.42,1.252-.271,3.77.39,6.571a20.9,20.9,0,0,0,2.97,7.17,7.018,7.018,0,0,1,1.478,3.287,4.807,4.807,0,0,1-.664,3.215c-1.489,2.346-.943,3.857,2.785,7.7,2.076,2.2,3.106,3.44,3.346,4.573.245,1.157-.322,2.177-1.6,3.89-2.28,2.943-3.471,4.543-3.5,5.907-.028,1.325,1,2.433,3.341,4.645a15.194,15.194,0,0,1,3.641,5.3c.791,1.92,1.034,3.659.65,4.652a1.286,1.286,0,0,1-1.29.9h-.132a4.52,4.52,0,0,0-2.858,1.336,7.207,7.207,0,0,0-1.932,2.764,1.95,1.95,0,0,0,.324,2.293,2.251,2.251,0,0,0,1.437.483,2.774,2.774,0,0,0,2.139-1.013c.628-.675.994-.95,1.261-.95.545,0,.694,1.236.808,3.834s-.952,5.608-2.268,6.425a4.942,4.942,0,0,0-1.662,4.9c.408,1.941.855,2.733,1.541,2.733a1.826,1.826,0,0,0,.92-.337,1.752,1.752,0,0,1,.879-.265c.647,0,1.221.465,1.66,1.344,1.131,2.265,1.073,6.724-.7,9.076-1.957,2.415-1.813,4.742.672,10.822a115.372,115.372,0,0,1,5.188,16.9c1.113,4.657,2.94,10.387,4.275,12.328,1.252,1.863,1.64,3.048,1.258,3.845-.357.746-1.388,1.152-3.342,1.319-1.04.088-1.543.256-1.632.543-.094.307.278.78,1.208,1.533.963.78,1.35,1.28,1.255,1.623-.09.323-.6.531-1.649.676a2.871,2.871,0,0,0-2.289,2.217,5.066,5.066,0,0,0,1.935,4.952c.892.723.743,2.447-.325,3.767-.8.991-1.348,3.456-1.39,6.28s.419,5.025,1.175,5.637a.764.764,0,0,0,.49.181c.42,0,.913-.342,1.423-.989,1.354-1.716,2.561-5.251,2.086-7.237-.448-1.51-.5-2.334-.167-2.846.274-.426.834-.669,1.871-.813.178-.015.346-.023.5-.023a2.151,2.151,0,0,1,2.032,1.016,10.943,10.943,0,0,1,1.142,3.794,22.693,22.693,0,0,0,.431,2.234.794.794,0,0,0-.292-.056,1.021,1.021,0,0,0-.779.424,2.26,2.26,0,0,0-.508,1.436,1.5,1.5,0,0,0,.492,1.173,2.362,2.362,0,0,0,1.339.6.487.487,0,0,0,.394-.148,1.646,1.646,0,0,0,.278-.844c.635,1.235,1.391,1.888,2.189,1.888a2.3,2.3,0,0,0,1.718-1.034c.724-.894,1.215-1.275,1.642-1.275,1.012,0,1.724,2.3,2.846,7.126a39.62,39.62,0,0,1,1.068,10.009c-.169,2.432-.885,3.861-2.128,4.246a1.228,1.228,0,0,1-.419.084.688.688,0,0,1-.556-.263c-.391-.479-.434-1.589-.122-3.128a10.4,10.4,0,0,0-.377-5.746c-.3-.435-.555-.637-.79-.637-.569,0-1.122,1.19-2.041,4.391-.7,2.662-.91,3.983-.393,5.273.534,1.331,1.871,2.573,4.485,4.689,3.054,2.473,4.345,3.688,4.435,4.812.061.759-.436,1.48-1.257,2.4-1.7,2.1-1.487,3.228,1,5.241.544.441,1.1.9,1.479,1.248a2.423,2.423,0,0,0,.078,1.14c-.132.012-.281.017-.456.017-.387,0-.9-.026-1.721-.087-.781-.058-1.4-.1-1.862-.1-.638,0-.957.087-1.1.3-.26.385.068,1.2.722,2.827.582,1.549.874,2.327.736,2.525a.122.122,0,0,1-.108.05,7.411,7.411,0,0,1-2.061-1.317c-1.506-1.221-3.292-4.476-3.982-7.255-1-4.191-1.663-5.677-2.526-5.677-.44,0-.954.393-1.667,1.273-.8.988-.01,4.429,1.758,7.671a17.285,17.285,0,0,0,3.548,4.938,14.58,14.58,0,0,0,4.794,2.623c3.631,1.379,5.515,2.736,5.929,4.27.29,1.075-.131,2.292-1.288,3.72-.928,1.147-1.256,2.094-.948,2.74.277.58,1.056.887,2.253.887a14.279,14.279,0,0,0,3.845-.666,14.111,14.111,0,0,1,3.882-.7c1.077,0,1.776.272,2.022.788.28.588-.034,1.469-.909,2.55a7.409,7.409,0,0,0-1.528,6.547c.529,2.519,2.1,5.4,4.815,8.811a66.253,66.253,0,0,1,6.639,9.407,5.742,5.742,0,0,0,4.855,3.327,5.84,5.84,0,0,1,3.353,1.329,10.457,10.457,0,0,1,2.275,3.631,10.079,10.079,0,0,0,2.3,3.573,5.945,5.945,0,0,0,3.205,1.286,6.378,6.378,0,0,1,2.615.925V651.74a4.16,4.16,0,0,0-1.454-.432.475.475,0,0,0-.417.17c-.167.231-.12.7.153,1.52A9.152,9.152,0,0,0,496,655.734v42.5Zm-79.742-251.3a.445.445,0,0,0-.351.184,3.231,3.231,0,0,0-.333,1.95c.057,1.419.694,2.73,1.337,2.752a1.316,1.316,0,0,0,.831-.582,1.831,1.831,0,0,0,.313-1.35,3.717,3.717,0,0,0-1.337-2.751A.763.763,0,0,0,416.258,446.939Zm-5.2-8.7a2.031,2.031,0,0,0-1.533.7,1.75,1.75,0,0,0,.1,2.464,1.569,1.569,0,0,0,.989.369,1.411,1.411,0,0,0,.23-.018,1.986,1.986,0,0,0,1.213-.764,1.761,1.761,0,0,0-.1-2.465A1.407,1.407,0,0,0,411.06,438.237Zm15.136-8.575a1.4,1.4,0,0,0-1.114.421c-.675.834-.1,2.3,1.367,3.491a4.355,4.355,0,0,0,2.558,1.094,1.961,1.961,0,0,0,.3-.023,1.3,1.3,0,0,0,.837-.461,1.633,1.633,0,0,0,.057-1.591,4.605,4.605,0,0,0-1.424-1.9A4.342,4.342,0,0,0,426.2,429.663Zm-22.708-11.211a1.024,1.024,0,0,0-.78.425,2.269,2.269,0,0,0-.5,1.628,1.428,1.428,0,0,0,.48.981,2.375,2.375,0,0,0,1.342.6.75.75,0,0,0,.122-.009.42.42,0,0,0,.269-.139,3.022,3.022,0,0,0,.015-2.609A1.068,1.068,0,0,0,403.487,418.451ZM357.343,107.12a3.455,3.455,0,0,0-.577.048,2.219,2.219,0,0,0-1.319.523c-.348.431.093,1.106,1.43,2.188s2.282,1.618,2.863,1.618a.788.788,0,0,0,.126-.009.556.556,0,0,0,.393-.253c.259-.4.218-1.225-.124-2.531A2.986,2.986,0,0,0,357.343,107.12ZM342.6,71.411a3.181,3.181,0,0,0-.53.047,2.339,2.339,0,0,0-1.482.766c-.894,1.1-.381,3.248,1.442,6.037a45.275,45.275,0,0,0,8.654,9.229c4.254,3.444,8.518,7.552,8.438,8.739a3.989,3.989,0,0,0,1.211,2.648.739.739,0,0,0,.478.159,1.082,1.082,0,0,0,.176-.014c.976-.155,2.7-1.771,3.2-3.276a1.173,1.173,0,0,0-.11-1.228,85.423,85.423,0,0,0-7.014-5.5l-.953-.713c-4.739-3.594-7.647-7.16-9.153-11.223C345.6,73.054,344.344,71.411,342.6,71.411Zm5.666-8.757a.353.353,0,0,0-.134.025,1.246,1.246,0,0,0-.484.369,2.706,2.706,0,0,0,0,2.814,4.29,4.29,0,0,1-.3,4.52,2.235,2.235,0,0,0-.312,2.131,5.119,5.119,0,0,0,1.718,2.344,29.04,29.04,0,0,1,5.419,6.772c1.446,2.757,2.768,4.012,3.384,4.012a.432.432,0,0,0,.069-.005.37.37,0,0,0,.263-.181,3.69,3.69,0,0,0-.231-2.433,93.272,93.272,0,0,0-5-13.647C350.718,65.167,349.076,62.654,348.267,62.654ZM316.982,32.4a1.011,1.011,0,0,0-.826.375,2.216,2.216,0,0,0-.387,1.261c-.055,1.631,1.683,5.176,3.874,7.9,2.247,2.555,5.084,6.362,6.2,7.88,1.024,1.523,1.9,2.362,2.469,2.362a.514.514,0,0,0,.085-.006.54.54,0,0,0,.391-.308c.473-.877.1-3.776-1.845-8.066a35.7,35.7,0,0,0-5.254-8.03C319.786,33.624,318.071,32.4,316.982,32.4ZM296.009,17.752a11.416,11.416,0,0,1,4.485.707,4.928,4.928,0,0,0,2.253.549,4.808,4.808,0,0,0,.746-.059,2.841,2.841,0,0,0,2.421-1.664,1.633,1.633,0,0,0-.764-1.729,5.4,5.4,0,0,0-3.178-.9,5.865,5.865,0,0,0-1.745.252,8.062,8.062,0,0,1-1.845.186,13.1,13.1,0,0,1-5.045-1,8.649,8.649,0,0,0-3.145-.729,2.555,2.555,0,0,0-2.073.808,3.176,3.176,0,0,0-.293,2.844c.206.689,1.5,1.135,3.293,1.135a12.031,12.031,0,0,0,2.01-.175A17.541,17.541,0,0,1,296.009,17.752ZM465.965,487.431h0a16.745,16.745,0,0,0-3.223-1.229,24.222,24.222,0,0,0-.086-3.092,17.563,17.563,0,0,1,.071-4.2c.18-1.112.5-1.8.874-1.888.833.048,1.564,2.629,1.63,5.755a22.462,22.462,0,0,0,.735,4.652ZM455.3,446.766a2.163,2.163,0,0,1-1.46-1.053A36.318,36.318,0,0,0,455.7,442.4a3.722,3.722,0,0,1,.1,4.124A.613.613,0,0,1,455.3,446.766Zm-14.473-39.459a2.931,2.931,0,0,1-1.752-.719,4.719,4.719,0,0,1-1.47-4.419,1.333,1.333,0,0,1,1.03-1.1l.088-.009.066,0a2,2,0,0,1,1.315.805,7.885,7.885,0,0,1,1.194,1.842c.52,1.09.947,2.587.436,3.217A1.118,1.118,0,0,1,440.829,407.307ZM378.44,253.629a.874.874,0,0,1-.8-.571,4.369,4.369,0,0,1,.8-3.58,2.516,2.516,0,0,1,1.522-.925,1.865,1.865,0,0,1,.287-.022,1.316,1.316,0,0,1,.838.268,1.38,1.38,0,0,1,.326,1.474,5.563,5.563,0,0,1-1.13,2.107A2.811,2.811,0,0,1,378.44,253.629Zm-5.048-19.492a1.227,1.227,0,0,1-.774-.256c-1.489-1.206-2.774-7.818-2.2-9.956.108-.4.277-.627.5-.662l.014,0,.014,0,.035,0c.489,0,1.159.841,1.887,2.367a23.622,23.622,0,0,1,1.609,4.658c.385,1.7.4,2.882.042,3.324A1.46,1.46,0,0,1,373.391,234.137Zm35.6-10.75a4.088,4.088,0,0,1-.947-.113,1.249,1.249,0,0,1-1.025-.7.8.8,0,0,1,.154-.81,1.737,1.737,0,0,1,1.086-.613,1.844,1.844,0,0,1,.289-.023,1.538,1.538,0,0,1,.974.323c.783.632,1.062,1.277.873,1.513A1.936,1.936,0,0,1,408.99,223.388Zm-22.325-4.859a2.2,2.2,0,0,1-1.362-.57,6.311,6.311,0,0,1-1.736-3.974,6.608,6.608,0,0,1,1.02-4.464c.641-1,1.061-1.549,1.444-1.61a.468.468,0,0,1,.07-.005c.58,0,1.107,1.156,2.173,3.8a8.41,8.41,0,0,1,.537,3.545,4.738,4.738,0,0,1-.869,2.605A1.64,1.64,0,0,1,386.665,218.529Zm-38.683-35.4h0a4.217,4.217,0,0,1-2.116-1.138,1.684,1.684,0,0,1-.773-1.473.866.866,0,0,1,.618-.667,2.585,2.585,0,0,1,.31-.069,2.4,2.4,0,0,1,.381-.031,1.893,1.893,0,0,1,1.828,1.133c.364,1.04.423,1.754.17,2.066A.508.508,0,0,1,347.982,183.13Zm42.731-2.486a3.386,3.386,0,0,1-.529-.043.75.75,0,0,1-.621-.481,2.761,2.761,0,0,1,.833-2.37c.866-1.07,1.165-1.731,1.033-2.283-.144-.6-.822-1.121-2.341-1.8-1.619-.748-2.241-1.1-2.219-1.264.006-.042.057-.07.157-.086a1.6,1.6,0,0,1,.242-.014,13.953,13.953,0,0,1,1.553.141,7.64,7.64,0,0,1,4.445,2.794,3.719,3.719,0,0,1-.182,4.265A3,3,0,0,1,390.712,180.645Zm-61.643-5.323h0c-.591,0-1.035-1.159-1.806-3.757-.779-2.788-.932-5.134-.391-5.977a.625.625,0,0,1,.426-.309.58.58,0,0,1,.09-.007,1.212,1.212,0,0,1,.722.329,8.475,8.475,0,0,1,2.252,4.469c.452,2,.365,3.692-.229,4.425C329.663,175.074,329.345,175.321,329.069,175.321Zm7.223-16.279c-.345,0-1.368-.889-2.341-2.211-.92-1.2-1.415-2.316-1.232-2.774a.311.311,0,0,1,.257-.2h.006l.028,0c.822,0,2.333,1.85,3.084,3.435.4.845.5,1.455.293,1.717A.116.116,0,0,1,336.293,159.042Zm-22.444-22.357c-.426,0-1.421-.612-3.49-1.984-2.5-1.614-4.874-4.369-5.191-6.017-.379-1.605-.379-2.751,0-3.313a.841.841,0,0,1,.585-.38,1.084,1.084,0,0,1,.165-.013c.867,0,2.145.934,3.5,2.561a26.7,26.7,0,0,1,3.964,6.792c.567,1.341.822,2.062.645,2.282A.217.217,0,0,1,313.849,136.684Zm93.432-.757c-.578,0-2.019-1.271-4.4-3.885-2.38-2.774-4.466-6.542-4.852-8.766a20.367,20.367,0,0,0-3.868-8.169A25.916,25.916,0,0,1,390.2,108.7a9.59,9.59,0,0,1-.937-5.133,2.192,2.192,0,0,1,1.087-1.619,1.529,1.529,0,0,0,.845-1.163c.038-.616-.421-1.315-1.364-2.079a7.023,7.023,0,0,1-2.121-3.071,5.572,5.572,0,0,1-.273-3.181,1.822,1.822,0,0,1,1.479-1.485l.02,0,.037-.005c.414-.082.614-.165.613-.252,0-.118-.376-.243-1.147-.382a2.74,2.74,0,0,0-.515-.052c-1.243,0-2.061.986-3.019,3.64a24.765,24.765,0,0,1-1.493,4.432.122.122,0,0,1-.1.042c-.293,0-1.069-.64-2.186-1.8-2.341-2.437-5.9-6.927-5.86-7.858.114-.925-.775-2.443-2.024-3.455s-2.406-3.754-2.587-6.125a7.821,7.821,0,0,0-.891-3.366,3.744,3.744,0,0,0-1.81-1.843,7.284,7.284,0,0,1-2.42-2.333,45.159,45.159,0,0,1-2.986-4.5c-1.807-3.07-3.562-6.711-3.41-7.925.03-.24.138-.37.32-.386l.05,0c.878,0,2.541,1.862,4.043,4.527a18.325,18.325,0,0,0,6.276,6.493,8.019,8.019,0,0,1,2.759,2.385,4.9,4.9,0,0,1,.87,2.972c-.086,1.8,2,4.971,4.095,7.173,1.535,1.61,2.946,2.571,3.772,2.571a.736.736,0,0,0,.6-.267c.641-.791.508-3.021-.345-5.82a22.2,22.2,0,0,0-3.69-7.321c-2.668-3.02-3.829-5.787-3.1-7.4.414-.923,1.42-1.414,2.911-1.42,2.439.013,3.61.867,5.009,3.653,1.955,4.3,6.574,12.38,7.721,13.507a5.465,5.465,0,0,1,.887,2.531c.208,1.278,1.461,2.8,3.35,4.061a10.8,10.8,0,0,0,5.568,2,4.325,4.325,0,0,0,.931-.1,12.476,12.476,0,0,1,2.2-.373c.318,0,.511.069.609.217.236.358-.069,1.172-.772,2.816-1.16,2.748-.46,4.061,4.163,7.8a23.975,23.975,0,0,1,3.618,3.558c.856,1.083,1.209,1.873.969,2.169a2.145,2.145,0,0,1-1.739.751,5.568,5.568,0,0,1-4.917-3.923c-.424-1.778-1.071-2.379-2.563-2.379a7.8,7.8,0,0,0-1.024.077c-1.8.358-2.956,1.311-3.087,2.549-.139,1.307.893,2.6,2.691,3.377,1.26.523,1.915,1.033,2.059,1.6a1.518,1.518,0,0,1-.442,1.319c-.789.976-.538,2.988.562,4.485a5.153,5.153,0,0,1,.976,2.452,2.9,2.9,0,0,1-.512,2.154c-.75.926-1,1.777-.706,2.395.311.653,1.2,1.012,2.491,1.012a9.935,9.935,0,0,0,1.915-.209,6.391,6.391,0,0,1,.957-.068,7.211,7.211,0,0,1,4.193,1.216,2.065,2.065,0,0,1,.932,1.48c.053.984-.824,2.274-3.13,4.6-2.376,2.4-4,5.241-3.548,6.195.466,1.211.613,1.955.437,2.21A.243.243,0,0,1,407.281,135.927Zm-9.622-46.017a3.067,3.067,0,0,0-2.216,1.342c-.947,1.17-1.226,2.581-.608,3.082a2.462,2.462,0,0,0,1.574.528,3.123,3.123,0,0,0,.491-.04,2.748,2.748,0,0,0,2.5-2.508C399.343,90.832,398.674,89.91,397.659,89.911Zm-2.521,44.91a1.507,1.507,0,0,1-.943-.339,3.875,3.875,0,0,1-.842-3.738c.214-.8.634-1.3,1.153-1.385.023,0,.047-.006.071-.008s.053,0,.085,0c.571,0,1.155.511,1.563,1.366.536,1.124.707,2.72,0,3.6A1.387,1.387,0,0,1,395.137,134.82Zm32.1-12.4c-.982,0-2.37-1.234-3.536-3.145-.531-.95-.683-1.589-.479-2.01.163-.335.546-.54,1.207-.645.128-.02.267-.036.412-.049s.3-.02.435-.02c1.553,0,2.316.882,2.815,3.255a2.844,2.844,0,0,1-.165,2.3A.844.844,0,0,1,427.233,122.425Zm-18.5-7.094a2.926,2.926,0,0,1-1.783-.745,3.571,3.571,0,0,1-1.071-1.4,1.219,1.219,0,0,1,.058-1.236,2.569,2.569,0,0,1,1.609-.9,3.056,3.056,0,0,1,.469-.037,2.2,2.2,0,0,1,2.341,1.69,2.734,2.734,0,0,1-.424,2.063A1.492,1.492,0,0,1,408.734,115.33Zm11.342-.942a3.111,3.111,0,0,1-1.867-.76,3.321,3.321,0,0,1-1.059-1.412,1.352,1.352,0,0,1,.146-1.344,1.111,1.111,0,0,1,.708-.364,1.959,1.959,0,0,1,.3-.023,3.1,3.1,0,0,1,1.872.709c.976.791,1.421,2.129.914,2.755A1.256,1.256,0,0,1,420.076,114.388Zm6.211-12.826a1.769,1.769,0,0,1-1.108-.425c-.6-.486-.618-1.826.311-2.974a1.843,1.843,0,0,1,1.09-.715,1.109,1.109,0,0,1,.17-.013.94.94,0,0,1,.893.659,2.98,2.98,0,0,1-.311,2.973A1.319,1.319,0,0,1,426.287,101.562ZM418.2,94.537h0c-3.1,0-7.639-2.476-9.71-5.3a4.094,4.094,0,0,1-.956-3.6c.326-1.108.442-1.738.169-2.1-.3-.4-1.068-.475-2.3-.475-.281,0-.61,0-1.036.014-.067,0-.137.006-.207.006a7.977,7.977,0,0,1-3.876-1.33,18.032,18.032,0,0,1-3.814-3.122c-1.768-1.9-2.725-3.757-2.626-5.083.112-.91-1.138-2.735-2.785-4.069-1.681-1.362-2.925-3.384-2.715-4.415.087-1.175-1.812-3.06-4.418-4.384-5.224-2.792-7.968-4.121-9.427-4.121-1,0-1.406.622-1.7,1.555s-.577,1.35-.885,1.35c-.29,0-.632-.352-1.142-1.177-1.851-3.057-10.824-8.444-13.389-8.444-.439,0-.673.156-.7.462-.1.478-.229.731-.381.731-.167,0-.357-.3-.548-.877a1.949,1.949,0,0,1-.1-1.551c.3-.714,1.138-1.318,2.728-1.959a6.126,6.126,0,0,1,2.145-.549c.909,0,1.38.527,1.528,1.709a6.3,6.3,0,0,0,1.322,3.287,1.149,1.149,0,0,0,.734.277,2.289,2.289,0,0,0,1.749-1.365,3.541,3.541,0,0,0,.262-3.338c-.132-.243-.172-.412-.118-.5a.184.184,0,0,1,.172-.075,7.864,7.864,0,0,1,2.944,1.8c2.026,1.46,4.473,2.6,5.572,2.6a1,1,0,0,0,.323-.045,2.4,2.4,0,0,1,.737-.132c.887,0,1.415.7,1.824,2.408.507,2.226,1.624,2.923,5.431,3.39,2.441.23,7.048,2.484,10.062,4.923,2.753,2.107,3.958,2.89,4.447,2.89a.218.218,0,0,0,.2-.092c.123-.189,0-.675-.4-1.573-.713-1.854-3.527-4.228-5.937-5.615-2.533-1.262-3.452-1.872-3.389-2.25.04-.242.473-.4,1.448-.53,2.289-.249,3.583-.8,3.743-1.6.173-.868-.979-2.01-3.333-3.3-2.69-1.416-4.424-3.592-4.177-4.592.082-.332.381-.508.864-.508a4.284,4.284,0,0,1,1.344.281,1.777,1.777,0,0,0,.637.141.767.767,0,0,0,.588-.244c.437-.464.577-1.629.452-3.779a7.37,7.37,0,0,0-1.807-5.115c-1.413-1.677-3.921-3.652-8.351-6.939-7.12-5.364-9.778-8.117-9.806-10.156-.055-2.27-.8-2.874-4.432-3.588a17.309,17.309,0,0,0-2.487-.367c-.324,0-.5.063-.564.2-.21.462,1,1.845,3.639,4.875,3.135,3.573,4.853,7.021,4.714,9.46-.154,2.358.071,3.627.776,4.38.624.666,1.682.963,3.431.963.625,0,1.361-.037,2.251-.112.211-.018.432-.027.657-.027a13.193,13.193,0,0,1,5.8,1.559c1.832.95,3.106,2.1,3.409,3.081a1.248,1.248,0,0,1-.571,1.508,2.127,2.127,0,0,1-.836.138,9.943,9.943,0,0,1-4.568-1.489,6.559,6.559,0,0,0-3.581-1.25,5.484,5.484,0,0,0-3.358,1.274,5.357,5.357,0,0,1-2.837,1.238,2.534,2.534,0,0,1-2.074-1.387c-.7-1.063-1.148-1.5-1.554-1.5-.527,0-.991.761-1.57,1.989-.525,1.157-1,1.875-1.774,1.875-.63,0-1.458-.461-2.856-1.593-1.841-1.492-3-3.783-2.573-5.108a2.868,2.868,0,0,0-.237-2.141,1.131,1.131,0,0,0-.775-.493,3.175,3.175,0,0,1-1.759-1.36,11.033,11.033,0,0,1-1.44-2.691c-.582-1.545-.953-3.508-.246-4.381a.707.707,0,0,1,.574-.242,3.609,3.609,0,0,1,2.451,1.685,3.858,3.858,0,0,0,2.421,1.786.615.615,0,0,0,.5-.223,1.441,1.441,0,0,0-.253-2.018c-.619-.5-1.526-4-1.982-7.651-.143-1.144-.324-2.221-.537-3.2h13.894a50.9,50.9,0,0,1,6.153,7.849c.626,1.033,1.217,1.557,1.756,1.557a.875.875,0,0,0,.128-.01c.871-.138,1.574-1.719,2.032-4.572.288-1.457-.534-2.99-2.587-4.824h13.461a3.681,3.681,0,0,0-.937.837,10.324,10.324,0,0,0-1.614,3.548c-.557,1.8-.828,2.813-.668,3.03a.106.106,0,0,0,.09.044.136.136,0,0,0,.027,0c.361-.058,1.327-1.184,3.224-3.528,1.8-2.08,2.641-3.292,2.725-3.929h18.209l.418,2.422-4.391-.534c-.429-.038-.841-.057-1.224-.057-2.067,0-3.518.543-4.434,1.659-1.3,1.584-1.526,4.387-.693,8.57a17.581,17.581,0,0,1,.344,4.787c-.135,1.274-.542,2.034-1.176,2.2-.623.2-.941.424-.945.661,0,.3.5.635,1.494.992a4.036,4.036,0,0,1,1.816,1.446,3.868,3.868,0,0,1,.814,2.3c.07,1.459,1.379,4.732,2.982,7.452A119.268,119.268,0,0,1,415.6,59.2c1.482,3.608,1.942,6.057,1.366,7.277A6.848,6.848,0,0,0,418,71.945c1.226,1.6,2.753,5.637,3.4,9,.647,3.35,2.235,6.849,3.614,7.966A4.359,4.359,0,0,1,426.32,90.6a1.387,1.387,0,0,1-.012,1.375.82.82,0,0,1-.674.263c-.919,0-2.494-.813-4.11-2.122a8.1,8.1,0,0,0-4.158-2.005.808.808,0,0,0-.882,1.062,3.585,3.585,0,0,0,2.1,1.987c1.283.578,2.271,1.372,2.4,1.931a.4.4,0,0,1-.068.363A3.3,3.3,0,0,1,418.2,94.537ZM410.23,72.071a2.067,2.067,0,0,0-1.672.809,2.967,2.967,0,0,0-.337.522c-.639,1.13-.364,2.876.753,4.792,1.427,2.446,3.7,4.289,5.292,4.289a1.931,1.931,0,0,0,.309-.023,1.726,1.726,0,0,0,1.091-.646,4.29,4.29,0,0,0,.306-4.519C414.41,74.17,412.1,72.071,410.23,72.071Zm-7.542-4.211a.95.95,0,0,0-.287.043,1.122,1.122,0,0,0-.743.45,4.976,4.976,0,0,0-.781,2.765,6.918,6.918,0,0,0,.476,3.058c.28.6.66.912,1.1.916a3.74,3.74,0,0,0,.4.022,3.408,3.408,0,0,0,.532-.041,2.749,2.749,0,0,0,2.061-1.466,3.991,3.991,0,0,0-.136-3.591C404.562,68.746,403.487,67.86,402.688,67.86Zm7.847-9.584a2.033,2.033,0,0,0-1.534.7,1.751,1.751,0,0,0,.1,2.465,1.568,1.568,0,0,0,.992.369,1.542,1.542,0,0,0,.23-.018,1.983,1.983,0,0,0,1.21-.765,2.015,2.015,0,0,0,.444-1.444,1.482,1.482,0,0,0-.545-1.021A1.424,1.424,0,0,0,410.535,58.276ZM394.58,33.7a2.13,2.13,0,0,0-1.5.926,4.3,4.3,0,0,0-.93,1.958,1.432,1.432,0,0,0,.331,1.37,1.623,1.623,0,0,0,1.024.379,1.522,1.522,0,0,0,.239-.019,1.708,1.708,0,0,0,1.051-.629,3.618,3.618,0,0,0,.6-3.329A.832.832,0,0,0,394.58,33.7ZM371.973,66.89a5.164,5.164,0,0,1-1.923-.724,15.618,15.618,0,0,1-4.614-4.14c-.687-1.172-.914-2.2-.624-2.809a.854.854,0,0,1,.665-.5,1.213,1.213,0,0,1,.184-.014,4.253,4.253,0,0,1,2.787,1.929c3.026,3.782,4.208,5.676,3.832,6.142A.376.376,0,0,1,371.973,66.89Zm8.553-12.443a1.709,1.709,0,0,1-1.071-.414,1.686,1.686,0,0,1-.612-1.127,1.443,1.443,0,0,1,1.268-1.615,1.938,1.938,0,0,1,.3-.023,1.589,1.589,0,0,1,1.625,1.432,1.562,1.562,0,0,1-.327,1.142A1.518,1.518,0,0,1,380.526,54.448Zm-36.585-4.7a2.776,2.776,0,0,1-1.779-.927,46.008,46.008,0,0,0-3.856-3.523,3.173,3.173,0,0,1-.365-4.729,3.742,3.742,0,0,1,2.047-1.58,1.362,1.362,0,0,1,.217-.017c1.153,0,2.337,1.469,4.223,5.238a7.618,7.618,0,0,1,.934,3.031,2.977,2.977,0,0,1-.475,2.044A1.187,1.187,0,0,1,343.941,49.747ZM375.4,45.627a4.293,4.293,0,0,1-1.247-.32,3.523,3.523,0,0,1-2.083-2.09c-.1-.809.2-1.35.8-1.445a1.151,1.151,0,0,1,.186-.014,2.736,2.736,0,0,1,2.276,2.089c.371.861.564,1.441.38,1.668A.381.381,0,0,1,375.4,45.627Zm-40.113-7.819h0a1.5,1.5,0,0,1-1.2-.763c-.516-.755-.694-2.392-.491-4.489a19.079,19.079,0,0,1,1.247-5.287c.428-.99.879-1.549,1.3-1.616l.04-.005a.442.442,0,0,1,.1-.011c.724,0,1.606,1.818,2.009,4.138a10.168,10.168,0,0,1-.154,4.047,7.908,7.908,0,0,1-1.389,3.086A2.023,2.023,0,0,1,335.286,37.807Zm74.094-2.673a2.755,2.755,0,0,1-1.757-.608c-.618-.5-.463-1.759.337-2.748a2.645,2.645,0,0,1,1.584-1.035,1.663,1.663,0,0,1,.265-.021c1.009,0,1.776.91,1.952,2.318a1.586,1.586,0,0,1-.356,1.22A2.631,2.631,0,0,1,409.38,35.135Z" transform="translate(189 -13.234)"/></svg>