<svg xmlns="http://www.w3.org/2000/svg" width="685" height="685.001" viewBox="0 0 685 685.001"><path d="M730.26,713.484H144.206a6.569,6.569,0,0,0,2.122-3.931,6.251,6.251,0,0,0-.991-4.415,3.063,3.063,0,0,0-2.665-1.259,9.585,9.585,0,0,0-3.575.88,10.7,10.7,0,0,1-3.861.9c-.878,0-1.483-.222-1.7-.626a1.652,1.652,0,0,0-1.653-.977,3.478,3.478,0,0,0-1.342.292,2.878,2.878,0,0,1-1.241.5.4.4,0,0,1-.328-.138c-.22-.261-.217-.9.007-2.194a5.286,5.286,0,0,1,2.167-3.04,6.381,6.381,0,0,1,3.615-1.238,3.882,3.882,0,0,1,2.227.642,3.333,3.333,0,0,0,1.864.614,2.783,2.783,0,0,0,2.1-.958,3.794,3.794,0,0,0,.883-2.542,13.637,13.637,0,0,1,1.768-5.175c.914-1.474.816-3.31-.214-4.008a1.845,1.845,0,0,0-1.044-.352c-.811,0-1.536.644-1.989,1.766-.514,1.246-1.094,1.9-1.676,1.9-.979,0-1.824-1.889-2.205-4.931-.3-2.1-.459-3.251-1.824-3.925-1.338-.661-3.826-.894-8.783-1.357l-.99-.093a24.993,24.993,0,0,1-5.97-1.225c-1.474-.546-2.327-1.18-2.4-1.786-.066-.535.481-1.024,1.581-1.415a5.533,5.533,0,0,1,1.611-.217,7.405,7.405,0,0,1,3.955,1.1,5.68,5.68,0,0,0,3.116.83,6.623,6.623,0,0,0,2.871-.622,5.628,5.628,0,0,1,2.59-.623,7.966,7.966,0,0,1,4.41,1.518,8.474,8.474,0,0,0,4.352,1.579,2.195,2.195,0,0,0,1.381-.385,2.385,2.385,0,0,1,1.49-.516,2.279,2.279,0,0,1,1.758.791c.541.864,1.151,1.32,1.765,1.32.691,0,1.37-.585,1.91-1.647a12.857,12.857,0,0,0,1.128-4.522,24.822,24.822,0,0,1,2.315-8.088A8.754,8.754,0,0,0,153.7,660a7.361,7.361,0,0,1,.061-3.146,10.747,10.747,0,0,1,1.327-3.445c1.23-1.987,2.272-4.89,2.229-6.214,0-1.1-.163-1.566-.547-1.566-.512,0-1.466.891-2.741,2.229-.8.793-1.648,1.649-2.395,2.4l-.007.007-.005.005c-.986,1-1.837,1.857-2.312,2.3a2.761,2.761,0,0,0-.885,2.877,3.823,3.823,0,0,1-.4,3.653,4.467,4.467,0,0,1-3.576,2.05,3.381,3.381,0,0,1-1.5-.346,4.745,4.745,0,0,0-2.094-.533,4.325,4.325,0,0,0-3.386,1.831,4.011,4.011,0,0,1-3.06,1.43,3.82,3.82,0,0,1-2.908-1.3,3.236,3.236,0,0,1-.7-2.729,1.313,1.313,0,0,0-.07-1.136.957.957,0,0,0-.8-.293,6.758,6.758,0,0,0-2.169.525,8.96,8.96,0,0,1-2.4.615c-1.131,0-1.3-1.107-1.611-4.308a16.883,16.883,0,0,1,1.3-8.2c.866-1.4,1.108-2.079.894-2.517s-.936-.6-1.95-.713c-.685-.018-2.755-.227-7.168-1.783a7.65,7.65,0,0,0-2.656-.795c-1.569,0-2.5,1.652-4.972,6.428-2.028,4.094-2.954,5.963-3.548,5.963-.436,0-.7-1-1.131-2.767-.856-3.328-.155-5.236,3.411-9.276,2.513-3.111,3.935-5.872,3.538-6.87a.4.4,0,0,0-.4-.26c-.75,0-2.389,1.27-4.383,3.4a51.539,51.539,0,0,0-5.919,7.748,23.438,23.438,0,0,1-6.447,6.05,28.338,28.338,0,0,0-7.543,7.816c-1.817,2.933-2.829,4.242-4.02,4.242a4.8,4.8,0,0,1-2.428-1.091c-1.3-.887-1.946-1.648-1.963-2.324a1.5,1.5,0,0,1,.738-1.214c.97-.693,1.1-2.338.294-3.666a2.582,2.582,0,0,0-2.007-1.135A2.175,2.175,0,0,0,76,654.5a4.2,4.2,0,0,1-2.274,1.1.876.876,0,0,1-.787-.406c-.484-.752-.2-2.415.782-4.561,1.205-2.539,1.014-5.542-.553-8.684-1.354-2.922-1.621-5.786-.635-6.809a4.492,4.492,0,0,0,1.01-3.371c-.581-1.345,1.389-4.619,6.024-10.01a9.047,9.047,0,0,0,1.671-3.8,9.26,9.26,0,0,0,.047-3.974,2.357,2.357,0,0,0-1.218-1.737,1.594,1.594,0,0,0-.592-.107c-1.286,0-3.169,1.31-4.914,3.418-2.028,2.45-3.142,5.067-2.837,6.667a7.21,7.21,0,0,1-.7,3.788,16.219,16.219,0,0,1-2.369,3.962c-1.087,1.315-2.129,2.039-2.933,2.039l-.063,0a2.873,2.873,0,0,0-2.4,2.424c-.221,1.012-.736,1.692-1.281,1.692a.715.715,0,0,1-.406-.133,2.13,2.13,0,0,1-.381-2.578c.252-.563.659-1.381,1.053-2.171l0-.007c.33-.663.672-1.349.923-1.886a18.086,18.086,0,0,1,.959-2.138,2.752,2.752,0,0,0,2.142-1.357c.925-1.493,1.259-3.388.759-4.314-.009-.02-.019-.039-.029-.058.626-1.858.222-2.9-1.6-4.144a7.312,7.312,0,0,1-3.323-4.724,8.428,8.428,0,0,1,1.42-5.847c2.015-3.251,2.785-6.549,2.058-8.822a3.58,3.58,0,0,0-2.035-2.309c.062,0,.132.006.214.006a4.6,4.6,0,0,0,.661-.051c1.584-.232,2.112-1.058,2.083-1.7-.034-.755-.841-1.61-2.532-1.7a1.852,1.852,0,0,0-2.18,1.8,1.676,1.676,0,0,0,.574,1.229,1.952,1.952,0,0,1-1.251-1.052,1.883,1.883,0,0,1,.376-1.541,3.029,3.029,0,0,0-.719-3.776c-.806-.548-1.144-.859-1.1-1.01.023-.075.142-.112.363-.112a12.728,12.728,0,0,1,2.126.329,6.979,6.979,0,0,0,1.267.122,4.682,4.682,0,0,0,3.272-1.213,5.078,5.078,0,0,0,1.494-2.923,6.849,6.849,0,0,0-.846-4.505,7.425,7.425,0,0,0-4.139-3.329c-1.784-.7-2.688-1.118-2.677-1.491.01-.322.724-.617,1.874-.988,2.216-.75,3.023-1.917,3.454-4.994a42.147,42.147,0,0,1,3.072-9.891c1.321-3.343,1.867-7.479,1.219-9.22-1.007-2.779-.136-7.265,1.249-9.828a4.1,4.1,0,0,1,2.286-2.261,2.317,2.317,0,0,1,.533-.063,3.411,3.411,0,0,1,2.8,1.993,4.709,4.709,0,0,1,.13,4.674c-1.041,1.68-1.293,3.263-.691,4.342a2.841,2.841,0,0,0,2.648,1.294,6.575,6.575,0,0,0,1.5-.19,4.252,4.252,0,0,0,2.813-1.348,5.617,5.617,0,0,0,.726-3.2c.106-1.886.513-3.012,1.091-3.012a.615.615,0,0,1,.342.121,1.788,1.788,0,0,1,.422,2.219,1.091,1.091,0,0,0,.138,1.107,10.615,10.615,0,0,0,3.251,3.035,8.636,8.636,0,0,0,3.985,1.64,1.338,1.338,0,0,0,.639-.137,1.1,1.1,0,0,0,.551-.683,2.954,2.954,0,0,0-.425-2.132,3.169,3.169,0,0,1-.625-3.16,1.483,1.483,0,0,1,1.371-.816,3.117,3.117,0,0,1,1.7.615,3.959,3.959,0,0,0,1.509.81.241.241,0,0,0,.2-.086c.222-.269.08-1.175-.274-3.036-.412-2.164-2.8-5.187-5.949-7.524-2.267-1.646-3.436-2.713-4.034-3.684a3.24,3.24,0,0,1-.144-3.214,28.372,28.372,0,0,0,1.049-8.368c-.1-2.393.117-4.177.575-4.655a.358.358,0,0,1,.259-.126.35.35,0,0,1,.133.028c.42.285,3.044,1.8,6.083,3.563l1.973,1.142c3.8,2.2,8.964,3.994,11.514,3.994h.04c.437-.006.795-.01,1.119-.01,1.36,0,2.138.073,2.352.456.244.439-.2,1.245-1.276,2.979-1.085,1.75-1.447,3.135-1.022,3.9a1.372,1.372,0,0,0,1.3.616,6.909,6.909,0,0,0,2.848-.846,5.282,5.282,0,0,1,2.028-.921.476.476,0,0,1,.367.146c.313.332.32,1.251.22,2.941a21.068,21.068,0,0,1-2.695,7.83c-1.161,2.069-1.527,3.241-1.262,4.047a1.878,1.878,0,0,0,1.139,1.086,3.65,3.65,0,0,1,1.815,3.746,3.856,3.856,0,0,0,1.03,3.139,6.6,6.6,0,0,0,4.447,2.6,1.691,1.691,0,0,0,1.525-.785c.648-1.045,1.025-2.763.5-3.715-.411-1.031.426-2.177,2.359-3.227a5.66,5.66,0,0,0,2.528-2.193,10.3,10.3,0,0,0,1.01-4.1,10.69,10.69,0,0,1,.972-4.145,5.563,5.563,0,0,1,2.649-2.28,5.605,5.605,0,0,0,3.413-4.635,67.435,67.435,0,0,1,3.2-10.966c1.437-4.066,2-7.287,1.718-9.847a7.569,7.569,0,0,0-3.371-5.77c-1.227-.835-1.768-1.636-1.565-2.318.308-1.03,2.245-1.651,5.315-1.7a12.7,12.7,0,0,0,3.826-.572c.9-.322,1.465-.772,1.62-1.3.221-.752-.351-1.618-1.655-2.505-1.491-1.014-2.243-2.05-2.3-3.167-.078-1.583,1.227-3.44,4.106-5.844a14.082,14.082,0,0,0,3.571-3.948,17.557,17.557,0,0,0,1.736-5.777c.629-3.62.306-7.134-.721-7.833a3.391,3.391,0,0,0-1.658-.745.689.689,0,0,0-.534.228c-.527.573-.607,2.193-.294,5.978.214,2.855-.427,6.493-1.427,8.11-.839,1.218-1.3,1.889-1.527,1.889a.106.106,0,0,1-.079-.035,7.141,7.141,0,0,1-.081-2.614c.1-1.643.151-2.547-.155-2.872a.519.519,0,0,0-.4-.148,8.465,8.465,0,0,0-2.394.817,14.706,14.706,0,0,1-1.964.726,2.526,2.526,0,0,0-.274-1.108c.221-.418.547-.957.968-1.638,1.655-2.668,1.509-3.8-.678-5.29-1.023-.624-1.692-1.158-1.868-1.9-.262-1.1.546-2.646,2.581-5.929,1.739-2.805,2.581-4.392,2.663-5.822.08-1.385-.51-2.579-1.953-4.9-1.7-2.611-2.533-3.581-3.065-3.581-.276,0-.476.267-.647.865a10.825,10.825,0,0,0,1.395,5.585c.817,1.491,1.093,2.606.776,3.141a.748.748,0,0,1-.7.339l-.074,0h-.016c-1.244,0-2.325-1.148-3.212-3.412a41.387,41.387,0,0,1-2.05-9.839c-.384-4.309-.473-6.774.157-7.463a.652.652,0,0,1,.507-.218,3.387,3.387,0,0,1,1.65.753,2.628,2.628,0,0,0,1.434.534c.958,0,1.619-.9,1.862-2.529a1.658,1.658,0,0,0,.509.72.355.355,0,0,0,.2.057c.3,0,.806-.312,1.239-1.01a2,2,0,0,0-.8-2.479,1.081,1.081,0,0,0-.6-.206.74.74,0,0,0-.488.18c-.05-.689-.145-1.449-.284-2.258a10.2,10.2,0,0,1-.049-4.164,2.281,2.281,0,0,1,1.943-1.5,5.37,5.37,0,0,1,.929-.1,1.329,1.329,0,0,1,1.316.677,5.548,5.548,0,0,1,.414,2.389,9.15,9.15,0,0,0,2.161,4.395c1.194,1.467,2.473,2.415,3.258,2.415a.726.726,0,0,0,.655-.36c.5-.811.253-3.057-.635-5.722s-2.134-4.858-3.164-5.559c-1.372-.933-2.029-2.53-1.436-3.488a5.226,5.226,0,0,0,.324-5.193,2.808,2.808,0,0,0-2.468-1.546,3.014,3.014,0,0,0-.349.021,5.692,5.692,0,0,1-.973.107c-.4,0-.643-.089-.745-.273-.169-.3.035-.891.662-1.9.6-.972.8-1.527.652-1.8-.081-.146-.265-.216-.563-.216a5.123,5.123,0,0,0-1.1.168,8.559,8.559,0,0,1-1.921.273,1.876,1.876,0,0,1-1.6-.606c-.506-.66-.488-1.916.057-3.953.627-2.25.555-8.258.16-13.03a120.315,120.315,0,0,1-.39-17.656c.423-6.539-.149-8.8-2.661-10.507a9,9,0,0,1-2.868-4.411,8.293,8.293,0,0,1-.364-4.688,1.459,1.459,0,0,1,1.393-1.18,1.958,1.958,0,0,1,.442.054,2.4,2.4,0,0,0,.6.092.829.829,0,0,0,.656-.259c.35-.39.428-1.272.255-2.86a4.99,4.99,0,0,0-3-4.163c-1.446-.382-3.32-2.92-4.009-5.432-.591-2.17-.858-3.416-.575-3.786a.337.337,0,0,1,.288-.128,3.128,3.128,0,0,1,1.3.544,2.578,2.578,0,0,0,1.456.445,2.261,2.261,0,0,0,1.959-1.022,1.77,1.77,0,0,0-.117-1.848,6.161,6.161,0,0,0-2.134-2.08,5.723,5.723,0,0,0-2.879-.939,2.7,2.7,0,0,0-.944.158,1.447,1.447,0,0,1-.49.092,1.363,1.363,0,0,1-1.168-.788c-1.128-1.9-.91-6.912,1.061-10.532,1.465-2.816,2.063-4.181,1.637-5.434-.439-1.29-2.007-2.453-4.973-4.565-1.685-1.243-2.51-2.042-2.637-3.218-.125-1.151.437-2.648,1.662-5.367,2.231-4.783,2.271-6.386.206-8.169a4.932,4.932,0,0,1-1.577-2.86,7.255,7.255,0,0,1,.351-3.578c1.321-4.155.461-11.965-1.118-14.123a1.179,1.179,0,0,0-.9-.592h-.018a.355.355,0,0,1-.3-.174c-.431-.656.072-3.108,1.225-5.961,1.478-3.347,1.883-4.814,1.492-5.413a.9.9,0,0,0-.825-.332,4.221,4.221,0,0,0-.756.083,5.718,5.718,0,0,1-.73.052,1.8,1.8,0,0,1-1.362-.451c-.448-.455-.63-1.289-.608-2.789.043-1.274-.08-2.043-.378-2.352a.472.472,0,0,0-.35-.151,1.519,1.519,0,0,0-.875.447,3.861,3.861,0,0,1-1.968.816.853.853,0,0,1-.8-.441c-.511-.917.146-3.1,1.673-5.567,1.565-2.526,2.863-3.753,3.967-3.753a1.547,1.547,0,0,1,.879.285c1.029.7,1.127,2.537.213,4.009-.928,1.5-1.173,3.067-.545,3.495a.262.262,0,0,0,.15.044c.291,0,.762-.374,1.4-1.111a52.2,52.2,0,0,0,5.21-8.047c1.9-3.5,2.966-6.1,2.842-6.964a2.132,2.132,0,0,0-2.068-1.044,3.285,3.285,0,0,0-.757.088c-1.892.448-2.4,1.271-2.022,3.263.337,1.767.232,3.092-.3,3.731a1.115,1.115,0,0,1-.9.418,2.89,2.89,0,0,1-1.545-.6,2.569,2.569,0,0,1-.55-3.466,1.825,1.825,0,0,0,.345-1.675c-.461-1.167-2.73-2.131-8.992-3.819-.982-.229-1.519-.463-1.511-.657.006-.144.31-.266.879-.353l.084,0c1.278,0,3.116-1.31,4.3-2.431a3.165,3.165,0,0,1,2.327-1.321,2.479,2.479,0,0,1,1.761.816,2.543,2.543,0,0,0,1.644.9c.507,0,.887-.334,1.1-.965.332-.9,2.36-2.567,5.166-4.253,2.283-1.371,5.145-2.755,6.393-2.755a.811.811,0,0,1,.453.105c.479.327.409,1.905-.167,3.752a5.743,5.743,0,0,0,.206,4.686c.883,1.548,2.773,2.668,5.617,3.331a7.46,7.46,0,0,0,1.61.184,5.414,5.414,0,0,0,4.239-1.9,7.076,7.076,0,0,0,1.491-3.127,11.465,11.465,0,0,0,.075-4.218c-.259-1.945-.389-2.921-.243-3.087a.071.071,0,0,1,.056-.026c.171,0,.536.526,1.2,1.482.576.787,1.164,1.2,1.7,1.2a1.274,1.274,0,0,0,1.034-.636c.783-1.133,1.035-3.708,0-6.436-.58-1.72-.8-2.929-.577-3.233a.175.175,0,0,1,.149-.078.493.493,0,0,1,.258.1,1.4,1.4,0,0,0,.783.183,10.909,10.909,0,0,0,4.275-1.38,10.991,10.991,0,0,1,5.053-1.487,3.493,3.493,0,0,1,1.312.213,5.684,5.684,0,0,0,1.84.32,4.567,4.567,0,0,0,3.5-1.589,6.318,6.318,0,0,0,1.278-5.054,10.082,10.082,0,0,1,.755-5.864c.654-1.053,1.22-5.089,1.26-9a34.548,34.548,0,0,1,1.039-7.772,56.592,56.592,0,0,1,2.746-8.785c2.763-7.182,4.223-11.436,4.462-13a88.7,88.7,0,0,1,2.523-9.878,69.33,69.33,0,0,0,2.355-10.184,15.931,15.931,0,0,1,2.948-6.5,7.46,7.46,0,0,1,2.109-1.764,4.271,4.271,0,0,1,1.956-.579,1.272,1.272,0,0,1,1.186.554c.349.627-.049,1.52-.445,2.158-.474.766-1.178,3.253-1.6,7.742-.283,3.005-.352,6.427.133,7.3.076.136.164.205.261.205l.033,0c.492-.177,2.007-3.8,3.291-7.3a70.213,70.213,0,0,0,3.066-10.209,31.368,31.368,0,0,1,2.641-8.4,16.853,16.853,0,0,1,4.1-5.957,3.125,3.125,0,0,1,1.5-.833c.762,0,.908,1.475,1.079,5.1.211,4.371,1.154,7.2,2.4,7.2.46,0,.929-.382,1.4-1.134.711-1.148,1.636-6.359,2.238-11.014.561-4.34,1.037-9.79.532-10.871-.481-.878.026-2.943,1.178-4.8,1.919-3.1.088-20.423-2.333-22.068-.753-.513-.812-1.88-.128-2.986a4.336,4.336,0,0,0-.3-4.453,26.769,26.769,0,0,1-2.365-7.792c-.466-4.17-.041-5.441,1.894-5.667,2.467-.3,4.191-1.192,5.125-2.648.985-1.535,1.06-3.646.224-6.275-1.093-3.542-1.636-4.572-3.127-4.572a8.277,8.277,0,0,0-1.766.278c-1.528.362-2.357.646-2.646,1.191-.258.486-.083,1.169.329,2.259a5.368,5.368,0,0,1,.557,1.894.048.048,0,0,1-.041.021c-.145,0-.563-.474-1.147-1.187-.674-.9-2.238-1.394-4.406-1.394a19.8,19.8,0,0,0-6.952,1.364c-2.343.934-3.759,2.111-3.988,3.313-.115.716-.291,1.59-.461,2.434l0,.007h0c-.2,1-.393,1.953-.462,2.535-.15.863-.659,1.443-1.268,1.443a1.033,1.033,0,0,1-.587-.192.675.675,0,0,0-.387-.111c-.882,0-2.332,1.307-3.448,3.107-1.257,2.026-2.94,3.5-4,3.5a.994.994,0,0,1-.3-.043,1.391,1.391,0,0,0-.354-.049c-.58,0-1.024.444-1.4,1.4a22.245,22.245,0,0,0-.987,4.52c-.786,5.489-1.156,7.41-2.213,7.41a3.944,3.944,0,0,1-1.831-.885,2.44,2.44,0,0,0-1.391-.361c-1.613,0-3.977.991-6.322,2.65-.44.292-.847.557-1.24.813l-.008.005c-5.89,3.843-5.89,3.843-7.852,20.354-.141,1.188-.292,2.461-.457,3.827-.461,4.222-.873,6.632-1.846,8.092-.983,1.474-2.553,1.929-5.106,2.252-2.11.272-3.272.422-3.946,1.254-.659.813-.87,2.24-1.194,5.3-.831,6.525-4.453,15.312-11.073,26.864-2.423,4.309-3.5,6.566-3.087,7.736a1.694,1.694,0,0,0,1.11.97,3.918,3.918,0,0,1,2.236,3.065.934.934,0,0,1-.16.643.247.247,0,0,1-.181.075c-.3,0-.776-.458-1.3-1.255-.607-.81-1.025-1.171-1.355-1.171s-.6.378-.837,1.225c-.43,1.286.671,3.366,1.984,4.633,1.117,1.1,1.54,1.786,1.414,2.29-.1.4-.549.7-1.453.968s-1.386.594-1.55,1.036c-.173.469.006,1.079.581,1.978.759,1.094,1.055,2.65.634,3.329a.876.876,0,0,1-.766.454,2.123,2.123,0,0,1-1.552-1.066c-.449-.691-.925-1.056-1.376-1.056a1.1,1.1,0,0,0-.856.492c-.82,1.034-1.271,3.7-.547,6.791l1.057,4.39-4.217.418a10.871,10.871,0,0,1-1.48.1,10.592,10.592,0,0,1-5.223-1.176,3.919,3.919,0,0,0-2.042-.826,1.239,1.239,0,0,0-1,.461c-.7.851-.774,2.887-.2,5.888.475,2.49.254,5.4-.5,6.615-.614.991-.668,3.429-.139,6.21s1.481,5.049,2.423,5.778a.458.458,0,0,0,.261.081c.494,0,1.113-.744,1.254-1.947.266-1.044.793-1.643,1.445-1.643a1.49,1.49,0,0,1,.831.292,2.464,2.464,0,0,1,1,1.7,5.042,5.042,0,0,1-.2,2.248,5.35,5.35,0,0,1-1.139,2.047,2.441,2.441,0,0,1-1.759.881,1.886,1.886,0,0,1-.346-.032,2.552,2.552,0,0,0-.579-.075c-1.3,0-1.969,1.347-3.253,6.55-.791,3.262-1.791,7.243-2.062,7.681-.076.123-.149.186-.216.186a.156.156,0,0,1-.119-.073c-.332-.427-.479-2.748-.372-5.912a44.943,44.943,0,0,1,.911-8.17c1.219-4.577.879-5.2-4.559-8.319-2.614-1.492-4.067-2.461-4.75-3.616-.656-1.107-.6-2.366-.229-4.6.726-5.235,2.53-8.752,4.489-8.752a1.9,1.9,0,0,1,1.072.359,1.816,1.816,0,0,0,1.032.335,2.975,2.975,0,0,0,2.161-1.289,10.241,10.241,0,0,0,1.87-3.979,11.8,11.8,0,0,0,.2-5.014,19.1,19.1,0,0,1,.585-8.489,19.755,19.755,0,0,0,.627-8.27,11.16,11.16,0,0,1,.883-6.936,4.5,4.5,0,0,0,.367-4.627,4.121,4.121,0,0,0-3.708-2,5.791,5.791,0,0,0-.67.04,3.189,3.189,0,0,1-.453.032c-2.089,0-4.1-1.936-5.171-3.855-1.1-1.968-1.28-3.9-.494-5.17a2.262,2.262,0,0,0-.255-3.072c-.45-.305-.7-.675-.625-.943.045-.172.222-.28.5-.3.691-.275.978-1.788.715-3.765a6.9,6.9,0,0,1,1.472-5.569,4.737,4.737,0,0,0,.841-5.418,7.034,7.034,0,0,1,.039-5.578,2.813,2.813,0,0,0-.382-3.738,2.371,2.371,0,0,1-.8-3.058c.662-1.069.642-4.156-.047-7.181-.666-2.926-.65-6.208.037-7.317.567-.914.633-3.36.176-6.543a24.662,24.662,0,0,0-2.06-7.393c-.41-.736-.809-1.11-1.187-1.11h-.014a1.955,1.955,0,0,1-1.687-1.92c.1-.843-.726-1.984-2.447-2.437-.962-.2-1.414-.435-1.51-.771-.127-.443.343-1.116,1.676-2.4a11.172,11.172,0,0,0,2.991-5.7,35.612,35.612,0,0,1,2.4-8.223c2.236-5.594,3.3-11.866,2.36-13.982a1.2,1.2,0,0,0-.64-.694.6.6,0,0,1-.316-.4c-.275-.9.426-2.971,1.705-5.033a15.188,15.188,0,0,1,2.029-2.9c.66-.711,1.232-1.1,1.613-1.1a.405.405,0,0,1,.232.066,1.337,1.337,0,0,1,.544.974,1.822,1.822,0,0,1-.247,1.161,1.484,1.484,0,0,0,.2,1.534,5.518,5.518,0,0,0,1.62,1.633,3.912,3.912,0,0,0,1.971.9c.992,0,1.61-1.22,2.621-3.956a20.369,20.369,0,0,0,1.387-8.332c-.01-.074-.019-.149-.027-.224H730.26v685Zm-624.4-104.729a2.326,2.326,0,0,0-2.025,1.1,1.8,1.8,0,0,0,.339,2.633,2.183,2.183,0,0,0,.446.22,4.539,4.539,0,0,0,1.38.223,3.838,3.838,0,0,0,.595-.046,2.318,2.318,0,0,0,2.036-1.576,1.97,1.97,0,0,0-1.053-2A3.059,3.059,0,0,0,105.856,608.755ZM95.569,593.808a1.544,1.544,0,0,0-1.331.638,1.813,1.813,0,0,0,.655,2.377l.024.016.024.016A1.974,1.974,0,0,0,96,597.2a1.4,1.4,0,0,0,1.231-.721,1.851,1.851,0,0,0-1.663-2.673Zm70.546-166.419c-.17,0-.33.118-.474.352a3.822,3.822,0,0,0-.385,3.023,1.9,1.9,0,0,0,.825,1.284,1.25,1.25,0,0,0,.671.219.883.883,0,0,0,.131-.009c.577-.215.761-1.657.384-3.024C166.95,428.079,166.52,427.389,166.116,427.389Zm2.581-9.934a1.544,1.544,0,0,0-1.331.638,1.815,1.815,0,0,0,.653,2.377l.013.009.034.022a1.972,1.972,0,0,0,1.063.348,1.4,1.4,0,0,0,1.229-.721,1.85,1.85,0,0,0-1.663-2.673Zm-16.408-3.589a3.585,3.585,0,0,0-2.6,1.864c-.881,1.424-.971,3.2-.188,3.736l.013.009.009.006a1.17,1.17,0,0,0,.649.189,1.37,1.37,0,0,0,.225-.018,3.766,3.766,0,0,0,2.286-1.886c.976-1.576,1.055-3.147.188-3.737A1.01,1.01,0,0,0,152.289,413.867Zm16.956-17.483a.742.742,0,0,0-.542.231,1.263,1.263,0,0,0-.3.928,3.123,3.123,0,0,0,.8,2.478l.007,0a.35.35,0,0,0,.2.054.59.59,0,0,0,.085-.007,1.9,1.9,0,0,0,.35-3.482A1.082,1.082,0,0,0,169.244,396.384ZM118.014,85.863a4.675,4.675,0,0,0-.661.055,3.02,3.02,0,0,0-2.6,2.482c.09,1.424.323,2.24.714,2.493a.5.5,0,0,0,.279.084.567.567,0,0,0,.1-.008c.54-.085,1.271-.882,2.233-2.435.757-1.22,1.011-1.965.8-2.343C118.749,85.97,118.469,85.863,118.014,85.863Zm2.37-38.422a3.2,3.2,0,0,0-.459.035c-1.964.286-2.733,2.2-2.743,6.828-.142,4.325-1.711,8.6-4.936,13.455l-.661.982a84.378,84.378,0,0,0-4.712,7.345c-.35.741.656,1.835,1.74,2.538a4.538,4.538,0,0,0,2.214.833,1.436,1.436,0,0,0,.219-.016.75.75,0,0,0,.551-.336,4.12,4.12,0,0,0,.3-2.887c-.2-.5.229-1.881,1.227-4a72.564,72.564,0,0,1,3.81-6.878c4.462-7.455,6.579-14.424,5.147-16.948A1.821,1.821,0,0,0,120.384,47.442Zm-8.659-6.491a.468.468,0,0,0-.33.174c-.692.729-1.367,3.8-1.805,8.207a96.281,96.281,0,0,0-.354,13.87c.028,1.34.234,2.2.579,2.426a.346.346,0,0,0,.187.058.357.357,0,0,0,.054,0c.6-.094,1.449-1.795,1.931-4.861a29.3,29.3,0,0,1,2.884-8.086c1.171-1.891,1.14-3.863-.074-4.688a4.429,4.429,0,0,1-1.644-4.211,3.116,3.116,0,0,0-.484-2.327,1.331,1.331,0,0,0-.918-.557ZM71.676,671.1h0c-.3,0-.482-.074-.567-.227-.193-.347.111-1.119,1.016-2.581.83-1.338,1.366-1.961,1.739-2.021a.413.413,0,0,1,.058,0,.341.341,0,0,1,.187.057c.225.146.393.568.545,1.37.38,1.991-.13,2.814-2.021,3.263A4.383,4.383,0,0,1,71.676,671.1Zm-10.1-27.723a1.727,1.727,0,0,1-.97-.313.82.82,0,0,1-.412-.691,1.344,1.344,0,0,1,.748-1.012,4.864,4.864,0,0,1,1.412-.487,2.313,2.313,0,0,1,.364-.031.839.839,0,0,1,.452.1l.006,0c.251.17.082,1.03-.336,1.7A1.469,1.469,0,0,1,61.572,643.379Zm-6.348-62.238a1.534,1.534,0,0,1-.857-.284,1.652,1.652,0,0,1-.423-2.22,1.591,1.591,0,0,1,1.1-.69,1.7,1.7,0,0,1,.261-.021,1.317,1.317,0,0,1,.723.2l.018.011a1.655,1.655,0,0,1,.426,2.222A1.48,1.48,0,0,1,55.224,581.141Zm3.54-20.713h0a1.073,1.073,0,0,1-.614-.187c-.651-.442-.651-1.851,0-2.9a2.782,2.782,0,0,1,1.774-1.311,1.367,1.367,0,0,1,.223-.018.938.938,0,0,1,.518.14l.014.009c.721.492.722,1.739,0,2.9A2.556,2.556,0,0,1,58.764,560.428ZM133,481v0a23.326,23.326,0,0,0-.739-4.651c-.885-3-1-5.675-.257-5.972h.031a.556.556,0,0,1,.3.1c.785.509,1.782,2.783,2.372,5.406a25.143,25.143,0,0,0,.858,2.969A15.79,15.79,0,0,0,133,481Zm-2.783-41.912a.6.6,0,0,1-.338-.111,3.85,3.85,0,0,1-1.162-3.955,35.716,35.716,0,0,0,2.7,2.591C131.14,438.509,130.67,439.088,130.22,439.088Zm1.011-41.907a.925.925,0,0,1-.531-.158c-.692-.471-.769-2.259-.488-3.783.221-1.2.719-2.535,1.454-2.709l.084-.016a1.022,1.022,0,0,1,.74.164,3.181,3.181,0,0,1,1.075,2.254,4.662,4.662,0,0,1-.547,2.961A2.369,2.369,0,0,1,131.231,397.181ZM141.6,231.97h0a3.3,3.3,0,0,1-1.718-.683c-1.564-1.064-2.31-2.366-1.814-3.166a1.321,1.321,0,0,1,.949-.574,1.949,1.949,0,0,1,.3-.023,2.43,2.43,0,0,1,1.314.409l.02.014.03.02a4.485,4.485,0,0,1,1.814,3.167A.845.845,0,0,1,141.6,231.97Zm-37.471-19.448a1,1,0,0,1-.557-.132c-.244-.165-.184-.863.337-1.7a1.525,1.525,0,0,1,1.06-.667,1.644,1.644,0,0,1,.267-.022,1.6,1.6,0,0,1,.878.257l.01.007.018.011a.817.817,0,0,1,.385.736,1.231,1.231,0,0,1-.721.967A3.338,3.338,0,0,1,104.129,212.522Zm36.08-.619a1.344,1.344,0,0,1-.759-.234c-.5-.342-.87-1.682-1.008-3.676a23.016,23.016,0,0,1,.229-5.315c.218-1.182.529-1.853.9-1.941l.009,0,.019,0a.405.405,0,0,1,.056,0,.439.439,0,0,1,.239.078,3.5,3.5,0,0,1,.934,1.769,20.366,20.366,0,0,1,.664,3.173c.268,1.986.369,4.646-.229,5.61A1.233,1.233,0,0,1,140.208,211.9Zm-16.794-10.846h0a2.047,2.047,0,0,1-1.425-.73,7.63,7.63,0,0,1-1.69-5.353c.181-2.974.313-4.194.9-4.286a.5.5,0,0,1,.074-.005,1.307,1.307,0,0,1,.662.266,11.829,11.829,0,0,1,1.066.835,6.762,6.762,0,0,1,2.278,3.941,6.518,6.518,0,0,1-.376,4.308A1.816,1.816,0,0,1,123.414,201.057ZM107.8,166.291h0a3.025,3.025,0,0,1-2.327-1.166,3.991,3.991,0,0,1-.747-3.352,7.435,7.435,0,0,1,3.2-4.005,7.9,7.9,0,0,1,1.6-.663.538.538,0,0,1,.07-.006.152.152,0,0,1,.078.017.06.06,0,0,1,.027.047c.017.174-.459.711-1.643,1.852-1.175,1.1-1.635,1.8-1.587,2.416.044.567.517,1.107,1.632,1.865.943.642,1.507,1.414,1.473,2.016a.738.738,0,0,1-.419.635A2.889,2.889,0,0,1,107.8,166.291Zm40.347-10.674h0a.448.448,0,0,1-.328-.143,3.021,3.021,0,0,1-.39-1.952A1.909,1.909,0,0,1,149.1,151.8a2.248,2.248,0,0,1,.3-.028.93.93,0,0,1,.49.14c.5.33.511,1.147.017,1.943C149.2,155.009,148.59,155.616,148.145,155.616Zm14.89-13.167h0a2.208,2.208,0,0,1-1.07-.49c-.762-.518-1.354-2.106-1.546-4.143a8.73,8.73,0,0,1,.7-4.936,1.042,1.042,0,0,1,.641-.553.527.527,0,0,1,.076-.006.567.567,0,0,1,.311.1c.785.51,1.407,2.873,1.547,5.88.073,2.357.042,3.625-.334,4.013A.428.428,0,0,1,163.035,142.45ZM151.641,129.12a.093.093,0,0,1-.053-.016c-.285-.194-.371-.877-.236-1.873.234-1.713,1.032-3.81,1.75-4.053l.034-.008a.384.384,0,0,1,.054,0,.281.281,0,0,1,.158.047c.394.255.309,1.553-.2,3.086C152.641,127.914,151.935,129.12,151.641,129.12ZM79.983,128.6a.226.226,0,0,1-.167-.076c-.215-.225-.3-.969-.242-2.21.1-.866-1.443-2.52-3.758-4.022-.422-.276-.875-.545-1.345-.8-2.8-1.514-3.985-2.474-4.238-3.426a2.106,2.106,0,0,1,.4-1.7,7.053,7.053,0,0,1,4.342-2.652c2.1-.246,3.5-.975,3.74-1.949.177-.721-.3-1.507-1.339-2.215a2.963,2.963,0,0,1-1.119-1.9,5.35,5.35,0,0,1,.146-2.631c.549-1.757.169-3.749-.845-4.441a1.536,1.536,0,0,1-.8-1.125c-.038-.587.4-1.268,1.39-2.145,1.363-1.247,1.923-2.76,1.461-3.949a2.874,2.874,0,0,0-2.918-1.615,6.127,6.127,0,0,0-.695.042A3.335,3.335,0,0,0,71.8,92.816a3.179,3.179,0,0,0-.383,2.252,5.517,5.517,0,0,1-1.519,4,3.673,3.673,0,0,1-2.532,1.35,1.83,1.83,0,0,1-1.049-.319c-.662-.45.5-3.711,2.442-6.841,3.076-4.963,3.316-6.425,1.428-8.69-1.17-1.392-1.7-2.092-1.538-2.5.158-.385.949-.5,2.591-.654a5.79,5.79,0,0,0,2.695-1.154,12.348,12.348,0,0,0,2.51-2.443c1.431-1.835,2.162-3.726,1.956-5.058a5.511,5.511,0,0,1,.041-2.677c.705-1.425,2.465-10.514,2.943-15.2.431-3.077,1.238-4.243,3.454-4.993a4.47,4.47,0,0,1,1.375-.246A2.12,2.12,0,0,1,88.1,50.6c.958,1.43.681,4.258-.76,7.76a22.864,22.864,0,0,0-1.145,8.086c.07,2.923.624,5.086,1.447,5.647a.652.652,0,0,0,.372.116c.462,0,1.035-.471,1.657-1.363a19.641,19.641,0,0,0,2.386-5.317c.639-2.194.8-4.025.427-5.023a5.092,5.092,0,0,1-.107-3.093,7.945,7.945,0,0,1,1.79-3.106,18.32,18.32,0,0,0,3.748-8.079c.576-3.074,1.546-5.355,2.357-5.547a.334.334,0,0,1,.077-.009c.159,0,.284.13.373.385.442,1.275-.076,5.261-.785,8.646-.665,3.175-1.8,7.166-2.816,7.965a3.743,3.743,0,0,0-1.09,2.3,8.129,8.129,0,0,0,.207,3.474c.55,2.312.325,5.28-.5,6.616s-1.183,3.053-.8,3.9c.4,1.106-2.654,9.3-4.016,11.243-.185.264-.33.4-.431.4a.1.1,0,0,1-.058-.018,25.226,25.226,0,0,1-2.7-3.769c-1.409-1.88-2.36-2.646-3.281-2.646a2.036,2.036,0,0,0-1.02.3c-.655.363-.959.594-.93.708.014.054.107.082.276.082a3.16,3.16,0,0,0,.359-.026,1.7,1.7,0,0,1,.314-.03,1.894,1.894,0,0,1,1.627,1.141,7.023,7.023,0,0,1-.377,6.524,2.864,2.864,0,0,0-.607,2.406,1.508,1.508,0,0,0,1.116.838,2.129,2.129,0,0,1,1.45,1.159,9.787,9.787,0,0,1,.733,5.172,26.5,26.5,0,0,1-1.67,7.352,21.029,21.029,0,0,0-1.049,8.948c.321,2.233-.439,6.452-1.766,9.814C81.444,126.949,80.489,128.6,79.983,128.6ZM75.448,81.778a1.449,1.449,0,0,0-1.2.556,2.7,2.7,0,0,0-.2,2.347,2.09,2.09,0,0,0,.911,1.2,3.045,3.045,0,0,0,1.643.466,3.142,3.142,0,0,0,.485-.038,2.432,2.432,0,0,0,1.732-1.091c.411-.662-.27-1.922-1.486-2.751A3.474,3.474,0,0,0,75.448,81.778Zm14.931,42.146h0a1.3,1.3,0,0,1-.729-.226c-.964-.657-1.291-2.394-1.049-3.694.157-.849.539-1.4,1.047-1.524a.55.55,0,0,1,.068-.014.923.923,0,0,1,.14-.011,1.1,1.1,0,0,1,.6.2c1.133.737,1.9,3.285,1.087,4.6A1.378,1.378,0,0,1,90.379,123.923Zm-32.836-2.111h0c-.67,0-1.139-.83-1.287-2.276a5.3,5.3,0,0,1,.246-2.9,2.349,2.349,0,0,1,1.733-1.164c.14-.033.271-.059.391-.077a3.088,3.088,0,0,1,.474-.041,1.2,1.2,0,0,1,.669.163c.447.29.547.964.323,2.184a9.5,9.5,0,0,1-1.169,3.051C58.477,121.436,57.987,121.813,57.543,121.813Zm3.918-9.788h0a1.072,1.072,0,0,1-.614-.187c-.65-.442-.651-1.851,0-2.9a2.783,2.783,0,0,1,1.773-1.311,1.435,1.435,0,0,1,.221-.018.943.943,0,0,1,.519.14l.014.01c.722.49.724,1.737,0,2.9A2.558,2.558,0,0,1,61.461,112.025Zm10.583-2.532h0c-.864,0-1.553-.8-1.8-2.083a1.777,1.777,0,0,1,.315-1.38,2.66,2.66,0,0,1,1.742-1.047,2.617,2.617,0,0,1,.409-.032,2.347,2.347,0,0,1,1.284.373c.014.008.028.017.042.027.617.42.559,1.708-.126,2.813A2.39,2.39,0,0,1,72.044,109.493Zm-20.071-7.811h0a1.245,1.245,0,0,1-.7-.221,3.063,3.063,0,0,1-1.182-2.735.909.909,0,0,1,.771-.938,1.137,1.137,0,0,1,.177-.013,1.855,1.855,0,0,1,.983.332l.049.033c1.192.812,1.58,2.093,1.183,2.736A1.539,1.539,0,0,1,51.974,101.682Zm113.289-.63a.172.172,0,0,1-.132-.059c-.193-.208-.175-.951-.069-2.338a27.032,27.032,0,0,1,1.629-7.861c.775-1.967,1.708-3.216,2.493-3.341a.8.8,0,0,1,.131-.011.77.77,0,0,1,.427.13c.563.365.94,1.479,1.09,3.22.208,1.664-1.122,5.006-2.905,7.3C166.339,100.179,165.618,101.051,165.262,101.051ZM56.3,92.713a2.613,2.613,0,0,1-1.493-.441.412.412,0,0,1-.172-.327,4.321,4.321,0,0,1,1.6-2.563,3.535,3.535,0,0,0,1.309-2.522.914.914,0,0,0-.383-.714.633.633,0,0,0-.363-.1c-.884,0-2.413,1.391-3.555,3.235-1.252,2.019-2.6,3.324-3.432,3.324a.631.631,0,0,1-.361-.106,1.432,1.432,0,0,1-.428-1.3,4.417,4.417,0,0,1,.679-2c.918-1.481,1.3-5.291.881-8.675-.426-3.407-.259-7.714.373-9.6a7.125,7.125,0,0,0-.72-5.513c-.893-.989-1.215-3.459-.958-7.343A122.966,122.966,0,0,1,51.7,42.431c.635-3.075.837-6.588.459-8A4.013,4.013,0,0,1,52.206,32a3.972,3.972,0,0,1,1.216-1.926c.737-.593,1.1-1.04,1.073-1.328a.334.334,0,0,0-.2-.264h5.857a3.769,3.769,0,0,0,1.554,2.783.339.339,0,0,0,.033.023,1.654,1.654,0,0,0,.894.277,1.421,1.421,0,0,0,.222-.017,1.5,1.5,0,0,0,1.04-.725c.332-.535,0-1.519-.783-2.34H66.87a8.73,8.73,0,0,0,.382,3.654c.643,2.495,1.214,3.559,1.909,3.559a1.272,1.272,0,0,0,.79-.37,2.82,2.82,0,0,1,1.536-.747.6.6,0,0,1,.591.389c.416.959-.473,3.415-2.461,5.541-1.7,1.889-2.417,3.3-2.067,4.09.214.48.814.724,1.784.724a10.686,10.686,0,0,0,2.141-.266,5.6,5.6,0,0,1,.956-.113c.3,0,.473.064.528.194.148.35-.506,1.205-2.41,3.154-1.775,2.05-3.619,5.161-3.707,7.142-.086.939-.057,1.432.095,1.6a.183.183,0,0,0,.14.063c.406,0,1.29-1.115,3.264-4.113,2-3.234,5.516-6.775,7.669-7.731,3.325-1.6,4.13-2.6,3.918-4.872-.108-1.313.019-2.089.412-2.516a1.555,1.555,0,0,1,1.21-.425h.036c.88,0,2.976-1.933,4.578-4.22.985-1.589,1.857-2.616,2.221-2.616a.135.135,0,0,1,.108.048c.065.078.076.247.032.5a3.346,3.346,0,0,0,.85,2.666,2.987,2.987,0,0,0,2.054,1.257,1.048,1.048,0,0,0,.934-.539,6.532,6.532,0,0,0,.209-3.531,1.953,1.953,0,0,1,.215-1.668,2.422,2.422,0,0,1,1.945-.584c.249,0,.529.012.834.036,2.612.206,3.582.92,3.459,2.546,0,.66-.095,1.008-.274,1.008-.136,0-.314-.2-.528-.587a.434.434,0,0,0-.436-.293,4.646,4.646,0,0,0-2.28,1.385,31.42,31.42,0,0,0-3.147,3.32c-1.912,2.3-4.11,5.465-4.543,7.447-.237,1.039-.472,1.483-.784,1.483-.264,0-.607-.318-1.112-1.033-.514-.743-.961-1.059-1.493-1.059-1.313,0-3.394,2.025-7.864,6.871-1.971,2.049-3.129,4.417-2.695,5.51.5.918-.016,3.219-1.135,5.025-1.1,1.768-1.682,3.884-1.306,4.716.546,1.37.071,3.843-1.238,6.454-1.527,3.046-3.669,5.324-5.457,5.8-1.884.577-2.7.9-2.889,1.426-.155.432.142,1,.782,1.973a3.532,3.532,0,0,1,.49,2.49,8.993,8.993,0,0,1-1.02,3,15.663,15.663,0,0,1-3.562,4.443,7.084,7.084,0,0,1-4.23,1.994h0Zm2.4-24.138a3.408,3.408,0,0,0-2.617,1.877,12.51,12.51,0,0,0-1.66,4.939,4.428,4.428,0,0,0,1.645,4.21l.029.02.007,0a1.636,1.636,0,0,0,.9.28,1.566,1.566,0,0,0,.251-.02c1.509-.239,2.846-2.468,3.5-4.571a10.064,10.064,0,0,0,.5-3.4A3.725,3.725,0,0,0,60.3,69.34,2.219,2.219,0,0,0,58.7,68.575Zm5.412-6.25a.868.868,0,0,0-.176.018c-.808,0-1.669,1.243-2,2.889a3.886,3.886,0,0,0,1.439,3.85,2.543,2.543,0,0,0,1.409.417,2.8,2.8,0,0,0,.437-.035,3.274,3.274,0,0,0,.85-.262c.651-.223.9-1.218.655-2.662C66.387,64.546,65.233,62.324,64.108,62.325Zm-9.894-6.78a1.545,1.545,0,0,0-1.331.636,1.813,1.813,0,0,0,.654,2.377c.014.011.031.022.047.031a1.97,1.97,0,0,0,1.059.348,1.465,1.465,0,0,0,.227-.018,1.439,1.439,0,0,0,1.006-.7,1.85,1.85,0,0,0-1.663-2.673ZM91.163,52.2a.257.257,0,0,1-.222-.113c-.351-.5.189-2.7,1.7-6.937.641-1.86,1.518-2.625,2.125-2.722a.962.962,0,0,1,.142-.012.779.779,0,0,1,.434.129c.6.387.769,1.515.461,3.017A15.471,15.471,0,0,1,92.855,50.9C92.035,51.777,91.481,52.2,91.163,52.2ZM79.372,42.98a1.533,1.533,0,0,1-.856-.285,1.649,1.649,0,0,1-.424-2.22,1.588,1.588,0,0,1,1.1-.69,1.712,1.712,0,0,1,.262-.021,1.319,1.319,0,0,1,.723.2l.013.009.007.005a1.653,1.653,0,0,1,.423,2.219A1.479,1.479,0,0,1,79.372,42.98ZM46.806,33.4h0a2.081,2.081,0,0,1-1.546-.614V29.655a1.5,1.5,0,0,1,.927-.527,1.732,1.732,0,0,1,.268-.021,2.652,2.652,0,0,1,1.415.478l.02.013.051.034c1.029.7,1.551,1.853,1.14,2.515A2.687,2.687,0,0,1,46.806,33.4ZM81.6,33a.254.254,0,0,1-.2-.083c-.166-.181-.2-.647-.113-1.662a2.554,2.554,0,0,1,1.614-2.72.951.951,0,0,1,.149-.012.823.823,0,0,1,.457.134,1.493,1.493,0,0,1,.562,1.012,3.524,3.524,0,0,1-1.264,2.618C82.179,32.789,81.829,33,81.6,33ZM70.327,30.865h0a1.181,1.181,0,0,1-.124-.006,1.318,1.318,0,0,1-.845-.669,2.193,2.193,0,0,1,.1-1.706h4.768C72.909,29.864,71.27,30.865,70.327,30.865Z" transform="translate(-45.26 -28.483)"/></svg>