<svg xmlns="http://www.w3.org/2000/svg" xmlns:xlink="http://www.w3.org/1999/xlink" width="517.001" height="537.001" viewBox="0 0 517.001 537.001"><defs><clipPath id="a"><path d="M157.721-2403.708H54.254c-.187-1.715-1.128-2.958-2.238-2.958-.465,0-1.154.226-1.8,1.3-.607.9-1.967,1.354-4.411,1.482-.856.064-1.4.116-1.819.173H33.969a2.829,2.829,0,0,1-.692-.546,2.771,2.771,0,0,0-1.864-.914,1.09,1.09,0,0,0-.424.077.4.4,0,0,1-.126.018c-.7,0-2.442-1.244-3.863-2.478-1.322-1.147-2.879-2.735-2.916-3.435-.011-.211-.306-.343-.77-.343a2.975,2.975,0,0,0-.47.04,1.626,1.626,0,0,1-.463.069c-.393,0-.7-.162-.709-.376a14.388,14.388,0,0,0-2.432-3.127,13.6,13.6,0,0,0-2.829-2.633c-.273.014-.438.814-.383,1.86s.374,1.8.759,1.8h.034c.346,0,.688.508.718,1.065a1.764,1.764,0,0,0,1.1,1.489,2.265,2.265,0,0,1,1.113,1.782,1.838,1.838,0,0,1-.266,1.289.362.362,0,0,1-.267.124c-.324,0-.766-.487-.97-1.555a4,4,0,0,0-2.173-2.535c-.94-.386-1.967-1.206-2-1.81a4.86,4.86,0,0,0-1.81-2.378,5.572,5.572,0,0,0-2.7-1.507H9.49c-.491,0-1.1-.642-1.337-1.4a3.339,3.339,0,0,0-1.939-1.959c-.69-.221-1.051-.373-1.1-.587s.159-.461.617-.933a2.663,2.663,0,0,0,.917-1.962,2.663,2.663,0,0,0-1.117-1.855c-1.279-1.037-2.8-4.146-2.666-5.454.038-.486-.567-1.2-1.377-1.62-.844-.4-1.352-1.191-1.242-1.628a3.678,3.678,0,0,0-.526-2.255c-.349-.663-.535-.975-.731-.975s-.389.29-.77.906c-.317.48-.551.794-.9.794-.418,0-.989-.425-2.193-1.441A13.57,13.57,0,0,1-8.22-2442.2l-1-2.156.056,2.353a5.179,5.179,0,0,1-.151,1.83c-.139.41-.365.626-.672.642-.042,0-.085,0-.133,0a1.361,1.361,0,0,1-1.2-.543,2.67,2.67,0,0,1,.086-2.413c.432-.833.52-1.721.307-1.929a.132.132,0,0,0-.094-.041c-.219,0-.535.567-.786,1.412l-.522,1.721-.974-1.716a15.446,15.446,0,0,0-2.347-3.263c-.659-.749-.97-1.315-.925-1.685a.467.467,0,0,1,.207-.338c.475-.409.4-1.013-.236-1.9-.521-.857-1.028-1.349-1.39-1.349a.335.335,0,0,0-.251.109,1.485,1.485,0,0,0-.2,1.042.876.876,0,0,1-.177.643.347.347,0,0,1-.255.115.419.419,0,0,1-.211-.062.757.757,0,0,1-.392-.467,1.516,1.516,0,0,1,.378-1.078c.288-.467.408-.817.327-.962a.166.166,0,0,0-.158-.077h-.029a.077.077,0,0,1-.081-.044c-.049-.13.232-.56.848-1.1.61-.6.876-.9.859-1.185-.015-.254-.269-.5-.763-.881a4.49,4.49,0,0,1-1.48-2.277,2.225,2.225,0,0,0-2.258-1.575c-1.137-.094-1.867-.591-1.9-1.3-.024-.467-.244-.745-.588-.745a.983.983,0,0,0-.464.138,1.331,1.331,0,0,1-.476.1,1.16,1.16,0,0,1-1.057-.824,1.545,1.545,0,0,1-.078-1.168.662.662,0,0,1,.336-.392,1.129,1.129,0,0,0,.716-.988,2.5,2.5,0,0,0-1.289-2.147c-1.037-.6-1.237-1.536-1.261-5.9l0-5.153-2.075.624a6.263,6.263,0,0,1-1.538.312c-.24,0-.383-.057-.439-.175-.143-.3.258-.991,1.383-2.388a4.088,4.088,0,0,0,.941-4.1c-.334-1.393-.767-2.224-1.159-2.224-.463,0-.768,1.144-.777,2.915-.028,2.062-.345,3.2-.893,3.2-.257,0-.554-.252-.883-.749-.254-.414-1.038-.5-1.65-.5-2.029,0-5.016.932-5.48,1.979-.257.593-.5.858-.8.858a1.1,1.1,0,0,1-.669-.339,1.393,1.393,0,0,0-.756-.292c-.331,0-.617.208-.925.675-.276.408-.358.652-.28.842.1.245.466.406,1.307.576,1.1.228,1.718.582,1.707.972-.012.467-.937.9-2.414,1.125-2.093.331-2.547.729-2.86,2.506-.322,1.727-.083,2.358,1.42,3.753a7.566,7.566,0,0,0,2.391,1.642h.038a.67.67,0,0,1,.618.7c.02.384-.738.775-1.589.819-1.005.052-1.892.415-2.064.844a.446.446,0,0,0,.007.444.657.657,0,0,0,.58.26l.061,0h.056a1.108,1.108,0,0,1,1.086,1.046,2.757,2.757,0,0,0,1.246,1.7c.431.236.6.368.576.456-.036.143-.6.177-1.7.192-.123,0-.242-.006-.355-.006-1.5,0-2.083.337-2.164,1.242a1.094,1.094,0,0,0,.148.9c.2.232.614.331,1.372.331.218,0,.475-.008.788-.024s.638-.024,1-.024a46.854,46.854,0,0,1,7.137.663c2.51.422,4.211.926,4.552,1.346.22.239.3.4.255.505-.059.135-.324.2-.859.2-.341,0-.795-.023-1.471-.076a10.23,10.23,0,0,0-1.2-.076c-1.112,0-1.853.224-2.033.615-.226.487-2.388,1-5.643,1.326-3.55.242-5.645.755-5.9,1.444a.584.584,0,0,0,.227.621,21.849,21.849,0,0,0,4.036.45l1.7.094c1.339.073,2.6.142,3,.175.318.018.608.028.864.028,1.141,0,1.8-.18,2.079-.565a1.348,1.348,0,0,0,.024-1.237c-.185-.505-.269-.865-.116-1.1.216-.327.9-.416,2.344-.492.134-.007.274-.01.417-.01a5.608,5.608,0,0,1,3.227.776,2.035,2.035,0,0,0,1.381.7.734.734,0,0,0,.285-.051.331.331,0,0,1,.129-.025c.417,0,1.039.672,1.447,1.562.462,1.008,1.177,1.761,1.509,1.761h.021c.354,0,1.01.956,1.463,2.131.409,1.181,1.134,2.131,1.462,2.131h.035c.405,0,.749.5.782,1.137.024.45,0,.682-.093.776a.155.155,0,0,1-.119.049,1.829,1.829,0,0,1-.79-.479,2.186,2.186,0,0,0-1.095-.583.287.287,0,0,0-.252.124c-.214.312-.043,1.2.509,2.638.479,1.253,1.032,1.943,1.556,1.943a.627.627,0,0,0,.243-.051.549.549,0,0,1,.26-.064c.434,0,.891.462,1.087,1.1.3.831.725,1.308,1.155,1.308.337,0,.652-.286.911-.827.256-.387-.08-1.333-.718-2.023-.885-.963-1.277-1.656-1.135-2,.061-.148.22-.23.474-.243h.014c.883,0,3.35,4.514,3.52,6.44.081,1.565-.277,1.931-2.13,2.173a5.113,5.113,0,0,1-.793.066c-.8,0-1.379-.233-1.464-.594-.072-.3.227-.648.819-.942.1-.052.144-.1.136-.129-.012-.05-.143-.076-.379-.076a10.534,10.534,0,0,0-1.46.148,7.133,7.133,0,0,0-2.885.74.762.762,0,0,0-.116.858,2.334,2.334,0,0,0,2.091,1.022c.054,0,.109,0,.163,0,.075,0,.149-.006.22-.006a1.449,1.449,0,0,1,1.074.325,1.12,1.12,0,0,1,.263.85c-.021.872.874,1.422,3.092,1.9,1.989.409,3.184,1.079,3.363,1.885a1.532,1.532,0,0,1-.274,1.318,1.664,1.664,0,0,1-1.3.595,1.906,1.906,0,0,1-1.209-.443,2.815,2.815,0,0,0-1.682-.657,1.391,1.391,0,0,0-.256.022,6.922,6.922,0,0,1-1.2.126c-.941,0-1.4-.347-1.436-1.092-.065-1.252-3.277-3.534-4.594-3.534a.663.663,0,0,0-.413.116.657.657,0,0,1-.334.141.167.167,0,0,1-.136-.062c-.131-.159-.115-.63.054-1.529s.145-1.486-.054-1.725a.312.312,0,0,0-.249-.117c-.373,0-.957.521-1.686,1.5-.688.929-1.176,1.433-1.781,1.433-.788,0-1.786-.893-3.593-2.771-1.7-1.72-3.184-2.748-3.977-2.748a.733.733,0,0,0-.177.021,1.628,1.628,0,0,1-.427.059c-.452,0-.805-.219-.821-.509a.867.867,0,0,0-.931-.76l-.061,0h-.013c-.517,0-2.4-1.448-4.025-3.1-1.716-1.718-2.642-2.536-3.26-2.536a.912.912,0,0,0-.725.463c-.676.738-.7,1.394-.073,2.506.6,1.074.865,1.563.73,1.906-.128.324-.642.5-1.541.786a1.547,1.547,0,0,0-1.188,1.189c-.117.823.582,1.852,1.87,2.75a3.126,3.126,0,0,1,1.309,1.625.113.113,0,0,1-.026.087.137.137,0,0,1-.1.034,9.293,9.293,0,0,1-2.951-1.8,14.76,14.76,0,0,0-3.592-2.462h-.005c-.445.023-.983.6-1.44,1.557a6.866,6.866,0,0,0-.706,2.9c.037.713.052,1.19-.077,1.326a.139.139,0,0,1-.105.044c-.188,0-.52-.277-1.15-.858-1.051-.943-1.506-1.64-1.354-2.072.1-.293.491-.46,1.151-.494a1.6,1.6,0,0,0,1.469-1.046c.475-1.13.156-3.184-1.374-4.922a9.382,9.382,0,0,1-1.849-2.848c-.018-.341-.446-.609-.972-.609l-.08,0h-.037c-.613,0-1.443-.765-1.89-1.741S-63.657-2447-64.079-2447H-64.1c-.408,0-2.476-1.785-4.631-4.174-2.17-2.327-4.408-4.149-5.094-4.149h-.035c-.623,0-2.85-1.828-4.782-3.64S-82.675-2463-83-2463.9a13.877,13.877,0,0,0-2.479-3.183c-1.078-1.051-1.712-2-1.627-2.222a.082.082,0,0,1,.08-.053h.018a4.644,4.644,0,0,1,2.1,1.509c2.433,2.646,7.351,5.232,9.245,5.232a.891.891,0,0,0,.662-.2.521.521,0,0,0,.128-.4,8.079,8.079,0,0,0-2.177-2.609c-1.153-1.078-1.731-1.46-2.206-1.46a1.185,1.185,0,0,0-.84.442c-.386.38-.646.542-.871.542s-.4-.138-.62-.463a.824.824,0,0,1-.1-.645,1.506,1.506,0,0,1,.7-.933,1.27,1.27,0,0,0,.6-1.5.554.554,0,0,0-.43-.277c-.252,0-.539.251-.9.789-.339.6-.555.887-.871.887-.351,0-.836-.361-1.726-1.119a5.924,5.924,0,0,1-1.882-2.183.436.436,0,0,1,.125-.334,1.464,1.464,0,0,1,1.033-.3,3.2,3.2,0,0,1,2.113.76c.374.365.645.558.782.558a.084.084,0,0,0,.085-.053c.108-.258-.54-1.462-1.657-2.6a4.026,4.026,0,0,0-2.466-1.529c-.494,0-.828.311-.967.9a.643.643,0,0,1-.641.48.792.792,0,0,1-.429-.129c-.622-.332-.608-.969.061-2.728a4.574,4.574,0,0,0,.528-2.9.6.6,0,0,1-.086-.525,1.173,1.173,0,0,1,.7-.684c.64-.318.842-.965.582-1.871a1.5,1.5,0,0,1-.085-1.243.346.346,0,0,1,.283-.166.71.71,0,0,0,.492-.241.842.842,0,0,0,.211-.6.491.491,0,0,0-.527-.474.993.993,0,0,0-.509.16,1.506,1.506,0,0,1-.585.152.377.377,0,0,1-.374-.2c-.139-.3.094-.864.607-1.482a.448.448,0,0,0,.136-.445c-.112-.3-.737-.522-1.965-.711-2.924-.43-3.024-.634-3.576-7.247l-.473-5.128-2.928-.068c-.308-.011-.572-.016-.809-.016-1.843,0-2.212.342-2.449,1.438-.263,1.4-.806,1.588-5.277,1.823-2.715.142-5.072.563-5.254.938-.2.32.293,1.188,1.049,1.858,1.04.906,1.425,1.438,1.329,1.836-.1.416-.717.719-2.2,1.081a6.421,6.421,0,0,1-1.682.254,3.655,3.655,0,0,1-2.218-.712,8.427,8.427,0,0,0-3.75-.9c-.1,0-.207,0-.309.008-2.063.109-2.565.449-2.823,1.915a2.98,2.98,0,0,1-1.72,2.225c-.659.215-1.014.439-1.126,1.062a13.2,13.2,0,0,0,.275,3.473c.546,3.936.567,4.09-1.185,4.626-3.17.891-3.6,1.2-3.87,2.706a1.252,1.252,0,0,1-1.32,1.179,8.078,8.078,0,0,1-3.519-1.368,2.876,2.876,0,0,0-1.409-.595c-.528,0-1.03.39-1.891,1.209a6,6,0,0,1-2.771,1.617,3.5,3.5,0,0,0-1.988.988c-.339.408-.543.6-.642.6a.058.058,0,0,1-.048-.023c-.053-.067-.03-.287.071-.69a5.3,5.3,0,0,0-.84-3.047c-.9-1.515-2.036-2.456-2.967-2.456a1.066,1.066,0,0,0-.8.337,2.454,2.454,0,0,0-.461,1.826,1.744,1.744,0,0,1-.262,1.246.475.475,0,0,1-.357.153c-.366,0-.863-.355-1.4-1-.75-.947-.737-1.379.077-2.433s.875-1.585.223-2.219c-.286-.28-.391-.465-.34-.6.072-.191.464-.291,1.311-.335,1.078-.056,1.819-.337,1.8-.683-.07-1.337-2.38-3.631-3.8-3.776-.659-.088-1.053-.19-1.249-.472-.27-.388-.162-1.117.2-2.711.136-.575.177-.927.008-1.141-.154-.2-.479-.275-1.12-.275-.364,0-.846.026-1.61.085-2.68.216-3.112.489-3.555,2.247-.417,1.658-.827,1.993-2.437,1.993-.116,0-.241,0-.383-.005-1.306-.049-2.168-.477-2.493-1.239-.466-1.094.23-2.8,1.91-4.693,1.623-1.872,2.018-2.771,1.459-3.316a1.12,1.12,0,0,0-.814-.335,4.025,4.025,0,0,0-2.015.852c-3.955,2.455-4.376,2.658-5.638,2.725-.04,0-.079,0-.119,0a1.578,1.578,0,0,1-1.483-.729c-.119-.324-.279-.469-.518-.469a2.729,2.729,0,0,0-1.245.561,3.233,3.233,0,0,1-1.655.521,2.1,2.1,0,0,1-.982-.236c-3.624-1.789-6.26-2.518-9.1-2.518-.29,0-.59.008-.894.024-.322.017-.637.026-.937.026a8.464,8.464,0,0,1-4.769-1.2,6.094,6.094,0,0,0-2.744-1.226c-.626,0-.981.45-1.186,1.5-.156.885-.46,1.247-1.048,1.247a2.762,2.762,0,0,1-.729-.123,2.221,2.221,0,0,0-.692-.115,2.9,2.9,0,0,0-2.111,1.144c-.523.566-.862.912-1.229.912-.5,0-1.087-.642-2.366-2.049-1.57-1.8-3.586-3.2-4.273-3.2a.247.247,0,0,0-.208.081.387.387,0,0,0-.016.334,4.343,4.343,0,0,1-.315,1.783,5.593,5.593,0,0,0,.309,3.3c.639,1.743.518,2.344-.809,4.018a6.42,6.42,0,0,0-1.451,4.438,8.014,8.014,0,0,0,2.127,4.581c1.149,1.327,2.6,2.406,3.227,2.406H-202c.882.027,1.256.606,1.333,2.065.092,1.76.431,2.652,1.007,2.652a1.5,1.5,0,0,0,.938-.546,1.077,1.077,0,0,1,.768-.366c.519,0,1.2.427,2.421,1.525s2.354,2.085,2.493,2.151a13.224,13.224,0,0,1,.648,3.278c.383,3.811.423,4.21,1.081,4.21.064,0,.136,0,.212-.008h.014a.379.379,0,0,0,.294-.176,1.648,1.648,0,0,0,.036-1.314c-.178-.586-.184-.951-.02-1.184a1.1,1.1,0,0,1,.892-.334l.069,0a3.769,3.769,0,0,1,2.449,1.342,4.3,4.3,0,0,0,2.7,1.328l.085,0c.042,0,.086,0,.135,0,.828,0,1.45.4,1.479.95.032.617,1.1,1.593,2.285,2.088l.419.2.022.01a7.241,7.241,0,0,0,1.79.741.163.163,0,0,0,.133-.05c.08-.094.043-.317-.019-.687-.01-.059-.021-.122-.031-.187a1.611,1.611,0,0,1,.138-1.142.268.268,0,0,1,.207-.1c.425,0,1.111.886,1.48,2.319.355,1.482.363,2.581.02,3.014a.5.5,0,0,1-.413.2c-.426,0-1.007-.439-1.681-1.27a7.235,7.235,0,0,0-3.514-2.172c-1.156-.23-2.077-.7-2.1-1.067a.691.691,0,0,0-.682-.626h-.031c-.387.021-.654.509-.621,1.137a1.275,1.275,0,0,1-.216.932.484.484,0,0,1-.366.15,2.189,2.189,0,0,1-1.306-.762c-.286-.279-.477-.409-.6-.409a.141.141,0,0,0-.105.045c-.083.088-.113.311-.092.7a1.994,1.994,0,0,1-.665,1.4,7.192,7.192,0,0,1-4.7,2c-.1,0-.2,0-.3-.01s-.173-.009-.26-.009a4.158,4.158,0,0,0-3,1.284,17.187,17.187,0,0,1-2.6,2.271c-.6.429-.914.658-.879.772.028.089.265.11.721.119.036,0,.071,0,.106,0,.5,0,1.046.213,1.146.688.074.352-.165.7-.625.9-.394.166-.7,2.113-.715,4.528.056,2.389-.315,4.671-.684,5.115-.3.36-.486.52-.608.52s-.19-.17-.21-.551c-.046-.875-1.737-3.148-5.485-7.367a6.436,6.436,0,0,1-1.315-3.023c-.165-1.059-.436-1.511-.9-1.511a1.2,1.2,0,0,0-.462.111.464.464,0,0,1-.19.037c-.934,0-3.444-1.972-7.673-6.029-5.242-5-10.1-9.386-10.4-9.386a.013.013,0,0,0-.013.007c-.015.034.106.2.361.484a4.587,4.587,0,0,1,1.009,2.376c.029.563,0,.852-.11.964a.174.174,0,0,1-.133.055c-.137,0-.339-.114-.675-.383a3.469,3.469,0,0,0-2.2-.547c-3.561,0-9.617,2.262-11.571,4.321a1.892,1.892,0,0,0-.651,1.325c.046.889-.594,1.575-1.8,1.934a9.412,9.412,0,0,0-3.663,2.768,7.673,7.673,0,0,1-2.326,2.33l-.081,0a13.109,13.109,0,0,1-5.832-2.562,8.591,8.591,0,0,0-3.352-1.665c-1.043-.169-1.882-.876-1.908-1.372-.03-.579-.959-1.422-2.07-1.879a4.309,4.309,0,0,1-2.532-2.885,3.675,3.675,0,0,0-2.248-2.679,4.352,4.352,0,0,1-2.274-1.868,17.274,17.274,0,0,0-2.837-4.025c-1.36-1.53-2.511-2.518-2.932-2.518h-.035c-.487,0-1.4-.838-2.121-1.949-1.609-2.476-6.42-7.5-10.051-11.043s-8.207-7.692-9.139-7.692a.2.2,0,0,0-.084.016.74.74,0,0,1-.351.082,1.57,1.57,0,0,1-1.251-.807,2.639,2.639,0,0,0-2.1-1.215c-.912-.028-4.886-3.3-9.665-7.958-6.76-6.453-8.6-7.846-10.368-7.846h-.055a6.283,6.283,0,0,1-4.523-2.265c-1.59-1.551-2.537-3.029-2.391-3.387a.123.123,0,0,1,.126-.075c.237,0,.754.355,1.456,1,1.091.99,1.715,1.432,2.024,1.432a.2.2,0,0,0,.169-.078c.121-.163.073-.581-.151-1.313a4.241,4.241,0,0,0-2.777-2.385,18.877,18.877,0,0,0-5.971-1.058c-.6-.028-1.1-.041-1.524-.041-1.255,0-1.9.118-2.167.4a.556.556,0,0,0-.143.435,1.742,1.742,0,0,0,.755,1.433,2.706,2.706,0,0,1,.778,1.873c.05.945.47,1.313,1.5,1.313.085,0,.175,0,.268-.007.054,0,.108,0,.159,0,.835,0,1.56.365,1.583.8a7.58,7.58,0,0,0,1.921,2.917c1.109,1.285,1.521,1.529,1.893,1.529a1.444,1.444,0,0,0,.945-.573c.462-.436.686-.631.791-.631a.054.054,0,0,1,.045.021c.054.067.012.3-.082.718-.168.58.425,2.15,1.469,3.382.806,1.077,1.184,1.926,1.011,2.271a.3.3,0,0,1-.292.156,5.17,5.17,0,0,1-2.519-1.743,4.425,4.425,0,0,0-3.082-1.534,2.772,2.772,0,0,0-.329.02,3.928,3.928,0,0,1-.67.067c-.761,0-1.156-.351-1.362-1.212-.493-2-1.57-3.154-2.955-3.154-.048,0-.092,0-.133,0a1.127,1.127,0,0,0-1.094.632c-.351.876.452,2.5,2.1,4.248,1.144,1.188,1.705,2.182,1.5,2.659-.085.2-.294.3-.622.3a3.456,3.456,0,0,1-1.077-.226,1.522,1.522,0,0,0-.532-.137.327.327,0,0,0-.265.108c-.209.243-.152.939.019,2.058.221,1.465.623,2.45,1,2.45h.021a10.567,10.567,0,0,1,3.17,2.263c1.256,1.181,1.913,1.663,2.264,1.663.225,0,.34-.192.373-.624a1.912,1.912,0,0,0-.428-1.67,28.884,28.884,0,0,1-2.3-2.382l-1.8-1.894,2.212.694a4.537,4.537,0,0,1,2.236,1.134,5.483,5.483,0,0,0,1.113,1.782c.37.5.611.748.9.748.516,0,1.211-.852,2.733-2.779,1.45-1.744,2.33-2.557,2.771-2.557.146,0,.246.085.3.261a10.809,10.809,0,0,0,2.1,2.393,3.006,3.006,0,0,1,1.386,3.093c-.26,1.381,0,1.759,1.471,2.131.873.177,1.253.344,1.356.595.077.189,0,.435-.261.82a2.255,2.255,0,0,1-1.718,1.082.89.89,0,0,1-.927-.943,9.6,9.6,0,0,0-1.031-2.817c-.548-.953-.906-1.342-1.233-1.342a.72.72,0,0,0-.521.33c-1.15,1.384-.838,2.317,1.452,4.34,1.569,1.354,2.37,2.7,2.091,3.521-.146.426-.58.67-1.257.706l-.089,0a4.413,4.413,0,0,1-3.23-2.364,1.629,1.629,0,0,1-.155-1.653.942.942,0,0,0,.149-1,.905.905,0,0,0-.822-.466,1.324,1.324,0,0,0-1.008.525.916.916,0,0,1-.7.394,2.042,2.042,0,0,1-1.215-.662,2.581,2.581,0,0,0-1.521-.7.583.583,0,0,0-.413.135c-.135.1-.148.32-.038.666a10.37,10.37,0,0,0,1.8,2.872c.924,1.112,1.735,1.776,2.17,1.776h.022c.493.013,2.051,1.247,3.376,2.464s2.672,2.649,2.7,3.107a.662.662,0,0,0,.618.7h.065c.387,0,.748.361.967.966a2.031,2.031,0,0,1-.229,2.086c-.36.261-.5.41-.473.5.021.064.138.094.37.094.059,0,.125,0,.2-.006l.1,0c.3,0,.52.078.579.2a.19.19,0,0,1-.045.208.542.542,0,0,1-.439.163,3.837,3.837,0,0,1-2.491-1.427.5.5,0,0,1-.086-.491.765.765,0,0,0,0-.779.958.958,0,0,0-.821-.407,1.069,1.069,0,0,0-.977.617c-.251.459-.411.693-.586.693s-.353-.221-.635-.629a2.773,2.773,0,0,1-.379-2.042,1.021,1.021,0,0,0,.015-.8.2.2,0,0,0-.169-.082.363.363,0,0,0-.1.014,5.023,5.023,0,0,1-1.065.138,1.181,1.181,0,0,1-.963-.338,1.469,1.469,0,0,1-.155-1.231,2.484,2.484,0,0,0-.658-2.174.978.978,0,0,0-.546-.271c-.356,0-.544.551-.717,2.1-.349,2.452-.061,3,3.855,7.38a37.7,37.7,0,0,1,2.767,3.3.008.008,0,0,1-.008,0c-.133,0-1.678-1.455-5.063-4.643l-.025-.023-.058-.055c-3.806-3.71-6.382-6.45-6.265-6.665a.214.214,0,0,1,.137-.039,3.056,3.056,0,0,1,1.469.838c.565.489.9.766,1.159.766.332,0,.553-.452.984-1.394a4.006,4.006,0,0,0,.145-3.4.677.677,0,0,0-.563-.347,1.145,1.145,0,0,0-.775.422c-.373.374-.6.534-.745.534-.175,0-.258-.224-.287-.774a2.553,2.553,0,0,0-1.8-1.82c-1.594-.579-2.058-1.63-2.16-4.892a.534.534,0,0,0-.156-.412,1.487,1.487,0,0,0-1.081-.4l-.1,0c-.444.024-.734.141-.839.338a.511.511,0,0,0,.068.512.9.9,0,0,1,.11.956c-.314.571-1.389.9-2.95.9-.3,0-.616-.012-.941-.037a10.807,10.807,0,0,0-1.187-.077,1.9,1.9,0,0,0-1.313.313.445.445,0,0,0-.122.343c.045.86,3.82,4.785,7.48,7.779,1.811,1.423,2.222,2.256,2.587,5.238.151,1.82.119,2.861-.1,3.095a.143.143,0,0,1-.106.051.211.211,0,0,1-.111-.039.306.306,0,0,0-.128-.035.129.129,0,0,0-.11.056c-.131.185-.016.813.334,1.815.518,1.344,1.471,2.176,2.057,2.176a.431.431,0,0,0,.37-.179,1.674,1.674,0,0,0-.083-1.384c-.227-.583-.262-.982-.108-1.22a.753.753,0,0,1,.642-.281h.043c.586,0,1.077.62,1.118,1.412.047.905.5,1.4,1.269,1.4l.1,0,.064,0a1.857,1.857,0,0,1,1.637,1.311c.115.4.16.711.008.914-.193.256-.691.351-1.839.352-.264,0-.569,0-.96-.015-1.738.016-3.46.337-3.838.716a1,1,0,0,1-.685.387.783.783,0,0,1-.608-.393c-.291-.434-.59-.673-.84-.673a.387.387,0,0,0-.293.138,2.112,2.112,0,0,0-.244,1.491,3.6,3.6,0,0,0,3.473,3.35h.073a4.906,4.906,0,0,1,2.7,1.7,3.986,3.986,0,0,0,1.869,1.394.2.2,0,0,0,.106-.025.191.191,0,0,1,.132-.046c.328,0,1.034.588,1.648,1.572.717,1.019,1,1.45.918,1.61-.026.05-.089.074-.2.074a4.1,4.1,0,0,1-.775-.135,2.022,2.022,0,0,0-.425-.046,1.809,1.809,0,0,0-1.631,1.038,2.185,2.185,0,0,1-2.124,1.165c-1.728,0-4-1.156-6.07-3.092-1.386-1.352-2.82-2.3-3.486-2.3a.406.406,0,0,0-.235.062.776.776,0,0,0-.366.517c-.029.254.125.559.515,1.021.366.434.488.672.423.822-.058.133-.27.2-.709.223l-.077,0a1.668,1.668,0,0,1-1.465-1.037,1.872,1.872,0,0,1,.16-1.984.812.812,0,0,0,.25-.67c-.059-.3-.393-.606-1.085-.979a2.924,2.924,0,0,1-1.634-2.638,4.425,4.425,0,0,0-.673-2.467,3.228,3.228,0,0,1-.571-1.811c-.055-1.047-1.19-1.837-2.639-1.837a3.891,3.891,0,0,0-1.455.285,1.649,1.649,0,0,1-.594.144c-.632,0-.9-.772-1.3-2.621-.384-1.844-.72-2.78-1.494-2.78a3.78,3.78,0,0,0-1.806.818,2.27,2.27,0,0,1-1.241.505,1.214,1.214,0,0,1-.861-.395,2,2,0,0,0-1.182-.708.458.458,0,0,0-.345.147,1.969,1.969,0,0,0-.265,1.39c.045.856.209,1.159.627,1.159a2.276,2.276,0,0,0,.784-.2,2.136,2.136,0,0,1,.743-.193c.454,0,.627.383.687,1.517.05.948-.086,1.918-.443,1.937h-.01c-.407,0-1.69-1.179-2.78-2.347a15.236,15.236,0,0,1-2.615-3.48c-.186-.479-.223-.73-.129-.868.063-.093.189-.136.394-.136a4.659,4.659,0,0,1,.912.133,4.9,4.9,0,0,0,.92.124.694.694,0,0,0,.534-.172c.167-.176.219-.5.185-1.142a1.732,1.732,0,0,1,.261-1.173,1.28,1.28,0,0,1,1.014-.44c.728-.038,1.219-.307,1.281-.7s-.334-.81-1.034-1.077a1.765,1.765,0,0,1-1.1-1.488c-.03-.578-.225-.813-.673-.813a3.919,3.919,0,0,0-1.124.246,2.421,2.421,0,0,1-.754.114,3.61,3.61,0,0,1-1.148-.2v-93.739l.014,0a2.3,2.3,0,0,0,.485.056,1.025,1.025,0,0,0,.954-.462,1.44,1.44,0,0,0-.2-1.422,1.731,1.731,0,0,1-.064-1.728,3.163,3.163,0,0,0,.322-2.177,2.06,2.06,0,0,1,.464-1.9c.444-.3.525-1.223.184-2.092a2.569,2.569,0,0,1-.155-2.321,1.612,1.612,0,0,0,.008-1.591.65.65,0,0,1-.11-.6.557.557,0,0,1,.419-.341.27.27,0,0,1,.062-.007.367.367,0,0,1,.263.135,2.385,2.385,0,0,1,.354,1.659c.014,1.125.44,2.06.99,2.175a.706.706,0,0,1,.544.393.736.736,0,0,1-.125.687c-.538.8,1.734,4.273,3.628,5.551a2.861,2.861,0,0,1,1.068,1.7c.109.712.643.989,1.9.989.144,0,.3,0,.468-.011,1.576-.123,2.466-.406,2.576-.821.068-.258-.158-.564-.671-.91-.421-.283-.575-.441-.55-.561s.256-.218.818-.323a3.539,3.539,0,0,1,.749-.121.37.37,0,0,1,.311.106c.081.1.08.289-.006.638a1.226,1.226,0,0,0,.077,1.083,1.257,1.257,0,0,0,1.048.367,10.178,10.178,0,0,0,3.029-.688,8.058,8.058,0,0,1,2.52-.616,2.024,2.024,0,0,1,1.656.862c.53.6.817.83,1.024.83.231,0,.366-.311.5-.779a2.979,2.979,0,0,1,1.555-1.7c.967-.331,1.173-.908.917-2.574a6.569,6.569,0,0,1,.463-3.235c.359-.532.425-1.22.136-1.416a.615.615,0,0,1-.265-.4.88.88,0,0,1,.153-.649.423.423,0,0,1,.36-.2,1.037,1.037,0,0,1,.746.506,2.586,2.586,0,0,0,2.032,1.442c.941,0,1.972-.82,3.063-2.438,1-1.482,1.655-2.339,2.05-2.339.334,0,.479.6.606,1.559a3.9,3.9,0,0,0,.791,1.864.464.464,0,0,0,.263.083.817.817,0,0,0,.585-.341,2.756,2.756,0,0,0,.561-2.074c-.12-.784.3-1.3,1.484-1.836a2.487,2.487,0,0,0,1.685-2.5,8.327,8.327,0,0,1,1.093-3.076,4.257,4.257,0,0,0,.763-2.588c-.074-.483-.069-.743.017-.844a.139.139,0,0,1,.112-.049.753.753,0,0,1,.363.161.745.745,0,0,1,.265,1.066.392.392,0,0,0-.041.3,2.4,2.4,0,0,0,1.038,1.257,2.126,2.126,0,0,0,1.146.451c.9,0,1.542-1.112,2.381-4.1.527-1.872.841-2.443,1.342-2.443a.822.822,0,0,1,.2.028.838.838,0,0,0,.13.01,2.281,2.281,0,0,0,1.629-1.041,3.514,3.514,0,0,1,2.314-1.365,4.883,4.883,0,0,0,2.878-1.959c.629-.867.934-1.385.86-1.807-.061-.343-.382-.62-.88-.956a5.973,5.973,0,0,0-2.984-.639,8.56,8.56,0,0,0-1.139.074,4.677,4.677,0,0,1-.722.053,9.932,9.932,0,0,1-3.493-.753c-1.124-.456-1.881-1-1.975-1.409-.047-.207.067-.378.338-.508.162-.1.235-.191.218-.276-.026-.128-.254-.227-.658-.286a1.493,1.493,0,0,0-.364-.049.594.594,0,0,0-.51.2.32.32,0,0,0-.014.313c.152.358-.217,1.062-.859,1.637a1.284,1.284,0,0,1-.663.335c-.423,0-.5-.832-.527-2.822-.071-2.418.186-3.326.949-3.35.047,0,.091,0,.132,0,.289,0,.469-.059.551-.181s.072-.333-.051-.638a1.426,1.426,0,0,0-1.141-.859.432.432,0,0,1-.319-.2,2.069,2.069,0,0,1-.051-1.561c.482-1.974-.01-9.246-.993-14.68-2.144-12.307-2.66-16.706-2.125-18.1.256-.667.31-1.073.17-1.277a.46.46,0,0,0-.411-.166,1.659,1.659,0,0,0-.278.027.951.951,0,0,1-.125.009c-.578,0-1.047-.593-1.2-1.511-.164-1.01.115-2.18.964-2.462a4.611,4.611,0,0,0,1.966-2.308c.4-.892.548-1.354.4-1.731-.165-.42-.707-.712-1.86-1.205-1.974-.883-2.449-1.487-2.821-3.588a6.085,6.085,0,0,1,.576-4.133,2.162,2.162,0,0,0,.548-1.4c-.047-.347-.3-.646-.871-1.031a2.473,2.473,0,0,1-1.278-1.915,4.668,4.668,0,0,1,1.025-2.689c.443-.657.6-1.1.5-1.438a.978.978,0,0,0-.612-.587c-.822-.347-1.624-1.94-2.021-3.274a4.013,4.013,0,0,1-.095-2.94,1.03,1.03,0,0,1,.853-.456,1.006,1.006,0,0,1,.567.173,1.468,1.468,0,0,0,.734.327c.424,0,.59-.6.822-2.026a2.4,2.4,0,0,0-.226-1.726.471.471,0,0,0-.365-.167c-.4,0-.925.427-1.483,1.2-.437.647-.756,1-.9,1a.064.064,0,0,1-.052-.025c-.045-.058-.038-.21.022-.453.518-2.609.344-5.974-.332-6.431a.736.736,0,0,0-.417-.109,2.319,2.319,0,0,0-1.378.584,1.625,1.625,0,0,1-1.084.526,2.443,2.443,0,0,1-1.472-.743c-1.191-1.074-1.309-1.71-.6-3.241.639-1.432.566-2.277-.261-3.013l-1.171-1.057,2.229-.269a10.538,10.538,0,0,1,1.249-.085c.92,0,1.483.182,1.674.541.157.3.059.709-.292,1.229a5.06,5.06,0,0,0-.38,3.114l.458,1.993.839-2.094a6.23,6.23,0,0,0,.518-3.2,12.179,12.179,0,0,1-.127-3.455c.039-1.434-.07-2.2-.355-2.5a.423.423,0,0,0-.317-.135c-.3,0-.7.249-1.277.784a1.751,1.751,0,0,1-1.179.528,1.234,1.234,0,0,1-1.124-.718,1.646,1.646,0,0,1,.339-1.755c.394-.467.531-.762.471-1.021-.073-.315-.447-.589-1.333-.979s-1.239-.652-1.281-.928.231-.579.685-.982c.5-.463.7-.78.677-1.061-.02-.252-.223-.5-.658-.789a2.35,2.35,0,0,1-1.043-2.257.5.5,0,0,1,.511-.4.863.863,0,0,1,.178.02,13.287,13.287,0,0,0,1.872.119h.063c.449,0,.756-.035.9-.21s.123-.529.012-1.092c-.145-.715-.27-.956-.493-.956a.968.968,0,0,0-.48.212,1.225,1.225,0,0,1-.691.179,2.738,2.738,0,0,1-1.476-.489c-.563-.38-.818-.673-.826-.951-.006-.212.13-.417.43-.646a.971.971,0,0,0,.523-.733.42.42,0,0,0-.188-.371c-.341-.231-.25-.966.2-1.637a1.728,1.728,0,0,0,.305-1.251.81.81,0,0,0-.328-.537c-.457-.309-.467-1.128-.022-1.788a2.034,2.034,0,0,0,.362-1.008.762.762,0,0,0-.272-.7,1.718,1.718,0,0,1-.578-1.361,5.008,5.008,0,0,1,1.366-3.693c.6-.541.906-.812.877-.889-.006-.015-.024-.022-.057-.022a7.448,7.448,0,0,0-1.293.407l-.007,0a4.606,4.606,0,0,1-1.211.307.379.379,0,0,1-.3-.1c-.131-.141-.137-.429-.105-.848a6.638,6.638,0,0,1,.958-2.634,2.269,2.269,0,0,0,.483-2.2,1.2,1.2,0,0,0-1.139-.563,2.671,2.671,0,0,0-.369.027,3.728,3.728,0,0,1-.514.044.58.58,0,0,1-.5-.165c-.122-.165-.1-.467.074-1.042a6.8,6.8,0,0,0-.1-3.258c-.4-1.6-.251-1.938,1.112-2.619a3.278,3.278,0,0,0,1.862-2.985,1.768,1.768,0,0,0-1.208-1.628,2.785,2.785,0,0,1-1.62-2.333,4.443,4.443,0,0,0-1.471-2.678c-.459-.31-.66-.542-.672-.779-.013-.259.191-.541.706-.972.419-.362.676-.644.659-.927-.021-.352-.453-.708-1.244-1.242-.813-.549-1.261-.851-1.311-1.237-.06-.468.465-1.064,1.614-2.37,3.684-3.985,3.9-4.473,3.341-5.2a.455.455,0,0,0-.394-.248c-.268,0-.58.235-.857.646a5.691,5.691,0,0,1-2.812,1.74,7.621,7.621,0,0,1-1.825.277c-.573,0-.941-.125-1.067-.362-.1-.181-.047-.418.146-.7.289-.429.271-.667.205-.792a.42.42,0,0,0-.4-.187,2.085,2.085,0,0,0-1.483.913c-.473.642-.709.962-.787.962a.021.021,0,0,1-.018-.009,3.57,3.57,0,0,1,.231-1.074c.217-.787.571-2.378.806-3.624.279-1.72.538-2.278,1.712-2.658a3.879,3.879,0,0,1,1.106-.165,1.725,1.725,0,0,1,.918.2,1.817,1.817,0,0,0,.906.169,5.258,5.258,0,0,0,1.41-.2c.7-.215,1.1-.345,1.129-.537s-.263-.43-.9-.9a2.467,2.467,0,0,0-1.323-.619.354.354,0,0,0-.316.135.716.716,0,0,1-.564.378.758.758,0,0,1-.584-.374,2.424,2.424,0,0,1-.232-2.087c.278-.684.44-1.109.34-1.257a.179.179,0,0,0-.162-.066,4.538,4.538,0,0,0-1.181.381c-2,.778-3.056,2.119-2.83,3.588a1.637,1.637,0,0,1-.859,1.637,1.029,1.029,0,0,1-.4.115.2.2,0,0,1-.176-.081c-.108-.161-.019-.573.279-1.3.5-1.338.313-1.917-.785-2.479a3.826,3.826,0,0,0-1.764-.443,2,2,0,0,0-.613.082,1.138,1.138,0,0,1-.521.151.517.517,0,0,1-.53-.417.672.672,0,0,1,.175-.5.937.937,0,0,1,.668-.265,7.137,7.137,0,0,0,2.863-2.058c1.017-1.057,1.8-1.615,2.277-1.615a.434.434,0,0,1,.33.135,1.333,1.333,0,0,1,.192.974.894.894,0,0,0,.172.69.533.533,0,0,0,.408.162,2.611,2.611,0,0,0,1.773-1.3c.982-1.456,2.581-6.523,2.376-7.53a1.493,1.493,0,0,1,.22-1.13.424.424,0,0,1,.319-.154c.218,0,.45.174.651.49.186.271.368.4.558.4.276,0,.58-.268.986-.87a15.774,15.774,0,0,1,2.367-2.659l1.283-1.174-2.317.034-2.317.033,1.621-.946c1.405-.743,1.593-1.138,1.183-2.483a6.528,6.528,0,0,0-2.239-2.751c-1.376-.928-1.6-1.5-1.066-2.67a2.4,2.4,0,0,0-.425-2.769,2.317,2.317,0,0,1-.261-3.013,5.39,5.39,0,0,0,.159-4.48,1.624,1.624,0,0,0-1.149-.976,1.442,1.442,0,0,0-.309-.036c-.63,0-1.1.51-1.554,1.706-.357.856-.6,1.351-.754,1.351-.105,0-.18-.2-.257-.7a3.689,3.689,0,0,0-1.252-1.908c-.71-.479-.706-1.139.014-2.207.5-.746.907-1.064,1.351-1.064a1.464,1.464,0,0,1,.8.3,1.466,1.466,0,0,0,.8.3c.444,0,.848-.318,1.351-1.064a2.617,2.617,0,0,0,.543-1.307,1.027,1.027,0,0,0-.529-.9,5.955,5.955,0,0,0-3.233-1.154,2.993,2.993,0,0,0-1.9.621l-.006.005a3.943,3.943,0,0,1-1.016.724.048.048,0,0,1-.042-.02c-.056-.079.058-.4.265-.98a1.918,1.918,0,0,1,1.7-1.292l.069,0c.051,0,.1,0,.151,0,.923,0,1.51-.345,1.543-.679.027-.266-.284-.491-.831-.6-.668-.169-1.232-1.159-1.313-2.3l-.221-2.1,1.1,1.277c.441.51.726.822,1.012.822.4,0,.8-.615,1.747-2.241.876-1.418,1.762-2.976,1.913-3.321a.212.212,0,0,0,.011-.2,1.96,1.96,0,0,0-1.28-.836c-1.126-.4-1.438-1.132-1.336-3.118a8.249,8.249,0,0,0-1.532-5.169.935.935,0,0,0-.639-.354.509.509,0,0,0-.089.008c-.282.066-.455.636-.4,1.325a.921.921,0,0,1-.127.658.293.293,0,0,1-.224.086,2.4,2.4,0,0,1-1.012-.423c-.574-.3-.852-.558-.931-.868-.087-.344.065-.762.525-1.445s.608-1.072.51-1.346c-.075-.21-.3-.363-.743-.5a2.916,2.916,0,0,1-1.811-1.93c-.346-1.283-.212-1.64.716-1.912.971-.229,1.189-.8.973-2.535-.126-.99-.169-1.6-.012-1.776a.176.176,0,0,1,.14-.06,1.293,1.293,0,0,1,.592.283,1.877,1.877,0,0,1,.6,1.909c-.362,1.329.381,6.037.937,6.765.051.067.1.1.146.1a.084.084,0,0,0,.021,0c.107-.025.209-.125.3-.3a10.316,10.316,0,0,0,.18-5.761,2.388,2.388,0,0,1,.312-2.893c.408-.343.6-.648.583-.931a1,1,0,0,0-.534-.72,7,7,0,0,1-1.614-2.95c-.337-1.251-.816-2.194-1.114-2.194a.142.142,0,0,0-.03,0,.093.093,0,0,0-.072.043,4.759,4.759,0,0,0,.241,2.377,3.91,3.91,0,0,1,.146,2.328.273.273,0,0,1-.17.138.114.114,0,0,1-.041.008c-.322,0-.831-1.41-1.158-3.21-.4-2.253-.262-3.475.4-3.631.574-.135.82-1.521.73-4.118a14.251,14.251,0,0,1,.208-4.559.84.84,0,0,0,.131-.626.713.713,0,0,0-.3-.462c-.348-.235-1.114-2.616-1.641-5.1l-1.037-4.778-1.649,2.08c-.9,1.12-1.547,1.664-1.977,1.664-.314,0-.51-.305-.581-.907-.1-.328.379-.807,1.006-1.005a1.147,1.147,0,0,0,.757-.512.831.831,0,0,0-.033-.684.794.794,0,0,1-.031-.658c.118-.244.42-.429.951-.584.695-.236,2.64-2.588,4.229-4.711a45.53,45.53,0,0,0,4.177-6.4c.189-.415.259-.686.209-.808a2.256,2.256,0,0,1,.512-1.689c.4-.594.877-.978,1.2-.978a.363.363,0,0,1,.206.061.181.181,0,0,0,.1.029c.336,0,1.061-.678,1.647-1.774a6.951,6.951,0,0,0,.681-1.481c.129-.427.14-.715.03-.789a7.273,7.273,0,0,0-2.492-.652,1.577,1.577,0,0,0-1.428.758c-.311.461-.42.685-.374.772.015.028.046.042.095.042a2.308,2.308,0,0,0,.719-.251,2.1,2.1,0,0,1,.825-.245c.188,0,.306.069.34.2.09.343-.4,1.029-1.383,1.582a2.605,2.605,0,0,1-1.243.427.529.529,0,0,1-.556-.311c-.135-.317-.725-.556-1.372-.556-.075,0-.151,0-.226.01a2.529,2.529,0,0,1-.366.028,1.78,1.78,0,0,1-1.419-.643,3.49,3.49,0,0,1-.463-2.851c.77-3.623.686-5.221-.292-5.517-.358-.09-.525-.173-.526-.26,0-.131.362-.285,1.213-.517,1.075-.3,2.3-1.473,3.655-3.476,1.713-2.661,1.753-2.985.468-3.851a4.273,4.273,0,0,0-2.37-.679,3.9,3.9,0,0,0-3.257,1.493,1.675,1.675,0,0,1-1.057.829.233.233,0,0,1-.133-.036c-.525-.354-.789-1.6-.862-2.654a5.572,5.572,0,0,1,.442-3.038,1.937,1.937,0,0,0-.058-2.344,1.936,1.936,0,0,1-.057-2.344c.359-.532.486-.832.411-.973-.036-.068-.12-.1-.256-.1a2.12,2.12,0,0,0-.461.069,4.058,4.058,0,0,1-.915.123c-.42,0-.688-.109-.738-.3-.064-.246.247-.586.83-.91,1.059-.606,1.179-1.851.643-6.66-.038-.351-.078-.711-.121-1.068H118.152a3.317,3.317,0,0,0-.1,2.579,1.464,1.464,0,0,0,.947.764c.523.146.806.321.891.552a.817.817,0,0,1-.192.719,1.3,1.3,0,0,0,.258,1.681c.356.24.505.377.484.446-.011.036-.069.053-.176.053a6,6,0,0,1-.96-.14,3.277,3.277,0,0,0-.557-.05,2.259,2.259,0,0,0-2.3,2,3.021,3.021,0,0,0,2.16,3.345c.8.3,1.2.485,1.2.651,0,.146-.325.276-.877.452-1.028.343-1.419.866-1.674,2.24a19.306,19.306,0,0,1-1.592,4.425,7.343,7.343,0,0,0-.73,4.119,6.228,6.228,0,0,1-.693,4.28,2.123,2.123,0,0,1-1.151,1.125,1.1,1.1,0,0,1-.253.03,1.47,1.47,0,0,1-1.234-.878,2.057,2.057,0,0,1,.027-2.087,1.974,1.974,0,0,0,.4-1.939,1.236,1.236,0,0,0-1.171-.569,3.1,3.1,0,0,0-.709.09c-1.365.269-1.613.722-1.7,2.041-.084.844-.293,1.348-.557,1.348a.275.275,0,0,1-.153-.053.758.758,0,0,1-.152-.989.47.47,0,0,0-.042-.493,5.241,5.241,0,0,0-3.216-2.062.648.648,0,0,0-.3.064.527.527,0,0,0-.27.322,1.282,1.282,0,0,0,.161.934,1.381,1.381,0,0,1,.239,1.384.721.721,0,0,1-.663.393,1.393,1.393,0,0,1-.758-.269,1.737,1.737,0,0,0-.674-.357.117.117,0,0,0-.095.041c-.105.122-.057.525.07,1.352a6.323,6.323,0,0,0,2.581,3.337c1.895,1.368,2.262,2,1.783,3.065a12.62,12.62,0,0,0-.637,3.737,3.892,3.892,0,0,1-.349,2.077.175.175,0,0,1-.124.059.16.16,0,0,1-.059-.012c-.188-.127-1.371-.8-2.741-1.583l-.857-.489a13.293,13.293,0,0,0-5.176-1.743h-.038c-.288.006-.468.009-.622.009-.541,0-.871-.032-.958-.2-.1-.195.116-.556.64-1.334s.721-1.4.54-1.744a.589.589,0,0,0-.572-.27,3.365,3.365,0,0,0-1.328.387,2.554,2.554,0,0,1-.949.418.209.209,0,0,1-.165-.066c-.135-.149-.12-.558-.043-1.309a9.675,9.675,0,0,1,1.38-3.5c.574-.934.762-1.46.651-1.819a.8.8,0,0,0-.5-.473,1.538,1.538,0,0,1-.761-1.666,1.614,1.614,0,0,0-.391-1.37,2.875,2.875,0,0,0-2-1.173.826.826,0,0,0-.722.355,1.913,1.913,0,0,0-.3,1.66c.168.46-.237.974-1.14,1.447-1.141.582-1.5,1.161-1.738,2.819-.253,1.76-.585,2.3-1.778,2.879a2.677,2.677,0,0,0-1.649,2.08,30.85,30.85,0,0,1-1.67,4.9,10.354,10.354,0,0,0-.971,4.4,3.168,3.168,0,0,0,1.434,2.564c.533.359.768.708.68,1.008-.137.467-1.06.765-2.471.8-1.443.046-2.391.374-2.536.879-.1.331.153.707.718,1.088a1.84,1.84,0,0,1,.992,1.37c.028.713-.6,1.557-1.988,2.656a6.064,6.064,0,0,0-2.611,4.357c-.356,1.617-.274,3.185.183,3.494a1.507,1.507,0,0,0,.741.326.336.336,0,0,0,.255-.107c.249-.26.315-.983.243-2.665a7.263,7.263,0,0,1,.806-3.624c.408-.548.631-.848.734-.848a.047.047,0,0,1,.036.016,3.125,3.125,0,0,1-.012,1.164c-.075.731-.117,1.133.015,1.279a.227.227,0,0,0,.179.067,4.041,4.041,0,0,0,1.108-.37l.008,0a4.071,4.071,0,0,1,1.062-.351c.061,0,.1.016.116.049.065.122-.144.469-.637,1.2a2.3,2.3,0,0,0-.561,1.394c.034.338.258.617.773.965.451.271.745.5.817.828.108.489-.292,1.186-1.29,2.666-1.661,2.465-1.7,2.823-.526,4.788.729,1.158,1.09,1.588,1.334,1.588.127,0,.224-.12.313-.387a4.6,4.6,0,0,0-.533-2.489c-.342-.654-.449-1.148-.3-1.391a.364.364,0,0,1,.337-.162h.042c.567,0,1.039.511,1.4,1.518a17.592,17.592,0,0,1,.752,4.377c.095,1.916.09,3.014-.209,3.328a.319.319,0,0,1-.243.1,1.5,1.5,0,0,1-.738-.33,1.172,1.172,0,0,0-.641-.234.692.692,0,0,0-.536.258c-.429.491-.56,1.623-.361,3.1.176,1.813-.015,2.311-.974,2.537a2.521,2.521,0,0,1-.437.047.635.635,0,0,1-.48-.161c-.179-.181-.25-.529-.243-1.2a3.767,3.767,0,0,0-.9-1.951,2.488,2.488,0,0,0-1.444-1.07.354.354,0,0,0-.31.163,3.881,3.881,0,0,0,.184,2.551,5.08,5.08,0,0,0,1.345,2.469,1.668,1.668,0,0,1,.636.772.838.838,0,0,1-.045.779,2.306,2.306,0,0,0-.246,2.319,1.215,1.215,0,0,0,1.09.681,1.38,1.38,0,0,0,.17-.01,2.673,2.673,0,0,1,.457-.051c.177,0,.284.039.326.119.072.135-.033.4-.34.852-.294.436-.4.685-.331.806.034.063.115.094.247.094a2.4,2.4,0,0,0,.514-.079,4.033,4.033,0,0,1,.9-.128.815.815,0,0,1,.707.27c.215.294.183.853-.1,1.76a23.03,23.03,0,0,0-.318,5.815,52.362,52.362,0,0,1-.153,7.877c-.316,2.919-.1,3.925,1.022,4.679a4.326,4.326,0,0,1,1.33,3.987.726.726,0,0,1-.687.594.905.905,0,0,1-.2-.023,1.105,1.105,0,0,0-.269-.039.406.406,0,0,0-.314.121c-.165.177-.217.57-.167,1.274a2.1,2.1,0,0,0,1.293,1.848,3.48,3.48,0,0,1,1.732,2.41c.229.962.328,1.516.194,1.685a.164.164,0,0,1-.138.061,1.4,1.4,0,0,1-.582-.238,1.155,1.155,0,0,0-.65-.194,1.1,1.1,0,0,0-.923.462.771.771,0,0,0,.019.825,2.856,2.856,0,0,0,2.225,1.33,1.3,1.3,0,0,0,.446-.073.7.7,0,0,1,.23-.043.59.59,0,0,1,.517.35c.479.844.284,3.081-.685,4.7-.664,1.159-1.031,1.843-.851,2.43s.872,1.088,2.19,2.02c1.463,1.074,1.489,1.432.285,3.828-1.111,2.142-1.159,2.857-.248,3.646a2.459,2.459,0,0,1,.44,2.868c-.677,1.845-.434,5.323.24,6.289a.517.517,0,0,0,.4.27h.011a.155.155,0,0,1,.135.078c.185.292-.092,1.387-.672,2.663-.739,1.5-.952,2.152-.786,2.42a.393.393,0,0,0,.364.147,2.006,2.006,0,0,0,.355-.039,2.651,2.651,0,0,1,.349-.026.784.784,0,0,1,.607.2c.192.2.258.573.22,1.237-.044.564,0,.905.126,1.044a.208.208,0,0,0,.159.07.736.736,0,0,0,.41-.2,1.869,1.869,0,0,1,.921-.371.37.37,0,0,1,.355.194c.217.408-.125,1.385-.87,2.491-.766,1.135-1.384,1.687-1.891,1.687a.7.7,0,0,1-.392-.124c-.457-.309-.468-1.128-.023-1.789a2.089,2.089,0,0,0,.448-1.336.333.333,0,0,0-.132-.224.116.116,0,0,0-.067-.019c-.142,0-.385.19-.724.566-1.421,1.578-3.995,5.824-3.907,6.659a.926.926,0,0,0,.916.458,1.568,1.568,0,0,0,.36-.042c.874-.205,1.123-.574.986-1.462a2.192,2.192,0,0,1,.2-1.658.544.544,0,0,1,.43-.2,1.291,1.291,0,0,1,.691.263.962.962,0,0,1,.4.68,1.257,1.257,0,0,1-.214.864.814.814,0,0,0-.187.755c.2.516,1.216.937,4.042,1.668.441.1.682.2.679.285,0,.065-.144.122-.409.163h-.031a3.945,3.945,0,0,0-2.02,1.1,1.541,1.541,0,0,1-1.1.6,1.091,1.091,0,0,1-.784-.359,1.113,1.113,0,0,0-.731-.394.57.57,0,0,0-.524.434,7.127,7.127,0,0,1-2.451,1.919,9.043,9.043,0,0,1-2.977,1.247.359.359,0,0,1-.2-.045c-.213-.144-.152-.849.147-1.675a2.488,2.488,0,0,0-.008-2.094,3.567,3.567,0,0,0-2.507-1.464,3.456,3.456,0,0,0-.711-.077,2.636,2.636,0,0,0-2.025.892,4.1,4.1,0,0,0-.828,3.253,4.328,4.328,0,0,1,.054,1.377.035.035,0,0,1-.027.012c-.079,0-.236-.233-.52-.657a1.03,1.03,0,0,0-.752-.531.631.631,0,0,0-.5.308,3.434,3.434,0,0,0-.107,2.851c.232.761.309,1.3.205,1.439a.086.086,0,0,1-.072.038.22.22,0,0,1-.116-.045.622.622,0,0,0-.346-.079,5.255,5.255,0,0,0-1.992.63,5.3,5.3,0,0,1-2.362.681,1.576,1.576,0,0,1-.576-.091,2.61,2.61,0,0,0-.819-.137,2.223,2.223,0,0,0-1.669.744,2.846,2.846,0,0,0-.658,2.236,4.505,4.505,0,0,1-.455,2.619,11.731,11.731,0,0,0-.746,4.018,22.841,22.841,0,0,1-2.042,7.4,45.375,45.375,0,0,0-2.286,5.817,40.433,40.433,0,0,1-1.34,4.417,31.329,31.329,0,0,0-1.269,4.553,7.45,7.45,0,0,1-1.472,2.909,2.943,2.943,0,0,1-1.913,1.059.554.554,0,0,1-.524-.243c-.082-.154-.106-.446.244-.965a11.532,11.532,0,0,0,.878-3.46,9.184,9.184,0,0,0,.075-3.256c-.032-.06-.071-.091-.115-.091h-.016a14.048,14.048,0,0,0-1.642,3.27,32.138,32.138,0,0,0-1.6,4.566c-.451,2.388-2.08,5.512-3.352,6.428a1.523,1.523,0,0,1-.7.376c-.347,0-.385-.657-.4-2.27-.015-1.945-.392-3.2-.962-3.2-.211,0-.434.172-.662.51a22.421,22.421,0,0,0-1.231,4.922c-.338,1.938-.658,4.372-.447,4.853a2.734,2.734,0,0,1-.629,2.146c-.936,1.388-.424,9.113.653,9.84a.581.581,0,0,1,.235.385,1.326,1.326,0,0,1-.232.947,1.883,1.883,0,0,0,.053,1.987,11.256,11.256,0,0,1,.936,3.469c.135,1.86-.084,2.428-.973,2.536a3.216,3.216,0,0,0-2.425,1.243,3.266,3.266,0,0,0-.19,2.757c.426,1.547.666,2.029,1.335,2.029a3.914,3.914,0,0,0,.824-.13c.714-.168,1.1-.3,1.239-.55.119-.217.052-.518-.114-1a2.305,2.305,0,0,1-.22-.843.022.022,0,0,1,.02-.01c.066,0,.249.21.5.526a2.418,2.418,0,0,0,1.941.607c2.089,0,4.873-.98,5.143-2.125.066-.321.163-.708.256-1.083.112-.451.218-.877.261-1.14.085-.388.331-.648.61-.648a.462.462,0,0,1,.262.084.3.3,0,0,0,.172.048c.4,0,1.093-.588,1.639-1.4.615-.912,1.415-1.574,1.9-1.574a.45.45,0,0,1,.131.018.652.652,0,0,0,.157.021c.513,0,.829-.693,1.206-2.648.463-2.455.669-3.314,1.155-3.314a1.746,1.746,0,0,1,.818.389,1.09,1.09,0,0,0,.616.156,6.074,6.074,0,0,0,2.958-1.2l.587-.37c2.767-1.734,2.767-1.734,3.974-9.106l0-.019q.129-.788.278-1.691c.586-3.806.964-4.326,3.376-4.64,1.957-.259,2.074-.274,2.475-2.941.5-2.917,2.327-6.851,5.572-12.025,1.194-1.937,1.731-2.951,1.555-3.47a.73.73,0,0,0-.488-.421,1.645,1.645,0,0,1-.966-1.361c.009-.21.068-.321.171-.321.138,0,.346.2.572.556.262.358.446.518.6.518s.281-.17.408-.55a2.321,2.321,0,0,0-.822-2.061c-.483-.479-.664-.78-.607-1,.047-.186.259-.325.687-.449s.656-.277.734-.482,0-.481-.234-.866a1.573,1.573,0,0,1-.228-1.483.427.427,0,0,1,.363-.206.916.916,0,0,1,.686.47c.192.306.4.467.607.467a.553.553,0,0,0,.415-.236,4.053,4.053,0,0,0,.367-3.018l-.4-1.956,1.938-.2a5.19,5.19,0,0,1,.721-.047,4.79,4.79,0,0,1,2.327.507,1.747,1.747,0,0,0,.913.362.6.6,0,0,0,.478-.218c.332-.387.4-1.292.2-2.619a4.94,4.94,0,0,1,.354-2.954,4.663,4.663,0,0,0,.18-2.771,4.56,4.56,0,0,0-1-2.57.2.2,0,0,0-.117-.035c-.227,0-.525.334-.612.874-.143.469-.4.738-.7.738a.667.667,0,0,1-.371-.127,1.441,1.441,0,0,1-.332-1.641c.218-.712.778-1.434,1.426-1.434a.87.87,0,0,1,.151.013,1.187,1.187,0,0,0,.258.032c.6,0,.931-.6,1.618-2.933.423-1.458.955-3.238,1.088-3.435.037-.056.072-.084.1-.084a.069.069,0,0,1,.054.033c.3.4.021,4.532-.512,6.284-.643,2.047-.5,2.323,1.93,3.7a5.419,5.419,0,0,1,2.106,1.6,2.844,2.844,0,0,1,.019,2.052c-.431,2.344-1.325,3.92-2.223,3.92a.847.847,0,0,1-.478-.157.811.811,0,0,0-.46-.146,1.476,1.476,0,0,0-1.05.617,5.378,5.378,0,0,0-1.087,3.985,8.423,8.423,0,0,1-.427,3.791,8.729,8.729,0,0,0-.443,3.692,4.976,4.976,0,0,1-.533,3.1,1.99,1.99,0,0,0-.255,2.067,1.79,1.79,0,0,0,1.64.881,2.723,2.723,0,0,0,.326-.02,1.534,1.534,0,0,1,.22-.016,2.943,2.943,0,0,1,2.283,1.7,2.273,2.273,0,0,1,.129,2.307.982.982,0,0,0,.059,1.37c.195.132.3.293.27.412-.021.081-.1.132-.236.144-.321.125-.481.8-.4,1.682a3.138,3.138,0,0,1-.779,2.49,2.124,2.124,0,0,0-.486,2.421,3.079,3.079,0,0,1-.122,2.489,1.523,1.523,0,0,0-.271.948.926.926,0,0,0,.376.719,1.055,1.055,0,0,1,.432.635.93.93,0,0,1-.122.727,5.507,5.507,0,0,0-.113,3.2,5.66,5.66,0,0,1-.155,3.265c-.608.9-.125,4.846.6,6.214.173.325.347.489.519.489h.008a.83.83,0,0,1,.737.852c-.061.377.294.883,1.074,1.079.433.087.635.187.676.334.054.2-.173.5-.811,1.082a5.259,5.259,0,0,0-1.475,2.551,16.261,16.261,0,0,1-1.252,3.679c-1.133,2.514-1.734,5.32-1.339,6.253a.5.5,0,0,0,.277.3.25.25,0,0,1,.135.171,3.787,3.787,0,0,1-.872,2.258c-.62,1.024-1.37,1.8-1.744,1.8a.181.181,0,0,1-.1-.029.535.535,0,0,1-.22-.354.811.811,0,0,1,.125-.6c.2-.3-.031-.908-.771-1.408a1.737,1.737,0,0,0-.882-.393c-.456,0-.763.547-1.278,1.773a9.136,9.136,0,0,0-.791,3.723,4.388,4.388,0,0,1-.347,2.336,8.7,8.7,0,0,0-.6,2.962,26.694,26.694,0,0,1-1.1,5.64c-.512,1.922-.68,3.718-.382,4.088.158.217.293.327.4.327.152,0,.255-.218.306-.647.05-.391.094-.652.148-.652s.121.264.216.719a2.776,2.776,0,0,1-.8,2.071,3.324,3.324,0,0,1-2.147,1.339.859.859,0,0,1-.49-.14,1.159,1.159,0,0,0-.641-.227.747.747,0,0,0-.622.338,2.307,2.307,0,0,0-.078,2,6.26,6.26,0,0,1-.821,3.524,38.5,38.5,0,0,0-1.74,3.793,1.624,1.624,0,0,1-1.743,1.34,4.38,4.38,0,0,1-.53-.035c-.231,0-.4-.006-.541-.006-.325,0-.466.013-.47.043s.157.092.6.214a11.651,11.651,0,0,1,2.355.879.791.791,0,0,0,.444.148.9.9,0,0,0,.722-.457,2.21,2.21,0,0,0,.145-2c-.048-.167.1-.489.438-.932.98-1.3,3.177-3.216,3.852-3.216a.217.217,0,0,1,.124.032c.659.444-.621,5.883-2.107,8.953l-1.389,2.787,1.918-.657,1.918-.658-1.473,1.578c-.7.7-1.03,1.2-.941,1.414.033.079.121.119.262.119l.056,0h.03c.153,0,.247.04.278.119.063.16-.136.467-.561.863-.709.683-.7,1.305.026,2.146.377.45.612.66.738.66a.087.087,0,0,0,.069-.031c.056-.065.062-.234.019-.517-.107-.7.259-1.239,1.151-1.706a3,3,0,0,0,1.649-2.08,6.708,6.708,0,0,1,.977-2.178,3.213,3.213,0,0,0,.6-1.987,1.284,1.284,0,0,1,.222-.973.672.672,0,0,1,.5-.223c.423.007.966,2.038,1.186,4.435.251,3.035.517,4.01,1.1,4.01a.856.856,0,0,0,.363-.1,5.361,5.361,0,0,0,2.843-4.822c-.024-.82-.037-1.232-.189-1.232s-.427.383-.982,1.146c-.535.793-1.187,1.344-1.589,1.344a.322.322,0,0,1-.184-.052.441.441,0,0,1-.205-.365.94.94,0,0,1,.443-.716,5.1,5.1,0,0,0,1.179-2.84,10.185,10.185,0,0,1,1.308-3.64,2.524,2.524,0,0,0,.527-1.608.4.4,0,0,0-.159-.272.188.188,0,0,1-.076-.13c-.088-.5.884-2.142,2.971-5.011,1.986-2.694,3.523-4.5,3.823-4.5a.051.051,0,0,1,.029.008.664.664,0,0,0,.363.132.434.434,0,0,0,.335-.169c.423-.493.5-2.013.2-3.967a9.248,9.248,0,0,1-.086-3.516.679.679,0,0,0,.11-.512.585.585,0,0,0-.246-.378.243.243,0,0,0-.138-.042c-.295,0-.677.466-.909,1.108-.252.7-.679,1.074-.953,1.074a.262.262,0,0,1-.15-.044c-.316-.213-.482-.883-.434-1.75.052-.943.368-2.037.872-2.3a.528.528,0,0,0,.27-.323,1.279,1.279,0,0,0-.161-.933,2.678,2.678,0,0,1,.472-2.52c.531-.788.858-1.1,1.168-1.1.23,0,.468.167.821.575.409.459.641.639.825.639.21,0,.366-.241.554-.861.213-.65.535-.928,1.079-.928a3.418,3.418,0,0,1,.977.186,2.738,2.738,0,0,0,.932.177,2.566,2.566,0,0,0,2-1.125,3.777,3.777,0,0,1,2.067-1.322l.052,0a.532.532,0,0,1,.423.568c-.031,1-1.939,2.916-3.612,3.31-1.383.326-2.022.637-2.28,1.111-.227.418-.174,1,.183,2s.043,2.714-.849,4.659c-.741,1.628-1.079,2.371-.958,2.559a.12.12,0,0,0,.11.05,4.063,4.063,0,0,0,1.167-.531c1.447-.8,1.689-1.163,1.439-2.133-.234-.868.556-2.4,2.916-5.659,2.972-4.041,3.264-4.71,2.835-6.511-.247-1.109-.487-1.582-.8-1.582a.616.616,0,0,0-.371.168,1.388,1.388,0,0,1-.72.338.258.258,0,0,1-.259-.167c-.177-.425.275-1.524,1.229-2.485.817-.851,1.17-1.486,1.021-1.835-.089-.208-.352-.314-.782-.314a5.036,5.036,0,0,0-1,.126,2.6,2.6,0,0,1-.448.054c-.132,0-.207-.027-.23-.084-.063-.155.252-.54,1.162-1.417a7,7,0,0,0,1.83-3.2c.057-.417.053-.636-.012-.711a.081.081,0,0,0-.063-.029c-.185,0-.611.5-1.572,1.846a11.27,11.27,0,0,1-3.655,3.475c-1.551.724-1.939,1.174-1.885,2.187a1.518,1.518,0,0,1-.23,1.119.758.758,0,0,1-.576.2c-.4,0-1.4.869-2.182,1.9-.481.714-.9,1.175-1.066,1.176a.059.059,0,0,1-.048-.022c-.028-.035-.029-.11,0-.223a1.41,1.41,0,0,0-.324-1.169,1.326,1.326,0,0,0-.927-.572.518.518,0,0,0-.443.244,2.893,2.893,0,0,0-.161,1.575.882.882,0,0,1-.124.739,1.19,1.19,0,0,1-.934.273c-.1,0-.224,0-.353-.013a1.935,1.935,0,0,1-1.384-.448.853.853,0,0,1-.152-.676c.012-.295.062-.451.145-.451.062,0,.14.087.23.26a.187.187,0,0,0,.192.129c.344,0,1.273-.654,2.572-2.115a11,11,0,0,0,2.222-3.341c.128-.466.244-.664.388-.664.121,0,.271.141.489.457s.417.468.659.468c.6,0,1.593-.912,3.732-3.092.941-.921,1.515-1.982,1.336-2.468a2.91,2.91,0,0,1,.614-2.245,3.087,3.087,0,0,0,.686-2.11,3.822,3.822,0,0,1,.578-2.68c.627-1.207,1.71-2.544,2.717-2.812.881-.266,1.264-.416,1.352-.656.071-.193-.054-.444-.325-.868a2.279,2.279,0,0,1,.251-2.281c.794-1.482,2.508-3.07,3.794-3.07a1.165,1.165,0,0,1,.664.191.17.17,0,0,1,.072.138,2.041,2.041,0,0,1-.781,1.157,1.647,1.647,0,0,0-.646,1.145.379.379,0,0,0,.162.3.282.282,0,0,0,.161.045c.4,0,1.131-.626,1.691-1.455.612-.908,1.255-1.495,1.636-1.495a.281.281,0,0,1,.16.046c.266.18.246.85-.177,1.477a7.355,7.355,0,0,0-.566,3.875,12.048,12.048,0,0,1-.351,4.286,3.062,3.062,0,0,0,.227,2.458c.772.867.4,4.317-1.1,10.253a10.068,10.068,0,0,0-.36,3.569,2.016,2.016,0,0,1-.66,1.949c-.381.292-.552.5-.509.63.033.1.192.146.474.146h.033c.552,0,1,1.09,1.164,2.845.211,2.607.952,3.821,2.331,3.821a4.087,4.087,0,0,0,1.577-.386l1.79-.832.458,4.3c.317,2.56.3,3.689-.076,4.166a.771.771,0,0,1-.552.288,2.407,2.407,0,0,0-1.8,1.448c-.231.543-.378.838-.5.838-.169,0-.288-.573-.519-1.879-.35-1.629-.915-2.489-1.778-2.706a3.539,3.539,0,0,0-.52-.051.486.486,0,0,0-.425.148c-.178.24-.051.8.3,1.95a5.427,5.427,0,0,1,.223,3.241.134.134,0,0,1-.107.066c-.116,0-.256-.2-.4-.574a.7.7,0,0,0-.657-.41.783.783,0,0,0-.352.084.55.55,0,0,1-.251.054,2.053,2.053,0,0,1-1.377-.8c-.337-.39-.581-.556-.818-.556-.32,0-.648.3-1.171,1.076-.59.875-.864,1.37-.719,1.642s.709.324,1.636.324c.157,0,.335,0,.545-.005.248-.008.438-.011.6-.011.656,0,.947.063,1.074.231s.081.45-.04.881a1.7,1.7,0,0,0,.077,1.361.414.414,0,0,0,.334.168c.314,0,.813-.351,1.183-1.339.367-.875.79-1.419,1.1-1.419a.263.263,0,0,1,.149.047c.5.339.326,2.43-.3,3.608a3.04,3.04,0,0,0,.135,1.865,2.966,2.966,0,0,1-.4,2.507,1.11,1.11,0,0,1-.844.52.836.836,0,0,1-.6-.285,1.43,1.43,0,0,1-.2-1.643,1.207,1.207,0,0,0,.222-1.244c-.217-.408-.792-.633-1.62-.633a5.393,5.393,0,0,0-.551.03c-.8.071-1.234.212-1.437.47a1.089,1.089,0,0,0-.124.872,3.623,3.623,0,0,1-.557,2.283,3.226,3.226,0,0,0-.164,2.55,1.864,1.864,0,0,1-.239,2.055.67.67,0,0,0-.32.555.821.821,0,0,0,.4.655,1.459,1.459,0,0,0,.791.273.552.552,0,0,0,.48-.214.36.36,0,0,1,.31-.174c.674,0,1.869,1.69,1.945,3.025.04.922-.318,1.305-1.473,1.578-1.99.52-2.893,1.86-3.453,5.119-.214,1.322-.207,1.943.026,2.217a.579.579,0,0,0,.476.18,2.012,2.012,0,0,0,.364-.039,2.828,2.828,0,0,0,1.816-.992,1.035,1.035,0,0,1,.8-.542.632.632,0,0,1,.46.209,1.561,1.561,0,0,1,.331,1.138.7.7,0,0,0,.079.57.5.5,0,0,0,.4.142,2.115,2.115,0,0,0,.477-.067,3.376,3.376,0,0,1,.767-.1c.468,0,.794.142.872.381s-.118.579-.551.9c-.341.261-.484.456-.45.614.038.175.3.311.812.429a1.206,1.206,0,0,1,.823.549,1.612,1.612,0,0,1-.089,1.277,1.45,1.45,0,0,0-.085,1.2.964.964,0,0,0,.692.454,1,1,0,0,1,.732.5.505.505,0,0,1-.078.474.558.558,0,0,1-.425.289.369.369,0,0,1-.328-.265c-.1-.244-.432-.384-.9-.384a2.71,2.71,0,0,0-.612.075c-.494.192-.744.377-.834.617-.1.269-.01.63.313,1.248a6.16,6.16,0,0,0,1.743,2.152c.777.525.829,1.3.189,2.876a11.514,11.514,0,0,0-.583,4.583c.075,1.849.428,3.2.922,3.537.264.178.539,2.117.627,4.414-.015,2.238.416,4.271.8,4.527.449.3.382,1.134-.157,1.933a3.48,3.48,0,0,0-.69,2.616,3.487,3.487,0,0,0,1.629,2.184,2.357,2.357,0,0,0,1.169.541c.531,0,.956-.581,1.8-1.907a11.673,11.673,0,0,1,4.516-3.781l.245-.118a9.235,9.235,0,0,1,2.219-.931.168.168,0,0,1,.15.062c.1.146-.063.57-.309,1.212a2.927,2.927,0,0,0,.3,2.665,1.405,1.405,0,0,0,1.071.738.915.915,0,0,0,.747-.468,3.415,3.415,0,0,1,2.051-1.1,2.532,2.532,0,0,0,1.987-1.852c.331-.81.679-1.274.955-1.274a.248.248,0,0,1,.2.1,3.334,3.334,0,0,1,.02,2.227,2.243,2.243,0,0,0,.228,1.76.607.607,0,0,0,.474.233c.371,0,.791-.319,1.182-.9a.97.97,0,0,1,.823-.416,1.377,1.377,0,0,1,.767.246,1.024,1.024,0,0,0,.575.209c.646,0,1.382-.862,2.893-2.923a13.6,13.6,0,0,1,3.194-3.521.391.391,0,0,1,.089-.009,12.874,12.874,0,0,1,3.557,1.4c2.577,1.377,2.954,1.836,3.1,3.778.133,1.834.563,2.422,2.3,3.147.986.406,1.591.835,1.7,1.209a.394.394,0,0,1-.052.349.743.743,0,0,0-.1.766c.231.493,1.053.855,2.2.969v196.523ZM.854-2407.047a1.21,1.21,0,0,1-.793-.4,1.067,1.067,0,0,1-.4-.77.646.646,0,0,1,.27-.475.85.85,0,0,1,.442-.123.821.821,0,0,1,.731.43,1.085,1.085,0,0,1,.21,1.073A.5.5,0,0,1,.854-2407.047Zm-11.185-1.4a2.131,2.131,0,0,1-1.391-.662,2.269,2.269,0,0,0-1.039-.623.138.138,0,0,0-.1.038.172.172,0,0,0-.036.132.149.149,0,0,1-.034.115.165.165,0,0,1-.125.043,1.716,1.716,0,0,1-.878-.472c-.574-.489-.872-1.138-.691-1.509a1.98,1.98,0,0,1,1.765-.75,1.737,1.737,0,0,1,1.491.58,5.33,5.33,0,0,0,2.634.966l2.265.4-1.984,1.061A4.332,4.332,0,0,1-10.331-2408.449Zm8.144-.183a1.5,1.5,0,0,1-.9-.417c-.506-.423-.8-1.144-.624-1.513s-.2-1.1-.83-1.576c-.6-.439-.884-.666-.868-.854.015-.172.284-.318.727-.538a1.192,1.192,0,0,1,.561-.162.5.5,0,0,1,.544.472,4.591,4.591,0,0,0,1.2,2.072,2.2,2.2,0,0,1,.726,2.153A.561.561,0,0,1-2.187-2408.632Zm12.913-1.068a.383.383,0,0,1-.319-.153,1.012,1.012,0,0,1-.044-.858,1.908,1.908,0,0,0-.71-1.876,2.837,2.837,0,0,1-1.031-1.492.682.682,0,0,1,.16-.526.728.728,0,0,1,.544-.2,2.68,2.68,0,0,1,2.048,1.313,3.678,3.678,0,0,1,.148,3.23.948.948,0,0,1-.767.556Zm-73.624-2.187h0a.672.672,0,0,1-.316-.121,2.45,2.45,0,0,1-.913-1.865,2.743,2.743,0,0,1,.839-1.918,2.222,2.222,0,0,1,1.452-.793.727.727,0,0,1,.644.348,1.355,1.355,0,0,1,.109,1.379,1.024,1.024,0,0,1-.925.529,1.458,1.458,0,0,1-.448-.074,1.121,1.121,0,0,0-.37-.085.252.252,0,0,0-.216.092c-.123.161-.09.541.109,1.27.2.675.253,1.052.155,1.183A.141.141,0,0,1-62.9-2411.886Zm2.918-.089a1.24,1.24,0,0,1-.809-.454c-.306-.3-.419-.49-.369-.623.065-.172.4-.262,1.136-.3.16-.009.292-.013.405-.013.461,0,.7.06.759.2s-.034.33-.3.655C-59.471-2412.141-59.723-2411.975-59.979-2411.975Zm-79.753-1.149c-.727,0-1.237-.763-1.3-1.945a1.225,1.225,0,0,1,1.215-1.462c.053,0,.111,0,.18,0a1.685,1.685,0,0,1,1.636.809,1.761,1.761,0,0,1-.453,1.848A1.781,1.781,0,0,1-139.733-2413.124Zm73.492-2.112a1.09,1.09,0,0,1-.994-.6,1.923,1.923,0,0,1,.183-1.929,2.564,2.564,0,0,1,1.927-1.18.679.679,0,0,1,.766.67.762.762,0,0,1-.185.516.658.658,0,0,1-.454.254c-.387.02-.654.509-.621,1.137.031.6-.222,1.115-.553,1.133Zm-6.222-2.617a.773.773,0,0,1-.75-.7c-.023-.454.1-.742.233-.749h.012c.2,0,.544.26.772.695a.585.585,0,0,1,.069.564.344.344,0,0,1-.3.185Zm4.8-2.459a.022.022,0,0,1-.02-.011,6.355,6.355,0,0,1,.806-1.87c.549-1.043,1.327-1.91,1.735-1.931h.014a.135.135,0,0,1,.134.072c.109.223-.257.934-.934,1.811a9.976,9.976,0,0,1-1.734,1.931Zm52.773-.65a1.237,1.237,0,0,1-.809-.454c-.306-.3-.419-.49-.369-.623.065-.172.4-.262,1.137-.3.144-.008.279-.012.4-.012.463,0,.7.06.761.2s-.034.329-.3.654C-14.381-2421.129-14.633-2420.963-14.89-2420.963Zm-143.669-1.3a.466.466,0,0,1-.332-.109,3.216,3.216,0,0,1-.157-1.686c.079-.6.133-.88.29-.88s.382.253.792.75.586.835.555,1.11a.732.732,0,0,1-.335.5A1.384,1.384,0,0,1-158.559-2422.268Zm-4.567-1.159h0a3.107,3.107,0,0,1-1.5-.638c-.429-.277-.593-.433-.565-.539s.322-.184,1-.22c.07,0,.138-.005.2-.005.814,0,1.375.264,1.395.658a.8.8,0,0,1-.154.6A.506.506,0,0,1-163.126-2423.427Zm85.984-.326c-.069,0-.153-.114-.237-.32a1.594,1.594,0,0,1-.005-1.4c.04-.065.083-.1.126-.1a.115.115,0,0,1,.081.041,1.647,1.647,0,0,1,.182.994,1.309,1.309,0,0,1-.094.756A.073.073,0,0,1-77.142-2423.753Zm-95.077-.659c-.532,0-1.242-.743-1.509-2.12-.261-1.2-.382-2.148-.387-2.187a3.742,3.742,0,0,1,2.6,2.808,1.741,1.741,0,0,1-.3,1.324A.533.533,0,0,1-172.219-2424.411Zm93.467-1.209h0a21.438,21.438,0,0,1-4.031-2.954,16.745,16.745,0,0,1-2.719-2.747,2.968,2.968,0,0,1-.594-2.085l.179-1.776,1.057,2.006a4.288,4.288,0,0,0,2.979,2.347c1.4.227,1.943.737,2,1.882a4.179,4.179,0,0,0,.944,2.453c.329.321.485.593.427.746C-78.536-2425.671-78.618-2425.628-78.752-2425.621Zm-90.148-.429a.34.34,0,0,1-.3-.16.585.585,0,0,1,.014-.561c.185-.464.512-.763.707-.773h.005c.128,0,.281.275.3.72a.732.732,0,0,1-.2.52.739.739,0,0,1-.51.253Zm30-.837a.77.77,0,0,1-.748-.7,1.08,1.08,0,0,1,.143-.7.131.131,0,0,1,.09-.05h.012c.2,0,.544.26.773.695a.585.585,0,0,1,.068.564.345.345,0,0,1-.3.184Zm-40.562-.745a1.028,1.028,0,0,1-.889-.689.518.518,0,0,1,.053-.481.988.988,0,0,1,.786-.372c.027,0,.053,0,.078,0a.934.934,0,0,1,.752.3.519.519,0,0,1,.093.461,1.017,1.017,0,0,1-.843.78Zm19.212-.347c-1.423,0-2.613-1.424-2.709-3.241-.046-.89-1.4-2.9-3.023-4.479-1.6-1.564-2.264-2.413-2.136-2.752.04-.105.155-.162.351-.172l.054,0c.756,0,2.033.838,3.255,2.133.974,1.033,2.034,2.508,2.089,3.549a6.176,6.176,0,0,0,1.669,3.3c.791.818,1.091,1.26,1,1.48-.043.11-.188.17-.441.183Zm123.639-.589a1.11,1.11,0,0,1-1.142-1.043c-.03-.58-.794-1.2-1.777-1.453-.982-.175-1.746-.873-1.772-1.38-.031-.6-.85-1.366-1.787-1.673s-1.756-1.073-1.787-1.672a1.574,1.574,0,0,0-1.294-1.331c-.455-.125-.717-.211-.712-.277s.178-.1.621-.161h.018c.6,0,3,1.325,5.1,2.971a21.233,21.233,0,0,1,3.66,3.106c0,.01-.013.016-.028.016a.119.119,0,0,0-.117.069c-.074.182.269.718.872,1.364.673.737.96,1.1.886,1.277-.052.127-.286.164-.673.184Zm-130.536-.078c-.257,0-.452-.292-.475-.71a1.723,1.723,0,0,1,.169-1.111.2.2,0,0,1,.149-.068c.173,0,.406.211.673.611a.937.937,0,0,1-.277,1.192A.4.4,0,0,1-167.146-2428.645Zm10.8-.961c-.257,0-.813-.474-1.35-1.152-.67-.854-.992-1.327-.892-1.549.066-.145.313-.187.663-.206h.058a1.637,1.637,0,0,1,1.266.759,2.318,2.318,0,0,1,.386,2.024C-156.227-2429.648-156.271-2429.606-156.347-2429.606Zm7.4-.691a1.891,1.891,0,0,1-1.082-.79c-.362-.4-.531-.75-.451-.946a.266.266,0,0,1,.257-.148h.039a1.79,1.79,0,0,1,1.342,1.051.732.732,0,0,1,.008.79A.139.139,0,0,1-148.948-2430.3Zm-26.244-.208c-.543,0-1.312-.7-1.752-1.6a3.958,3.958,0,0,0-1.8-1.893c-.687-.185-1.158-1.337-1.326-3.244a7.162,7.162,0,0,1-.014-2.792.108.108,0,0,1,.081-.038c.181,0,.495.419,1.084,1.446a17.769,17.769,0,0,0,2.973,3.525c1.413,1.285,2.187,2.924,1.84,3.9a1.077,1.077,0,0,1-1.055.7Zm92.592-.842c-.021,0-.034-.006-.038-.017-.029-.072.289-.388.885-.946a4,4,0,0,1,2.345-1.338.628.628,0,0,1,.68.664.884.884,0,0,1-.911.784,9.14,9.14,0,0,0-2.215.558A3.221,3.221,0,0,1-82.6-2431.346Zm20.612-.021h0a2.393,2.393,0,0,1-1.036-.377c-.775-.477-1.418-1.1-1.434-1.4a.618.618,0,0,1,.132-.473.46.46,0,0,1,.349-.132,2.411,2.411,0,0,1,1.433.8c.631.615.956,1.163.848,1.429A.283.283,0,0,1-61.988-2431.367Zm-91.393-1.721a.054.054,0,0,1-.039-.018c-.063-.063-.09-.292-.088-.742a6.406,6.406,0,0,1,.82-3.67.339.339,0,0,1,.232-.122c.093,0,.179.065.256.191.284.41.1,1.734-.392,2.892C-153.03-2433.514-153.258-2433.088-153.381-2433.088Zm-36.478-.9c-.144,0-.379-.143-.81-.493a3.073,3.073,0,0,1-1.1-1.488.665.665,0,0,1,.161-.506.634.634,0,0,1,.468-.182,1.322,1.322,0,0,1,.922.459,2.409,2.409,0,0,1,.556,1.518c.019.369-.006.562-.086.646A.15.15,0,0,1-189.859-2433.985Zm184.932-.178c-.069,0-.153-.114-.237-.32a1.591,1.591,0,0,1-.005-1.4c.04-.064.083-.1.126-.1a.115.115,0,0,1,.081.041,1.645,1.645,0,0,1,.182.994,1.309,1.309,0,0,1-.094.756A.073.073,0,0,1-4.927-2434.163Zm-87.826-2.022c-.069,0-.153-.114-.237-.32a1.593,1.593,0,0,1-.005-1.4c.04-.065.083-.1.126-.1a.113.113,0,0,1,.08.04,1.651,1.651,0,0,1,.183.995,1.309,1.309,0,0,1-.094.756A.073.073,0,0,1-92.753-2436.184Zm2.5-.17a.419.419,0,0,1-.212-.062,1.419,1.419,0,0,1-.74-1.138.65.65,0,0,1,.644-.7h.018c.313,0,.687.468.721,1.139a.874.874,0,0,1-.176.642A.349.349,0,0,1-90.258-2436.354Zm-95.273-.166c-.584,0-.815-.5-1.113-1.627-.268-1.175-.756-2.634-.991-3.334a1.3,1.3,0,0,1-.125-1.087.389.389,0,0,1,.331-.175h.016c.4,0,.773.806.825,1.8.059,1.116.459,1.783,1.07,1.783h.043a.947.947,0,0,0,.976-.861.259.259,0,0,1,.049-.195.152.152,0,0,1,.115-.043,1.9,1.9,0,0,1,.944.621c.58.565.81,1.023.723,1.44-.112.535-.768,1.012-2.064,1.5A2.456,2.456,0,0,1-185.531-2436.521Zm89.151-.853c-.157,0-.266-.132-.277-.337a1.467,1.467,0,0,1,.5-.978,3.378,3.378,0,0,1,2-1.079.514.514,0,0,1,.463.208.543.543,0,0,1,.081.462,1.5,1.5,0,0,1-.829.829,14.67,14.67,0,0,0-1.436.678l-.053.027-.237.122A.414.414,0,0,1-96.38-2437.374Zm36.045-.255c-.511,0-.975-.319-.993-.683a.645.645,0,0,1,.277-.548,1.268,1.268,0,0,1,.7-.24h.076c.547,0,.958.287.978.683a.66.66,0,0,1-.278.521,1.225,1.225,0,0,1-.7.267Zm-39.43-1.291a.084.084,0,0,1-.067-.031c-.121-.138-.066-.752.085-1.911.218-1.778.357-2.624.561-2.624.146,0,.326.427.588,1.166a2.832,2.832,0,0,1-.468,2.748C-99.4-2439.17-99.635-2438.92-99.765-2438.92Zm-67.178-1.218c-1.222,0-2.654-2.265-2.837-4.488-.06-1.148.181-2,.574-2.018h.018c.347,0,.689.508.718,1.067a1.765,1.765,0,0,0,1.1,1.489c.781.3,1.289,2.009,1.114,3.114-.083.522-.308.819-.635.836Zm-17.532-2.024c-1.1-.017-2.956-1.917-3.017-3.081a1.107,1.107,0,0,1,.282-.806,1.439,1.439,0,0,1,1.012-.44c.188-.01.377-.015.562-.015a2.426,2.426,0,0,1,.869.087c.395,1.431.6,3.872.353,4.214A.084.084,0,0,1-184.476-2442.163Zm106.56-3.484a2.007,2.007,0,0,1-1.243-.711,1.705,1.705,0,0,1-.7-1.167.546.546,0,0,1,.205-.427.529.529,0,0,1,.312-.094h.005a2.506,2.506,0,0,1,1.72,1.44.752.752,0,0,1-.02.83A.312.312,0,0,1-77.916-2445.646Zm-92.721-1.66a.713.713,0,0,1-.681-.7.672.672,0,0,1,.64-.77h.032a.71.71,0,0,1,.685.7.773.773,0,0,1-.207.541.647.647,0,0,1-.433.228Zm-1.508-2.865a.714.714,0,0,1-.683-.7.672.672,0,0,1,.64-.771h.032a.71.71,0,0,1,.685.7.773.773,0,0,1-.206.54.649.649,0,0,1-.433.229Zm90.541-.8a7.345,7.345,0,0,1-4.536-2.354,1.079,1.079,0,0,1-.3-.9,1.512,1.512,0,0,1,1.276-1.094.515.515,0,0,1,.532.558c.019.359.49.61,1.145.61a2.7,2.7,0,0,0,.382-.028,4.3,4.3,0,0,1,.832-.084,2.374,2.374,0,0,1,2.527,1.568c.118.7-.39,1.313-1.358,1.65A1.568,1.568,0,0,1-81.6-2450.968Zm-91.01-6.882c-.385,0-.6-.368-.637-1.095a1.845,1.845,0,0,1,.3-1.328.521.521,0,0,1,.389-.173,1.227,1.227,0,0,1,.815.464,1.151,1.151,0,0,1,.485.973c-.044.376-.363.735-.924,1.037A1,1,0,0,1-172.613-2457.85Zm85.586-1.935a.714.714,0,0,1-.624-.7.6.6,0,0,1,.161-.437,1.279,1.279,0,0,1,.886-.354h.075a.651.651,0,0,1,.561.223.5.5,0,0,1,.013.48,1.45,1.45,0,0,1-1.047.79Zm-2.668-1.365a1.224,1.224,0,0,1-.8-.44,2.06,2.06,0,0,1-.563-1.664c.047-.267.154-.4.32-.4.205,0,.5.22.849.635.592.684.709,1.314.563,1.635A.384.384,0,0,1-89.695-2461.149Zm-227.622-1.552a.606.606,0,0,1-.3-.087,1.209,1.209,0,0,1-.72-.773.166.166,0,0,1,.05-.117.935.935,0,0,1,.613-.211h.025a.79.79,0,0,1,.7.773.407.407,0,0,1-.1.31A.361.361,0,0,1-317.316-2462.7Zm-28.22-4.472c-.213,0-.511-.407-1.144-1.38-.694-.965-1.005-1.465-.894-1.7.07-.146.3-.187.659-.206a.834.834,0,0,0,.707-.3c.155-.24.121-.622-.106-1.2a1.518,1.518,0,0,1-.049-1.291.492.492,0,0,1,.423-.2,2.955,2.955,0,0,1,1.94,1.519c.784,1.226,1.028,1.824.87,2.132-.092.179-.321.269-.743.291-.475.024-.986.639-1.216,1.462C-345.246-2467.468-345.358-2467.174-345.536-2467.174Zm303.291-1.847a.606.606,0,0,1-.3-.087,1.214,1.214,0,0,1-.721-.772c-.007-.141.244-.307.662-.33h.025a.79.79,0,0,1,.7.773.406.406,0,0,1-.1.31A.36.36,0,0,1-42.246-2469.021Zm5.257-2.469c-.161,0-.261-.419-.306-1.28-.073-1.4.3-2.076,1.365-2.5a8.054,8.054,0,0,1,2.053-.528.465.465,0,0,1,.422.165c.188.288-.058.99-.548,2.1-.231.64-.7,1.105-1.11,1.105a.482.482,0,0,1-.264-.077.481.481,0,0,0-.3-.1,1.272,1.272,0,0,0-.959.682C-36.78-2471.63-36.894-2471.489-36.988-2471.489ZM-310.4-2473.37a.6.6,0,0,1-.3-.088,1.2,1.2,0,0,1-.72-.772.167.167,0,0,1,.05-.118.933.933,0,0,1,.612-.21h.025a.788.788,0,0,1,.695.772.406.406,0,0,1-.1.31A.36.36,0,0,1-310.4-2473.37Zm8.012-1.9a2.923,2.923,0,0,1-1.79-.962c-.712-.694-1.055-1.311-.917-1.648a.428.428,0,0,1,.441-.229,3.625,3.625,0,0,1,1.85.849c.793.589,1.149,1,1.155,1.341a.675.675,0,0,1-.309.528A.741.741,0,0,1-302.384-2475.267Zm-9.6-2.437a.6.6,0,0,1-.3-.087,1.21,1.21,0,0,1-.721-.772c-.007-.141.245-.307.663-.328h.025a.789.789,0,0,1,.695.772.407.407,0,0,1-.1.31A.36.36,0,0,1-311.983-2477.7Zm6.127-.649-2.587-1.48a13.614,13.614,0,0,1-3.389-2.4,3.156,3.156,0,0,1-.654-2.1c.044-.437.151-.623.359-.623.239,0,.618.232,1.352.827a4.723,4.723,0,0,1,1.66,1.827,7.289,7.289,0,0,0,1.615,2.272l1.647,1.674Zm-53.425-4.743v-1.6c.235-.106.514-.236.853-.4a1.643,1.643,0,0,1,.665-.209.236.236,0,0,1,.261.164c.107.406-.63,1.389-1.707,2l-.027.014-.044.023Zm45.1-1.791a.849.849,0,0,1-.6-.282,1.64,1.64,0,0,1-.424-1.6,3.073,3.073,0,0,1,2.264-.929l1.763-.092-1.408,1.693C-313.272-2485.259-313.766-2484.887-314.178-2484.887Zm-17.588-3.294a1.493,1.493,0,0,1-1.158-.748c-.286-.425-.4-.79-.3-.976a.233.233,0,0,1,.221-.119,1.792,1.792,0,0,1,1.079.748c.362.4.531.75.451.945a.267.267,0,0,1-.257.148h-.037Zm20.319-1.07c-1.045,0-1.453-.376-1.506-1.387a1.566,1.566,0,0,1,.336-1.185.952.952,0,0,1,.71-.292,2.287,2.287,0,0,1,1.5.754c.669.653.943,1.161.812,1.509s-.664.545-1.586.594C-311.273-2489.253-311.363-2489.25-311.447-2489.25Zm-37.021-97.635,0,0-1.144-1.214a1.779,1.779,0,0,1-.2-2.617c.546-.809.858-1.219,1.049-1.219.257,0,.3.734.306,2.489l-.01,2.562Zm4.019-5.133a.585.585,0,0,1-.33-.093.633.633,0,0,1-.272-.414.782.782,0,0,1,.12-.575.72.72,0,0,1,.592-.354.674.674,0,0,1,.382.124.71.71,0,0,1,.152.989A.8.8,0,0,1-344.449-2592.018Zm22.077-18.962c-.158,0-.3-.226-.435-.712a2.4,2.4,0,0,0-.771-1.408,6.346,6.346,0,0,1-.246-2.914c.123-1.409.366-2.251.649-2.251.2,0,.394.426.553,1.2.9,4.223,1,5.2.589,5.806C-322.161-2611.072-322.271-2610.981-322.372-2610.981ZM85.7-2672.4c-.221,0-.534-.263-.882-.74-.817-1.122-1.571-3.03-1.32-3.808.112-.337.314-.516.582-.516.766,0,1.909,1.464,2.073,3.016a3.25,3.25,0,0,1-.225,1.939.25.25,0,0,1-.169.1A.255.255,0,0,1,85.7-2672.4Zm-.05-6.178a1.829,1.829,0,0,1-.948-.4,1.4,1.4,0,0,1-.417-2.055,21.572,21.572,0,0,0,1.2-2.026c.242-.429.528-.665.8-.665a.59.59,0,0,1,.456.247,2.541,2.541,0,0,1,.253,2.059C86.616-2679.323,86.262-2678.581,85.648-2678.581Zm13.586-5.722c-.231,0-.392-.185-.441-.508a1.641,1.641,0,0,1,.627-1.172c.3-.229.463-.322.567-.322a.111.111,0,0,1,.089.038c.072.081.077.289.019.74C100.079-2684.827,99.627-2684.3,99.234-2684.3Zm16.759-.385a1.209,1.209,0,0,1-.664-.23c-.458-.309-.675-.821-.475-1.118a1.308,1.308,0,0,1,1.074-.566.785.785,0,0,1,.853.624,1.268,1.268,0,0,1-.214,1.03A.734.734,0,0,1,115.994-2684.688Zm-14.9-4.645a.587.587,0,0,1-.331-.093.643.643,0,0,1-.28-.465.783.783,0,0,1,.127-.523.719.719,0,0,1,.592-.354.685.685,0,0,1,.383.123.667.667,0,0,1,.274.429.748.748,0,0,1-.123.56A.8.8,0,0,1,101.09-2689.333Zm-9.54-.334c-.07,0-.123-.054-.159-.161a11.074,11.074,0,0,1,.514-3.855c.365-1.425.961-3.218,1.443-3.579a2.729,2.729,0,0,0,.512-2.581,4.56,4.56,0,0,1,.354-2.953,2.233,2.233,0,0,0,.439-1.743c-.157-.474,1.358-4.076,2.022-5,.1-.142.18-.214.231-.214a.042.042,0,0,1,.026.008,10.357,10.357,0,0,1,1.166,1.672c.607.831,1.026,1.17,1.447,1.17a.985.985,0,0,0,.478-.137c.308-.165.451-.269.439-.32-.006-.024-.045-.035-.12-.035a1.453,1.453,0,0,0-.169.012.814.814,0,0,1-.15.015.817.817,0,0,1-.717-.5,3.092,3.092,0,0,1,.294-2.913c.311-.461.419-.825.321-1.081a.647.647,0,0,0-.492-.364.906.906,0,0,1-.64-.509c-.559-1.029-.28-3.382.662-5.6a9.339,9.339,0,0,0,.647-4,10.475,10.475,0,0,1,.992-4.386c.733-1.521,1.2-2.261,1.433-2.261a.1.1,0,0,1,.076.035c.093.1.116.433.068.984-.075.466.953,1.444,2.245,2.135,1.243.661,1.768,1.083,1.873,1.5a.942.942,0,0,1-.212.77,3.455,3.455,0,0,1-2.037,1.2c-.991.12-1.647.459-1.756.908-.076.315.13.655.579.958a1.789,1.789,0,0,1,.36,2.017,1.793,1.793,0,0,0,.3,1.978.653.653,0,0,1,.346.487c.014.264-.2.574-.676.975a1.719,1.719,0,0,0-.738,1.779,1.25,1.25,0,0,0,1.283.7,2.857,2.857,0,0,0,.337-.021c.989-.184,1.278-.528,1.238-1.471a2.51,2.51,0,0,1,.748-1.769,1.8,1.8,0,0,1,1.213-.634.82.82,0,0,1,.467.139c.137.092.083.476-.147,1.053a11.24,11.24,0,0,1-1.1,2.008c-1.5,2.225-1.638,2.878-.817,3.883.505.612.735.92.66,1.1s-.422.23-1.2.306a4.352,4.352,0,0,0-2.524,1.714,3.328,3.328,0,0,0-.916,2.173,2.5,2.5,0,0,1-.069,1.2,41.83,41.83,0,0,0-1.632,6.791c-.255,1.374-.646,1.9-1.674,2.24a2.137,2.137,0,0,1-.645.114.924.924,0,0,1-.834-.421c-.407-.636-.226-1.9.5-3.459.849-1.98.918-5.588.119-6.127a.291.291,0,0,0-.165-.051c-.227,0-.519.241-.846.7-.886,1.233-1.732,3.619-1.421,4.542a2.741,2.741,0,0,1-.886,2.771,8.559,8.559,0,0,0-1.867,3.618c-.322,1.373-.809,2.394-1.183,2.482A.161.161,0,0,1,91.55-2689.667Zm2.52-.8a.361.361,0,0,1-.292-.147,1.572,1.572,0,0,1-.056-1.253,7.3,7.3,0,0,1,1.45-2.392c.392-.394.654-.586.8-.586a.112.112,0,0,1,.1.051c.15.223-.139,1.208-.909,3.1C94.805-2690.787,94.351-2690.466,94.07-2690.466Zm-419.888-1.789h0a.065.065,0,0,1-.054-.026c-.041-.054-.036-.187.017-.384a1.594,1.594,0,0,1,.838-1.121.27.27,0,0,1,.1-.021.092.092,0,0,1,.091.053c.058.122-.055.471-.44.951C-325.5-2692.46-325.708-2692.254-325.818-2692.254ZM60.86-2710.307h0c-.361,0-.585-.529-.629-1.49a5.928,5.928,0,0,1,1.466-3.267c.767-.937,1.114-1.329,1.276-1.329a.076.076,0,0,1,.06.027c.083.094.061.424-.013,1.042C62.709-2712.5,61.6-2710.307,60.86-2710.307Zm54.325-5.007a.839.839,0,0,1-.461-.16c-.531-.357-.684-.928-.49-1.217a.746.746,0,0,1,.6-.364.555.555,0,0,1,.314.1,1.291,1.291,0,0,1,.49,1.217A.44.44,0,0,1,115.185-2715.314Zm-9.791-3.13h0a1.05,1.05,0,0,1-.59-.174c-.274-.185-.224-.76.11-1.256a1.162,1.162,0,0,1,.886-.6c.393,0,.692.354.779.923a.826.826,0,0,1-.21.666A1.315,1.315,0,0,1,105.394-2718.444Zm4.574-1.219a.417.417,0,0,1-.238-.065c-.321-.217-.3-.773.053-1.294a1.246,1.246,0,0,1,.906-.616.481.481,0,0,1,.274.082.6.6,0,0,1,.2.535,1.482,1.482,0,0,1-.255.758A1.281,1.281,0,0,1,109.969-2719.663Zm1.854-3.468a.451.451,0,0,1-.378-.144c-.123-.155-.132-.441-.026-.9.342-1.266.886-1.843,1.246-1.843.305,0,.5.368.544,1.01.083,1.169-.165,1.628-.982,1.821A1.789,1.789,0,0,1,111.823-2723.131Zm-14.015-1.28c-.228,0-.457-.186-.63-.511a1.732,1.732,0,0,1-.051-1.623.671.671,0,0,1,.552-.306.58.58,0,0,1,.325.1,1.642,1.642,0,0,1,.429,1.56c-.078.423-.274.71-.525.77A.439.439,0,0,1,97.808-2724.411Zm-28.9-1.891a.13.13,0,0,1-.112-.062,1.977,1.977,0,0,1,.192-1.336c.262-.724.608-1.264.742-1.264a.043.043,0,0,1,.023.007c.112.075.146.319.1.687-.107.784-.544,1.844-.9,1.962A.185.185,0,0,1,68.911-2726.3Zm-3.785-4.057c-.418,0-.727-1.12-.736-2.663.013-1.306.069-1.852.381-1.852a.98.98,0,0,1,.478.215,2.548,2.548,0,0,1,.63,1.844,3.9,3.9,0,0,1-.412,2.2C65.354-2730.443,65.239-2730.358,65.126-2730.358Zm6.054-8.722a.365.365,0,0,1-.337-.189.76.76,0,0,1,.144-.739c.349-.516.641-.789.845-.789a.2.2,0,0,1,.149.066,1.3,1.3,0,0,1,.139.866A.939.939,0,0,1,71.18-2739.081Zm18.322-2.508h0c-.024,0-.038-.006-.043-.019-.026-.066.2-.31.785-.841.573-.509.789-.816.771-1.1-.016-.248-.223-.484-.711-.814-.416-.28-.654-.609-.638-.879a.349.349,0,0,1,.205-.3,1.4,1.4,0,0,1,.636-.159,1.322,1.322,0,0,1,1.044.527,1.7,1.7,0,0,1,.268,1.479,3.567,3.567,0,0,1-1.541,1.8A2.959,2.959,0,0,1,89.5-2741.588Zm-4.715-14.947c-.168,0-.4-.171-.769-.486a3.139,3.139,0,0,1-.715-3.676.877.877,0,0,1,.7-.461.913.913,0,0,1,.653.339,3.252,3.252,0,0,1,.657,2.365C85.171-2757.091,85.084-2756.536,84.787-2756.536Zm-8.226-4.42c-.1,0-.2-.091-.3-.272-.481-.9-.708-3.771-.239-4.466a.6.6,0,0,1,.5-.247.6.6,0,0,1,.338.1c.478.323.477,2.457.243,3.739-.126.688-.3,1.094-.5,1.14A.16.16,0,0,1,76.561-2760.956Zm-417.975-.872c-.165,0-.3-.181-.378-.523-.212-.886-.029-2.759.526-3.042a1.525,1.525,0,0,1,.67-.157.8.8,0,0,1,.432.1c.194.131.177.551.128.88-.159,1.065-.836,2.584-1.338,2.737A.217.217,0,0,1-341.413-2761.828Zm4.834-.6c-.224,0-.527-.275-1.046-.949l-.153-.2c-.585-.762-.852-1.11-.809-1.4.039-.261.339-.477.883-.868l.048-.034a1.96,1.96,0,0,1,1.075-.473.6.6,0,0,1,.465.2,2.374,2.374,0,0,1,.25,1.744C-336.112-2762.755-336.314-2762.431-336.579-2762.431Zm429.063-2.777a.72.72,0,0,1-.4-.12.344.344,0,0,1-.164-.313.585.585,0,0,1,.349-.448,1.613,1.613,0,0,1,.784-.25.445.445,0,0,1,.247.058.133.133,0,0,1,.051.09,1.081,1.081,0,0,1-.237.672A.766.766,0,0,1,92.484-2765.208Zm-15.273-7.706a1.088,1.088,0,0,1-.608-.193,1.873,1.873,0,0,1-.771-1.406.405.405,0,0,1,.43-.376,1.471,1.471,0,0,1,.769.3,2.328,2.328,0,0,1,.732.737.62.62,0,0,1,.04.67A.7.7,0,0,1,77.211-2772.914Zm-419.757-3.709a1.475,1.475,0,0,1-.3-.031,2.056,2.056,0,0,1-1.4-1.3,2.386,2.386,0,0,1,.158-2.194,2.371,2.371,0,0,0-.068-2.085c-.243-.574-.349-.863-.288-.954a.077.077,0,0,1,.071-.032,1.878,1.878,0,0,1,.614.277,3.016,3.016,0,0,1,1.016,2.015,2.544,2.544,0,0,0,1.042,1.856,1.018,1.018,0,0,1,.637,1.205A1.578,1.578,0,0,1-342.546-2776.624Zm472.31-7.769a.722.722,0,0,1-.411-.129,2.233,2.233,0,0,1-.823-1.842,2.557,2.557,0,0,1,.871-2.116,1.839,1.839,0,0,1,1.013-.435c.529,0,.864.5,1.023,1.542a3.221,3.221,0,0,1-.727,2.431A1.336,1.336,0,0,1,129.763-2784.393Zm-2.3-9.711h0a2.508,2.508,0,0,1-1.281-.536c-.885-.6-1.6-2.287-1.961-4.636a23.458,23.458,0,0,1,.108-7.431c.391-2.03.464-4.208.162-4.855-.372-.783-.116-1.655.763-2.589.583-.594.9-1.118.814-1.335a.172.172,0,0,0-.176-.1.918.918,0,0,1-.777-.583,3.4,3.4,0,0,1,.159-3.115,1.24,1.24,0,0,0-.063-1.728c-.456-.307-.535-1.893-.168-3.394a19.389,19.389,0,0,0,.383-5.062,5.7,5.7,0,0,1-.085-1.91.031.031,0,0,1,.024-.012c.148,0,.523,1.148,1.084,3.321.474,1.8.588,3.742.248,4.246a.727.727,0,0,0-.164.643c.085.24.391.432.961.6,1.012.256,1.248.8.933,2.137-.489,2.223.222,7.952,1.056,8.515a.3.3,0,0,1,.134.257,1.143,1.143,0,0,1-.526.809c-.313.252-.444.453-.425.65.026.28.354.563,1.129.978s1.1.7,1.158,1.019c.046.25-.08.529-.408.906a4.57,4.57,0,0,0-.589,3.061,6.3,6.3,0,0,1-.7,3.341,7.253,7.253,0,0,0-.806,3.624c.064,1.619-.083,2.557-.463,2.953A.693.693,0,0,1,127.465-2794.1Zm-466.739-20.53h0a.59.59,0,0,1-.331-.092.713.713,0,0,1-.152-.989.722.722,0,0,1,.592-.354.682.682,0,0,1,.382.124.709.709,0,0,1,.152.989A.8.8,0,0,1-339.275-2814.634Zm-2.39-24.612a.355.355,0,0,1-.2-.059c-.161-.108-.2-.363-.11-.717a4.045,4.045,0,0,1,.575-1.186c.565-.837.935-1.321,1.154-1.321.148,0,.24.208.318.718a2.628,2.628,0,0,1-.7,1.851A1.647,1.647,0,0,1-341.664-2839.247Zm3.653-2.851a.368.368,0,0,1-.207-.068.771.771,0,0,1-.209-1.027c.223-.328.447-.475.572-.475a.117.117,0,0,1,.065.018,1.167,1.167,0,0,1,.209,1.028C-337.609-2842.318-337.789-2842.1-338.011-2842.1Zm421.67-3.565a.614.614,0,0,1-.519-.383,2.164,2.164,0,0,1,.118-2.02,1.151,1.151,0,0,1,.846-.58.417.417,0,0,1,.236.069c.286.192.3.889.192,1.495-.117.638-.4,1.321-.755,1.405A.5.5,0,0,1,83.659-2845.663Zm-428.1-8.754a.367.367,0,0,1-.207-.067.773.773,0,0,1-.209-1.028c.223-.328.448-.475.572-.475a.117.117,0,0,1,.065.018,1.17,1.17,0,0,1,.208,1.027C-344.043-2854.638-344.223-2854.417-344.446-2854.417Zm1.994-2.52a.474.474,0,0,1-.407-.328,1.2,1.2,0,0,1-.111-1.05.207.207,0,0,1,.18-.07,1.064,1.064,0,0,1,.547.206.783.783,0,0,1,.111,1.051A.39.39,0,0,1-342.452-2856.937Zm-5.378-.812c-.377,0-.641-.121-.7-.323-.076-.239.128-.544.575-.86a1.094,1.094,0,0,0,.509-.79.379.379,0,0,0-.175-.315.424.424,0,0,1-.224-.361.494.494,0,0,1,.314-.377c.418-.149.969-1.179,1.255-2.345.372-1.523.836-2.094,1.911-2.347l.113-.023a5.751,5.751,0,0,1,1-.16c.569,0,.622.407.8,1.755l.023.176a3.83,3.83,0,0,1-.052,2.233.131.131,0,0,1-.1.053c-.2,0-.429-.519-.62-1.387-.243-1.248-.663-1.69-.948-1.69a.344.344,0,0,0-.259.131,2.756,2.756,0,0,0-.254,1.9,2.845,2.845,0,0,1-.123,1.579.1.1,0,0,1-.076.04.107.107,0,0,1-.06-.021.26.26,0,0,0-.141-.052.149.149,0,0,0-.116.057,1.206,1.206,0,0,0-.067.84,1.855,1.855,0,0,1-1.177,1.866A2.98,2.98,0,0,1-347.83-2857.749Zm433.4-1.657a.589.589,0,0,1-.331-.093.713.713,0,0,1-.152-.99.72.72,0,0,1,.591-.353.683.683,0,0,1,.382.124.665.665,0,0,1,.274.428.75.75,0,0,1-.122.56A.8.8,0,0,1,85.567-2859.406Zm-.263-5.436a.524.524,0,0,1-.4-.233,1.709,1.709,0,0,1-.184-1.425c.133-.5.394-.849.634-.849a.263.263,0,0,1,.151.049,1.683,1.683,0,0,1,.278,2.137A.607.607,0,0,1,85.3-2864.842Zm-435.034-4.725a.589.589,0,0,1-.331-.093.643.643,0,0,1-.28-.466.785.785,0,0,1,.128-.523.72.72,0,0,1,.592-.354.684.684,0,0,1,.382.124.71.71,0,0,1,.152.989A.8.8,0,0,1-349.73-2869.567Zm4.212-.156c-.9,0-1.593-.774-1.777-1.972a2.055,2.055,0,0,0-1.278-1.749.94.94,0,0,1-.751-.943,2.377,2.377,0,0,1,1.576-2.224,3.768,3.768,0,0,1,1.072-.2.985.985,0,0,1,.757.265,1.266,1.266,0,0,1,.25.977c-.039.439,1.018,1.483,2.261,2.235a7.348,7.348,0,0,1,2.384,2.052.294.294,0,0,1-.071.219.254.254,0,0,1-.188.067,1.166,1.166,0,0,1-.592-.239.876.876,0,0,0-.5-.142,2.172,2.172,0,0,0-1.474.761A2.315,2.315,0,0,1-345.519-2869.723Zm-4.2-8.594a.712.712,0,0,1-.6-.371c-.5-.76-.588-2.669.156-4.427.178-.371.342-.72.487-1.027a7.024,7.024,0,0,1,.67-1.3,4.072,4.072,0,0,1,.4,1.6c.384,2.178-.141,5.312-.922,5.5A.73.73,0,0,1-349.719-2878.317ZM85.1-2881.3c-.361,0-.863-1.1-1.118-2.449a6.34,6.34,0,0,0-1.352-3.218c-.31-.208-.434-.35-.418-.474.025-.182.371-.333.922-.516a3.7,3.7,0,0,1,1.153-.215.947.947,0,0,1,.873.346.687.687,0,0,1-.131.7,6.094,6.094,0,0,0,.081,3.158c.349,1.334.351,2.529.005,2.664Zm46.131-9.428c-.332,0-.587-.366-.681-.979-.136-.888.112-1.257.986-1.462a2.028,2.028,0,0,1,.45-.065.41.41,0,0,1,.347.13c.117.151.108.446-.03.984C132.073-2891.277,131.652-2890.73,131.234-2890.73Zm-11.624-29.027a.418.418,0,0,1-.237-.065c-.32-.217-.3-.774.053-1.294a1.243,1.243,0,0,1,.907-.616.474.474,0,0,1,.273.081.6.6,0,0,1,.2.535,1.484,1.484,0,0,1-.256.759A1.279,1.279,0,0,1,119.61-2919.757Zm12.661-3.158h0l-1.667-.682c-.742-.287-1.134-.566-1.232-.879a.834.834,0,0,1,.179-.717,5.27,5.27,0,0,0,.38-3.113c-.179-1.165-.06-2.343.261-2.573a.721.721,0,0,1,.425-.141,1.47,1.47,0,0,1,1.141.887,1.592,1.592,0,0,1,.054,1.588,5.325,5.325,0,0,0-.1,3.3l.558,2.326Zm-10.038-6.635a.586.586,0,0,1-.331-.093.712.712,0,0,1-.152-.989.719.719,0,0,1,.592-.354.684.684,0,0,1,.382.124.666.666,0,0,1,.274.429.751.751,0,0,1-.122.561A.8.8,0,0,1,122.232-2929.551Zm9.01-3.315c-.067,0-.134,0-.2-.01-.367-.1-.615-.2-.63-.33-.019-.166.325-.387.924-.713a4.273,4.273,0,0,1,1.532-.611.209.209,0,0,1,.2.09c.075.14-.047.448-.362.914A1.781,1.781,0,0,1,131.242-2932.866Z" transform="translate(1520.28 7158.696)"/></clipPath></defs><g transform="translate(-1161 -4217.987)" clip-path="url(#a)"><rect width="572.5" height="572.5" transform="translate(1084 4217.522)"/></g></svg>