<svg xmlns="http://www.w3.org/2000/svg" width="1093.684" height="1009.101" viewBox="0 0 1093.684 1009.101"><path d="M-1119.741,1090.305a22.17,22.17,0,0,0,2.372-4.459,4.618,4.618,0,0,1,1.708-2.246c.677-.372,1.253-1,1.229-1.424s1.353-2.375,3.076-4.342a24.222,24.222,0,0,0,3.539-5.443l.425-1.8-2.075,1.908a11.346,11.346,0,0,1-3.281,2.192,1.624,1.624,0,0,0-1.129,1.684,4.847,4.847,0,0,1-1.58,3,5.2,5.2,0,0,0-1.607,2.506c.027.49-.552,1.052-1.241,1.214-1.033.244-1.052-.106.218-2.39,1.11-2.034,1.24-2.845.408-3.712-.742-.817-.765-1.238.085-1.651,1.268-.724,3.722-5.273,3-5.671s-3.034,1.922-2.98,2.9c.023.42-.71,1.372-1.63,2.086a3.9,3.9,0,0,0-1.6,2.576,2.665,2.665,0,0,1-1.2,2.055c-.677.373-1.287.374-1.306.024-.023-.419-.3-.639-.641-.557-.857.273-5.127,6.669-5.078,7.579a.938.938,0,0,1-.823.9c-1.377.325-1.069-2.016.43-3.291,2.083-1.768.473-2.523-3.307-1.489-3.439.883-4.493,2.336-2.284,2.879.708.187.214.729-1.4,1.4-3.061,1.431-4.3,1.156-2.913-.66,1.869-2.5,3.262-5.732,2.621-6.29-.367-.338-.053-.979.616-1.492a4.135,4.135,0,0,0,1.356-2.3,5.273,5.273,0,0,1,1.951-2.588,4.386,4.386,0,0,0,1.853-2.776,6.106,6.106,0,0,1,1.315-3.074,13.8,13.8,0,0,0,2.32-3.809,24.8,24.8,0,0,1,3.789-5.644c2.381-2.689,2.6-3.38,1.844-4.547-.476-.739-1.2-1.276-1.547-1.194-.688.162-2.523,3.289-2.716,4.54.019.35-.115,1.091-.092,1.51-.059.51-.894,1.2-1.915,1.657-1.362.606-1.593,1.156-1.105,2.1.791,1.727-2.34,6.649-3.856,6.015-1.512-.565-5.241,3.009-6.793,6.494a33.627,33.627,0,0,1-2.126,4.188c-.568.772-.608,1.633-.248,1.831a.834.834,0,0,0,1.1-.614,8.152,8.152,0,0,1,1.535-2.206,3.948,3.948,0,0,0,1.091-2.384c-.058-1.049,1.427-2.605,2.146-2.208.814.517-3.757,7.834-5.047,8.139a8.565,8.565,0,0,0-3.262,2.542c-1.884,2.217-3.66,3.2-3.726,2.014a1.915,1.915,0,0,1,.8-1.324c.5-.4.651-.862.373-1.151s-.046-.84.624-1.352a9.927,9.927,0,0,0,2.092-3.188c.922-2.273.922-2.273-.562-.718-2.648,2.61-3.883,2.335-1.858-.483.968-1.434,2.385-2.619,3.164-2.731a6.4,6.4,0,0,0,2.391-.919c1.421-1.115,1.149-2.894-.4-2.528-1.807.427-1.685-.524.3-2.552,1.57-1.576,1.562-1.715.053-2.21-1.337-.536-1.255-.626.893-1.2,1.722-.406,2.3-.9,2.248-1.948a1.716,1.716,0,0,1,1.214-1.7c.688-.163,1.272-.655,1.253-1.005-.023-.419.564-.842,1.253-1,.947-.223,1.178-.774.683-1.862a2.056,2.056,0,0,1,.4-2.292c.67-.513.561-.913-.26-1.57-1-.756-.918-.847.4-.732,1.224.066,1.729-.266,2.016-1.4a2.383,2.383,0,0,1,1.387-1.745,4.128,4.128,0,0,0,1.9-1.868c.885-1.343.687-1.793-.928-2.616a6.1,6.1,0,0,0-2.744-.77c-1.033.244-2.905,2.671-3.824,5.014-.69,1.723-2.949,3.461-3.844,3.035-.813-.517,1.156-4.385,2.446-4.689a1.545,1.545,0,0,0,1.234-1.355c-.073-1.329,5.011-7.208,6.475-7.554,1.2-.284,1.394,1.585.122,2.24-.509.262-.033,1,.963,1.687,1.083.666,1.978,1.093,2.142.912,1.779-2.546,3.363-5.472,3.325-6.172-.023-.419,1.356-2.3,3.088-4.131,3.128-3.361,3.677-4.484,2.105-4.538-1.481,0,.9-4.324,2.619-4.729a1.711,1.711,0,0,0,1.375-1.956,15.082,15.082,0,0,1,.345-3.271c.365-1.291.178-1.53-.836-.937-2.2,1.229-2.642-.51-.759-2.727,1.559-1.786,1.7-2.317.708-3s-.833-.868,1.147-1.335,2.226-.738,1.625-2.156c-.5-1.229-.267-1.709.851-1.974.947-.223,1.272-.654.889-1.273-.386-.689.029-1.07,1.578-1.435a3.845,3.845,0,0,1,2.621.091c.738.747,2.2.4,2.151-.508-.022-.419-.64-.557-1.329-.4a1.054,1.054,0,0,1-1.359-.955c.005-1.49,1.945-4.288,2.668-3.82.356.129.607-.072.584-.492a1.135,1.135,0,0,0-.926-.986c-1.5-.355-1.042-1.526.765-1.953,1.98-.467,3.658-3.273,2.952-5.021-.6-1.488,2.523-3.289,3.718-2.154.551.508.614.068.283-1.2-.522-1.579-.138-2.52,1.914-4.847,1.309-1.585,2.437-3.269,2.41-3.759,0-1.56,4.036-5.915,5.349-5.8.787.027,1.292-.3,1.257-.934-.027-.49-.922-.917-1.962-.813-1.13.054-.45-.248,1.447-.625,2.934-.551,3.439-.883,3.374-2.073-.042-.77-.952-1.476-2.008-1.652-1.49-.145-1.865-.623-1.586-1.894.291-1.061.085-1.651-.518-1.508-.516.121-.988-.547-1.042-1.526a2.578,2.578,0,0,0-1.862-2.183c-2.92-.8-2.626-4.981.858-9.843,1.535-2.206,4.45-6.3,6.48-9.044,1.939-2.8,3.535-5.513,3.508-6a1.036,1.036,0,0,1,1.076-1.034c1.389-.115,11.337-11.111,11.261-12.512a8.9,8.9,0,0,1,1.474-3.325,14.432,14.432,0,0,0,1.931-5.535H-1426v-640h516.968a2.182,2.182,0,0,0,.5-1.712c-.1-1.82,1.285-2.005,3.121-.311,1.746,1.643,3.048,1.549,2.953-.2-.118-2.17,1.785-4.036,6.215-5.933a47.643,47.643,0,0,0,5.776-2.782,3.6,3.6,0,0,1,3.109-.521c1.416.375,2.186.122,3.952-1.075s2.54-1.379,3.865-1.054c1.06.247,1.839.133,2.16-.368a2.942,2.942,0,0,1,1.769-1.126c1.634-.386,1.736,3.064.128,3.939a1.953,1.953,0,0,0-1.031,1.874c.218.8-.369,1.221-2.259,1.738a14.754,14.754,0,0,0-4.257,1.856c-1.594,1.156-1.586,1.3-.088,1.58,2.212.612,1.922,1.673-.574,2.263-2.124.5-2.147.576-.822,1.832h10.744a5.836,5.836,0,0,1,1.182-2.823c1.316-1.444,1.4-1.465,1.463-.346.08,1.471,1.719,1.154,2.245-.388.313-.641.815-1.043,1.256-.934,1.049.243,1.188,4.179.188,4.491h1.364a1.993,1.993,0,0,1,2.612-.086q.077.042.147.086h8.742a27.951,27.951,0,0,0,4.168-2.034c1.432-.905,2.207-1.088,3.278-.632,1.251.555,1.329.4.811-1.113-1.309-3.236,3.65-6.6,5.461-3.77.67,1.118.847,1.147.794.167a1.846,1.846,0,0,1,1.4-1.535c.947-.223,1.1-.684.7-1.513-.69-1.467,1.479-3.255,4.749-4.027,2.582-.609,4.066-2.165,3.951-4.264-.068-1.26.429-1.732,2.315-2.318,1.287-.374,2.919-.831,3.6-1.133.685-.232,1.8-.567,2.4-.779.513-.193,1.014-.594.991-1.014-.019-.349-.543-.368-1.22,0a1.7,1.7,0,0,1-1.826.077c-.742-.817-5.045.2-6.2,1.463-1.316,1.445-6.6,2.054-7.017.805-.316-.989,2.37-2.9,4.275-3.136,3.727-.384,5.879-.892,6.278-1.553a3.153,3.153,0,0,1,1.785-.846c.782-.043,1.941-1.167,2.737-2.561a6.381,6.381,0,0,1,3.575-3.183c2.567-.889,3.034-1.921.933-2.064a.884.884,0,0,1-.854-1.286,1.866,1.866,0,0,1,1.679-1.176c.877.077,1.193-.495,1.133-1.615-.085-1.54-.44-1.669-3.452-.958a17.349,17.349,0,0,1-5.824.311,14.24,14.24,0,0,0-4.705.048c-4.131.975-8.656,1.121-8.174.369.321-.5,2.125-1,4.116-1.255,2.949-.271,3.971-.725,5.115-2.128,1.472-1.766,1.387-1.745-2.9-.38-4.2,1.275-4.378,1.247-4.907-.472a10.3,10.3,0,0,0-1.553-2.894c-.656-.838-.495-1.088,1.054-1.454a11.751,11.751,0,0,0,3.965-2.425c1.907-1.8,1.9-1.867.3-2.551-1.246-.486-1.355-.886-.592-1.278,1.773-1.057,1.044-3.224-1.037-3.017-1.3.165-2.108-.282-2.337-1.292-.342-1.479-3.13-1.458-4.091.115a1.892,1.892,0,0,1-1.53.715c-.61,0-2.174.088-3.568.133-2,.117-2.354-.012-1.352-.815a10.5,10.5,0,0,1,3.408-1.442,6.906,6.906,0,0,0,3.3-1.842,6.059,6.059,0,0,1,2.869-1.741,17.6,17.6,0,0,0,4.246-2.065c2.521-1.73,4.347-1.806,3.653-.154a.919.919,0,0,0,.932,1.127c.7.048,1.278,1.046,1.343,2.236a2.515,2.515,0,0,0,1.882,2.533,2.478,2.478,0,0,1,1.851,1.974,2.661,2.661,0,0,0,1.42,2.074c1.873.763,1.676-1.246-.288-3.689-3.085-3.809-3.171-3.788-1.436-5.545,1.985-1.957,2.014-3.027.05-2.28-.94.364-1.561.156-1.595-.474-.031-.56.717-1.233,1.663-1.456a9.629,9.629,0,0,0,2.81-1.23c1.253-1,2.75-.72,2.82.54.08,1.47,2.559,2.161,4.167,1.284,1.182-.7,1.256-.934.287-1.13-.622-.208-1-.687-.675-1.188.235-.481-.589-1.208-1.922-1.673-1.6-.544-2.161-1.262-1.859-2.113a4.288,4.288,0,0,1,4.837-2.417,2.08,2.08,0,0,0,2.653-.91c.811-1.113,1.155-1.194,2.589-.47,1.521.7,1.778.643,3.937-1.354,1.331-1.165,2.431-1.778,2.625-1.4.68,1.258,2.883.1,5.006-2.528,2.523-3.289,3.728-3.574,5.336-1.259.949,1.406,1.66,1.663,2.764,1.12,1.357-.675,1.634-.386,2.034,2.143.423,2.948.423,2.948,1.532.914a13.356,13.356,0,0,0,1.094-5.5c-.047-2.47.319-3.761,1.567-4.836,1.414-1.255,1.589-1.226,1.921.043.323,1.129.855,1.286,2.475.62,1.792-.706,2.421-.358,4.869,2.963,1.6,2.1,2.857,4.43,2.9,5.2a1.785,1.785,0,0,0,1.139,1.716c.708.187.76-.463.211-2.531l-.767-2.867,2.867-.181a14.99,14.99,0,0,1,4.024.256c1.251.555,1.583,3.454.413,4.369a1.1,1.1,0,0,0-.272,1.411c.284.429-.676,2-1.992,3.447-2.475,2.57-3.332,6.033-1.438,5.585a4.5,4.5,0,0,0,2.083-1.768c1.057-1.383,1.057-1.383,1.205-.284.1,1.75,2.669,1,2.574-.749-.049-.91.526-1.543,1.645-1.806,1.205-.284,1.53-.715,1.05-1.524-.484-.878-.316-.989.67-.513a7.479,7.479,0,0,0,4.009-.024c3.443-.813,4.551.344,3.054,3.249-.874,1.553-.843,2.113-.034,2.561,1.527.844,1.474,3.055-.163,5a7.694,7.694,0,0,0-1.23,4.614c.04,2.33-.188,2.951-1.4,3.1-2.339.269-2.686,1.91-.525,3.173,1.083.666,1.742,1.573,1.421,2.074-.635,1.142-7.52,2.768-8.689,2.122-.719-.4-1.741.056-3.588,1.343l-2.6,1.89,2.412,1.061c1.61.754,2.075,1.283,1.4,1.655-2.45,1.428-.769,1.883,3.276.928,3.7-.874,4.749-.838,6.558.366,1.445.934,2.117,2.052,1.912,3.092-.212.9.009,1.77.537,1.858,1.239.346,1.128,1.506-.077,1.79a7.65,7.65,0,0,1-3.347-.627c-1.783-.714-1.97-.953-.68-1.258,2.755-.65,1.4-1.465-2.516-1.39-4.443.056-9.1,1.013-9.052,1.853.015.28.91.707,1.974,1.022,1.681.454,1.775.574.432,1.529-.755.533-1.151,1.264-.874,1.553a1.089,1.089,0,0,0,1.306-.024c.333-.292,1.127-.124,1.76.293.911.706.746.887-1.061,1.314-1.722.406-2.05.768-1.645,1.806.4.9.013,1.84-.986,2.714-1.585,1.3-1.581,1.366.107,1.959.891.357,1.45,1.005,1.129,1.507-.318.571-.04.859.566.788.6-.142,2.851-.46,5.011-.828,2.163-.3,5.1-.779,6.654-1.075a9.747,9.747,0,0,1,4.556.413c2.059,1,2.748,4.03,1.026,4.437-.685.232-.493.542.484.878,1.247.485,1.566,1.544,1.653,6.344.083,3.1-.121,5.77-.464,5.852s-.683,1.862-.834,3.883a39.353,39.353,0,0,1-.865,6.513c-.656,2.353-.457,2.8.868,3.128,1.239.346,1.536.985,1.2,2.835l-.391,2.432,2.232-2.228c2.142-2.278,2.785-3.28,1.278-2.145-.419.312-.857.274-.877-.077-.023-.42.651-.862,1.516-1,3.109-.521,4.468-1.2,4.41-2.246q-.057-1.05,2.524-1.66a4.71,4.71,0,0,0,3.362-2.281c.714-1.3,1.391-1.676,3.561-1.833,2.175-.088,2.6-.329,2.121-1.068-.769-1.307,2.709-4.68,5.549-5.35,1.55-.366,3.307-1.7,5.528-4.141,1.81-1.986,3.806-3.734,4.409-3.876a5.111,5.111,0,0,0,2.266-1.6,5.394,5.394,0,0,1,2.524-1.659,2.964,2.964,0,0,0,2-1.607,1.9,1.9,0,0,1,2.031-1.118c2.441-.009,9.55-8.7,8.908-10.893-.639-2.118-.109-3.589,1.44-3.955a4.138,4.138,0,0,0,2.052-2.327c1.288-3.565,4.824-7.447,7.234-8.016,1.722-.407,2.3-.968,2.4-2.339a11.608,11.608,0,0,1,2.29-4.369,27.276,27.276,0,0,0,2.735-4.19,32.788,32.788,0,0,1,4.566-7.386,8.788,8.788,0,0,0,1.733-3.387,3.679,3.679,0,0,1,1.2-2.054c.662-.653,1.058-1.384.785-1.6s.122-.95.784-1.6a3.816,3.816,0,0,0,1.192-2.124c-.031-.56.549-1.122,1.237-1.284a1.665,1.665,0,0,0,1.211-1.775c-.111-2.029,9.844-12.886,12.341-13.476a15.037,15.037,0,0,0,4.873-3.347c4.135-4.1,4.666-2.378.639,2.118-2.793,3.14-2.949,3.46-1.314,3.074,1.119-.264,4.451-3.106,8.241-7.12,3.552-3.6,7.511-7.728,8.827-9.173,2.726-2.77,4.593-3.707,2.974-1.411-1.944,2.728-9.155,11.164-12.7,14.907a28.51,28.51,0,0,0-3.521,4.163c.053.98,4.352,3.084,5.729,2.759.775-.183,1.4.094,1.431.654.057,1.05,1.906,1.393,4.4.8a3.989,3.989,0,0,1,2.64.44c1.086.736,1.426.585,3.075-1.151,1.073-1.1,1.708-2.246,1.431-2.535-.828-.8,1.232-2.984,3.3-3.472a10.107,10.107,0,0,0,3.3-1.772c1.5-1.345,1.943-2.727.522-1.612-.587.422-.61,0-.155-1.239.463-1.1.586-2.053.316-2.2-.266-.079.508-.262,1.635-.386,1.651-.106,2.237-.528,2.513-1.869.433-1.661.518-1.682,2.128-.928,1.7.8,1.869.693,5.57-3.37,2.217-2.508,3.745-4.854,3.692-5.834-.111-2.029,1.228-3.055,2.341-1.828.746.887,1,.826,2.649-.98a6.032,6.032,0,0,0,1.647-3.366c-.057-1.05.272-1.411,1.32-1.375.876.077,1.967-.677,2.951-1.831l1.547-2,2.9,1.939,2.982,1.919,4.258-1.856a41.321,41.321,0,0,0,6.269-3.323c1.848-1.287,2.02-1.327,1.661.1-.369,1.221-.1,1.37,1,.826a14.834,14.834,0,0,0,2.353-1.619c1.081-.964,2.343-.2,1.352.815a3.867,3.867,0,0,0-.484,2.312c-.009,1.419.257,1.5,1.948.533,1.185-.634,1.96-.817,1.983-.4.081,1.47,2.441-.009,5.477-3.49a30.65,30.65,0,0,1,5.231-4.779A12.638,12.638,0,0,0-544.374,137c.959-1.573,1.931-2.937,2.276-3.019a7.425,7.425,0,0,0,1.95-2.587c.8-1.393,1.951-2.588,2.64-2.75a12.369,12.369,0,0,0,3.605-2.623,14.572,14.572,0,0,1,3.261-2.543,14.614,14.614,0,0,0,3.238-2.962c2.624-3.029,6.144-5.632,8.3-6.14q1.292-.305,1.406,1.795c.107,1.959.373,2.038,3.213,1.368,2.237-.528,4.083-.255,6.937.915,2.228.892,4.605,1.323,5.544.959,1.882-.657,4.544.2,4.617,1.534.031.56.73.607,1.751.153.935-.433,1.717-.476,1.741-.056s1.775.573,3.942.346c2.855-.391,3.915-.145,3.961.7a2.623,2.623,0,0,0,1.233,1.835c1.977,1.093,1.74,9.514-.445,14.212-1.012,2.224-2.211,4.208-2.642,4.31a17.87,17.87,0,0,0-3.586,2.973,14.365,14.365,0,0,1-4.447,3.177c-.947.223-1.695.9-1.664,1.455s-.717,1.233-1.664,1.456c-2.324.549-2.186,3.068.165,3.01,1.044-.033,1.685.524,1.641,1.314.038.7.111,2.029.16,2.939.245,1.29.511,1.369,1.423.515,2.569-2.449,3.764,1.877,1.409,5.055-.4.591-.553,1.052-.209.971,1.292-.305-2.236,5.348-5.451,8.73-3.293,3.542-3.38,3.562-1.212,3.335,3.207-.332,4.641.393,3.505,1.937-1.222,1.565-.234,2.111,1.345.675.912-.853,1.256-.934,1.549-.365s1.146.226,2.989-1.13c2.937-2.111,5.279-2.309,6.082-.373.6,1.488,1.3,1.465,2.7-.07.575-.632,1-.8,1.017-.523.019.349.614.067,1.276-.585.995-.944,1.511-1.066,2.581-.609.715.328,1.36.955,1.387,1.445.038.7.473.669,2.159-.367,1.178-.775,2.087-1.7,2.064-2.118-.041-.77,3.409-4.633,4.355-4.856a38.565,38.565,0,0,0,4.686-3.587,25.811,25.811,0,0,1,5.03-3.668,1.186,1.186,0,0,0,.9-1.133c-.053-.98,2.488-3.919,3.522-4.162.344-.082.629.347.66.907s.4.968.745.887c.861-.2,3.367-5.4,3.287-6.872a.978.978,0,0,1,1.163-1.054,4.154,4.154,0,0,0,2.7-1.63c.818-.973,1.911-1.727,2.525-1.66s1.19-.564,1.406-1.4a2.686,2.686,0,0,1,1.734-1.757c.775-.183,1.358-.675,1.339-1.024-.022-.42.976-1.294,2.162-1.929,1.354-.744,2-1.607,1.715-2.106-.48-.808,2.492-3.849,5.455-5.47,1.268-.725,1.452-.555,1,.826-.436,1.592-.436,1.592.879.147.826-.833,1.211-1.774.933-2.063-.734-.678,3.824-5.014,7.542-7.168,2.364-1.409,2.767-2,2.276-3.019s-.248-1.359,1.129-1.684c1.032-.244,1.785-.847,1.754-1.407s.886-1.344,1.9-1.868a32.852,32.852,0,0,0,6.194-4.722c2.326-2.109,5.011-4.019,6.044-4.262s1.785-.846,1.758-1.336c-.065-1.19,4.478-5.806,6.113-6.192.775-.183,1.358-.675,1.336-1.1s.74-.813,1.7-.826,1.721-.406,1.7-.826c-.077-1.4,8.69-8.5,12.52-10.186.255-.131,1.1-.614,2.028-1.187a5.294,5.294,0,0,1,3.993-.3c2.823.609,8.69-.492,10.089-2.028.576-.632,1.878-.726,4.263-.155,6.619,1.486,8.547,1.669,12.181,1.166,2.679-.42,3.911-.214,4.219.634a1.512,1.512,0,0,0,1.708.943c1.721-.406,3.453,2.588,3.649,6.157.148,2.73-.318,3.762-2.778,6.611-1.97,2.237-3.559,3.463-4.517,3.477-1.654.036-5.363,3.96-11.056,11.47-1.618,2.3-3.432,4.213-3.947,4.334s-.461-.458.275-1.341a10.462,10.462,0,0,0,1.722-3.6c.2-1.111.843-2.113,1.273-2.214.517-.122.826-.833.784-1.6-.1-1.89-.529-1.718-5,2.528a33.417,33.417,0,0,1-5.766,4.551c-2.716,1.35-5.937,6.222-5.8,8.672.1,1.75-.308,2.341-2.01,3.1-1.448.626-2.106,1.348-1.888,2.147s-.362,1.361-1.817,1.846l-2.137.788,1.716-2.106a12.482,12.482,0,0,0,2.316-3.879l.511-1.822-2.823,2.58a17.9,17.9,0,0,1-3.859,2.754,1.3,1.3,0,0,0-.976,1.293,1.19,1.19,0,0,1-.717,1.233,13.171,13.171,0,0,0-2.129.928c-.931.5-1.372.4-1.415-.375-.034-.63.867-1.693,2.052-2.327s2.094-1.558,2.068-2.048c-.054-.98,3.957-5.755,5.076-6.018,1.463-.346,4.87-3.418,4.315-4-.278-.289-1.213.144-2.121,1.067-2.147,2.208-4.2,1.275-2.5-1.04.889-1.273.8-1.254-.94.363-1.166.985-3.4,3.213-4.969,4.789-3.388,3.422-6.937,5.465-6.254,3.6.306-.781.024-1.14-.836-.937-2.5.589-2.392-.711.071-3.49,2.22-2.438,2.37-2.9,1.354-3.936-1.379-1.305-2.161-1.262-2.691.211a4.953,4.953,0,0,1-2.251,1.877c-1.363.606-1.715.546-1.412-.3.455-1.242-.933-1.127-1.646.175-.326.431.158,1.31,1.061,1.877,1.445.935,1.453,1.075-1.429,4.165a19.272,19.272,0,0,1-3.74,3.364,2.222,2.222,0,0,0-1.316,1.444,1.988,1.988,0,0,1-2.117,1.138,3.634,3.634,0,0,0-2.63,1.33c-.9,1.133-.545,1.192,2.553.46a10.563,10.563,0,0,0,5.009-2.458c1.817-1.847,4.831-4.117,5.864-4.361.345-.081.75.957.913,2.336.185,1.8-.043,2.42-1,2.364-1.752-.154-3.772,1.174-3.711,2.293a1.2,1.2,0,0,1-.894,1.2,15.332,15.332,0,0,0-3.844,3.034,14.353,14.353,0,0,1-4.447,3.176c-.947.224-1.7.827-1.668,1.387s-.882,1.413-2.075,1.907c-1.19.564-2.1,1.418-2.068,2.048a2.439,2.439,0,0,1-1.3,1.795c-1.1.615-1.092.754-.118,1.021,1.685.524,2.452.2,2.387-.988a1.181,1.181,0,0,1,2.136-.788c.457.389,1.3-.094,2.458-1.289a19.362,19.362,0,0,1,8.622-4.941c1.12-.265,2.043-.908,2.016-1.4-.046-.84,7.513-6.1,7.563-5.188.042.769-5.323,6.289-6.356,6.533a4.749,4.749,0,0,0-1.922,1.517c-.815,1.043-1.328,1.235-2.222.808-.981-.407-1.318-.185-1.695.9a26.177,26.177,0,0,1-1.3,3.285c-.62,1.423-.5,1.962.575,2.558,1.173.716,1.685.524,4.457-1.406,4.361-3.156,5.408-3.12,2.7,0-1.641,1.876-1.95,2.587-1,2.363,1.462-.345,4.012-3.145,3.947-4.334-.027-.49.471-.961,1.073-1.1a7.732,7.732,0,0,0,2.925-2.321c1.723-1.967,1.719-2.037.038-2.49-2.564-.671-2.263-1.522.6-1.842,2.077-.277,2.915-.9,5.191-3.919,1.948-2.658,2.953-3.391,3.673-2.993s.412,1.178-1.244,2.774c-1.985,1.958-3.931,6.245-2.64,5.94.689-.162,12.838-13.947,12.8-14.577a35.513,35.513,0,0,1,3.3-5.032c2.2-2.858,3.192-3.8,2.82-2.65q-.554,1.832.643,2.188c.977.337.895.427-.153.391-1.31-.045-3.323,1.422-3.272,2.332.015.28,1.833.063,4.079-.325,5.008-.9,5.977-.7,4.066,1.025-1.746,1.546-4.493,2.336-4.546,1.357-.023-.42-.469-.6-.986-.477-.6.142-.74.813-.342,1.712.413,1.178.024,2.049-1.89,3.707-1.417,1.185-2.468,2.709-2.426,3.479a1.717,1.717,0,0,1-1.215,1.7c-1.721.406-4.6,3.637-4.515,5.107.038.7-1.259,2.495-2.837,3.93-1.661,1.526-2.718,2.911-2.441,3.2s.129.749-.373,1.151-.651.862-.374,1.151.129.75-.373,1.152a2.255,2.255,0,0,0-.226,2.251c.4.9.264,1.639-.338,1.781a.831.831,0,0,1-1-.826c-.031-.56-.4-.969-.746-.887-1.377.325-5.873,5.782-6.052,7.312a4.317,4.317,0,0,1-1.861,2.637c-2.528,1.589-5.522,5.841-5.019,7.069.4.968.574.928,1.018-.524.671-2.072,6.951-6.816,9.963-7.527a4.687,4.687,0,0,0,3.022-2.13,4.559,4.559,0,0,1,2.506-2.01c1.119-.264,1.695-.9,1.644-1.806-.057-1.049.526-1.542,2.162-1.928,2.5-.589,2.56.6.13,2.38a34.705,34.705,0,0,0-3.813,3.595c-2.143,2.278-2.135,2.417-.481,2.381a6.522,6.522,0,0,0,3.252-1.121c2.1-1.418,2.8-1.441,1.74-.057-.736.883-.627,1.283.444,1.739,2.318.941,1.733,2.993-1.081,4.154a6.431,6.431,0,0,1-3.8.614c-1.873-.763-5.045,3.389-4.235,5.466.507,1.3.358,1.759-.675,2a2.663,2.663,0,0,0-1.75,1.477c-.691,1.723-2,1.747-2.085.138-.053-.98-.679-1.258-1.884-.974-1.549.366-1.736.127-1.386-1.444.354-1.5.17-1.671-1.016-1.037-1.78.917-6.9,6.166-6.857,6.935.02.35,1.064.316,2.269.032,1.807-.427,2.05-.767,1.559-1.786s-.248-1.359,1.129-1.684c1.979-.467,2.362.151.964,1.687-.659.722-.624,1.352.118,2.169,1.676,1.944,1.272,2.536-2.317,3.879-2.9,1.111-3.4,1.512-2.912,2.531.881,1.777-.119,4.21-1.841,4.617a4.962,4.962,0,0,0-2.125,1,6.738,6.738,0,0,1-2.9,1.251,4.45,4.45,0,0,0-3.1,2.291c-.714,1.3-1.219,1.634-1.938,1.237-1.258-.695-3.626.643-3.546,2.113.049.91.311.919,1.224.066s1.343-.955,1.8-.5c.371.409-.746,2.3-2.638,4.38-3.776,4.294-4.775,8.357-2.3,8.978a1.5,1.5,0,0,1,1.151,1.926c-.357,1.431-.272,1.411,1.815-.287,1.256-.934,2.071-1.977,1.8-2.2-.187-.239.538-1.332,1.615-2.366,1.159-1.124,2.038-2.608,2-3.237-.013-1.84,1.71-3.807,3.944-4.4,1.975-.537,2.534.111,1.112,1.226-.583.492-.646.932-.013,1.35.454.319.811,2.077.821,3.847-.1,2.93.089,3.239,1.451,2.634a2.512,2.512,0,0,0,1.544-2.066c-.046-.84.529-1.472,1.648-1.736.947-.223,1.695-.9,1.66-1.526-.042-.77-.57-.858-1.756-.223-2.884,1.461-2.149-1.052.731-2.583,1.613-.805,2.388-.988,2.152-.508-.321.5,1.064.316,3.641-.364,3.432-1.022,4.445-1.616,6.153-3.863,3.424-4.352,8.123-9.29,9.156-9.534q1.033-.243.666,2.608c-.27,3.041.6,4.678,2.111,3.542.588-.422.95-.154.993.617s-.44,1.521-.96,1.573c-3.791.824-5.059,1.549-5.746,3.341a3.738,3.738,0,0,1-2.142,2.278c-1.119.265-1.193.495-.287,1.131,1.63,1.1-1.083,2.525-3.9,1.984-2.03-.443-2.033-.513-.725-2.1.736-.882,1.129-1.684.945-1.853-.266-.079-3.732,3.5-7.844,8.019-7.061,7.976-7.144,8.066-1.678,2.806,5.13-5.039,5.8-5.482,8.671-5.662,2.428-.219,2.875-.04,2.142.913a3.777,3.777,0,0,1-2.552,1.169c-1.655.036-2.133.858-1.689,2.6.105.329-.321.5-1.022.454a4.083,4.083,0,0,0-2.394.849c-1,.8-.995.943.068,1.26,1.326.325.65,2.327-.675,2-.884-.216-2.883,3.091-2.074,3.538.27.149.512-.192.482-.751-.041-.77.13-.811.685-.232.824.726,3.638-.434,3.58-1.483-.019-.35.31-.711.826-.833,1.033-.244,6.529-6.574,6.561-7.574-.065-1.19,5.6-6,6.249-5.3.364.269.068,1.26-.668,2.143-.9,1.063-1.042,1.664-.323,2.061,1.348.745.228,2.569-1.113,1.964-1.426-.584-4.826,2.628-4.722,4.518.114,2.1,2.423,1.271,4.957-1.808,2.374-2.83,3.478-3.373,5.095-2.479.719.4.484.878-1.2,2.054a15.076,15.076,0,0,1-3.307,1.7c-1.55.366-1.458,2.046.148,2.73.981.407,1.314.115,1.664-1.456.436-1.591.851-1.973,2.506-2.009a4.573,4.573,0,0,0,3.632-2.133,16.4,16.4,0,0,1,2.815-2.721c.85-.413-.068-1.26-2.676-2.7-3.677-1.9-3.861-2.066-2.362-3.342a8.434,8.434,0,0,1,2.094-1.558,5.847,5.847,0,0,0,1.341-2.585l.824-2.463-2.228,2.3c-1.241,1.214-2.56,2.589-2.8,2.93a2.893,2.893,0,0,1-1.96.817c-1.213.144-.986-.477,1.231-2.985a14.393,14.393,0,0,0,2.668-3.82c-.022-.419,1.249-1.075,2.876-1.6,2.4-.779,2.837-.741,2.374.361-.911,2.484.563,2.348,3.2-.4,3.055-3.131,5.618-4.09,5.724-2.131.081,1.47-1.236,2.915-3.708,3.924-1.28.515-1.594,1.156-1.353,2.375.148,1.1-.473,2.522-1.792,3.9-3.133,3.292-2.541,4.569.791,1.727,1.409-1.325,3.272-2.332,3.973-2.284,1.134.016,1.13-.054.13-.811-1.086-.735-.937-1.2,1.134-3.174a11.74,11.74,0,0,1,3.43-2.652c.516-.122.99-1.013.937-1.993a1.742,1.742,0,0,1,1.54-2.136,4.16,4.16,0,0,0,2.2-1.228,2.7,2.7,0,0,1,1.683-1.106c.86-.2,1.083.666.906,3.827-.246,5.09-1.783,8.856-4.081,9.895-2.21,1.018-2.155.438.058-2.14,2.789-3.21.155-1.95-2.888,1.391-1.9,2.007-2.676,3.68-2.677,5.24.013,1.84-1.526,3.976-9.25,12.6-5.593,6.141-9.342,10.924-9.378,11.855a3.459,3.459,0,0,1-1.435,2.465c-.756.533-1.144,1.4-.859,1.833.671,1.118-16.682,20.172-22.037,24.271-1.339,1.024-2.322,2.178-2.3,2.668.05.91-5.326,6.219-7.7,7.488a6.269,6.269,0,0,0-2.2,2.788,5.485,5.485,0,0,1-3.152,2.941,6.415,6.415,0,0,0-3.395,3.283,4.687,4.687,0,0,1-2.213,2.578,3.073,3.073,0,0,0-1.618,2.3,10.927,10.927,0,0,1-1.968,3.867c-1.391,1.675-3.1,5.482-3.032,6.742a6.444,6.444,0,0,0,2.72,1.91,7.51,7.51,0,0,1,3.226,3.208,1.851,1.851,0,0,0,2.259,1.452c3.357-.793,8.351,10.859,5.9,13.918-.733.953-.635,1.142.742.817a7.088,7.088,0,0,0,2.791-1.58c2.4-2.338-3,4.111-10.478,12.469-5.178,5.759-7.45,8.848-7.064,9.536.391.759-.107,1.23-1.649,1.736a10.009,10.009,0,0,0-3.55,2.043c-4.883,4.768-7.631,7.118-8.664,7.362-.86.2-.85.413-.04.86.54.3,3.235.158,5.992-.422,2.762-.51,5.108-.639,5.3-.259.581,1.067,1.935.323,1.863-1.007.029-1.07.119-1.021,1.044-.034a14.034,14.034,0,0,0,2.649,2.21,3.344,3.344,0,0,1,1.479,3.125c-.212,2.531,2.049,5.613,3.943,5.166,1.032-.244,1.13-.054.39.759-1.316,1.445-1.184,2.264.365,1.9.689-.163,1.306-.025,1.329.4a.965.965,0,0,1-.736.882c-.43.1-.984,1.154-1.263,2.425a9.738,9.738,0,0,1-2.563,4.149c-2.741,2.49-1.564,3.276,2.274,1.732,2.727-1.139,3.852-2.894,1.277-2.145-1.455.485-1.447.626.042-2.42.62-1.422,1.771-2.687,2.46-2.849a1.767,1.767,0,0,0,1.118-1.894,5.277,5.277,0,0,1,1.568-3.206,4.7,4.7,0,0,0,1.584-2.926c-.053-.98-.5-1.158-1.775-.573-.935.433-1.721.406-1.744-.014-.049-.909-.049-.909,4.931-2.3a20.156,20.156,0,0,0,3.846-1.4c.078-.16,1.222-1.564,2.534-3.08,1.885-2.217,2.191-3,1.373-3.585q-2.04-1.432,2.479-2.5c1.721-.406,2.39-.919,2.426-1.849-.034-.63,1.263-2.425,2.837-3.93,3.563-3.393,7.26-4.337,10.575-2.709,1.974,1.023,2.669,1,4.7-.047a8.025,8.025,0,0,1,3.866-1.055,5.453,5.453,0,0,0,2.089-.068c1.448-.625-.551,2.682-3.284,5.313-2.894,2.88-2.976,2.971-1.351,4.005a2.136,2.136,0,0,1,1.193,2.7c-.369,1.221-.085,1.651,1.308,1.606,2.264-.039,2.314.871.308,4.038a9.9,9.9,0,0,0-1.4,6.215c.183,3.36-.693,6.473-2.975,10.982a2.375,2.375,0,0,0,.321,2.688c.84,1.007.862,1.427.1,1.82a2.036,2.036,0,0,0-.859,1.833c.073,1.33.358,1.759,3.165,5.279,1.117,1.3,1.248,2.116.59,2.838s-1.717.477-3.878-.786c-3.877-2.345-6.8-1.515-6.956,1.926-.066,2,.22,2.429,2.316,2.5s2.381.5,2.616,3.21c.247,2.92.086,3.17-1.572,3.137-3.141-.039-3.481.112-3.738,1.8-.178,1.531-2.9,4.441-4.445,4.806-.43.1-.734-.678-.792-1.727-.08-1.47-.349-1.619-1.09-.806s-1.346.886-2.6.26-1.771-.5-2.851.46c-1.742,1.616-1.521,2.486.459,2.019,3.528-.832,3.326,1.838-.366,4.481a8.141,8.141,0,0,1-3.577,1.553c-1.048-.036-1.126.124-.138.671A2.739,2.739,0,0,1-394.5,409a4.761,4.761,0,0,0,1.882,2.533c1.727,1.293,1.746,1.643.7,3.308-2.074,3.538-2.162,5.118-.246,5.091,1.741-.057,2.108.282,3.152,3.438.616,1.7.788,1.658,5.416.211,4.284-1.366,4.805-1.418,5.312-.12a2.713,2.713,0,0,0,2.6,1.3c1.741-.056,2.116.422,2.23,2.522a9.115,9.115,0,0,1-1.066,4.434,4.336,4.336,0,0,0-.557,4.172c.755,2.657,1.37,2.725,3.414.257.819-.973,1.829-1.637,2.184-1.508.442.109.92,2.477,1.073,5.277.252,4.619.454,5.138,2.11,5.1,1.481,0,1.767.434,1.65,3.084l-.094,3.071-6.013,1.632c-7.735,2.039-7.989,2.169-8.513,5.342-.331,1.921-.735,2.512-1.364,2.164-1.438-.795-2.373-.361-1.792.707a.69.69,0,0,1-.374,1.152c-.516.122-.966-.127-.988-.547s-.719-.4-1.651.106c-1.022.454-1.807.427-2.19-.192a.907.907,0,0,0-1.416-.375,5.822,5.822,0,0,1-3.395.093c-2.021-.3-2.8-.19-3.2.542-.321.5-.119,1.021.406,1.039,1.658.034,1.308,1.606-.756,3.722-1.978,2.1-4.267,3.276-2.458,1.29,1.152-1.264,1.194-3.685.161-3.441a9.2,9.2,0,0,0-2.569,2.449c-1.716,2.107-1.7,2.317-.285,2.761.981.407,1.176.786.593,1.278a1.4,1.4,0,0,1-1.759-.293,1.352,1.352,0,0,0-1.846-.274c-.751.6-.733.953.084,1.54.907.636.68,1.257-1.209,3.4a12.429,12.429,0,0,1-3.07,2.851c-2.324.548,1.508-7.516,5.475-11.5a6.208,6.208,0,0,0,1.778-2.547c-.019-.35-1.275.585-2.674,2.12a21.421,21.421,0,0,1-3.742,3.293c-2.036,1.048-10.163,10.268-10.1,11.458.039.7-2.163,3.487-4.889,6.258-2.729,2.7-4.938,5.348-4.916,5.768s-.886,1.343-2.067,2.048-2.083,1.768-2.048,2.4a1.19,1.19,0,0,1-.717,1.233,14.624,14.624,0,0,0-3.347,2.562c-2.9,2.81-6.872,3.465-6.995,1.225-.091-1.679-1.124-1.435-3.008.781-1.477,1.7-1.387,1.745.592,1.278,2.156-.438,5.159.271,5.212,1.251a20.165,20.165,0,0,1-2.9,4.3c-1.543,2.066-2.5,3.71-1.984,3.587a4.754,4.754,0,0,0,1.911-1.726c1.858-2.707,3.915-3.335,4.621-1.588.714,1.887.8,1.868,3.152.248,1.261-.864,2.035-1.047,2.938-.481,1.076.527.679,1.258-2.45,4.62-2.06,2.187-3.682,4.414-3.656,4.9a1.2,1.2,0,0,1-.893,1.2,1.076,1.076,0,0,0-.534,1.4c.214.729-1.076,2.664-3.217,4.942-3.959,4.124-4.1,4.725-1.6,5.906s2.293,2.082-.4,2.151c-1.655.036-2.167.229-1.7.757.828.8-2.4,5.6-4.032,5.985-1.205.284-1.5,1.205-1.146,2.964a3,3,0,0,1-.753,2.163c-1.222,1.565-.169,3.3,1.709,2.574.94-.364,1.735-1.756,2.227-3.928.566-2.4,1.205-3.474,2.242-3.648s1.44-.766,1.379-1.885c-.087-1.609,1.22-3.194,2.21-2.648a5.743,5.743,0,0,1,.852,2.847c.253,1.429.209,2.219-.077,1.79-.956-1.546-2.107-.282-1.731,1.827.279,1.919.728,2.167,2.536,1.741,2.234-.6,7.616-4.208,7.566-5.117s-1.067-.387-2.638,1.189c-.826.833-1.93,1.377-2.375,1.2-1.5-.355-1.207-1.346.574-2.262.935-.434,1.5-1.206,1.218-1.634-.293-.57.534-1.4,2.228-2.3,3.135-1.661,4.015-1.515,2.55.391-.815,1.043-.8,1.253.4.968.775-.183,1.358-.675,1.335-1.094-.019-.35,1.148-1.335,2.506-2.01,1.441-.765,2.525-1.659,2.506-2.009s.89-1.273,2.072-1.977,2-1.607,1.81-1.987.107-1.23.769-1.883a6.589,6.589,0,0,0,.916-3.974c-.138-2.519-.325-2.758-1.851-1.973-1.7.826-2.261.108-2.065-2.7.056-.58.2-2.811.339-4.972a21.843,21.843,0,0,1,.549-4.312c1.152-1.264,2.041.652,2.39,5.461.34,3.039.908,5.457,1.526,5.594s.863,1.427.614,3.258c-.218,2.391-.105,2.86.721,2.028,1.163-1.055,2.617-9.55,2.392-13.679-.111-2.03.121-2.58,1.423-2.676,1.127-.124,1.509.495,1.436,2.355.021,1.98.118,2.169.753,1.027a4.243,4.243,0,0,1,2-1.678,1.54,1.54,0,0,0,1.229-1.424c-.031-.561.385-.941.826-.833.528.088.926.986.979,1.966.049.91.522,1.579.952,1.477.517-.122.846-.483.826-.833a10.258,10.258,0,0,1,1.936-2.867c1.642-1.876,2.4-2.269,4.407-2.316,2.088-.068,2.545.32,2.921,2.429.509,2.929,1.822,3.044,2.456.271.35-1.571.687-1.792,1.668-1.386.891.357,1,.826.44,1.669-.654.792-.545,1.192.6,1.417,1.763.364,3.12,6.069,1.7,7.115-1.84,1.427-.765,1.953,2.861,1.31,4.143-.765,4.638.323.8,1.867a4.958,4.958,0,0,1-4.8-.073c-2.963-1.57-3.471-1.308-2.642,1.12l.721,2.028-6.04,1.142c-5.09.988-6.2,1.392-6.918,2.625-1.042,1.663-3.092,2.431-3.677,1.293-.2-.379-1.067-.386-1.827.076-.845.483-1.159,1.124-.862,1.763.378.549.057,1.05-.717,1.233a2.368,2.368,0,0,0-1.533,2.275,3.014,3.014,0,0,1-1.857,2.707,7,7,0,0,0-2.678,2.05c-.975,1.293-1.151,1.264-2.421.358-.731-.607-1.352-.815-1.336-.535.019.35-.5.331-1.217.074-.891-.356-1.411-.3-1.811.357-.239.41.124.68.813.517,1.894-.446,1.771.5-.241,1.971-1.085.894-1.773,1.057-2.23.668-.371-.409-1.216.075-2.375,1.2a24.155,24.155,0,0,1-3.837,3.174l-2.016,1.4,2.013.163c1.138.086,1.85.343,1.6.614a2.946,2.946,0,0,1-2.261.108c-2.111-.352-3.551.413-3.468,1.953.035.63,1,.756,2.894.31l2.758-.581-2.533,1.519a20.845,20.845,0,0,0-4.816,4.4c-2.123,2.627-2.111,2.838-.775,3.372,1.423.515,1.426.585-.088,1.58a5.5,5.5,0,0,1-2.645,1.05c-.524-.018-1.444.695-1.914,1.657-.474.891-1.3,1.724-1.907,1.8-1.561.156-5.185,2.429-6.407,3.994-1.387,1.745-2.936,2.11-4.476,1.056-1.086-.735-1.258-.695-1.785.847a4.893,4.893,0,0,1-2.307,2.459c-.935.433-1.675,1.246-1.649,1.736.069,1.259-3.2,5.291-4.575,5.616a4.618,4.618,0,0,0-2.131,2.488,6.04,6.04,0,0,1-2.984,2.831c-2.308.829-2.5,2.149-.175,1.6a3.47,3.47,0,0,0,2.1-1.558,2.662,2.662,0,0,1,1.75-1.476c.688-.163,1.272-.655,1.253-1.005-.022-.419.909-.923,2.113-1.208s2.164-.3,2.179-.017c.031.56-6,6.592-6.779,6.774-.344.081-.572.7-.365,1.292.124.68-.017,1.28-.362,1.362-1.549.365-7.35,7.476-6.944,8.515.293.57-.167,1.742-.994,2.574a3.727,3.727,0,0,0-.928,3.764c.374,2.038.141,2.589-1.721,3.6-2.623,1.47-2.648,2.61-.05,2.28,1.732-.2,1.928.184,2.2,3.523.145,2.659.734,3.867,1.715,4.273,3.554,1.218.354,4.879-4.265,4.906-1.482,0-2.687.28-2.668.63a7.11,7.11,0,0,1-.425,1.8c-.306.781.155,1.239,1.117,1.3,4.986.311,4.6,2.743-.482,3.942l-3.529.833.382-2.571c.316-2.2.125-2.511-1.338-2.165-1.807.427-1.938,1.237-.647,4.123.7,1.607.478,2.368-1.073,4.294-1.469,1.835-2.4,2.408-4.309,2.506-2.606.189-6.711,3.215-4.612,3.357,1.841.2,1.21,1.416-1.027,1.944a8.274,8.274,0,0,0-3.632,2.133c-.823.9-1.914,1.657-2.528,1.589-.525-.018-1.613.805-2.345,1.759-.818.973-1.739,1.687-2.091,1.627-.355-.129-1.025.384-1.6,1.086a5.01,5.01,0,0,1-1.664,1.456A17.729,17.729,0,0,0-517,659.233a58.848,58.848,0,0,1-5.74,5.041c-1.589,1.226-2.9,2.811-3.02,3.761-.174,1.6-2.788,3.21-5.652,3.461-2.166.228-5.239,4.639-3.8,5.433a2.171,2.171,0,0,1,1.129,1.507c.068,1.259-3.812,2.034-5.171,1.078-1.634-1.174-2.4-.781-3.218,1.752a9.313,9.313,0,0,1-3.271,3.962c-3.2,2.1-3.967,3.985-1.389,3.3,1.46-.415,1.826-.077,1.907,1.393,0,1.631.451,1.878,2,1.513,2.152-.508,2.534.111,1.054,1.736-.493.542-.631,1.212-.272,1.411.45.248,1.283-.445,1.926-1.447,1.771-2.687,3.5-2.883,3.551-.413,0,1.631-.483,2.312-2.013,3.028a5.306,5.306,0,0,1-3.29.422c-1.517-.635-2.4.778-1.681,2.736.3.779.32,1.059.035.63a2.412,2.412,0,0,0-2.111-.352,3.842,3.842,0,0,1-2.929-.94c-1.285-1.185-1.371-1.165-2.946.341a11.2,11.2,0,0,1-4.75,2.4c-2.238.528-3.17,1.032-3.128,1.8.034.63-.717,1.233-1.836,1.5-2.065.488-8.944,8.633-8.844,10.453.027.49-.882,1.413-2.067,2.047s-2.091,1.628-2.056,2.258c.084,1.539,3.253.508,3.685-1.154.279-1.271,1.042-1.664,5.095-2.479,3.881-.774,5.156-1.359,6.719-3.074a11.222,11.222,0,0,1,2.584-2.17c1.377-.325.595,2.908-1.066,4.434-1.989,1.887-1.307,3.215,1.275,2.605.86-.2,1.662.1,1.693.663.084,1.54-4.059,2.3-5.868,1.1-2.348-1.5-5.129-1.341-5.558.391-.294.991-1.469,1.835-3.6,2.624-2.99,1.13-6.337,3.693-6.276,4.812.065,1.19,3,.639,4.4-.756,1.488-1.485,1.574-1.506,1.651-.105.046.84-.824,2.462-1.976,3.727a6.381,6.381,0,0,0-1.938,4.427c.061,1.12-.23,2.181-.746,2.3-.43.1-.879-.147-.9-.5-.023-.42-.641-.558-1.329-.4a1.36,1.36,0,0,1-1.552-1.265,17.054,17.054,0,0,0-.485-2.508c-.117-.54-.275-1.849-.415-2.809-.182-1.729-.357-1.759-4.126-.515s-3.944,1.214-3.5-.307c.526-1.543.35-1.571-2.021-.3-3.221,1.682-3.272,2.333-.117,2.651,1.314.115,1.584.265.629.348-2.26.108-4.525,3.336-2.425,3.479s1.679,2.014-.558,2.542a4.1,4.1,0,0,0-2.917,2.461c-1.247,2.7-3.829,3.314-3.271.772.432-1.662.163-1.811-1.731-1.364-2.5.589-3.609,2.553-2.07,3.608.724.467.75.958.248,1.359-.415.382-1.388.115-2.119-.492a2.265,2.265,0,0,0-2.722-.35c-1.859,1.077-1.588,2.856.5,2.788.958-.014,1.751.154,1.767.434a51.158,51.158,0,0,1-5.1,5.669c-4.127,4.234-5.384,5.17-6.7,4.914-1.764-.364-2.062.558-.444,1.452.808.447.648.7-.729,1.022a2.888,2.888,0,0,0-2.162,1.929,2.887,2.887,0,0,1-2.161,1.928c-1.635.386-5.117,3.688-5.052,4.878.015.281.719.4,1.58.194a3.85,3.85,0,0,1,4.711,3.283c.088,1.61-.248,1.831-3.946,2.775-2.754.65-4.753.767-5.828.241-1.345-.675-1.6-.615-1.212.144.4.9-.926,2.2-4.977,4.648-2.36,1.479-3.129,3.362-1.679,4.366.547.438.847,1.148.607,1.558-.321.5.316.989,1.372,1.165,2.115.422,3.544-.553,1.6-1.086-1.064-.316-1.071-.456.22-.76,1.377-.325,2.111.352,2.848,2.659.015.28-1.171.914-2.63,1.329-1.542.506-2.848.531-2.867.181-.045-.84-3.234-.158-3.794.754-.639,1.072-15.723,4.208-17.239,3.573-.9-.427-1.412-.305-1.812.356a1.116,1.116,0,0,1-1.631.455c-.626-.277-1.408-.234-1.651.106-1.237,1.285-.346,1.642,2.5,1.181l3.11-.521L-660.451,799c-2.044,2.468-3.659,4.834-3.636,5.253a1.11,1.11,0,0,1-.9.994,22.2,22.2,0,0,0-4.428,3.526c-2.326,2.109-3.84,3.1-4.379,2.806-.629-.347-1.886.587-3.692,2.643-1.477,1.7-2.523,3.289-2.167,3.418.36.2,1.358-.675,2.334-1.968s1.97-2.237,2.154-2.068c.269.149-.28,1.271-1.255,2.565a8.637,8.637,0,0,0-1.64,3.506c.049.91-.451,1.312-1.586,1.3a3.606,3.606,0,0,0-2.936,2.111c-1.207,1.845-5.309,4.94-6.028,4.542-.54-.3,4.063-5.424,5.671-6.3a2.547,2.547,0,0,0,1.375-1.955c-.057-1.05-.315-.989-1.964.747-1.484,1.555-2.165,1.859-3.064,1.362-.895-.427-1.321-.256-2.3,1.038a3.031,3.031,0,0,0-.544,2.822c.4.9.069,1.26-1.566,1.646-1.722.406-2.133.858-1.888,2.146.155,1.239.428,1.459,1.258.7.58-.562,1.256-.935,1.526-.786.9.567-1.171,4.1-3.594,6.024-1.922,1.516-2.4,2.338-1.992,3.447.394.829.264,1.639-.08,1.72-.427.172-2.485.8-4.46,1.337-3.6,1.064-3.693,1.013-3.269-.788l.425-1.8-1.817,1.847c-1.076,1.034-1.535,2.205-1.243,2.775.769,1.307-.695,1.652-1.807.427a2.187,2.187,0,0,0-2.453-.2c-1.53.716-1.53.716.3.779,1.748.084,2.958,1.5,3.1,4.018.049.91-.619,1.422-2.083,1.768-1.549.365-2.171.158-2.228-.892s-.679-1.257-2.227-.892c-1.463.346-2.133.858-2.083,1.768a4.316,4.316,0,0,1-.914,2.414c-.9.993-.643,1,1.318.185,1.7-.757,2.488-.73,2.875-.041.854,1.286-1.691,4.156-4.431,5.086a3.373,3.373,0,0,0-2.647,2.61,3.476,3.476,0,0,1-2.3,2.528c-1.452.555-1.855,1.147-1.76,2.9a7.218,7.218,0,0,1-1.014,3.785c-.971,1.363-1.484,1.555-3.161,1.171l-2.026-.373,1.657,1.594,1.656,1.595-2,.047a20.934,20.934,0,0,0-4.158.485c-1.377.325-1.823.147-1.521-.7.46-1.172-.506-1.3-1.58-.193-.818.973-6.673,3.914-8.738,4.4s-3.415-.257-2.075-1.283c1.589-1.226.773-1.813-2.438-1.552-1.823.147-3.575-.006-3.942-.346a.926.926,0,0,0-1.307.025c-.325.431-.13.81.488.948a2.761,2.761,0,0,1,1.328,1.956c.241,1.219-.163,1.811-1.779,2.546-1.534.646-1.777.987-.979,1.224a2.379,2.379,0,0,0,2.14-.718c1.234-1.354,3.221-1.681,5.356-.909,1.688.594,1.692.663-.182,1.461-1.785.846-2.624,3.029-.989,2.643.43-.1.73.607.694,1.538,0,1.63-.085,1.65-1.515,1-.9-.427-1.634-1.174-1.656-1.595-.027-.49-.671-1.117-1.387-1.445-1.161-.506-1.846-.274-3.7.943-1.264.795-3.037,1.851-3.968,2.355-1.609.876-1.609.876.288.5,1.812-.356,2.92.8,1.113,1.226-1.463.346-.878,1.483,1.185,2.556a6.29,6.29,0,0,0,3.605.567c.947-.224,1.482,0,1.251.555-.3.991-.979,1.223-7.222,1.846-3.723.454-3.723.454-3.6,2.694.1,1.889-.144,2.16-1.626,2.156-1.4-.024-1.729.266-1.668,1.387a5.508,5.508,0,0,1-1.482,3.185c-.987,1.084-1.36,2.235-1.056,3.014.713,1.887-2.317,3.878-4.792,3.257-1.591-.4-2.018-.232-3.24,1.332a10.42,10.42,0,0,1-2.992,2.691c-1.272.654-1.342.955-.436,1.592,1.36.955.563,2.347-1.846,2.916a10.162,10.162,0,0,0-3.146,1.452c-1.088.824-.991,1.014.526,1.649,1.783.713,1.783.713-.134.74-2.092,0-5.372,2.19-5.3,3.52.026.49-.725,1.093-1.672,1.316s-1.694.9-1.664,1.456-.717,1.233-1.663,1.456-1.7.756-1.679,1.176-.569.772-1.273.654c-.961-.056-1.287.375-1.222,1.565a1.731,1.731,0,0,0,1.23,1.766c.789.1.8.307-.018,1.28-.9,1.063-1.158,1.124-1.9.377a10.7,10.7,0,0,1-1.21-1.416c-.577-1-2.309.828-2.224,2.368.061,1.12-.358,1.431-1.75,1.476-1.568.016-1.815.287-1.375,1.956.436,1.6.2,2.009-1.274,2.215-2.421.358-2.885,3.02-.449,2.941s2.3.661-.367,2.851a18.563,18.563,0,0,0-3.156,2.872A9.751,9.751,0,0,1-815.879,954l-2.555,1.1,1.551-1.926a7.828,7.828,0,0,1,3.19-2.242c1.979-.467,1.919-1.587-.262-3.2l-1.817-1.344-.17,1.67c-.111,1.161-.855,1.9-2.647,2.61-1.965.747-2.454,1.359-2.624,3.029-.092,1.511.283,1.989,1.589,1.965.872.006,1.677.383,1.7.874.046.84-3.024,3.691-5.807,5.411-.845.483-.49.612,1.146.226,2.672-.56,3.073.409.807,2.007-2.189,1.438-2.619,1.54-2.687.28a.933.933,0,0,0-1.263-.765c-1.721.406-4.782,5.027-4.353,6.486.222.868-.275,1.341-1.824,1.706-3.012.711-4.258,1.856-4.147,3.885.073,1.329-.338,1.781-2.06,2.187a9.474,9.474,0,0,0-4.286,2.926c-1.724,1.966-1.94,2.8-1.391,4.865.646,2.258.485,2.508-1.733,3.387a6.118,6.118,0,0,1-3.548.482c-1.606-.684-4.743,2.538-3.473,3.443.723.467.4.9-.964,1.5-1.7.757-5.5,4.7-15.512,16.068-4.512,5.176-10.977,11.31-13.09,12.517-1.1.615-1.671,1.317-1.391,1.676a1.338,1.338,0,0,1-.005,1.49c-.4.661-.744.743-1.21.215-.551-.509-1.568.015-3.811,2.034-2.662,2.329-2.9,2.74-1.5,2.835a2.835,2.835,0,0,0,2.14-.717c.238-.411.767-.323,1.059.246.379.549.308.849-.22.76-1.947-.532-.616,4.683,1.647,6.2a5.512,5.512,0,0,1,2.362,3.342c.08,1.47-.253,1.76-2.58,2.239-1.467.275-3.219.122-3.859-.436a3.809,3.809,0,0,0-2.905-.519,2.276,2.276,0,0,1-2.2-.4c-.292-.569-.981-.407-3.352.862-4.489,2.407-5.792,2.5-5.9.472-.054-.98.335-1.851.765-1.953a1.013,1.013,0,0,0,.815-1.043c-.034-.63-.292-.569-1.032.244a6.544,6.544,0,0,1-2.966,1.551,12.82,12.82,0,0,0-3.655,1.714,3.431,3.431,0,0,1-3.529.833c-1.329-.394-2.108-.282-2.766.441-1.069,1.174-3.131,1.731-3.177.891a5.038,5.038,0,0,1,1.2-2.054c1.9-2.007,1.536-2.206-2.595-1.231-4.045.955-5.577.04-4.51-2.763.224-.691.025-1.14-.491-1.019s-.932.5-.908.923c.019.35-.651.862-1.426,1.046a10.221,10.221,0,0,0-3.362,2.281c-1.4,1.535-2.079,1.838-3.06,1.432a3.909,3.909,0,0,0-2.687.279c-1.186.634-1.37.465-1.02-1.106.354-1.5-.114-2.1-2.7-3.12-3.3-1.347-4.061-2.515-2.2-3.522.846-.483.834-.693-.155-1.239-.9-.567-1.071-.456-1.017.524.091,1.679-.953,1.714-2.961.06-1.192-1.066-1.4-1.724-.743-2.447a3.4,3.4,0,0,0,.843-2.113c-.13-2.38,1.55-6.745,2.668-7.01.689-.162,1.01-.663.721-1.163s.35-1.571,1.349-2.444c1.088-.824,1.562-1.716,1.2-1.914a.8.8,0,0,0-1.1.544,2.445,2.445,0,0,1-1.5,1.275,3.855,3.855,0,0,0-2.072,1.977c-.56.913-1.481,1.626-2.094,1.558a3.145,3.145,0,0,0-2.113,1.208,4.937,4.937,0,0,1-2.27,1.528,2.616,2.616,0,0,0-1.579,1.436c-.616,1.492-1.906,1.8-2.582.609-.566-.788,2.85-5.28,4.227-5.606.258-.06,3.418-2.862,7.068-6.276,3.735-3.433,7.067-6.276,7.5-6.377.517-.122,2.94-2.041,5.434-4.26,4.413-3.806,5.574-6.491,2.648-5.8-2.242.458-3.5-.238-3.6-2.057-.057-1.049-.607-1.558-1.469-1.354-1.291.3-1.3.094-.013-1.84,1.282-2.075,1.273-2.215-.524-3.208l-1.888-1.043.077,1.4c.085,1.54-3.332,6.033-4.881,6.4-1.205.284-1.207-1.346.027-2.7.74-.813.627-1.283-.545-2-.813-.517-1.554-1.334-1.578-1.754s-.66-.907-1.539-1.054c-.794-.167-1.266-.835-.952-1.477.227-.621-.8-1.937-2.253-2.941a11.255,11.255,0,0,1-2.65-2.211c-.053-.979,3.432-4.212,6.966-6.535,3.707-2.364,9.221-8.344,10.289-11.148.224-.69,3.162-4.361,6.534-8.064,4.022-4.565,5.805-7.042,5.419-7.73-.383-.618.581-2.122,2.732-4.26,1.817-1.847,3.281-3.752,3.255-4.242s.867-1.694,2.03-2.748l2.075-1.908-2.041-.652c-1.6-.614-1.61-.754-.3-.709a5.244,5.244,0,0,0,3.538-2.253c1.147-1.335,2.408-2.2,3.026-2.061.622.208.782-.043.4-.661-.675-1.188,5.957-9.062,8.023-9.55a1.7,1.7,0,0,0,1.218-1.634,2.72,2.72,0,0,1,.761-2.022.523.523,0,0,1,.9.427c.092,1.679,1.535.984,1.953-.958a17.989,17.989,0,0,0-.1-5.08c-.07-.472-.121-.9-.152-1.276h-33.529c-.116.81-.663,1.23-1.874,1.516a5.29,5.29,0,0,0-2.853,2.021,3.1,3.1,0,0,1-2.786,1.651,5.773,5.773,0,0,0-3.155,1.311c-.908.923-4.163,1.975-11.393,3.682-9.984,2.356-10.07,2.377-12.853.907-1.61-.754-2.891-1.869-2.914-2.29-.027-.491-1-.687-2.2-.4-1.377.326-2.174.088-2.209-.542s-.918-.847-2.295-.522c-1.894.447-2.164.3-1.814-1.273.571-2.333-.5-2.719-1.868-.694-1.289,1.935-2.909,2.6-2.3.9.314-.642.029-1.07-.573-.928-.688.162-.981-.407-.784-1.588a2.23,2.23,0,0,0-1.275-2.606,4.049,4.049,0,0,1-1.445-1.143H-988.6l.025.019c1.54,1.054.4,2.6-1.625,2.156-1.849-.343-2.84.67-1.978,2.1.387.688-.111,1.161-1.476,1.7-1.542.506-1.945,1.1-1.854,2.777a8.3,8.3,0,0,1-1.256,4.125c-.725,1.093-1.094,2.314-.9,2.693.285.429-.534,1.4-1.715,2.106-1.433.905-2.079,1.838-2.011,3.1.107,1.96,1.933,1.883,3.48-.113,1.873-2.427,2.478-.94.717,1.958-2.006,3.167-3.873,4.1-3.988,2-.057-1.049-.679-1.257-2.228-.892-1.205.284-2.171.157-2.19-.192-.023-.42-.868.063-1.856,1.147a9.092,9.092,0,0,1-2.506,2.01c-.344.081-.4.591-.114,1.09.378.549.057,1.05-.8,1.253-.775.183-1.4-.024-1.423-.515-.023-.419-.289-.5-.536-.228-.823.9,1.518,2.264,3.24,1.859,1.377-.326,1.474-.136.7,1.607a4.614,4.614,0,0,1-2.4,2.338c-1.807.427-2.021-.3-.624-1.838.741-.813.385-.941-1.853-.413-2.582.609-2.832.811-2.239,2.088a12.736,12.736,0,0,1,.688,3.028c.053.98.6,1.489,1.464,1.285,1.98-.467,1.039,1.456-1.1,2.244-1.365.536-1.9.307-1.958-.742a1.771,1.771,0,0,0-1.821-1.414c-2.268-.031-2.333-1.221-.182-1.729a4.157,4.157,0,0,0,2.2-1.229c.235-.481-.211-.659-1.157-.436-1.463.346-10.088,10.038-10.022,11.227a35.855,35.855,0,0,1-3.3,5.1c-2.5,3.639-3.046,4.9-2.24,5.278.809.447,1.318.185,2.211-1.018,1.046-1.594,1.132-1.614,1.228.136.077,1.4-.571,2.332-2.594,3.589a17.207,17.207,0,0,1-4.5,2.2,4.853,4.853,0,0,0-2.917,2.461,4.712,4.712,0,0,1-1.8,2.2c-.345.081-.654.792-.612,1.561a1.717,1.717,0,0,1-1.215,1.7c-.689.163-1.275.585-1.253,1,.049.91,1.513.565,2.152-.508.556-.982,2.1-1.417,2.144-.648.019.35-.976,1.294-2.326,2.109-4.036,2.725-4.36,3.156-3.165,4.292.835.937.694,1.537-.948,3.413l-1.969,2.237,1.977,1.094,1.977,1.093-.088-1.61c-.1-1.75,1.372-2.025,2.93-.62.648.7.6,1.347-.136,2.3-1.222,1.564-3.964,2.425-4.8,1.557-.281-.358-1.588-.334-2.882-.1-1.98.467-2.074.347-.719-.4,1.522-.855,1.518-.925.119-1.021a11.1,11.1,0,0,0-1.834-.063,25.9,25.9,0,0,0-2.86,3.511c-1.461,1.976-2.256,3.368-1.916,3.217,2.3-.9,3.974-.654,4.743.653.48.807,1.222,1.625,1.75,1.714,1.064.316.482,2.438-.723,2.722-.431.1-.8-.307-.833-.868a.831.831,0,0,0-1-.826c-.517.122-.724-.467-.425-1.388.448-1.382.268-1.481-1.516-.634a7.72,7.72,0,0,0-2.588,2.1,3.615,3.615,0,0,1-2.184,1.508,5.684,5.684,0,0,0-2.611,1.679c-.815,1.043-.714,1.3.425,1.389,1.928.183,1.813,1.273-.253,1.761-1.119.264-1.53.716-1.147,1.334s.057,1.05-.89,1.273c-1.549.365-3.784,2.524-3.723,3.643a.7.7,0,0,0,.9.567c1.807-.427.843,1.077-1.764,2.827-3.621,2.343-6.934,5.535-6.128,5.912.27.149,1.2-.355,2.11-1.278,1.32-1.374,1.578-1.436,2.664-.7.906.636.918.847-.114,1.09-1.292.305-6.5,5.574-6.442,6.554.019.35-1.062,1.314-2.49,2.29-2.607,1.75-3.357,3.983-1.119,3.454a1.747,1.747,0,0,1,1.864.623,2.88,2.88,0,0,0,2.64.441c2.066-.488,2.64.44,1.518,2.264-.882,1.413-4.2,1.346-4.8-.143-.3-.639-.933-1.126-1.364-1.025-.517.122-.651.862-.256,1.691.5,1.229.42,1.319-.913.853-1.7-.734-3.043.151-3.953,2.635a5.232,5.232,0,0,1-3.328,2.911c-1.362.606-2.533,1.52-2.5,2.08.027.49-.553,1.052-1.335,1.094a2.093,2.093,0,0,0-1.773,1.057c-.228.621.48.808,1.857.483,1.205-.284,2.254-.248,2.268.031.061,1.12-1.865,2.567-3.261,2.542-1.048-.036-1.127.124-.243.34.891.357.35,1.619-2.138,5.539-3.7,5.764-4.773,6.8-5.788,5.761-.464-.528-.809-.446-1.209.214-.321.5-.13.811.3.709,3.185-.752-1.168,5.735-4.592,6.9-2.055.7-2.293,1.109-2.407,3.829-.1,2.93-1.245,4.334-1.966,2.307-.214-.729-1.2.284-3.148,3.012-1.536,2.2-3.64,5.183-4.693,6.637-.927,1.329-1.487,1.91-1.691,1.91C-1121.831,1094.145-1121.23,1092.627-1119.741,1090.305Zm-3.592-16.308c-2.926.691-3.673,2.993-.974,2.924a2.377,2.377,0,0,0,2.521-1.73c.384-.941.69-1.723.69-1.723s0-.019-.029-.019A17.076,17.076,0,0,0-1123.333,1074Zm9.228-1.823c-.43.1-.852.343-.845.483.012.21.461.458.9.566.527.088.865-.132.845-.482a.617.617,0,0,0-.661-.6A1.05,1.05,0,0,0-1114.105,1072.174Zm-6.025-1.768c-1.549.366-1.214,1.7.433,1.529.872.006,1.287-.375.995-.944a1.475,1.475,0,0,0-1.173-.614A1.113,1.113,0,0,0-1120.13,1070.405Zm4.927-16.758a2.023,2.023,0,0,0-.71,1.373c.092,1.679-4.271,9.586-6.111,11.012-1.754,1.407-2.638,4.38-1.174,4.035,1.205-.284,4.393-4.156,4.328-5.346-.042-.77.7-1.513,1.9-1.937,1.541-.506,1.862-1.007,1.5-2.906a6.8,6.8,0,0,1,.826-4.023c.922-1.409.942-2.564.265-2.564A1.505,1.505,0,0,0-1115.2,1053.647Zm-1.024,11.584a2.315,2.315,0,0,0-.78,1.673.522.522,0,0,0,.895.427,2.059,2.059,0,0,0,.781-1.673c-.021-.375-.189-.588-.449-.588A.839.839,0,0,0-1116.228,1065.231Zm6.713-4.775c-2.065.488-2.12,1.067-.2,2.74,1.1,1.016,1.712,1.014,2.542.251a2.93,2.93,0,0,1,2.927-.691c1.935.323,2.656-.839.8-1.322-.527-.088-.753-1.028-.466-2.159.417-1.941.417-1.941-1.236-.275a5.514,5.514,0,0,0-1.685,2.667,2.32,2.32,0,0,1-.87,1.623c-.756.533-.865.133-.507-1.3.259-1.229.219-1.672-.432-1.672A4.077,4.077,0,0,0-1109.515,1060.457Zm-4.3,1.015a1.008,1.008,0,0,0-.823.9c.019.35.469.6.9.5a1,1,0,0,0,.823-.9.55.55,0,0,0-.615-.533A1.24,1.24,0,0,0-1113.818,1061.472Zm12.124-9.454c1.756.224,2.182.052,2.145-.647-.027-.49-.664-.977-1.45-1.005q-.4-.027-.754-.027C-1104.558,1050.338-1104.776,1051.567-1101.694,1052.017Zm-10.372-3.152a1.766,1.766,0,0,0-.237,2.041c.577,1,.745.887,2.316-.688,1.489-1.486,1.477-1.7.156-1.951a2.565,2.565,0,0,0-.61-.074A2.2,2.2,0,0,0-1112.065,1048.865Zm5.317,1.58c-.576.633-.643,1-.126.881,1.2-.284,2.192-1.368,1.562-1.716a.29.29,0,0,0-.082-.011A2.473,2.473,0,0,0-1106.748,1050.446Zm9.8-7.276c-.955.084-1.71.617-1.684,1.106a2.9,2.9,0,0,1-1.207,1.844c-.92.714-.986,1.083-.177,1.531s1.658.034,3.658-1.643c2.324-1.969,2.519-2.9.465-2.9Q-1096.344,1043.11-1096.945,1043.17Zm-5.568,1.81c-1.316,1.445-2.291,2.739-2.025,2.818.359.2,4.464-4.457,4.515-5.107,0-.018-.01-.027-.026-.027A15.091,15.091,0,0,0-1102.514,1044.98Zm-5.019-4.132c-.239.411.124.68.813.517,1.549-.365,1.784-.846.544-1.192a.828.828,0,0,0-.2-.023A1.477,1.477,0,0,0-1107.533,1040.848Zm21.315-.778a1.081,1.081,0,0,0-.819.974c.02.349.458.388.877.077.5-.332.83-.763.818-.973,0-.088-.143-.143-.372-.143A2.243,2.243,0,0,0-1086.218,1040.071Zm-17.095-.148c-1.495,1.346-.855,1.9,1,.826.763-.392,1.077-1.033.8-1.322a.737.737,0,0,0-.531-.246A2.192,2.192,0,0,0-1103.313,1039.923Zm9.12-2.223c-1.761,1.266-2.142,2.278-.813,2.673.527.088,1.193-.494,1.675-1.247.812-1.411.989-2.125.533-2.125A3.26,3.26,0,0,0-1094.193,1037.7Zm-5.287,2.169c-.677.373-.407.522.539.3.95-.154,1.456-.486,1.1-.615a.742.742,0,0,0-.343-.064A2.754,2.754,0,0,0-1099.48,1039.869Zm-10.98-4.71c-.688.162-3.743,3.294-3.712,3.854.046.84,2.185.121,3.254-1.052.938-1.03,1.284-2.817.577-2.817A.524.524,0,0,0-1110.46,1035.159Zm23.567.534c-1.5,1.275-1.495,1.346.13,2.38,1.535.985,1.707.944,3.2-.472,1.813-1.917,1.88-2.287-.153-2.8a3.535,3.535,0,0,0-.952-.151A3.526,3.526,0,0,0-1086.893,1035.693Zm-3.924-1.625a2.166,2.166,0,0,0-1.339,1.025c-.238.41.124.679.813.517.775-.183,1.358-.675,1.339-1.025a.554.554,0,0,0-.6-.543A.941.941,0,0,0-1090.817,1034.068Zm-8.121-1.84c-1.408,2.955-.661,3.842,1.394,1.585,1.4-1.535,1.469-1.835.517-3.312-.177-.246-.339-.379-.507-.379C-1097.9,1030.121-1098.3,1030.76-1098.938,1032.227Zm158.189-3.807c-1.463.345-2.125,1-2.318,2.248l-.339,1.781,2.417-2.059c1.958-1.688,2.557-2.275,1.887-2.275A9.388,9.388,0,0,0-940.749,1028.42Zm-167.826,1.332a1.3,1.3,0,0,0-.8,1.323.522.522,0,0,0,.895.427,1.683,1.683,0,0,0,.8-1.323c-.016-.28-.248-.462-.6-.463A1.279,1.279,0,0,0-1108.575,1029.752Zm209.813-3.515a9.437,9.437,0,0,0-2.565,2.519,2.966,2.966,0,0,1-.78,1.673c-.568.772-.553,1.052.136.889.86-.2,1.687-1.036,5.039-5.089.777-.928.948-1.393.611-1.393A6.707,6.707,0,0,0-898.763,1026.237Zm-36.326,3.683a1,1,0,0,0-.822.9c.019.35.468.6.9.5a1,1,0,0,0,.823-.9.549.549,0,0,0-.614-.533A1.242,1.242,0,0,0-935.088,1029.92Zm-170.515-.018c-.439,1.521-.35,1.571.814.517,1.076-1.033,1.425-1.045,2.354.012a1.619,1.619,0,0,0,1.948.533c.67-.512.474-.892-.413-1.178a2.886,2.886,0,0,1-1.754-1.784c-.424-1.389-4.351-1.454-4.278-.124.023.419.473.668.988.546a.555.555,0,0,1,.128-.016C-1105.4,1028.407-1105.255,1028.979-1105.6,1029.9Zm-5.276-2.441a8.057,8.057,0,0,0-2.026,2.817c.022.42.939-.364,2.087-1.7a12.449,12.449,0,0,0,2.025-2.818c0-.038-.021-.057-.055-.057A7.868,7.868,0,0,0-1110.879,1027.461Zm29.99,1.641c-.677.373-.407.521.54.3.95-.154,1.455-.485,1.1-.614a.744.744,0,0,0-.344-.064A2.746,2.746,0,0,0-1080.889,1029.1Zm-4.677-2.653a1.817,1.817,0,0,0-.909.923c-.238.41-.048.72.383.618.517-.121.928-.573.909-.923-.022-.389-.184-.623-.344-.623A.167.167,0,0,0-1085.567,1026.448Zm9.181-4.294c-1.205.284-1.194.494-.288,1.131a3.974,3.974,0,0,0,1.435.724c.173-.041.318-.571.287-1.13-.025-.458-.451-.774-1.028-.774A1.77,1.77,0,0,0-1076.386,1022.154Zm-28.229.284a1.006,1.006,0,0,0-.823.9c.019.35.468.6.9.5a1,1,0,0,0,.823-.9.548.548,0,0,0-.613-.532A1.237,1.237,0,0,0-1104.615,1022.438Zm30.171-4.64c-.583.492-.474.892.252,1.429.816.587,1.337.535,2.246-.389.995-.943.983-1.153-.162-1.379a3.249,3.249,0,0,0-.665-.065A3.308,3.308,0,0,0-1074.444,1017.8Zm-17.751-.985c-1.3.094-1.381.255-.365,1.292.644.627,1.528.844,1.947.533,1.015-.768.195-1.842-1.255-1.842A3.063,3.063,0,0,0-1092.2,1016.812Zm-15.126-.824c-2.062.557-2.229.668-.819.973a3.63,3.63,0,0,0,2.34-.269c.918-.673,1.022-1.008.335-1.008A9.258,9.258,0,0,0-1107.321,1015.988Zm13.36-5.99a3.986,3.986,0,0,1-2.075,1.908c-.86.2-1.248,1.075-1.156,2.754.072,1.33.563,2.348.994,2.246a1.088,1.088,0,0,0,.812-1.112,9.547,9.547,0,0,1,1.991-3.448c2.2-2.857,2.339-3.459,1.186-3.824a.582.582,0,0,0-.1-.008C-1092.827,1008.514-1093.516,1009.159-1093.962,1010Zm-16.314,4.56a1.006,1.006,0,0,0-.823.9c.02.35.469.6.9.5a1,1,0,0,0,.823-.9.55.55,0,0,0-.614-.532A1.238,1.238,0,0,0-1110.276,1014.558Zm21.784-.18a1.006,1.006,0,0,0-.823.9c.019.349.468.6.9.5a1,1,0,0,0,.823-.9.549.549,0,0,0-.614-.532A1.244,1.244,0,0,0-1088.492,1014.378Zm21.831-7.28c.278.289.125.68-.391.8a1.025,1.025,0,0,0-.624,1.352c.221.869-.275,1.342-1.824,1.707-2.668.63-3.224,3.242-.992,4.2,1.337.535,1.423.515.826-.833-.589-1.208-.427-1.459,1.38-1.885,1.549-.365,2.453-1.359,3.869-4.174a19.406,19.406,0,0,1,2.563-4.149c.751-.6.84-2.183.031-2.631a.274.274,0,0,0-.119-.024C-1063.062,1001.466-1067.283,1006.427-1066.66,1007.1Zm-33.211,6.422c-.431.1-.853.344-.846.483.012.21.461.458.9.567.528.088.865-.133.846-.483a.618.618,0,0,0-.662-.6A1.049,1.049,0,0,0-1099.871,1013.52Zm20.624-2.245c-.923.643-.742,2.372.318,2.618a4.586,4.586,0,0,0,2.645-1.049l1.765-1.2-2.025-.373a8.832,8.832,0,0,0-1.647-.168A2.292,2.292,0,0,0-1079.247,1011.275Zm-4.481,2.546c.274.219.86-.2,1.26-.865.96-1.573.93-2.133-.047-2.47a.461.461,0,0,0-.092-.009C-1083.555,1010.477-1084.6,1013.34-1083.728,1013.821Zm-25.844-2.336a.7.7,0,0,0,.9.566c.517-.122.853-.343.846-.483-.012-.21-.375-.478-.9-.566a.9.9,0,0,0-.215-.026C-1109.3,1010.976-1109.588,1011.193-1109.572,1011.486Zm23.452-1.566a2.074,2.074,0,0,0-.8,1.323c.023.419.457.388.877.076a1.8,1.8,0,0,0,.8-1.323c-.012-.219-.112-.321-.277-.321A1.219,1.219,0,0,0-1086.12,1009.92Zm-20.847-1.814c-.189,1.321,5.8,2.389,7.222,1.344.415-.382-.214-.729-1.525-.774-1.481,0-2.384-.572-2.434-1.481a.884.884,0,0,0-.99-.87A2.456,2.456,0,0,0-1106.967,1008.105Zm26.795-1.007c-.908.923-1.382,1.814-1.113,1.964s1.022-.454,1.671-1.316c.889-1.3,1.205-1.954.994-1.954C-1078.793,1005.792-1079.318,1006.227-1080.172,1007.1Zm-1.155-5.187c-2.735,1-3.37,2.143-1.184,2.264,1.314.115,3.831-1.684,3.778-2.663-.005-.1-.141-.144-.375-.144A7.208,7.208,0,0,0-1081.327,1001.911Zm8.726.139a.7.7,0,0,0,.9.567c.516-.122.852-.344.845-.483-.012-.21-.375-.479-.9-.567a.9.9,0,0,0-.214-.026C-1072.325,1001.541-1072.618,1001.757-1072.6,1002.05Zm-1.919-4.793a2.338,2.338,0,0,0-.859,1.833c.143,1.03.229,1.009,1.283-.445.872-1.207,1.022-1.923.594-1.923A2.062,2.062,0,0,0-1074.52,997.257Zm-22.906-6.007a4.788,4.788,0,0,0-1.184,2.264l-.429,1.732,1.63-2.085c1.106-1.427,1.434-2.417.95-2.417A1.993,1.993,0,0,0-1097.426,991.25Zm23.211.406c-.984,1.153-1.536,2.206-1.18,2.334.359.2,1.2-.354,1.847-1.286,1.06-1.472,1.352-2.337.982-2.338C-1072.819,990.366-1073.379,990.769-1074.215,991.656Zm24.568-.27a1.909,1.909,0,0,0-.8,1.323c.019.35.464.528.895.427a1.218,1.218,0,0,0,.8-1.323c-.021-.375-.189-.588-.449-.588A.839.839,0,0,0-1049.647,991.386Zm-16.944-6.989c-.43.1-.826.833-.78,1.673.041.77.495,1.088.913.777a2.063,2.063,0,0,0,.78-1.673c-.026-.483-.3-.8-.71-.8A.887.887,0,0,0-1066.591,984.4Zm-21.172-7.763c-.947.223-2.769,3.56-2.14,3.908.359.2,1.111-.4,1.761-1.267,1.09-1.666,1.363-2.676.644-2.676A1.171,1.171,0,0,0-1087.763,976.635Zm6.837-.905c-1.807.427-4.85,3.768-3.866,4.244.36.2,1.037-.174,1.436-.835.643-1,.987-1.084,1.37-.465s.809.447,2.05-.768c1.406-1.423,1.408-2.329.121-2.329A4.974,4.974,0,0,0-1080.925,975.73Zm7.7-1.108a1.007,1.007,0,0,0-.823.9c.019.35.468.6.9.5a1,1,0,0,0,.823-.9.549.549,0,0,0-.613-.532A1.238,1.238,0,0,0-1073.227,974.622Zm11.2-2.361c.13,2.38,1.665,3.364,2.9,2.009.74-.813.729-1.022-.476-.738-2.066.488-1.888-1.043.155-1.95,1.785-.847,2.169-1.788.844-2.113a1.828,1.828,0,0,0-.5-.067A3.134,3.134,0,0,0-1062.023,972.261Zm-13.691-1.661c-1.375,1.956-.738,2.443,1,.826.661-.652.969-1.434.6-1.772a.453.453,0,0,0-.315-.126C-1074.774,969.529-1075.228,969.9-1075.713,970.6Zm23.1-1.554c-1.979.467-2.567.889-2.506,2.01.092,1.679,1.562,1.474,3.626-.643,1.285-1.267,1.7-1.764,1.014-1.764A12.293,12.293,0,0,0-1052.609,969.046Zm-21.927-4.04c-1.463.346-1.9,1.867-.813,2.673,1.269.905,3.519.587,3.461-.463-.023-.419-.382-.618-.9-.5a.825.825,0,0,1-.918-.847c-.027-.5-.328-.882-.7-.882A.571.571,0,0,0-1074.536,965.006Zm22.581.058c1.356.885,2.565.671,5.523-1.02,2.881-1.531,2.956-4.952.2-4.3-1.291.3-1.654.036-1.352-.815.228-.621.122-.95-.3-.639a4.86,4.86,0,0,0-.637,2.7,6.228,6.228,0,0,1-.449,2.941c-.717,1.233-2.106,1.348-2.167.229-.049-.91-1.821-1.414-3.628-.987a1.224,1.224,0,0,0-.714,1.3c.039.7.57.858,1.247.485a2.278,2.278,0,0,1,1.079-.255A1.943,1.943,0,0,1-1051.955,965.064Zm223.756-1.986c-.677.373-.407.521.54.3.95-.153,1.455-.486,1.1-.614a.743.743,0,0,0-.344-.064A2.746,2.746,0,0,0-828.2,963.077Zm-212-6.177a1.08,1.08,0,0,0-.819.973c.019.35.457.389.876.077.5-.331.831-.763.819-.973,0-.087-.143-.143-.372-.143A2.234,2.234,0,0,0-1040.2,956.9Zm160.552-43.567a2.484,2.484,0,0,0,1.178-.774.6.6,0,0,0,.092-.117h-2.436C-880.6,912.992-880.141,913.451-879.644,913.333Zm109.607-15.45c-.589,1.982-.238,2.04,2.2.4,1.931-1.376,1.966-2.307.129-2.44-.376-.033-.667-.06-.9-.06C-769.457,895.785-769.515,896.145-770.036,897.883Zm-4.085-1.375c.715.328,4.284-1.365,4.245-2.065-.015-.28-.383-.618-.823-.727a.492.492,0,0,0-.117-.013C-771.831,893.7-774.73,896.107-774.122,896.508Zm17.216-18.383a3.605,3.605,0,0,1-1.911,1.727c-1.722.406-3.09,2.5-2.414,3.689.769,1.307,3.5.307,3.075-1.151a3.082,3.082,0,0,1,1.012-2.224,3.812,3.812,0,0,0,1.18-2.335c-.065-.445-.118-.68-.228-.68C-756.318,877.152-756.521,877.464-756.905,878.125Zm34.525-23.887a1.008,1.008,0,0,0-.823.9c.019.35.469.6.9.5a1,1,0,0,0,.823-.9.55.55,0,0,0-.615-.532A1.241,1.241,0,0,0-722.38,854.238Zm26.739-21.2a1.081,1.081,0,0,0-.819.973c.02.35.457.388.877.076.5-.331.83-.763.818-.973,0-.087-.143-.143-.372-.143A2.232,2.232,0,0,0-695.642,833.04Zm-3.949-.486c-1.205.284-2.137.788-2.114,1.208.042.77,2.894.31,3.713-.663.547-.6.666-.867.18-.867A9.825,9.825,0,0,0-699.591,832.554Zm11.008-13.94a1.077,1.077,0,0,0-.819.973c.019.35.457.388.876.077.5-.332.831-.763.819-.973-.005-.087-.144-.143-.373-.143A2.228,2.228,0,0,0-688.583,818.614Zm3.959-.935a1.813,1.813,0,0,0-.909.923c-.239.411-.048.72.383.619.517-.122.928-.574.908-.923-.021-.39-.183-.624-.344-.624A.164.164,0,0,0-684.624,817.679Zm4.063-3.794c-1.8,2.2-.67,2.073,1.385-.185,1.813-1.916,1.817-1.847.285-2.761-.989-.546-1.853-.413-3.544.554-1.268.724-2.637,1.19-3.083,1.011-.441-.108-.778.113-.755.533s-.571.7-1.272.655c-1.928-.184-1.586,1.3.354,1.688a2.6,2.6,0,0,0,2.578-.68c.575-.632,1-.8,1.021-.454.015.28.775-.183,1.683-1.106a3.832,3.832,0,0,1,2.04-1.36C-679.335,811.779-679.428,812.556-680.56,813.884Zm8.835-5.843c.034.63.308.849.64.558a7.166,7.166,0,0,0,.255-3.321c-.17-1.519.094-3.071.513-3.382,1.171-.914.957-1.643-.474-2.3-1.607-.684-4.228.786-3.553,1.974.289.5-.006,1.49-.746,2.3-1.727,1.9-1.025,3.574,1.4,3.285.12-.012.238-.018.353-.018C-672.457,807.141-671.756,807.484-671.725,808.042Zm-6.4-5.367a1.008,1.008,0,0,0-.823.9c.019.35.469.6.9.5a1,1,0,0,0,.823-.9.55.55,0,0,0-.615-.532A1.247,1.247,0,0,0-678.12,802.675Zm11.746-10c-2.813,1.16-5.2,3.709-4.038,4.284.719.4,4-1.724,5.809-3.781a5.9,5.9,0,0,0,1.222-1.564.042.042,0,0,0-.019,0C-663.588,791.608-664.825,792.1-666.374,792.672Zm70-57.5a1.008,1.008,0,0,0-.823.9c.02.35.469.6.9.5a1,1,0,0,0,.823-.9.55.55,0,0,0-.614-.532A1.241,1.241,0,0,0-596.373,735.175Zm16.426-15.291a8.379,8.379,0,0,1-2.5,2.08c-1.205.284-.62,1.422.78,1.517.876.077,2.226-.739,3.381-1.933,2.142-2.278,2.366-2.968,1.04-3.293a.414.414,0,0,0-.1-.011A5.323,5.323,0,0,0-579.947,719.884Zm8.869-8.4c-1.549.366-4.6,3.637-4.531,4.827.073,1.33.245,1.29,2.552-1.169,2.137-2.21,2.972-3.687,2.2-3.687A.974.974,0,0,0-571.078,711.482Zm2.037-2.607c-.43.1-.852.343-.845.483.012.21.461.458.9.567.528.087.865-.133.845-.483a.617.617,0,0,0-.662-.6A1.053,1.053,0,0,0-569.041,708.874Zm30.088-39.711a1.006,1.006,0,0,0-.823.9c.019.35.468.6.9.5a1,1,0,0,0,.822-.9.549.549,0,0,0-.614-.533A1.237,1.237,0,0,0-538.953,669.164Zm22.263-23.333c.034.63-.717,1.233-1.836,1.5-3.529.833-5.724,2.13-5.151,3.058a.7.7,0,0,1-.463,1.1c-.517.122-.666.583-.377,1.082a1.238,1.238,0,0,1-.35,1.571c-1.093.754-1.12,3.454-.086,3.21.43-.1,1.9-1.867,3.443-4a48.022,48.022,0,0,1,5.081-5.949c2.247-1.949,2.322-2.179.9-2.694s-1.431-.654-.2-2.149c1.555-1.856,1.771-2.687.566-2.4a2.649,2.649,0,0,0-1.3,1.655,5.743,5.743,0,0,1-2.3,2.6l-1.851,1.217,1.979-.467a4.2,4.2,0,0,1,.711-.066C-517.2,645.093-516.716,645.345-516.69,645.831Zm-16.458,9.911c-.748.672-1.061,1.314-.881,1.413.629.348,2.21-1.018,2.164-1.858-.008-.159-.087-.24-.222-.24A1.966,1.966,0,0,0-533.148,655.742Zm3.443-.813c.805.377,1.322.256,1.3-.165a1.213,1.213,0,0,0-1.012-.967,2.557,2.557,0,0,0-.681-.108C-530.972,653.69-530.955,654.407-529.706,654.929ZM-494.3,632.82c-1.35.815-1.715,2.106-.425,1.8.689-.162,1.093-.753,1.618-2.3.013-.014.009-.021-.008-.021A5.052,5.052,0,0,0-494.3,632.82ZM-495.488,627c-1.291.3-2.655,2.47-1.842,2.986a3.384,3.384,0,0,0,1.886-.587c1.526-.872,1.663-2.457.409-2.457A1.978,1.978,0,0,0-495.488,627Zm2.407-3.829c-2.246.389-2.626,1.4-1.244,2.775,1.1,1.016,3.556-.343,3.468-1.952-.034-.626-.438-.928-1.247-.929A5.387,5.387,0,0,0-493.081,623.174Zm21.582-43.8c.061,1.12,2.67,1,4.435-.2,1.593-1.156,2.171-3.348.708-3a4.394,4.394,0,0,0-1.754,1.407,2.906,2.906,0,0,1-2.2,1.158c-.055,0-.109-.006-.161-.006C-471.09,578.735-471.52,578.988-471.5,579.375Zm-2.587-10.661c-1.069,1.174-.159,1.881,1.094.877a.923.923,0,0,0,.365-1.292.651.651,0,0,0-.451-.185A1.5,1.5,0,0,0-474.086,568.714Zm1.894-3.637c-1.469,1.835.638,2.118,2.455.271a7.2,7.2,0,0,1,2.435-1.709.735.735,0,0,0,.369-1.221c-.573-.928-.66-.907-1.632.456-.568.772-1.409,1.325-1.851,1.217a.574.574,0,0,0-.136-.015A2.613,2.613,0,0,0-472.192,565.077Zm.117-9.031c-1.061,1.314-1.03,1.874.012,3.4l1.233,1.835.477-2.452a6.464,6.464,0,0,1,1.146-2.965c1.006-.734.876-3.113-.184-3.359-.442-.109-1.2.354-1.773,1.057s-.717,1.232-.373,1.151a.353.353,0,0,1,.08-.011C-471.153,554.7-471.467,555.31-472.075,556.046Zm29.705,1.211c-.677.373-.407.522.54.3.95-.153,1.455-.485,1.1-.614a.745.745,0,0,0-.343-.064A2.754,2.754,0,0,0-442.37,557.258Zm-15.261-8.095c-.74.813-.717,1.233.092,1.68s1.059.246.987-1.084c-.042-.771-.149-1.122-.376-1.122C-457.093,548.638-457.32,548.821-457.631,549.163Zm18.56-35.288a2.3,2.3,0,0,1-1.566,1.645,3.635,3.635,0,0,0-1.97,2.237,3.632,3.632,0,0,1-1.97,2.237,2.95,2.95,0,0,0-1.626,2.156,3.068,3.068,0,0,1-1.712,2.177,1.549,1.549,0,0,0-1.226,1.494c.053.98.226.94,1.714-.546.909-.923,1.664-1.456,1.683-1.106.015.28,1.649-1.736,3.678-4.484,2.033-2.678,3.539-5.443,3.508-6-.063-.411-.114-.613-.18-.613S-438.913,513.342-439.071,513.875Zm41.744,1.347c-1.635.386-1.882.657-1,.874.622.208,1,.756.675,1.187-.321.5.234,1.079,1.2,1.206,2.909.589,3.155.319,2.048-2.4a1.661,1.661,0,0,0-1.67-1.044A5.572,5.572,0,0,0-397.328,515.222Zm-3.356-5.588a1.817,1.817,0,0,0-.909.923c-.238.411-.048.721.383.619.517-.122.928-.574.909-.923-.022-.389-.184-.624-.345-.624A.166.166,0,0,0-400.684,509.634Zm-67.252-5.534c-.741.813-.717,1.232.092,1.679s1.059.246.986-1.084c-.042-.771-.149-1.122-.376-1.122C-467.4,503.574-467.625,503.758-467.936,504.1Zm2.322-2.179c-.452,1.311.886,1.847,2.142.913,1.338-1.025-.86-2.987-2.754-2.541a3.8,3.8,0,0,0-2.191,1.368c-.4.661.034.63,1.309.046a4.225,4.225,0,0,1,1.331-.425C-465.476,501.281-465.446,501.492-465.614,501.921Zm28.019-4.132a1.276,1.276,0,0,0-.8,1.253.825.825,0,0,0,.918.847,1.191,1.191,0,0,0,.8-1.254c-.027-.492-.317-.868-.738-.868A.778.778,0,0,0-437.6,497.789Zm-24.366.788c.019.35.469.6.9.5,1.291-.305.933-2.064-.583-2.7-1.337-.535-3.036.292-2.971,1.481.02.35.637.488,1.326.325a2.36,2.36,0,0,1,.538-.067C-462.308,498.116-461.977,498.272-461.961,498.578Zm18.322-2.907a4.784,4.784,0,0,0-1.644,1.806c-1.035,1.8-.156,1.95,1.407.235,1.036-1.137,1.236-2.077.514-2.077A1.218,1.218,0,0,0-443.639,495.671Zm-15.021-.495a8.524,8.524,0,0,0,2.255,1.382c1.255.626,2.225.823,2.2.4s-1.015-1.037-2.254-1.382a11.4,11.4,0,0,0-2.07-.448C-458.615,495.13-458.661,495.144-458.66,495.176Zm-2.038-5.4a1.078,1.078,0,0,0-.818.973c.019.35.457.389.876.077.5-.331.83-.762.818-.973,0-.087-.143-.143-.372-.143A2.231,2.231,0,0,0-460.7,489.773Zm6.5-5.574c-.677.373-.407.521.54.3.95-.154,1.455-.485,1.1-.614a.743.743,0,0,0-.344-.064A2.746,2.746,0,0,0-454.2,484.2Zm10.985-11.171c-1.733.2-2.9,1.181-5.681,4.531a29.824,29.824,0,0,0-3.484,4.863c.023.419.45.248,1.026-.384a6.444,6.444,0,0,1,2.88-1.53A2.638,2.638,0,0,0-446.26,478a6,6,0,0,1,2.766-3.631l2.356-1.548Zm-2.092,4.818a7.455,7.455,0,0,1,.643,2.188.77.77,0,0,0,.914.777c1.291-.3.949-1.784-.774-3.007a4.117,4.117,0,0,0-1.08-.719C-445.724,477.085-445.6,477.339-445.309,477.846Zm17.236-.453c-.743.742-1.046,1.594-.69,1.723.813.517,3.209-1.892,2.561-2.589a.517.517,0,0,0-.362-.132A2.343,2.343,0,0,0-428.073,477.393Zm5.5-3.07c1.1,2.646,4.372.244,3.684-2.784-.131-.82.175-1.6.691-1.723,1.2-.284.6-1.7-.62-1.768h-.034C-420.349,468.048-423.174,472.847-422.574,474.323Zm-15.754-7.553a2.16,2.16,0,0,0-1.339,1.025c-.239.41.124.68.813.517.775-.183,1.358-.675,1.339-1.025a.554.554,0,0,0-.6-.543A.939.939,0,0,0-438.329,466.771Zm26.861-1.378c-.43.1-.845.482-.826.833a1.186,1.186,0,0,0,.922.917c.528.088.857-.274.826-.833s-.321-.938-.743-.938A.772.772,0,0,0-411.467,465.393Zm-28.084-.247c-.677.373-.408.521.539.3.95-.154,1.455-.486,1.1-.615a.744.744,0,0,0-.343-.064A2.748,2.748,0,0,0-439.551,465.145Zm1.433-4.1c-.345.082-.5.332-.318.572a14.9,14.9,0,0,1,.96,1.616c.383.618,1.008.9,1.508.494.866-.671-.736-2.707-1.932-2.707A.951.951,0,0,0-438.118,461.049Zm27.958,1.129c-1.316,1.444.1,1.819,1.673.313.913-.853.976-1.293.279-1.271h-.032A3.176,3.176,0,0,0-410.161,462.178Zm-24.249-5.052c-2.605.189-2.774.3-1.515,1a3.532,3.532,0,0,0,3.218-.122c1.473-.741,1.836-1.016.7-1.016C-432.506,456.984-433.3,457.037-434.409,457.126Zm-30.022-37.362c-2.324.548-3.026,2.061-1.408,2.955a2.014,2.014,0,0,0,3.116-2.011,1,1,0,0,0-1.112-1.02A2.608,2.608,0,0,0-464.432,419.764Zm14.659-1.334a1.079,1.079,0,0,0-.818.973c.019.35.456.389.876.077.5-.332.83-.763.818-.974,0-.087-.143-.142-.372-.142A2.249,2.249,0,0,0-449.772,418.431Zm4.161-11.615c-.748.673-1.061,1.314-.882,1.413.629.348,2.211-1.018,2.165-1.858-.008-.158-.087-.24-.222-.24A1.967,1.967,0,0,0-445.612,406.815Zm3.255-4.242c-1.381.255-1.2.424.828.8a5.378,5.378,0,0,0,3.388-.232c.675-.492-.25-.83-1.739-.83A12.353,12.353,0,0,0-442.356,402.574Zm-11.443-3.609a4.615,4.615,0,0,0-1.975.537.883.883,0,0,0,.238,1.149c.461.458.973.266,1.885-.587,1-.918,1.138-1.132.483-1.132C-453.33,398.933-453.54,398.946-453.8,398.965Zm9.9-.706c-.054-.98-.312-.919-2.058.627-1.081.964-1.645,1.806-1.211,1.775C-445.678,400.805-443.838,399.379-443.9,398.259Zm3.774-9.114c-1.892,2.077-4.233,3.906-5.265,4.149-2.152.509-3.894,2.125-3.811,3.665.042.77.551.508,1.953-.958a9.713,9.713,0,0,1,3.874-2.474c2.238-.528,6.777-5.215,6.685-6.895-.012-.218-.089-.33-.238-.33C-437.351,386.3-438.361,387.207-440.125,389.145Zm-13.642,4c-1.047,1.593-1,2.363.114,2.1.517-.122.823-.9.773-1.813-.037-.674-.1-1-.257-1C-453.271,392.436-453.469,392.679-453.767,393.145Zm6.216-4.3c-.689.162-1.014.593-.737.882a1.12,1.12,0,0,0,1.4.025c.865-.676.937-1.049.289-1.049A4.4,4.4,0,0,0-447.551,388.842Zm-3.867-.576a.7.7,0,0,0,.9.566c.517-.121.853-.343.845-.482-.012-.211-.374-.479-.9-.567a.9.9,0,0,0-.215-.026C-451.142,387.757-451.434,387.974-451.418,388.266Zm21.778-5.07c-2.664.7-5.342,2.75-5.273,4.01.065,1.19,4.1-.045,4.632-1.377a2.666,2.666,0,0,1,1.75-1.477c.689-.162,1.272-.654,1.253-1-.013-.237-.353-.352-.879-.352A6.727,6.727,0,0,0-429.64,383.2Zm-21.189-.1c-2.822,1.02-3.493,3.092-.739,2.443a5.571,5.571,0,0,0,3.306-3.333S-449.377,382.539-450.829,383.094Zm25.158-2.253a1.008,1.008,0,0,0-.823.9c.019.35.469.6.9.5a1,1,0,0,0,.823-.9.55.55,0,0,0-.615-.533A1.241,1.241,0,0,0-425.671,380.841Zm-12.573-6.744c-2.234.6-3.587,1.343-3.808,2.1a5.882,5.882,0,0,1-2.228,2.3c-1.1.684-1.914,1.657-1.884,2.217.1,1.89,3.1.829,5.392-1.84a27.166,27.166,0,0,1,4.146-3.885c1.539-1.076,2.074-1.567,1.437-1.568A16.949,16.949,0,0,0-438.244,374.1Zm15.939,4.532a1.008,1.008,0,0,0-.823.9c.02.35.469.6.9.5a1,1,0,0,0,.823-.9.55.55,0,0,0-.615-.532A1.243,1.243,0,0,0-422.305,378.629Zm9.467-2.235c-1.119.265-1.53.716-1.147,1.335.663.977,1.536.985,2.354.012.853-.879.675-1.468-.3-1.468A4.03,4.03,0,0,0-412.838,376.394Zm-35.861-.608a1.391,1.391,0,0,0-.812,1.112.873.873,0,0,0,.911.707.982.982,0,0,0,.9-1.133c-.027-.479-.3-.778-.646-.778A.767.767,0,0,0-448.7,375.786Zm15.466-10.527c-.85.413-2.548,1.239-3.913,1.775-1.875.8-2.2,1.157-1.7,2.316.991,2.177,1.96,2.373,3.441.748.74-.813.972-1.363.455-1.242a.831.831,0,0,1-1-.826c-.034-.63.717-1.233,2.094-1.558,1.205-.284,2.133-.858,2.11-1.277a.33.33,0,0,0-.379-.335A2.515,2.515,0,0,0-433.234,365.259Zm4.408-.686c-1.377.325-3.6,2.693-3.627,3.833.02.35,3.2-.472,4.989-1.248a4.147,4.147,0,0,0,.092-1.51,1.078,1.078,0,0,0-1.1-1.117A1.526,1.526,0,0,0-428.826,364.573Zm-10.854-2.4a4.7,4.7,0,0,0-1.75,1.476c-.814,1.043-.8,1.253.23,1.01a3.707,3.707,0,0,0,1.78-.917c.743-.749.7-1.6,0-1.6A1.133,1.133,0,0,0-439.68,362.173Zm-85.4-39.389a1.809,1.809,0,0,0-.909.923c-.239.41-.048.72.382.618.517-.122.928-.573.909-.923-.022-.389-.184-.623-.344-.623A.166.166,0,0,0-525.081,322.783Zm15.444-9.317c-.517.122-.587.422-.306.781a1.792,1.792,0,0,0,1.416.374c.516-.121.583-.492.306-.781a1.443,1.443,0,0,0-1.084-.41A1.459,1.459,0,0,0-509.637,313.466Zm1.387-8.125a1.006,1.006,0,0,0-.822.9c.019.35.468.6.9.5a1,1,0,0,0,.823-.9.549.549,0,0,0-.614-.533A1.24,1.24,0,0,0-508.25,305.341Zm17.234-19.664a1.081,1.081,0,0,0-.819.974c.019.349.457.388.876.077.5-.332.831-.763.819-.973,0-.088-.143-.143-.372-.143A2.249,2.249,0,0,0-491.016,285.677Zm11.717-15.313a1.234,1.234,0,0,0-.013,1.35c.289.5.535.228.493-.542.033-.588-.114-.937-.292-.937A.25.25,0,0,0-479.3,270.365Zm-363.051-1.005a1.008,1.008,0,0,0-.823.9c.019.35.469.6.9.5a1,1,0,0,0,.823-.9.55.55,0,0,0-.614-.533A1.241,1.241,0,0,0-842.35,269.359Zm24.865-23.592c-.43.1-.853.343-.846.483.012.21.462.458.9.567.528.087.865-.133.846-.483a.617.617,0,0,0-.662-.6A1.054,1.054,0,0,0-817.484,245.768Zm425.573-9.853c-.987,1.084-1.368,2.1-1,2.5.551.508,1.142.156,2.2-1.3,1.133-1.559,1.236-2.535.663-2.536C-390.419,234.585-391.072,234.992-391.911,235.914Zm-418.58-2.572c-.74.813-.556.982,1.078.6s1.8-.636.987-1.084a1.713,1.713,0,0,0-.819-.257A1.755,1.755,0,0,0-810.491,233.342Zm428.12-7.9a4.822,4.822,0,0,0-2.465,1.149,18.875,18.875,0,0,0-2.829,4.071l-1.752,3.036,1.977-2.1a11.339,11.339,0,0,1,2.67-2.19,7.183,7.183,0,0,0,2.15-2.137c1.1-1.406,1.263-1.848.531-1.848C-382.172,225.423-382.266,225.429-382.371,225.439Zm-11.847,3.363a1.812,1.812,0,0,0-.908.923c-.239.411-.048.72.382.618.517-.122.927-.573.908-.923-.021-.389-.183-.624-.344-.624A.167.167,0,0,0-394.218,228.8Zm5.088-2.618a1.805,1.805,0,0,0-.908.923c-.239.41-.049.72.383.618.516-.122.927-.573.908-.923-.021-.389-.184-.623-.344-.623A.166.166,0,0,0-389.13,226.184Zm14.153-2.632a1.774,1.774,0,0,0-1.626,2.156c.1,1.89.9,2.056,2.46.341,1.282-1.407,1.139-2.585-.152-2.585A2.989,2.989,0,0,0-374.977,223.553Zm-6.4-.687c-.658.722-.365,1.291,1.073,2.086l1.977,1.093-.1-1.82c-.058-1.05-.544-2-1.076-2.156a1.075,1.075,0,0,0-.177-.014A2.569,2.569,0,0,0-381.379,222.866Zm-25.309,1.082a1.812,1.812,0,0,0-.908.923c-.239.411-.048.72.383.619.517-.122.927-.574.908-.923-.021-.389-.183-.624-.344-.624A.166.166,0,0,0-406.687,223.948Zm29.809-20.859a1.952,1.952,0,0,0-.882,1.413c.023.42.539.3,1.283-.445.935-.878,1.078-1.507.655-1.507A2.083,2.083,0,0,0-376.879,203.089Zm-164.343-3.531c-.741.813-.717,1.233.092,1.68s1.059.246.986-1.084c-.042-.771-.149-1.122-.376-1.122C-540.683,199.032-540.911,199.216-541.221,199.558Zm-267.466-.244c.068,1.26,1.488,1.7,2.662.86,1.256-.934.949-1.784-.627-1.908-.424-.025-.763-.042-1.034-.042C-808.641,198.224-808.735,198.441-808.687,199.314Zm279.67-1.36c-.92.713-.9,2.623.044,2.4,1.2-.284,1.765-1.2,1.192-2.124a.833.833,0,0,0-.72-.457A.864.864,0,0,0-529.017,197.954Zm-1.183-7.306c.023.42-.474.892-1.076,1.034-1.378.325-6.383,6.044-6.322,7.163.057,1.049,1.423.515,2.562-.959a5.133,5.133,0,0,1,2.267-1.6c.688-.163,1.668-1.386,2.209-2.648.538-1.332,1.188-2.2,1.548-2,.356.129.606-.072.583-.492a1.135,1.135,0,0,0-.926-.986.9.9,0,0,0-.214-.026C-529.923,190.139-530.217,190.355-530.2,190.648Zm129.51,2.607c-2.009,1.537-2.087,1.7-.6,1.772.962.057,1.681.455,1.708.944.061,1.12.663.977,2.84-.671,2.341-1.829,2.417-3.619.042-2.42-1.186.635-1.714.546-1.759-.293-.023-.419-.084-.648-.3-.648C-399.04,191.939-399.594,192.348-400.691,193.255Zm-387.67-1.645c-.677.373-.407.521.54.3.95-.154,1.455-.485,1.1-.614a.739.739,0,0,0-.343-.064A2.754,2.754,0,0,0-788.36,191.61Zm263.261-4.931c-1.033.244-2.075,1.908-1.446,2.255s2.3-.968,2.255-1.808a.531.531,0,0,0-.589-.474A.958.958,0,0,0-525.1,186.679Zm-105.6-.595a1.008,1.008,0,0,0-.823.9c.02.35.469.6.9.5a1,1,0,0,0,.823-.9.55.55,0,0,0-.615-.532A1.245,1.245,0,0,0-630.7,186.084Zm158.627-.579a1.081,1.081,0,0,0-.819.973c.02.35.457.389.877.077.5-.332.83-.763.818-.973,0-.088-.143-.143-.372-.143A2.248,2.248,0,0,0-472.074,185.505Zm-43.089-6.843c-.43.1-.845.483-.826.833a1.185,1.185,0,0,0,.922.916c.528.088.857-.273.826-.832s-.322-.938-.744-.938A.775.775,0,0,0-515.164,178.663Zm133.313-7.576c-1.646.175-2.069.417-1.593,1.156a1.938,1.938,0,0,1-.327,1.991c-.569.772-.523,1.612.235,2.71,1.132,1.576,3.244,1.928,2.287.382-1.826-3.114-1.767-3.624-.045-4.03,2.44-.576,2.173-2.224-.137-2.225Q-381.631,171.069-381.851,171.086Zm-82.581,2.691c-.748.672-1.062,1.314-.792,1.462.184.17.942-.293,1.69-.966s1.062-1.314.792-1.463a.157.157,0,0,0-.11-.035A3.743,3.743,0,0,0-464.432,173.777Zm25.054-7.331a13.077,13.077,0,0,0-1.9,2.007l-1.547,2,1.907-1.8c1.573-1.525,2.12-2.228,1.7-2.228A.742.742,0,0,0-439.378,166.446Zm-21.879,1.62c-1.41,1.325-1.607,2.506-.4,2.221a2.071,2.071,0,0,0,1.137-1.544c.223-.691.357-1.431.436-1.591a.026.026,0,0,0-.029-.028A4.422,4.422,0,0,0-461.257,168.066Zm23.113.215a1.081,1.081,0,0,0-.819.973c.019.35.457.389.877.077.5-.332.83-.763.818-.973,0-.088-.143-.143-.372-.143A2.249,2.249,0,0,0-438.144,168.281Zm-18.635-2.832c-.741.813-.557.983,1.078.6s1.8-.637.987-1.084a1.714,1.714,0,0,0-.82-.257A1.753,1.753,0,0,0-456.78,165.449Zm49.562-5.531a2.074,2.074,0,0,0-.8,1.323c.023.419.457.388.876.077a1.8,1.8,0,0,0,.8-1.323c-.012-.219-.113-.321-.278-.321A1.22,1.22,0,0,0-407.218,159.918Zm-10.121-.163c.981.406,1.494.214,2.48-.869a6.55,6.55,0,0,1,2.353-1.618c.86-.2.85-.413.04-.86-.719-.4-1.322-.256-2.23.668a3.862,3.862,0,0,1-2.645,1.049q-.113-.007-.217-.007C-419,158.118-418.955,159.121-417.339,159.755Zm13.506-1.7a1.006,1.006,0,0,0-.823.9c.019.35.469.6.9.5a1,1,0,0,0,.823-.9.549.549,0,0,0-.614-.532A1.24,1.24,0,0,0-403.833,158.056Zm-185.218-4.275c-.677.373-.408.522.539.3.95-.153,1.456-.485,1.1-.614a.742.742,0,0,0-.343-.064A2.754,2.754,0,0,0-589.051,153.781Zm144.4-2.4c-1.377.325-2.6,1.889-1.79,2.336.719.4,3.079-1.081,3.033-1.921-.015-.271-.339-.469-.8-.469A1.91,1.91,0,0,0-444.646,151.385Zm32.246-6.548a2.312,2.312,0,0,0-.78,1.672.769.769,0,0,0,.914.777c.516-.122.826-.833.78-1.672-.031-.57-.241-.9-.552-.9A.671.671,0,0,0-412.4,144.837Zm-3.5-.238a1.008,1.008,0,0,0-.823.9c.02.35.469.6.9.5a1,1,0,0,0,.823-.9.55.55,0,0,0-.615-.532A1.246,1.246,0,0,0-415.9,144.6Zm12.088-5.334c-1.467.275-1.8.567-1.312,1.515.394.829.068,1.26-1.222,1.564-1.033.244-1.792.707-1.773,1.057.073,1.33,1.625,1.034,4.236-.645,2.784-1.8,3.064-3.569.936-3.569A5.332,5.332,0,0,0-403.812,139.265Zm-7.546.717c-.747.673-1.061,1.314-.791,1.463.184.169.942-.293,1.69-.967s1.062-1.314.792-1.462a.157.157,0,0,0-.11-.035A3.752,3.752,0,0,0-411.358,139.982Zm4.568-5.756c-1.058,1.384.294,2.2,1.715,1.084,1-.8,1.035-1.8-.025-2.05a.585.585,0,0,0-.139-.016A2.446,2.446,0,0,0-406.789,134.226Zm-5.4-9.431a2.559,2.559,0,0,0-1.2,1.915c.061,1.12.233,1.079,1.717-.477,1.225-1.244,1.527-1.981.945-1.981A3.748,3.748,0,0,0-412.187,124.795Zm7.012-5.7c-1.985,1.958-1.438,2.395.914.777,1.01-.664,1.574-1.506,1.211-1.775a.505.505,0,0,0-.355-.129A3.073,3.073,0,0,0-405.175,119.1Zm26.237-1.656c-1.032.244-2.075,1.908-1.446,2.255s2.3-.968,2.255-1.808a.531.531,0,0,0-.589-.474A.959.959,0,0,0-378.938,117.444Zm-10.92-11.6a26.881,26.881,0,0,0-3.99,3.564c-3.47,3.514-1.834,3.128,2.152-.508,2.1-1.842,2.96-3.1,2.153-3.1A1.405,1.405,0,0,0-389.858,105.844Z" transform="translate(1426 -85.044)"/></svg>