<?xml version="1.0" standalone="no"?>
<!DOCTYPE svg PUBLIC "-//W3C//DTD SVG 20010904//EN"
 "http://www.w3.org/TR/2001/REC-SVG-20010904/DTD/svg10.dtd">
<svg version="1.0" xmlns="http://www.w3.org/2000/svg"
 width="720.000000pt" height="720.000000pt" viewBox="0 0 720.000000 720.000000"
 preserveAspectRatio="xMidYMid meet">
<metadata>
Created by potrace 1.14, written by Peter Selinger 2001-2017
</metadata>
<g transform="translate(0.000000,720.000000) scale(0.100000,-0.100000)"
fill="#000000" stroke="none">
<path d="M3371 6560 c-12 -8 -20 -50 -11 -50 5 0 5 -13 0 -29 -4 -16 -6 -32
-4 -34 3 -3 7 -63 10 -133 2 -71 6 -138 8 -149 2 -11 7 -45 11 -75 4 -30 9
-64 11 -75 3 -11 7 -36 10 -55 11 -70 36 -156 56 -192 38 -67 83 -77 362 -83
200 -5 226 1 280 58 17 18 41 50 53 72 25 48 68 187 82 270 6 33 13 76 17 95
3 19 8 51 10 70 2 19 6 46 8 60 3 14 8 50 11 80 3 30 8 67 11 82 5 25 2 27
-48 38 -112 25 -176 31 -201 18 -28 -14 -42 -59 -52 -158 -4 -30 -8 -62 -10
-70 -2 -8 -7 -46 -11 -85 -3 -38 -8 -74 -11 -78 -2 -4 -7 -24 -9 -43 -7 -60
-49 -129 -89 -148 -56 -27 -150 -13 -183 27 -18 21 -24 101 -27 345 -1 128 -5
235 -8 238 -4 4 -51 5 -167 3 -8 0 -35 2 -58 3 -24 2 -47 1 -51 -2z"/>
<path d="M2855 6456 c-171 -47 -341 -124 -409 -186 -81 -75 -112 -190 -79
-300 30 -104 130 -277 197 -343 43 -42 92 -77 109 -77 7 0 19 -6 25 -12 22
-22 177 -15 257 11 166 56 283 131 320 204 23 47 24 58 20 166 -5 113 -6 129
-20 201 -4 19 -8 44 -9 55 -2 11 -6 29 -9 40 -3 11 -8 32 -11 47 -16 92 -78
160 -175 193 -73 24 -129 24 -216 1z m114 -281 c15 -9 35 -58 51 -123 32 -135
22 -177 -53 -218 -54 -30 -59 -31 -119 -41 -72 -11 -137 41 -193 154 -39 80
-40 103 -8 137 29 31 130 81 191 94 41 9 115 8 131 -3z"/>
<path d="M4527 6428 c-16 -12 -71 -154 -101 -263 -8 -27 -44 -147 -80 -265
-37 -118 -69 -231 -72 -251 l-5 -36 108 -46 c137 -57 379 -147 396 -147 16 0
97 149 97 177 0 11 -8 27 -18 36 -20 19 -127 68 -187 87 -52 16 -75 37 -75 68
0 14 39 122 86 241 112 279 125 318 110 331 -12 10 -216 80 -233 80 -5 0 -17
-6 -26 -12z"/>
<path d="M5333 5972 c-27 -31 -69 -84 -94 -117 -24 -33 -50 -66 -56 -75 -13
-15 -219 -295 -286 -386 l-37 -51 107 -99 c58 -55 129 -121 157 -147 28 -26
69 -65 91 -85 22 -21 50 -46 62 -56 l23 -19 85 89 c46 49 85 94 85 99 0 6 -22
28 -47 50 -81 69 -184 169 -194 187 -26 49 54 84 91 39 15 -18 130 -111 137
-111 4 0 26 19 48 43 75 79 74 70 18 135 -104 121 -130 172 -89 180 16 4 108
-52 146 -88 9 -8 36 -32 60 -52 25 -20 61 -50 80 -67 19 -17 37 -31 40 -31 3
0 40 33 82 74 l78 74 -109 109 c-60 59 -133 128 -162 153 -29 25 -60 52 -69
60 -9 9 -34 29 -55 45 -22 17 -42 32 -45 35 -7 7 -72 55 -87 63 -6 4 -31 -17
-60 -51z"/>
<path d="M1948 6000 c-142 -44 -462 -308 -520 -430 -16 -32 -16 -36 0 -63 23
-40 157 -166 302 -286 36 -29 67 -57 70 -61 3 -4 25 -22 50 -41 25 -19 56 -44
70 -56 14 -12 47 -39 74 -61 l48 -40 89 88 c49 48 89 94 89 101 0 8 -16 29
-35 48 -43 42 -53 76 -33 110 12 22 21 26 55 24 23 -1 62 -9 87 -17 52 -18
126 -21 126 -6 0 6 4 9 8 8 12 -4 163 96 190 125 l23 25 -22 15 c-12 9 -56 28
-98 43 -42 14 -85 30 -96 34 -26 11 -59 23 -65 25 -3 0 -37 11 -75 24 l-71 22
0 102 c-2 187 -14 230 -74 259 -34 17 -149 22 -192 8z m-34 -336 c18 -18 19
-21 17 -89 -1 -53 -17 -105 -32 -105 -13 0 -98 79 -110 102 -13 25 3 52 49 83
43 29 55 31 76 9z"/>
<path d="M3560 5337 c-3 -3 -52 -7 -110 -10 -58 -3 -115 -8 -126 -11 -12 -2
-39 -7 -60 -10 -66 -11 -141 -32 -199 -56 -11 -5 -46 -20 -78 -34 -32 -14 -59
-26 -61 -26 -7 0 -151 -82 -156 -89 -3 -3 -30 -23 -60 -43 -30 -21 -66 -45
-80 -55 -54 -36 -149 -120 -235 -207 -107 -108 -159 -171 -210 -257 -6 -9 -16
-23 -22 -31 -41 -49 -160 -318 -194 -438 -29 -104 -37 -140 -44 -194 -3 -21
-8 -42 -10 -46 -6 -10 -19 -185 -19 -260 0 -93 15 -257 29 -320 4 -14 8 -36
11 -50 4 -22 14 -65 19 -80 5 -16 17 -58 19 -71 3 -15 3 -14 54 -143 56 -141
129 -271 225 -398 34 -46 66 -88 72 -94 83 -90 129 -136 189 -188 82 -72 199
-156 215 -156 6 0 11 -4 11 -8 0 -10 176 -99 260 -133 103 -41 262 -83 355
-95 17 -2 44 -6 60 -8 17 -3 57 -8 90 -12 33 -3 63 -8 67 -10 4 -3 6 10 3 28
-7 48 -6 403 1 421 3 9 24 26 47 37 261 136 342 187 414 261 62 64 116 150
117 189 1 17 5 30 9 30 5 0 6 3 3 8 -2 4 -7 28 -11 52 -12 83 -91 226 -198
360 l-44 54 -234 2 c-139 1 -258 6 -292 14 -55 11 -146 46 -157 59 -3 4 -18
12 -34 19 -96 42 -235 159 -312 264 -72 96 -143 246 -159 338 -3 19 -7 36 -9
39 -8 13 -19 160 -18 241 3 340 141 567 422 699 60 28 172 64 230 75 14 3 40
10 59 15 19 6 37 9 39 6 3 -3 11 0 19 6 7 6 13 9 13 7 0 -3 21 0 47 7 l47 12
0 132 c1 123 -3 168 -14 158z m-1205 -1192 c4 -22 8 -53 10 -70 2 -16 7 -41
10 -55 2 -14 8 -41 11 -60 19 -111 51 -206 115 -335 60 -123 73 -143 164 -254
116 -143 319 -288 488 -351 114 -43 102 -3 100 -341 -1 -309 -8 -492 -18 -508
-3 -5 -18 -7 -33 -5 -36 7 -189 84 -275 140 -37 24 -71 44 -75 44 -5 0 -17 8
-28 18 -10 10 -44 34 -74 54 -64 42 -190 167 -251 248 -157 210 -253 435 -296
695 -10 56 -9 360 0 420 15 94 18 110 23 127 3 9 7 27 9 39 9 46 58 184 78
217 23 38 33 33 42 -23z m1402 -1230 c38 -16 78 -68 79 -103 1 -27 -27 -76
-56 -99 -8 -7 -54 -33 -102 -58 -61 -32 -89 -42 -94 -33 -4 6 -8 77 -9 157 -3
141 -2 146 19 152 31 8 126 -1 163 -16z"/>
<path d="M3682 5301 c2 -23 1 -41 -2 -41 -7 0 -4 -200 3 -207 4 -3 19 -7 34
-8 239 -25 362 -64 514 -160 68 -44 188 -155 232 -215 69 -96 123 -228 144
-358 9 -53 9 -299 1 -347 -16 -85 -20 -101 -34 -145 -46 -136 -208 -380 -252
-380 -4 0 -21 18 -38 41 -16 22 -34 46 -39 52 -25 29 -175 257 -175 267 0 5
-4 10 -8 10 -5 0 -14 10 -20 23 -6 12 -25 46 -41 74 -27 48 -32 83 -11 83 4 0
31 23 59 50 44 43 78 96 82 127 1 5 6 17 11 27 17 31 17 181 2 242 -36 136
-133 228 -264 249 -56 10 -100 16 -135 21 -22 3 -47 7 -56 10 -12 3 -20 -4
-26 -23 -11 -31 -11 -206 0 -239 4 -12 31 -32 65 -48 66 -32 102 -76 102 -125
0 -26 -9 -42 -41 -73 -58 -56 -198 -120 -199 -90 -1 4 -4 34 -7 67 -4 33 -7
167 -7 297 l-1 238 -56 -1 c-31 -1 -62 2 -68 5 -6 4 -11 3 -11 -2 0 -6 -14 -7
-32 -3 -18 3 -46 5 -63 4 -16 -2 -44 -3 -61 -3 l-30 -1 0 -597 1 -597 27 0
c15 -1 30 -4 34 -7 3 -4 16 -3 28 2 13 4 29 4 36 0 8 -5 21 -5 31 0 9 5 19 7
22 4 7 -7 128 -7 134 0 3 3 6 47 7 98 3 93 11 123 40 147 20 17 60 20 78 7 14
-10 138 -182 138 -191 0 -2 35 -57 78 -122 42 -65 79 -122 82 -128 8 -17 44
-70 51 -75 3 -3 8 -9 10 -15 8 -19 164 -250 172 -253 4 -2 7 -8 7 -13 0 -5 16
-32 35 -59 19 -27 35 -54 35 -60 0 -5 4 -10 8 -10 5 0 15 -12 23 -27 8 -16 16
-30 19 -33 15 -15 70 -102 70 -111 0 -6 8 -8 18 -5 33 11 272 137 272 144 -1
4 -20 34 -45 67 -80 109 -172 250 -179 273 -10 30 20 77 106 166 156 161 248
325 302 541 21 85 51 284 48 328 -5 95 122 -189 144 -322 3 -18 8 -43 11 -55
13 -46 11 -391 -3 -456 -7 -36 -16 -81 -19 -100 -27 -166 -143 -426 -256 -571
-129 -166 -405 -388 -551 -443 -15 -6 -28 -14 -28 -18 0 -4 -8 -8 -18 -8 -10
0 -22 -4 -27 -8 -9 -8 -124 -53 -150 -59 -5 -1 -35 -9 -65 -18 -55 -15 -164
-28 -250 -29 -42 -1 -45 -3 -50 -31 -3 -16 -3 -44 1 -60 3 -17 2 -41 -2 -53
-5 -12 -4 -24 1 -27 6 -3 6 -15 0 -29 -5 -13 -6 -27 -2 -30 3 -4 6 -19 7 -34
l0 -27 79 0 c82 -1 303 39 384 69 23 8 42 13 42 11 0 -2 32 9 70 25 39 16 70
27 70 24 0 -8 203 100 265 141 195 128 346 273 484 462 145 200 267 494 297
713 3 25 8 48 10 51 7 12 18 174 18 259 -1 125 -11 223 -35 335 -6 28 -13 61
-15 75 -27 142 -135 388 -240 544 -158 238 -324 401 -579 568 -178 117 -371
198 -510 214 -22 3 -51 7 -65 10 -14 3 -45 7 -70 8 -25 2 -83 7 -129 11 l-83
7 4 -41z"/>
<path d="M1138 5213 c-75 -113 -196 -350 -258 -508 -41 -103 -118 -333 -125
-376 -3 -18 -8 -36 -11 -41 -3 -4 -7 -17 -10 -28 -2 -11 -6 -28 -8 -37 -5 -24
-17 -109 -21 -158 -2 -22 -7 -65 -10 -95 -20 -190 -20 -703 -1 -829 3 -14 8
-46 11 -71 4 -25 9 -54 12 -65 2 -11 8 -45 14 -75 13 -66 25 -90 44 -90 30 0
39 64 22 165 -3 17 -8 55 -12 85 -4 30 -8 66 -11 80 -21 138 -21 580 1 790 8
80 17 144 30 235 14 92 115 425 149 490 9 17 16 33 16 37 0 4 52 112 115 240
63 128 116 244 118 258 4 42 -35 38 -65 -7z"/>
<path d="M6127 5233 c-18 -17 -12 -30 109 -263 115 -219 198 -445 258 -700 25
-105 34 -147 40 -185 2 -11 6 -38 10 -60 36 -210 40 -530 11 -785 -15 -129
-19 -161 -30 -210 -2 -14 -8 -57 -11 -96 -5 -59 -4 -72 10 -77 18 -7 44 15 56
49 13 32 38 160 45 224 3 30 8 73 10 95 19 177 24 442 11 615 -6 83 -8 98 -21
190 -17 120 -78 393 -103 460 -3 8 -6 17 -7 20 -4 19 -40 120 -50 145 -7 17
-28 66 -46 110 -64 153 -174 355 -236 433 -34 42 -44 48 -56 35z"/>
<path d="M1390 5055 c0 -9 16 -30 35 -48 19 -17 35 -34 35 -37 0 -3 -24 -5
-52 -5 -46 0 -53 -3 -56 -21 -4 -27 36 -66 105 -103 69 -38 109 -47 116 -27 6
16 -11 33 -60 62 -34 19 -47 41 -15 26 26 -12 93 -5 111 12 13 14 10 20 -25
53 -68 65 -194 122 -194 88z"/>
<path d="M5822 5034 c-20 -19 -53 -45 -72 -57 -40 -26 -51 -65 -24 -92 16 -16
18 -16 30 6 6 13 10 35 8 49 l-5 25 23 -28 23 -29 63 42 c63 42 73 61 50 93
-24 32 -57 29 -96 -9z"/>
<path d="M5928 4924 c-26 -13 -39 -42 -53 -112 -9 -44 -39 -40 -43 6 -4 35 -5
36 -32 22 -18 -10 -21 -31 -11 -102 2 -14 56 -34 83 -30 35 4 64 45 70 98 7
54 15 69 34 53 8 -7 11 -20 8 -34 -7 -29 32 -57 47 -34 22 35 -6 111 -48 132
-24 13 -32 13 -55 1z"/>
<path d="M1305 4832 c-25 -5 -74 -50 -71 -65 6 -34 21 -63 40 -79 44 -38 84
-57 125 -63 35 -4 46 -1 66 20 75 74 -43 212 -160 187z m74 -81 c43 -22 65
-46 57 -60 -9 -14 -91 18 -129 51 l-32 27 33 1 c18 0 50 -9 71 -19z"/>
<path d="M1800 4768 c-28 -30 -107 -180 -160 -303 -31 -72 -101 -257 -105
-279 -3 -10 -9 -33 -14 -50 -9 -29 -23 -97 -36 -171 -18 -112 -27 -551 -12
-690 11 -115 38 -197 72 -225 15 -13 19 -12 30 3 9 13 10 30 3 65 -5 26 -11
62 -14 81 -3 18 -7 43 -10 55 -10 52 -18 213 -18 346 1 196 13 316 44 430 7
25 13 50 14 55 4 15 26 98 31 113 3 7 5 14 5 17 0 3 6 21 14 40 8 19 12 35 9
35 -3 0 -1 6 4 13 5 6 20 41 32 77 12 36 58 137 102 225 77 156 88 195 53 195
-7 0 -27 -15 -44 -32z"/>
<path d="M5463 4785 c-7 -21 19 -87 86 -220 95 -186 149 -323 178 -455 33
-151 38 -223 37 -550 0 -168 -3 -327 -7 -355 -19 -127 -19 -152 -1 -159 9 -3
22 -2 29 4 16 13 41 101 50 175 2 17 4 30 5 30 3 0 7 43 16 150 27 329 -18
656 -133 965 -72 193 -207 430 -245 430 -5 0 -11 -7 -15 -15z"/>
<path d="M6014 4736 c-23 -7 -69 -28 -103 -47 -59 -33 -79 -59 -43 -59 9 0 28
-9 42 -19 18 -15 21 -22 13 -33 -28 -34 6 -140 48 -151 20 -5 21 -10 15 -66
-8 -73 -3 -76 72 -27 28 19 52 33 52 30 0 -5 47 35 76 66 25 25 31 54 15 64
-15 9 -100 10 -180 2 l-73 -8 30 44 c17 24 37 49 44 56 20 16 60 21 81 10 23
-12 58 7 50 28 -3 8 -24 24 -46 36 -34 17 -38 22 -24 30 18 9 24 48 8 48 -5 0
-15 2 -23 4 -7 3 -31 -1 -54 -8z m86 -300 c0 -7 -10 -16 -22 -19 -27 -7 -32
-3 -25 18 8 19 47 20 47 1z"/>
<path d="M1182 4627 c-10 -11 -3 -20 36 -43 100 -63 175 -90 191 -70 17 20
-14 48 -89 83 -84 40 -123 48 -138 30z"/>
<path d="M1131 4508 c-10 -24 -24 -60 -29 -81 -9 -32 -8 -38 8 -47 15 -8 23
-5 40 17 l21 26 53 -22 c91 -37 167 -30 124 13 -14 13 -81 46 -94 46 -16 0
-84 53 -84 66 0 31 -21 21 -39 -18z"/>
<path d="M6191 4358 c4 -29 -3 -37 -38 -49 -21 -6 -42 -14 -48 -18 -5 -3 -16
-6 -22 -7 -29 -5 -73 -30 -73 -41 0 -15 7 -16 158 -17 l113 -1 -7 29 c-10 47
-48 110 -67 114 -11 2 -18 -2 -16 -10z"/>
<path d="M1175 4320 c-11 -4 -25 -5 -31 -3 -7 2 -28 -3 -48 -11 -61 -26 -45
-59 62 -124 29 -18 57 -32 62 -32 6 0 10 -4 10 -9 0 -5 8 -11 18 -15 9 -3 22
-8 28 -11 8 -4 7 8 -1 42 -14 55 -7 83 24 99 58 30 43 52 -40 60 -29 3 -55 7
-58 8 -3 2 -15 0 -26 -4z m38 -66 c-2 -5 -7 -9 -13 -8 -5 1 -17 2 -26 3 -8 0
-12 5 -9 11 7 12 51 7 48 -6z"/>
<path d="M6229 4176 c-2 -2 -20 -6 -39 -9 -60 -8 -118 -27 -135 -44 -20 -19
-13 -94 11 -132 19 -28 30 -19 38 34 9 57 22 65 50 31 27 -35 56 -30 56 8 0
15 8 30 19 36 19 10 25 4 36 -40 9 -30 18 -39 35 -30 12 6 16 18 14 37 -11 78
-28 113 -57 113 -13 0 -26 -2 -28 -4z"/>
<path d="M1016 4121 c-14 -22 26 -44 120 -66 101 -24 135 -26 141 -8 12 36
-241 108 -261 74z"/>
<path d="M1028 4006 c-38 -28 -46 -103 -14 -135 23 -22 196 -23 217 -1 33 35
22 93 -23 120 -26 16 -33 16 -44 5 -20 -20 -17 -30 11 -43 71 -32 -24 -75
-112 -50 -40 11 -41 17 -8 52 14 15 25 33 25 40 0 18 -33 26 -52 12z"/>
<path d="M6108 3964 c-9 -3 -20 -20 -24 -37 -7 -30 -7 -47 1 -87 2 -8 4 -18 4
-22 1 -9 41 -22 66 -21 48 0 115 16 144 34 29 18 32 23 30 65 -2 34 -8 48 -23
56 -21 12 -169 20 -198 12z m171 -53 c19 -12 6 -41 -19 -41 -13 0 -20 7 -20
18 0 31 14 39 39 23z"/>
<path d="M1028 3782 c-45 -4 -59 -19 -63 -71 -6 -76 43 -110 155 -106 56 3 67
6 88 30 18 21 22 34 17 59 -11 55 -15 64 -33 71 -32 13 -113 22 -164 17z m120
-63 c32 -11 48 -34 31 -44 -21 -13 -123 -6 -149 10 -14 9 -12 32 3 38 22 9 83
7 115 -4z"/>
<path d="M6145 3750 c-43 -17 -56 -46 -46 -103 2 -12 55 -62 69 -65 103 -21
192 25 192 98 0 57 -25 73 -118 76 -42 1 -86 -1 -97 -6z m146 -56 c18 -11 8
-34 -13 -35 -103 -7 -148 2 -128 26 6 7 21 16 33 18 26 5 96 -1 108 -9z"/>
<path d="M1100 3538 c-15 -18 -40 -46 -55 -63 -28 -33 -28 -33 -9 37 6 20 -27
41 -50 32 -9 -3 -17 -14 -17 -23 -1 -9 -2 -23 -3 -31 -1 -8 6 -31 16 -51 33
-70 110 -68 136 4 9 24 22 38 42 46 27 9 30 8 30 -10 0 -10 -4 -19 -9 -19 -14
0 -32 -58 -20 -65 35 -22 77 47 64 105 -7 33 -48 70 -77 70 -10 0 -32 -15 -48
-32z"/>
<path d="M6116 3561 c-3 -5 -4 -33 -1 -62 3 -36 0 -58 -9 -68 -19 -23 -34 -94
-25 -119 8 -20 26 -29 75 -36 10 -2 20 -10 22 -19 3 -16 -23 -29 -71 -32 -36
-3 -43 -11 -28 -29 14 -17 63 -27 149 -32 57 -3 67 0 88 21 31 31 33 86 4 115
-11 11 -26 20 -32 21 -7 0 -22 2 -33 4 -11 2 -36 6 -56 8 -19 2 -43 9 -54 14
-17 10 -16 12 11 26 16 8 46 18 67 21 87 14 138 53 114 87 -17 22 -50 38 -135
65 -86 28 -79 26 -86 15z m118 -77 c23 -9 20 -44 -3 -44 -26 0 -44 23 -29 38
14 14 12 14 32 6z"/>
<path d="M1140 3354 c-8 -3 -32 -31 -52 -64 -43 -70 -61 -76 -57 -22 3 53 1
62 -15 62 -17 0 -26 -31 -26 -91 0 -39 4 -47 24 -57 39 -18 116 4 116 32 0 20
40 67 51 60 6 -3 7 -25 3 -50 l-6 -44 30 11 c16 5 33 20 39 32 17 40 -9 102
-54 125 -22 12 -27 13 -53 6z"/>
<path d="M1156 3126 c-110 -60 -141 -86 -132 -113 11 -36 137 -57 264 -44 16
1 15 16 -1 33 -40 42 -51 89 -33 146 10 31 -6 27 -98 -22z m7 -103 c-14 -11
-20 -10 -33 3 -13 14 -13 17 5 30 18 13 21 13 33 -3 11 -15 10 -20 -5 -30z"/>
<path d="M6057 3133 c-7 -15 0 -98 11 -125 13 -33 56 -56 117 -65 73 -10 104
19 121 111 6 33 -10 42 -107 66 -88 21 -135 25 -142 13z m161 -84 c22 -7 32
-17 32 -31 0 -18 -5 -20 -47 -15 -74 8 -138 42 -111 58 13 8 84 2 126 -12z"/>
<path d="M5631 2748 c-8 -13 -39 -70 -69 -128 -61 -116 -141 -254 -184 -315
-119 -168 -130 -188 -116 -213 18 -35 138 -142 158 -142 19 0 55 36 99 103 30
44 77 97 86 97 12 0 130 -73 145 -90 3 -3 61 -43 130 -89 69 -47 127 -89 128
-93 2 -4 8 -8 14 -8 5 0 24 -11 42 -25 18 -14 35 -25 39 -25 9 0 138 179 152
213 24 57 7 77 -131 156 -69 39 -131 71 -139 71 -7 0 -15 4 -17 8 -1 4 -33 25
-70 45 -105 59 -121 90 -83 172 34 74 72 181 68 189 -6 9 -154 77 -175 80 -3
1 -10 4 -14 9 -15 15 -50 6 -63 -15z"/>
<path d="M1379 2736 c-2 -2 -20 -7 -39 -9 -19 -3 -35 -6 -35 -7 0 -1 -9 -3
-20 -5 -12 -2 -39 -12 -60 -21 -22 -10 -42 -18 -45 -18 -16 -3 -124 -70 -154
-97 -55 -48 -99 -146 -100 -223 -1 -57 4 -73 51 -167 67 -136 138 -243 197
-300 58 -55 61 -78 24 -234 -20 -84 -16 -144 12 -167 22 -18 80 -25 162 -19
29 2 49 46 73 157 30 137 39 156 80 178 19 11 35 23 35 28 0 4 6 8 14 8 8 0
16 3 18 8 2 4 25 25 53 47 69 56 195 186 195 202 0 7 4 13 9 13 14 0 47 92 50
140 4 70 -40 185 -111 293 -21 32 -38 61 -38 63 0 3 -18 23 -39 43 -64 61
-121 83 -232 87 -53 2 -98 2 -100 0z m142 -269 c25 -26 100 -147 108 -176 2
-9 4 -33 4 -53 1 -44 -15 -62 -94 -106 -125 -70 -188 -48 -259 90 -46 92 -54
155 -22 192 22 24 122 74 170 85 42 9 57 4 93 -32z"/>
<path d="M2063 2096 c-6 -6 -40 -39 -75 -72 -182 -176 -333 -363 -371 -460
-21 -54 -16 -147 11 -200 34 -67 149 -166 290 -251 181 -108 297 -89 424 69
77 95 210 306 264 418 29 59 19 79 -70 142 l-70 49 -18 -23 c-10 -13 -57 -78
-104 -146 -98 -141 -108 -154 -151 -199 -66 -66 -119 -75 -194 -31 -72 43 -91
97 -53 153 13 20 24 39 24 43 0 4 11 19 25 34 14 15 25 31 25 37 0 5 3 11 8
13 4 2 25 26 47 53 21 28 42 52 45 55 3 3 28 34 55 70 27 36 53 68 58 71 17
12 -5 50 -61 108 -67 68 -92 84 -109 67z"/>
<path d="M5137 2015 c-29 -15 -36 -20 -104 -87 l-41 -40 121 -152 c135 -169
217 -291 217 -322 0 -47 -70 -120 -124 -130 -79 -14 -93 -9 -157 58 -32 34
-59 65 -59 71 0 5 -8 19 -17 32 -24 31 -33 44 -115 170 -39 61 -72 112 -74
114 -7 8 -83 -27 -138 -64 -41 -27 -56 -43 -56 -60 0 -12 25 -60 56 -106 31
-46 81 -129 111 -184 82 -147 141 -232 184 -266 22 -17 39 -28 39 -24 0 4 7 2
16 -6 25 -21 207 -20 270 1 165 57 287 174 337 325 18 53 21 133 8 183 -11 40
-73 132 -127 189 -141 148 -234 240 -300 295 -18 15 -23 16 -47 3z"/>
<path d="M2711 1524 c-28 -58 -51 -109 -51 -114 0 -6 -4 -10 -10 -10 -5 0 -9
-3 -8 -7 2 -5 -7 -28 -19 -53 -12 -25 -65 -135 -117 -244 -53 -110 -99 -212
-101 -227 -5 -25 1 -31 52 -61 59 -34 136 -64 185 -72 26 -4 29 -1 79 127 66
170 196 525 219 599 20 65 1 88 -122 142 l-55 25 -52 -105z"/>
<path d="M4455 1589 c-11 -4 -108 -36 -215 -70 -107 -35 -197 -64 -199 -65 -1
-2 2 -35 9 -75 7 -39 13 -82 14 -95 0 -13 3 -24 6 -24 3 0 5 -10 6 -22 0 -13
15 -108 33 -213 18 -104 35 -201 37 -215 7 -58 34 -153 47 -174 12 -18 23 -22
54 -20 86 6 191 32 363 88 143 46 196 71 202 93 6 24 -34 148 -60 182 -28 38
-66 36 -222 -9 -132 -38 -170 -43 -177 -24 -3 8 0 21 6 28 13 16 77 48 104 53
42 7 88 34 96 56 11 28 4 91 -13 127 -14 31 -38 33 -107 10 -82 -28 -158 -14
-142 26 6 15 80 53 117 60 14 2 37 9 51 14 14 5 25 6 25 3 0 -4 5 -2 12 5 7 7
20 12 29 12 35 0 41 24 24 92 -21 78 -53 155 -68 161 -7 2 -21 1 -32 -4z"/>
<path d="M3477 1444 c-3 -3 -41 -7 -85 -9 -74 -3 -122 -16 -122 -33 0 -4 -7
-39 -16 -77 -8 -39 -17 -79 -19 -90 -2 -11 -5 -31 -8 -45 -3 -14 -8 -43 -12
-65 -8 -41 -12 -60 -19 -94 -3 -11 -8 -41 -12 -68 -9 -53 -11 -62 -13 -65 -3
-3 -5 -17 -20 -103 -5 -27 -11 -59 -14 -70 -2 -11 -7 -41 -11 -67 -7 -46 -7
-46 26 -57 73 -23 200 -37 253 -27 44 9 60 39 64 118 2 29 41 58 148 108 56
27 130 68 165 91 69 47 178 154 178 176 0 7 4 13 9 13 25 0 35 134 14 195 -27
78 -93 116 -263 151 -14 2 -68 7 -120 10 -52 2 -100 6 -107 9 -6 2 -13 1 -16
-1z m135 -290 c37 -19 41 -29 24 -62 -37 -71 -144 -132 -147 -84 -5 59 4 126
19 144 17 20 66 21 104 2z"/>
</g>
</svg>
