<svg xmlns="http://www.w3.org/2000/svg" width="37" height="37" viewBox="0 0 37 37"><g transform="translate(-196 -1305)"><path d="M18.5,2A16.5,16.5,0,0,0,6.833,30.167,16.5,16.5,0,1,0,30.167,6.833,16.392,16.392,0,0,0,18.5,2m0-2A18.5,18.5,0,1,1,0,18.5,18.5,18.5,0,0,1,18.5,0Z" transform="translate(196 1305)"/><path d="M18.868,27.851V17.216h3.587l.533-4.164H18.867V10.4c0-1.2.335-2.024,2.06-2.024h2.185V4.665a28.982,28.982,0,0,0-3.2-.165c-3.171,0-5.348,1.936-5.348,5.489v3.055H11v4.164H14.57V27.851Z" transform="translate(196.947 1307.322)"/></g></svg>