<svg xmlns="http://www.w3.org/2000/svg" width="31.5" height="31.5" viewBox="0 0 31.5 31.5"><g transform="translate(-2.25 -2.25)"><path d="M24.562,4.875a6.583,6.583,0,0,1,6.563,6.563V24.563a6.583,6.583,0,0,1-6.563,6.563H11.438a6.583,6.583,0,0,1-6.563-6.563V11.438a6.583,6.583,0,0,1,6.563-6.563H24.563m0-2.625H11.438A9.214,9.214,0,0,0,2.25,11.438V24.563a9.214,9.214,0,0,0,9.188,9.187H24.563a9.214,9.214,0,0,0,9.187-9.188V11.438A9.214,9.214,0,0,0,24.562,2.25Z"/><path d="M26.531,11.438a1.965,1.965,0,1,1,1.393-.576,1.969,1.969,0,0,1-1.393.576Z"/><path d="M18,12.75A5.25,5.25,0,1,1,12.75,18,5.25,5.25,0,0,1,18,12.75m0-2.625A7.875,7.875,0,1,0,25.875,18,7.875,7.875,0,0,0,18,10.125Z"/></g></svg>