<svg xmlns="http://www.w3.org/2000/svg" width="35.987" height="25.151" viewBox="0 0 35.987 25.151"><path d="M35.242,9.308A4.511,4.511,0,0,0,32.11,6.176c-2.805-.752-14.094-.752-14.094-.752S6.755,5.409,3.922,6.176A4.511,4.511,0,0,0,.79,9.308a46.87,46.87,0,0,0-.783,8.707A46.87,46.87,0,0,0,.79,26.69a4.511,4.511,0,0,0,3.132,3.132c2.8.753,14.094.753,14.094.753s11.259,0,14.094-.753a4.511,4.511,0,0,0,3.132-3.132,46.87,46.87,0,0,0,.75-8.675,46.87,46.87,0,0,0-.75-8.707ZM14.413,23.4V12.612l9.4,5.4Z" transform="translate(-0.007 -5.424)"/></svg>